<?xml version="1.0" encoding="utf-8"?>
<svg xmlns="http://www.w3.org/2000/svg" xmlns:xlink="http://www.w3.org/1999/xlink" width="600" height="400" viewBox="0 0 2400 1600">
<defs>
  <clipPath id="clip620">
    <rect x="0" y="0" width="2400" height="1600"/>
  </clipPath>
</defs>
<path clip-path="url(#clip620)" d="M0 1600 L2400 1600 L2400 0 L0 0  Z" fill="#ffffff" fill-rule="evenodd" fill-opacity="1"/>
<defs>
  <clipPath id="clip621">
    <rect x="480" y="0" width="1681" height="1600"/>
  </clipPath>
</defs>
<path clip-path="url(#clip620)" d="M217.317 1427.5 L2352.76 1427.5 L2352.76 47.2441 L217.317 47.2441  Z" fill="#ffffff" fill-rule="evenodd" fill-opacity="1"/>
<defs>
  <clipPath id="clip622">
    <rect x="217" y="47" width="2136" height="1381"/>
  </clipPath>
</defs>
<polyline clip-path="url(#clip622)" style="stroke:#000000; stroke-linecap:round; stroke-linejoin:round; stroke-width:2; stroke-opacity:0.05; fill:none" points="378.482,1427.5 378.482,47.2441 "/>
<polyline clip-path="url(#clip622)" style="stroke:#000000; stroke-linecap:round; stroke-linejoin:round; stroke-width:2; stroke-opacity:0.05; fill:none" points="479.211,1427.5 479.211,47.2441 "/>
<polyline clip-path="url(#clip622)" style="stroke:#000000; stroke-linecap:round; stroke-linejoin:round; stroke-width:2; stroke-opacity:0.05; fill:none" points="579.939,1427.5 579.939,47.2441 "/>
<polyline clip-path="url(#clip622)" style="stroke:#000000; stroke-linecap:round; stroke-linejoin:round; stroke-width:2; stroke-opacity:0.05; fill:none" points="680.667,1427.5 680.667,47.2441 "/>
<polyline clip-path="url(#clip622)" style="stroke:#000000; stroke-linecap:round; stroke-linejoin:round; stroke-width:2; stroke-opacity:0.05; fill:none" points="882.124,1427.5 882.124,47.2441 "/>
<polyline clip-path="url(#clip622)" style="stroke:#000000; stroke-linecap:round; stroke-linejoin:round; stroke-width:2; stroke-opacity:0.05; fill:none" points="982.852,1427.5 982.852,47.2441 "/>
<polyline clip-path="url(#clip622)" style="stroke:#000000; stroke-linecap:round; stroke-linejoin:round; stroke-width:2; stroke-opacity:0.05; fill:none" points="1083.58,1427.5 1083.58,47.2441 "/>
<polyline clip-path="url(#clip622)" style="stroke:#000000; stroke-linecap:round; stroke-linejoin:round; stroke-width:2; stroke-opacity:0.05; fill:none" points="1184.31,1427.5 1184.31,47.2441 "/>
<polyline clip-path="url(#clip622)" style="stroke:#000000; stroke-linecap:round; stroke-linejoin:round; stroke-width:2; stroke-opacity:0.05; fill:none" points="1385.76,1427.5 1385.76,47.2441 "/>
<polyline clip-path="url(#clip622)" style="stroke:#000000; stroke-linecap:round; stroke-linejoin:round; stroke-width:2; stroke-opacity:0.05; fill:none" points="1486.49,1427.5 1486.49,47.2441 "/>
<polyline clip-path="url(#clip622)" style="stroke:#000000; stroke-linecap:round; stroke-linejoin:round; stroke-width:2; stroke-opacity:0.05; fill:none" points="1587.22,1427.5 1587.22,47.2441 "/>
<polyline clip-path="url(#clip622)" style="stroke:#000000; stroke-linecap:round; stroke-linejoin:round; stroke-width:2; stroke-opacity:0.05; fill:none" points="1687.95,1427.5 1687.95,47.2441 "/>
<polyline clip-path="url(#clip622)" style="stroke:#000000; stroke-linecap:round; stroke-linejoin:round; stroke-width:2; stroke-opacity:0.05; fill:none" points="1889.41,1427.5 1889.41,47.2441 "/>
<polyline clip-path="url(#clip622)" style="stroke:#000000; stroke-linecap:round; stroke-linejoin:round; stroke-width:2; stroke-opacity:0.05; fill:none" points="1990.13,1427.5 1990.13,47.2441 "/>
<polyline clip-path="url(#clip622)" style="stroke:#000000; stroke-linecap:round; stroke-linejoin:round; stroke-width:2; stroke-opacity:0.05; fill:none" points="2090.86,1427.5 2090.86,47.2441 "/>
<polyline clip-path="url(#clip622)" style="stroke:#000000; stroke-linecap:round; stroke-linejoin:round; stroke-width:2; stroke-opacity:0.05; fill:none" points="2191.59,1427.5 2191.59,47.2441 "/>
<polyline clip-path="url(#clip622)" style="stroke:#000000; stroke-linecap:round; stroke-linejoin:round; stroke-width:2; stroke-opacity:0.05; fill:none" points="217.317,1300.94 2352.76,1300.94 "/>
<polyline clip-path="url(#clip622)" style="stroke:#000000; stroke-linecap:round; stroke-linejoin:round; stroke-width:2; stroke-opacity:0.05; fill:none" points="217.317,1211.74 2352.76,1211.74 "/>
<polyline clip-path="url(#clip622)" style="stroke:#000000; stroke-linecap:round; stroke-linejoin:round; stroke-width:2; stroke-opacity:0.05; fill:none" points="217.317,1148.46 2352.76,1148.46 "/>
<polyline clip-path="url(#clip622)" style="stroke:#000000; stroke-linecap:round; stroke-linejoin:round; stroke-width:2; stroke-opacity:0.05; fill:none" points="217.317,1099.37 2352.76,1099.37 "/>
<polyline clip-path="url(#clip622)" style="stroke:#000000; stroke-linecap:round; stroke-linejoin:round; stroke-width:2; stroke-opacity:0.05; fill:none" points="217.317,1059.26 2352.76,1059.26 "/>
<polyline clip-path="url(#clip622)" style="stroke:#000000; stroke-linecap:round; stroke-linejoin:round; stroke-width:2; stroke-opacity:0.05; fill:none" points="217.317,1025.35 2352.76,1025.35 "/>
<polyline clip-path="url(#clip622)" style="stroke:#000000; stroke-linecap:round; stroke-linejoin:round; stroke-width:2; stroke-opacity:0.05; fill:none" points="217.317,995.978 2352.76,995.978 "/>
<polyline clip-path="url(#clip622)" style="stroke:#000000; stroke-linecap:round; stroke-linejoin:round; stroke-width:2; stroke-opacity:0.05; fill:none" points="217.317,970.068 2352.76,970.068 "/>
<polyline clip-path="url(#clip622)" style="stroke:#000000; stroke-linecap:round; stroke-linejoin:round; stroke-width:2; stroke-opacity:0.05; fill:none" points="217.317,794.409 2352.76,794.409 "/>
<polyline clip-path="url(#clip622)" style="stroke:#000000; stroke-linecap:round; stroke-linejoin:round; stroke-width:2; stroke-opacity:0.05; fill:none" points="217.317,705.214 2352.76,705.214 "/>
<polyline clip-path="url(#clip622)" style="stroke:#000000; stroke-linecap:round; stroke-linejoin:round; stroke-width:2; stroke-opacity:0.05; fill:none" points="217.317,641.928 2352.76,641.928 "/>
<polyline clip-path="url(#clip622)" style="stroke:#000000; stroke-linecap:round; stroke-linejoin:round; stroke-width:2; stroke-opacity:0.05; fill:none" points="217.317,592.84 2352.76,592.84 "/>
<polyline clip-path="url(#clip622)" style="stroke:#000000; stroke-linecap:round; stroke-linejoin:round; stroke-width:2; stroke-opacity:0.05; fill:none" points="217.317,552.733 2352.76,552.733 "/>
<polyline clip-path="url(#clip622)" style="stroke:#000000; stroke-linecap:round; stroke-linejoin:round; stroke-width:2; stroke-opacity:0.05; fill:none" points="217.317,518.822 2352.76,518.822 "/>
<polyline clip-path="url(#clip622)" style="stroke:#000000; stroke-linecap:round; stroke-linejoin:round; stroke-width:2; stroke-opacity:0.05; fill:none" points="217.317,489.447 2352.76,489.447 "/>
<polyline clip-path="url(#clip622)" style="stroke:#000000; stroke-linecap:round; stroke-linejoin:round; stroke-width:2; stroke-opacity:0.05; fill:none" points="217.317,463.537 2352.76,463.537 "/>
<polyline clip-path="url(#clip622)" style="stroke:#000000; stroke-linecap:round; stroke-linejoin:round; stroke-width:2; stroke-opacity:0.05; fill:none" points="217.317,287.878 2352.76,287.878 "/>
<polyline clip-path="url(#clip622)" style="stroke:#000000; stroke-linecap:round; stroke-linejoin:round; stroke-width:2; stroke-opacity:0.05; fill:none" points="217.317,198.683 2352.76,198.683 "/>
<polyline clip-path="url(#clip622)" style="stroke:#000000; stroke-linecap:round; stroke-linejoin:round; stroke-width:2; stroke-opacity:0.05; fill:none" points="217.317,135.397 2352.76,135.397 "/>
<polyline clip-path="url(#clip622)" style="stroke:#000000; stroke-linecap:round; stroke-linejoin:round; stroke-width:2; stroke-opacity:0.05; fill:none" points="217.317,86.3096 2352.76,86.3096 "/>
<polyline clip-path="url(#clip622)" style="stroke:#000000; stroke-linecap:round; stroke-linejoin:round; stroke-width:2; stroke-opacity:0.1; fill:none" points="277.754,1427.5 277.754,47.2441 "/>
<polyline clip-path="url(#clip622)" style="stroke:#000000; stroke-linecap:round; stroke-linejoin:round; stroke-width:2; stroke-opacity:0.1; fill:none" points="781.395,1427.5 781.395,47.2441 "/>
<polyline clip-path="url(#clip622)" style="stroke:#000000; stroke-linecap:round; stroke-linejoin:round; stroke-width:2; stroke-opacity:0.1; fill:none" points="1285.04,1427.5 1285.04,47.2441 "/>
<polyline clip-path="url(#clip622)" style="stroke:#000000; stroke-linecap:round; stroke-linejoin:round; stroke-width:2; stroke-opacity:0.1; fill:none" points="1788.68,1427.5 1788.68,47.2441 "/>
<polyline clip-path="url(#clip622)" style="stroke:#000000; stroke-linecap:round; stroke-linejoin:round; stroke-width:2; stroke-opacity:0.1; fill:none" points="2292.32,1427.5 2292.32,47.2441 "/>
<polyline clip-path="url(#clip622)" style="stroke:#000000; stroke-linecap:round; stroke-linejoin:round; stroke-width:2; stroke-opacity:0.1; fill:none" points="217.317,946.89 2352.76,946.89 "/>
<polyline clip-path="url(#clip622)" style="stroke:#000000; stroke-linecap:round; stroke-linejoin:round; stroke-width:2; stroke-opacity:0.1; fill:none" points="217.317,440.359 2352.76,440.359 "/>
<polyline clip-path="url(#clip620)" style="stroke:#000000; stroke-linecap:round; stroke-linejoin:round; stroke-width:4; stroke-opacity:1; fill:none" points="217.317,1427.5 2352.76,1427.5 "/>
<polyline clip-path="url(#clip620)" style="stroke:#000000; stroke-linecap:round; stroke-linejoin:round; stroke-width:4; stroke-opacity:1; fill:none" points="277.754,1427.5 277.754,1408.6 "/>
<polyline clip-path="url(#clip620)" style="stroke:#000000; stroke-linecap:round; stroke-linejoin:round; stroke-width:4; stroke-opacity:1; fill:none" points="781.395,1427.5 781.395,1408.6 "/>
<polyline clip-path="url(#clip620)" style="stroke:#000000; stroke-linecap:round; stroke-linejoin:round; stroke-width:4; stroke-opacity:1; fill:none" points="1285.04,1427.5 1285.04,1408.6 "/>
<polyline clip-path="url(#clip620)" style="stroke:#000000; stroke-linecap:round; stroke-linejoin:round; stroke-width:4; stroke-opacity:1; fill:none" points="1788.68,1427.5 1788.68,1408.6 "/>
<polyline clip-path="url(#clip620)" style="stroke:#000000; stroke-linecap:round; stroke-linejoin:round; stroke-width:4; stroke-opacity:1; fill:none" points="2292.32,1427.5 2292.32,1408.6 "/>
<polyline clip-path="url(#clip620)" style="stroke:#000000; stroke-linecap:round; stroke-linejoin:round; stroke-width:4; stroke-opacity:1; fill:none" points="378.482,1427.5 378.482,1418.05 "/>
<polyline clip-path="url(#clip620)" style="stroke:#000000; stroke-linecap:round; stroke-linejoin:round; stroke-width:4; stroke-opacity:1; fill:none" points="479.211,1427.5 479.211,1418.05 "/>
<polyline clip-path="url(#clip620)" style="stroke:#000000; stroke-linecap:round; stroke-linejoin:round; stroke-width:4; stroke-opacity:1; fill:none" points="579.939,1427.5 579.939,1418.05 "/>
<polyline clip-path="url(#clip620)" style="stroke:#000000; stroke-linecap:round; stroke-linejoin:round; stroke-width:4; stroke-opacity:1; fill:none" points="680.667,1427.5 680.667,1418.05 "/>
<polyline clip-path="url(#clip620)" style="stroke:#000000; stroke-linecap:round; stroke-linejoin:round; stroke-width:4; stroke-opacity:1; fill:none" points="882.124,1427.5 882.124,1418.05 "/>
<polyline clip-path="url(#clip620)" style="stroke:#000000; stroke-linecap:round; stroke-linejoin:round; stroke-width:4; stroke-opacity:1; fill:none" points="982.852,1427.5 982.852,1418.05 "/>
<polyline clip-path="url(#clip620)" style="stroke:#000000; stroke-linecap:round; stroke-linejoin:round; stroke-width:4; stroke-opacity:1; fill:none" points="1083.58,1427.5 1083.58,1418.05 "/>
<polyline clip-path="url(#clip620)" style="stroke:#000000; stroke-linecap:round; stroke-linejoin:round; stroke-width:4; stroke-opacity:1; fill:none" points="1184.31,1427.5 1184.31,1418.05 "/>
<polyline clip-path="url(#clip620)" style="stroke:#000000; stroke-linecap:round; stroke-linejoin:round; stroke-width:4; stroke-opacity:1; fill:none" points="1385.76,1427.5 1385.76,1418.05 "/>
<polyline clip-path="url(#clip620)" style="stroke:#000000; stroke-linecap:round; stroke-linejoin:round; stroke-width:4; stroke-opacity:1; fill:none" points="1486.49,1427.5 1486.49,1418.05 "/>
<polyline clip-path="url(#clip620)" style="stroke:#000000; stroke-linecap:round; stroke-linejoin:round; stroke-width:4; stroke-opacity:1; fill:none" points="1587.22,1427.5 1587.22,1418.05 "/>
<polyline clip-path="url(#clip620)" style="stroke:#000000; stroke-linecap:round; stroke-linejoin:round; stroke-width:4; stroke-opacity:1; fill:none" points="1687.95,1427.5 1687.95,1418.05 "/>
<polyline clip-path="url(#clip620)" style="stroke:#000000; stroke-linecap:round; stroke-linejoin:round; stroke-width:4; stroke-opacity:1; fill:none" points="1889.41,1427.5 1889.41,1418.05 "/>
<polyline clip-path="url(#clip620)" style="stroke:#000000; stroke-linecap:round; stroke-linejoin:round; stroke-width:4; stroke-opacity:1; fill:none" points="1990.13,1427.5 1990.13,1418.05 "/>
<polyline clip-path="url(#clip620)" style="stroke:#000000; stroke-linecap:round; stroke-linejoin:round; stroke-width:4; stroke-opacity:1; fill:none" points="2090.86,1427.5 2090.86,1418.05 "/>
<polyline clip-path="url(#clip620)" style="stroke:#000000; stroke-linecap:round; stroke-linejoin:round; stroke-width:4; stroke-opacity:1; fill:none" points="2191.59,1427.5 2191.59,1418.05 "/>
<path clip-path="url(#clip620)" d="M277.754 1458.42 Q274.143 1458.42 272.314 1461.98 Q270.509 1465.52 270.509 1472.65 Q270.509 1479.76 272.314 1483.33 Q274.143 1486.87 277.754 1486.87 Q281.388 1486.87 283.194 1483.33 Q285.023 1479.76 285.023 1472.65 Q285.023 1465.52 283.194 1461.98 Q281.388 1458.42 277.754 1458.42 M277.754 1454.71 Q283.564 1454.71 286.62 1459.32 Q289.698 1463.9 289.698 1472.65 Q289.698 1481.38 286.62 1485.99 Q283.564 1490.57 277.754 1490.57 Q271.944 1490.57 268.865 1485.99 Q265.81 1481.38 265.81 1472.65 Q265.81 1463.9 268.865 1459.32 Q271.944 1454.71 277.754 1454.71 Z" fill="#000000" fill-rule="nonzero" fill-opacity="1" /><path clip-path="url(#clip620)" d="M771.673 1455.34 L790.029 1455.34 L790.029 1459.28 L775.955 1459.28 L775.955 1467.75 Q776.974 1467.4 777.993 1467.24 Q779.011 1467.05 780.03 1467.05 Q785.817 1467.05 789.196 1470.22 Q792.576 1473.4 792.576 1478.81 Q792.576 1484.39 789.104 1487.49 Q785.631 1490.57 779.312 1490.57 Q777.136 1490.57 774.868 1490.2 Q772.622 1489.83 770.215 1489.09 L770.215 1484.39 Q772.298 1485.52 774.52 1486.08 Q776.743 1486.64 779.219 1486.64 Q783.224 1486.64 785.562 1484.53 Q787.9 1482.42 787.9 1478.81 Q787.9 1475.2 785.562 1473.09 Q783.224 1470.99 779.219 1470.99 Q777.344 1470.99 775.469 1471.4 Q773.618 1471.82 771.673 1472.7 L771.673 1455.34 Z" fill="#000000" fill-rule="nonzero" fill-opacity="1" /><path clip-path="url(#clip620)" d="M1259.72 1485.96 L1267.36 1485.96 L1267.36 1459.6 L1259.05 1461.27 L1259.05 1457.01 L1267.32 1455.34 L1271.99 1455.34 L1271.99 1485.96 L1279.63 1485.96 L1279.63 1489.9 L1259.72 1489.9 L1259.72 1485.96 Z" fill="#000000" fill-rule="nonzero" fill-opacity="1" /><path clip-path="url(#clip620)" d="M1299.08 1458.42 Q1295.46 1458.42 1293.64 1461.98 Q1291.83 1465.52 1291.83 1472.65 Q1291.83 1479.76 1293.64 1483.33 Q1295.46 1486.87 1299.08 1486.87 Q1302.71 1486.87 1304.52 1483.33 Q1306.34 1479.76 1306.34 1472.65 Q1306.34 1465.52 1304.52 1461.98 Q1302.71 1458.42 1299.08 1458.42 M1299.08 1454.71 Q1304.89 1454.71 1307.94 1459.32 Q1311.02 1463.9 1311.02 1472.65 Q1311.02 1481.38 1307.94 1485.99 Q1304.89 1490.57 1299.08 1490.57 Q1293.27 1490.57 1290.19 1485.99 Q1287.13 1481.38 1287.13 1472.65 Q1287.13 1463.9 1290.19 1459.32 Q1293.27 1454.71 1299.08 1454.71 Z" fill="#000000" fill-rule="nonzero" fill-opacity="1" /><path clip-path="url(#clip620)" d="M1763.86 1485.96 L1771.5 1485.96 L1771.5 1459.6 L1763.19 1461.27 L1763.19 1457.01 L1771.46 1455.34 L1776.13 1455.34 L1776.13 1485.96 L1783.77 1485.96 L1783.77 1489.9 L1763.86 1489.9 L1763.86 1485.96 Z" fill="#000000" fill-rule="nonzero" fill-opacity="1" /><path clip-path="url(#clip620)" d="M1793.26 1455.34 L1811.62 1455.34 L1811.62 1459.28 L1797.54 1459.28 L1797.54 1467.75 Q1798.56 1467.4 1799.58 1467.24 Q1800.6 1467.05 1801.62 1467.05 Q1807.4 1467.05 1810.78 1470.22 Q1814.16 1473.4 1814.16 1478.81 Q1814.16 1484.39 1810.69 1487.49 Q1807.22 1490.57 1800.9 1490.57 Q1798.72 1490.57 1796.46 1490.2 Q1794.21 1489.83 1791.8 1489.09 L1791.8 1484.39 Q1793.89 1485.52 1796.11 1486.08 Q1798.33 1486.64 1800.81 1486.64 Q1804.81 1486.64 1807.15 1484.53 Q1809.49 1482.42 1809.49 1478.81 Q1809.49 1475.2 1807.15 1473.09 Q1804.81 1470.99 1800.81 1470.99 Q1798.93 1470.99 1797.06 1471.4 Q1795.21 1471.82 1793.26 1472.7 L1793.26 1455.34 Z" fill="#000000" fill-rule="nonzero" fill-opacity="1" /><path clip-path="url(#clip620)" d="M2271.09 1485.96 L2287.41 1485.96 L2287.41 1489.9 L2265.47 1489.9 L2265.47 1485.96 Q2268.13 1483.21 2272.71 1478.58 Q2277.32 1473.93 2278.5 1472.59 Q2280.74 1470.06 2281.62 1468.33 Q2282.53 1466.57 2282.53 1464.88 Q2282.53 1462.12 2280.58 1460.39 Q2278.66 1458.65 2275.56 1458.65 Q2273.36 1458.65 2270.91 1459.41 Q2268.48 1460.18 2265.7 1461.73 L2265.7 1457.01 Q2268.52 1455.87 2270.98 1455.29 Q2273.43 1454.71 2275.47 1454.71 Q2280.84 1454.71 2284.03 1457.4 Q2287.23 1460.09 2287.23 1464.58 Q2287.23 1466.71 2286.42 1468.63 Q2285.63 1470.52 2283.52 1473.12 Q2282.94 1473.79 2279.84 1477.01 Q2276.74 1480.2 2271.09 1485.96 Z" fill="#000000" fill-rule="nonzero" fill-opacity="1" /><path clip-path="url(#clip620)" d="M2307.23 1458.42 Q2303.62 1458.42 2301.79 1461.98 Q2299.98 1465.52 2299.98 1472.65 Q2299.98 1479.76 2301.79 1483.33 Q2303.62 1486.87 2307.23 1486.87 Q2310.86 1486.87 2312.67 1483.33 Q2314.49 1479.76 2314.49 1472.65 Q2314.49 1465.52 2312.67 1461.98 Q2310.86 1458.42 2307.23 1458.42 M2307.23 1454.71 Q2313.04 1454.71 2316.09 1459.32 Q2319.17 1463.9 2319.17 1472.65 Q2319.17 1481.38 2316.09 1485.99 Q2313.04 1490.57 2307.23 1490.57 Q2301.42 1490.57 2298.34 1485.99 Q2295.28 1481.38 2295.28 1472.65 Q2295.28 1463.9 2298.34 1459.32 Q2301.42 1454.71 2307.23 1454.71 Z" fill="#000000" fill-rule="nonzero" fill-opacity="1" /><path clip-path="url(#clip620)" d="M1164.78 1523.98 L1170.63 1523.98 L1170.63 1567.18 L1164.78 1567.18 L1164.78 1523.98 Z" fill="#000000" fill-rule="nonzero" fill-opacity="1" /><path clip-path="url(#clip620)" d="M1187.29 1525.57 L1187.29 1534.77 L1198.26 1534.77 L1198.26 1538.91 L1187.29 1538.91 L1187.29 1556.5 Q1187.29 1560.47 1188.36 1561.6 Q1189.46 1562.72 1192.79 1562.72 L1198.26 1562.72 L1198.26 1567.18 L1192.79 1567.18 Q1186.63 1567.18 1184.28 1564.89 Q1181.94 1562.58 1181.94 1556.5 L1181.94 1538.91 L1178.03 1538.91 L1178.03 1534.77 L1181.94 1534.77 L1181.94 1525.57 L1187.29 1525.57 Z" fill="#000000" fill-rule="nonzero" fill-opacity="1" /><path clip-path="url(#clip620)" d="M1232.98 1549.65 L1232.98 1552.25 L1208.5 1552.25 Q1208.85 1557.75 1211.8 1560.64 Q1214.78 1563.51 1220.08 1563.51 Q1223.14 1563.51 1226.01 1562.75 Q1228.9 1562 1231.74 1560.5 L1231.74 1565.53 Q1228.87 1566.75 1225.86 1567.38 Q1222.86 1568.02 1219.76 1568.02 Q1212 1568.02 1207.46 1563.51 Q1202.95 1558.99 1202.95 1551.29 Q1202.95 1543.34 1207.23 1538.68 Q1211.54 1533.99 1218.83 1533.99 Q1225.37 1533.99 1229.16 1538.22 Q1232.98 1542.41 1232.98 1549.65 M1227.66 1548.08 Q1227.6 1543.71 1225.2 1541.11 Q1222.83 1538.51 1218.89 1538.51 Q1214.44 1538.51 1211.74 1541.02 Q1209.08 1543.54 1208.68 1548.11 L1227.66 1548.08 Z" fill="#000000" fill-rule="nonzero" fill-opacity="1" /><path clip-path="url(#clip620)" d="M1260.5 1539.75 Q1259.6 1539.23 1258.53 1539 Q1257.49 1538.74 1256.22 1538.74 Q1251.7 1538.74 1249.27 1541.69 Q1246.87 1544.61 1246.87 1550.11 L1246.87 1567.18 L1241.52 1567.18 L1241.52 1534.77 L1246.87 1534.77 L1246.87 1539.81 Q1248.55 1536.86 1251.24 1535.44 Q1253.93 1533.99 1257.78 1533.99 Q1258.33 1533.99 1258.99 1534.08 Q1259.66 1534.14 1260.47 1534.28 L1260.5 1539.75 Z" fill="#000000" fill-rule="nonzero" fill-opacity="1" /><path clip-path="url(#clip620)" d="M1280.81 1550.89 Q1274.36 1550.89 1271.87 1552.37 Q1269.38 1553.84 1269.38 1557.4 Q1269.38 1560.24 1271.23 1561.91 Q1273.12 1563.56 1276.33 1563.56 Q1280.75 1563.56 1283.42 1560.44 Q1286.11 1557.28 1286.11 1552.08 L1286.11 1550.89 L1280.81 1550.89 M1291.43 1548.69 L1291.43 1567.18 L1286.11 1567.18 L1286.11 1562.26 Q1284.28 1565.21 1281.56 1566.63 Q1278.84 1568.02 1274.91 1568.02 Q1269.93 1568.02 1266.98 1565.24 Q1264.06 1562.43 1264.06 1557.75 Q1264.06 1552.28 1267.7 1549.5 Q1271.38 1546.72 1278.64 1546.72 L1286.11 1546.72 L1286.11 1546.2 Q1286.11 1542.53 1283.68 1540.53 Q1281.27 1538.51 1276.91 1538.51 Q1274.13 1538.51 1271.49 1539.17 Q1268.86 1539.84 1266.43 1541.17 L1266.43 1536.25 Q1269.35 1535.12 1272.1 1534.57 Q1274.85 1533.99 1277.46 1533.99 Q1284.49 1533.99 1287.96 1537.64 Q1291.43 1541.28 1291.43 1548.69 Z" fill="#000000" fill-rule="nonzero" fill-opacity="1" /><path clip-path="url(#clip620)" d="M1307.66 1525.57 L1307.66 1534.77 L1318.63 1534.77 L1318.63 1538.91 L1307.66 1538.91 L1307.66 1556.5 Q1307.66 1560.47 1308.73 1561.6 Q1309.83 1562.72 1313.16 1562.72 L1318.63 1562.72 L1318.63 1567.18 L1313.16 1567.18 Q1307 1567.18 1304.65 1564.89 Q1302.31 1562.58 1302.31 1556.5 L1302.31 1538.91 L1298.4 1538.91 L1298.4 1534.77 L1302.31 1534.77 L1302.31 1525.57 L1307.66 1525.57 Z" fill="#000000" fill-rule="nonzero" fill-opacity="1" /><path clip-path="url(#clip620)" d="M1325.63 1534.77 L1330.96 1534.77 L1330.96 1567.18 L1325.63 1567.18 L1325.63 1534.77 M1325.63 1522.16 L1330.96 1522.16 L1330.96 1528.9 L1325.63 1528.9 L1325.63 1522.16 Z" fill="#000000" fill-rule="nonzero" fill-opacity="1" /><path clip-path="url(#clip620)" d="M1354.65 1538.51 Q1350.37 1538.51 1347.88 1541.86 Q1345.39 1545.19 1345.39 1551.01 Q1345.39 1556.82 1347.85 1560.18 Q1350.34 1563.51 1354.65 1563.51 Q1358.91 1563.51 1361.4 1560.15 Q1363.88 1556.79 1363.88 1551.01 Q1363.88 1545.25 1361.4 1541.89 Q1358.91 1538.51 1354.65 1538.51 M1354.65 1533.99 Q1361.6 1533.99 1365.56 1538.51 Q1369.53 1543.02 1369.53 1551.01 Q1369.53 1558.96 1365.56 1563.51 Q1361.6 1568.02 1354.65 1568.02 Q1347.68 1568.02 1343.72 1563.51 Q1339.78 1558.96 1339.78 1551.01 Q1339.78 1543.02 1343.72 1538.51 Q1347.68 1533.99 1354.65 1533.99 Z" fill="#000000" fill-rule="nonzero" fill-opacity="1" /><path clip-path="url(#clip620)" d="M1405.29 1547.62 L1405.29 1567.18 L1399.97 1567.18 L1399.97 1547.79 Q1399.97 1543.19 1398.17 1540.91 Q1396.38 1538.62 1392.79 1538.62 Q1388.48 1538.62 1385.99 1541.37 Q1383.5 1544.12 1383.5 1548.86 L1383.5 1567.18 L1378.15 1567.18 L1378.15 1534.77 L1383.5 1534.77 L1383.5 1539.81 Q1385.41 1536.88 1387.99 1535.44 Q1390.59 1533.99 1393.98 1533.99 Q1399.56 1533.99 1402.43 1537.46 Q1405.29 1540.91 1405.29 1547.62 Z" fill="#000000" fill-rule="nonzero" fill-opacity="1" /><polyline clip-path="url(#clip620)" style="stroke:#000000; stroke-linecap:round; stroke-linejoin:round; stroke-width:4; stroke-opacity:1; fill:none" points="217.317,1427.5 217.317,47.2441 "/>
<polyline clip-path="url(#clip620)" style="stroke:#000000; stroke-linecap:round; stroke-linejoin:round; stroke-width:4; stroke-opacity:1; fill:none" points="217.317,946.89 236.215,946.89 "/>
<polyline clip-path="url(#clip620)" style="stroke:#000000; stroke-linecap:round; stroke-linejoin:round; stroke-width:4; stroke-opacity:1; fill:none" points="217.317,440.359 236.215,440.359 "/>
<polyline clip-path="url(#clip620)" style="stroke:#000000; stroke-linecap:round; stroke-linejoin:round; stroke-width:4; stroke-opacity:1; fill:none" points="217.317,1300.94 226.766,1300.94 "/>
<polyline clip-path="url(#clip620)" style="stroke:#000000; stroke-linecap:round; stroke-linejoin:round; stroke-width:4; stroke-opacity:1; fill:none" points="217.317,1211.74 226.766,1211.74 "/>
<polyline clip-path="url(#clip620)" style="stroke:#000000; stroke-linecap:round; stroke-linejoin:round; stroke-width:4; stroke-opacity:1; fill:none" points="217.317,1148.46 226.766,1148.46 "/>
<polyline clip-path="url(#clip620)" style="stroke:#000000; stroke-linecap:round; stroke-linejoin:round; stroke-width:4; stroke-opacity:1; fill:none" points="217.317,1099.37 226.766,1099.37 "/>
<polyline clip-path="url(#clip620)" style="stroke:#000000; stroke-linecap:round; stroke-linejoin:round; stroke-width:4; stroke-opacity:1; fill:none" points="217.317,1059.26 226.766,1059.26 "/>
<polyline clip-path="url(#clip620)" style="stroke:#000000; stroke-linecap:round; stroke-linejoin:round; stroke-width:4; stroke-opacity:1; fill:none" points="217.317,1025.35 226.766,1025.35 "/>
<polyline clip-path="url(#clip620)" style="stroke:#000000; stroke-linecap:round; stroke-linejoin:round; stroke-width:4; stroke-opacity:1; fill:none" points="217.317,995.978 226.766,995.978 "/>
<polyline clip-path="url(#clip620)" style="stroke:#000000; stroke-linecap:round; stroke-linejoin:round; stroke-width:4; stroke-opacity:1; fill:none" points="217.317,970.068 226.766,970.068 "/>
<polyline clip-path="url(#clip620)" style="stroke:#000000; stroke-linecap:round; stroke-linejoin:round; stroke-width:4; stroke-opacity:1; fill:none" points="217.317,794.409 226.766,794.409 "/>
<polyline clip-path="url(#clip620)" style="stroke:#000000; stroke-linecap:round; stroke-linejoin:round; stroke-width:4; stroke-opacity:1; fill:none" points="217.317,705.214 226.766,705.214 "/>
<polyline clip-path="url(#clip620)" style="stroke:#000000; stroke-linecap:round; stroke-linejoin:round; stroke-width:4; stroke-opacity:1; fill:none" points="217.317,641.928 226.766,641.928 "/>
<polyline clip-path="url(#clip620)" style="stroke:#000000; stroke-linecap:round; stroke-linejoin:round; stroke-width:4; stroke-opacity:1; fill:none" points="217.317,592.84 226.766,592.84 "/>
<polyline clip-path="url(#clip620)" style="stroke:#000000; stroke-linecap:round; stroke-linejoin:round; stroke-width:4; stroke-opacity:1; fill:none" points="217.317,552.733 226.766,552.733 "/>
<polyline clip-path="url(#clip620)" style="stroke:#000000; stroke-linecap:round; stroke-linejoin:round; stroke-width:4; stroke-opacity:1; fill:none" points="217.317,518.822 226.766,518.822 "/>
<polyline clip-path="url(#clip620)" style="stroke:#000000; stroke-linecap:round; stroke-linejoin:round; stroke-width:4; stroke-opacity:1; fill:none" points="217.317,489.447 226.766,489.447 "/>
<polyline clip-path="url(#clip620)" style="stroke:#000000; stroke-linecap:round; stroke-linejoin:round; stroke-width:4; stroke-opacity:1; fill:none" points="217.317,463.537 226.766,463.537 "/>
<polyline clip-path="url(#clip620)" style="stroke:#000000; stroke-linecap:round; stroke-linejoin:round; stroke-width:4; stroke-opacity:1; fill:none" points="217.317,287.878 226.766,287.878 "/>
<polyline clip-path="url(#clip620)" style="stroke:#000000; stroke-linecap:round; stroke-linejoin:round; stroke-width:4; stroke-opacity:1; fill:none" points="217.317,198.683 226.766,198.683 "/>
<polyline clip-path="url(#clip620)" style="stroke:#000000; stroke-linecap:round; stroke-linejoin:round; stroke-width:4; stroke-opacity:1; fill:none" points="217.317,135.397 226.766,135.397 "/>
<polyline clip-path="url(#clip620)" style="stroke:#000000; stroke-linecap:round; stroke-linejoin:round; stroke-width:4; stroke-opacity:1; fill:none" points="217.317,86.3096 226.766,86.3096 "/>
<path clip-path="url(#clip620)" d="M110.611 966.683 L118.25 966.683 L118.25 940.317 L109.94 941.984 L109.94 937.724 L118.204 936.058 L122.88 936.058 L122.88 966.683 L130.519 966.683 L130.519 970.618 L110.611 970.618 L110.611 966.683 Z" fill="#000000" fill-rule="nonzero" fill-opacity="1" /><path clip-path="url(#clip620)" d="M149.963 939.136 Q146.352 939.136 144.523 942.701 Q142.718 946.243 142.718 953.372 Q142.718 960.479 144.523 964.044 Q146.352 967.585 149.963 967.585 Q153.597 967.585 155.403 964.044 Q157.232 960.479 157.232 953.372 Q157.232 946.243 155.403 942.701 Q153.597 939.136 149.963 939.136 M149.963 935.433 Q155.773 935.433 158.829 940.039 Q161.907 944.622 161.907 953.372 Q161.907 962.099 158.829 966.706 Q155.773 971.289 149.963 971.289 Q144.153 971.289 141.074 966.706 Q138.019 962.099 138.019 953.372 Q138.019 944.622 141.074 940.039 Q144.153 935.433 149.963 935.433 Z" fill="#000000" fill-rule="nonzero" fill-opacity="1" /><path clip-path="url(#clip620)" d="M171.612 917.629 Q168.678 917.629 167.192 920.525 Q165.725 923.403 165.725 929.196 Q165.725 934.97 167.192 937.866 Q168.678 940.744 171.612 940.744 Q174.565 940.744 176.032 937.866 Q177.518 934.97 177.518 929.196 Q177.518 923.403 176.032 920.525 Q174.565 917.629 171.612 917.629 M171.612 914.62 Q176.333 914.62 178.816 918.362 Q181.317 922.086 181.317 929.196 Q181.317 936.286 178.816 940.029 Q176.333 943.753 171.612 943.753 Q166.892 943.753 164.39 940.029 Q161.907 936.286 161.907 929.196 Q161.907 922.086 164.39 918.362 Q166.892 914.62 171.612 914.62 Z" fill="#000000" fill-rule="nonzero" fill-opacity="1" /><path clip-path="url(#clip620)" d="M113.301 460.152 L120.94 460.152 L120.94 433.786 L112.63 435.453 L112.63 431.194 L120.894 429.527 L125.569 429.527 L125.569 460.152 L133.208 460.152 L133.208 464.087 L113.301 464.087 L113.301 460.152 Z" fill="#000000" fill-rule="nonzero" fill-opacity="1" /><path clip-path="url(#clip620)" d="M152.653 432.606 Q149.042 432.606 147.213 436.17 Q145.407 439.712 145.407 446.842 Q145.407 453.948 147.213 457.513 Q149.042 461.055 152.653 461.055 Q156.287 461.055 158.092 457.513 Q159.921 453.948 159.921 446.842 Q159.921 439.712 158.092 436.17 Q156.287 432.606 152.653 432.606 M152.653 428.902 Q158.463 428.902 161.518 433.508 Q164.597 438.092 164.597 446.842 Q164.597 455.569 161.518 460.175 Q158.463 464.758 152.653 464.758 Q146.842 464.758 143.764 460.175 Q140.708 455.569 140.708 446.842 Q140.708 438.092 143.764 433.508 Q146.842 428.902 152.653 428.902 Z" fill="#000000" fill-rule="nonzero" fill-opacity="1" /><path clip-path="url(#clip620)" d="M165.142 433.479 L171.349 433.479 L171.349 412.057 L164.597 413.411 L164.597 409.951 L171.311 408.597 L175.111 408.597 L175.111 433.479 L181.317 433.479 L181.317 436.677 L165.142 436.677 L165.142 433.479 Z" fill="#000000" fill-rule="nonzero" fill-opacity="1" /><path clip-path="url(#clip620)" d="M15.9573 860.129 L20.3843 860.129 L20.3843 865.221 Q20.3843 868.086 21.5417 869.214 Q22.6991 870.314 25.7084 870.314 L28.5729 870.314 L28.5729 861.547 L32.7106 861.547 L32.7106 870.314 L60.9802 870.314 L60.9802 875.667 L32.7106 875.667 L32.7106 880.76 L28.5729 880.76 L28.5729 875.667 L26.316 875.667 Q20.9051 875.667 18.4457 873.15 Q15.9573 870.632 15.9573 865.164 L15.9573 860.129 Z" fill="#000000" fill-rule="nonzero" fill-opacity="1" /><path clip-path="url(#clip620)" d="M48.1909 856.223 L28.5729 856.223 L28.5729 850.899 L47.9883 850.899 Q52.589 850.899 54.9038 849.105 Q57.1897 847.311 57.1897 843.723 Q57.1897 839.411 54.4408 836.923 Q51.692 834.406 46.9467 834.406 L28.5729 834.406 L28.5729 829.082 L60.9802 829.082 L60.9802 834.406 L56.0033 834.406 Q58.9547 836.344 60.4015 838.919 Q61.8193 841.466 61.8193 844.851 Q61.8193 850.436 58.3471 853.329 Q54.8749 856.223 48.1909 856.223 M27.7917 842.826 L27.7917 842.826 Z" fill="#000000" fill-rule="nonzero" fill-opacity="1" /><path clip-path="url(#clip620)" d="M41.4201 791.177 L60.9802 791.177 L60.9802 796.501 L41.5937 796.501 Q36.993 796.501 34.7072 798.295 Q32.4213 800.089 32.4213 803.677 Q32.4213 807.988 35.1701 810.476 Q37.9189 812.965 42.6643 812.965 L60.9802 812.965 L60.9802 818.318 L28.5729 818.318 L28.5729 812.965 L33.6076 812.965 Q30.6852 811.055 29.2384 808.48 Q27.7917 805.876 27.7917 802.49 Q27.7917 796.906 31.2639 794.041 Q34.7072 791.177 41.4201 791.177 Z" fill="#000000" fill-rule="nonzero" fill-opacity="1" /><path clip-path="url(#clip620)" d="M29.8171 757.236 L34.794 757.236 Q33.5497 759.493 32.9421 761.779 Q32.3055 764.036 32.3055 766.35 Q32.3055 771.53 35.6041 774.394 Q38.8738 777.259 44.8055 777.259 Q50.7372 777.259 54.0358 774.394 Q57.3054 771.53 57.3054 766.35 Q57.3054 764.036 56.6978 761.779 Q56.0612 759.493 54.817 757.236 L59.736 757.236 Q60.7776 759.464 61.2984 761.865 Q61.8193 764.238 61.8193 766.929 Q61.8193 774.25 57.2186 778.561 Q52.6179 782.872 44.8055 782.872 Q36.8773 782.872 32.3345 778.532 Q27.7917 774.163 27.7917 766.582 Q27.7917 764.122 28.3125 761.779 Q28.8044 759.435 29.8171 757.236 Z" fill="#000000" fill-rule="nonzero" fill-opacity="1" /><path clip-path="url(#clip620)" d="M60.9802 736.605 L17.7802 753.098 L17.7802 746.993 L54.1515 733.307 L17.7802 719.591 L17.7802 713.515 L60.9802 729.979 L60.9802 736.605 Z" fill="#000000" fill-rule="nonzero" fill-opacity="1" /><path clip-path="url(#clip620)" d="M44.6897 697.311 Q44.6897 703.764 46.1654 706.252 Q47.6411 708.741 51.2001 708.741 Q54.0358 708.741 55.714 706.889 Q57.3633 705.008 57.3633 701.796 Q57.3633 697.369 54.2383 694.707 Q51.0844 692.016 45.8761 692.016 L44.6897 692.016 L44.6897 697.311 M42.4907 686.692 L60.9802 686.692 L60.9802 692.016 L56.0612 692.016 Q59.0126 693.839 60.4304 696.559 Q61.8193 699.279 61.8193 703.214 Q61.8193 708.191 59.0415 711.142 Q56.2348 714.065 51.5473 714.065 Q46.0786 714.065 43.3009 710.419 Q40.5231 706.744 40.5231 699.482 L40.5231 692.016 L40.0023 692.016 Q36.3275 692.016 34.331 694.447 Q32.3055 696.848 32.3055 701.218 Q32.3055 703.995 32.971 706.628 Q33.6366 709.262 34.9676 711.692 L30.0486 711.692 Q28.9201 708.77 28.3704 706.021 Q27.7917 703.272 27.7917 700.668 Q27.7917 693.637 31.4375 690.164 Q35.0833 686.692 42.4907 686.692 Z" fill="#000000" fill-rule="nonzero" fill-opacity="1" /><path clip-path="url(#clip620)" d="M15.9573 675.726 L15.9573 670.402 L60.9802 670.402 L60.9802 675.726 L15.9573 675.726 Z" fill="#000000" fill-rule="nonzero" fill-opacity="1" /><path clip-path="url(#clip620)" d="M48.1909 659.812 L28.5729 659.812 L28.5729 654.488 L47.9883 654.488 Q52.589 654.488 54.9038 652.694 Q57.1897 650.9 57.1897 647.312 Q57.1897 643 54.4408 640.512 Q51.692 637.995 46.9467 637.995 L28.5729 637.995 L28.5729 632.671 L60.9802 632.671 L60.9802 637.995 L56.0033 637.995 Q58.9547 639.933 60.4015 642.508 Q61.8193 645.055 61.8193 648.44 Q61.8193 654.025 58.3471 656.918 Q54.8749 659.812 48.1909 659.812 M27.7917 646.415 L27.7917 646.415 Z" fill="#000000" fill-rule="nonzero" fill-opacity="1" /><path clip-path="url(#clip620)" d="M43.4455 593.984 L46.0497 593.984 L46.0497 618.463 Q51.5473 618.116 54.4408 615.165 Q57.3054 612.185 57.3054 606.889 Q57.3054 603.822 56.5531 600.958 Q55.8008 598.064 54.2962 595.229 L59.3309 595.229 Q60.5461 598.093 61.1827 601.102 Q61.8193 604.112 61.8193 607.208 Q61.8193 614.962 57.3054 619.505 Q52.7915 624.019 45.0948 624.019 Q37.1377 624.019 32.4792 619.737 Q27.7917 615.425 27.7917 608.134 Q27.7917 601.594 32.0162 597.804 Q36.2118 593.984 43.4455 593.984 M41.883 599.308 Q37.5138 599.366 34.9097 601.768 Q32.3055 604.141 32.3055 608.076 Q32.3055 612.532 34.8229 615.223 Q37.3402 617.885 41.912 618.29 L41.883 599.308 Z" fill="#000000" fill-rule="nonzero" fill-opacity="1" /><polyline clip-path="url(#clip622)" style="stroke:#0000ff; stroke-linecap:round; stroke-linejoin:round; stroke-width:8; stroke-opacity:1; fill:none" points="277.754,86.3079 378.482,351.975 479.211,489.149 579.939,588.771 680.667,670.451 781.395,737.515 882.124,765.696 982.852,801.732 1083.58,846.92 1184.31,899.153 1285.04,953.628 1385.76,1007.63 1486.49,1057.77 1587.22,1105.27 1687.95,1151.08 1788.68,1195.17 1889.41,1237.53 1990.13,1278.24 2090.86,1317.3 2191.59,1354.33 2292.32,1388.44 "/>
<path clip-path="url(#clip622)" d="M277.754 70.3079 L273.994 81.1239 L262.538 81.3639 L271.674 88.2919 L268.346 99.2519 L277.754 92.7079 L287.162 99.2519 L283.834 88.2919 L292.97 81.3639 L281.514 81.1239 L277.754 70.3079 Z" fill="#009af9" fill-rule="evenodd" fill-opacity="1" stroke="#000000" stroke-opacity="1" stroke-width="3.2"/>
<path clip-path="url(#clip622)" d="M378.482 335.975 L374.722 346.791 L363.266 347.031 L372.402 353.959 L369.074 364.919 L378.482 358.375 L387.89 364.919 L384.562 353.959 L393.698 347.031 L382.242 346.791 L378.482 335.975 Z" fill="#009af9" fill-rule="evenodd" fill-opacity="1" stroke="#000000" stroke-opacity="1" stroke-width="3.2"/>
<path clip-path="url(#clip622)" d="M479.211 473.149 L475.451 483.965 L463.995 484.205 L473.131 491.133 L469.803 502.093 L479.211 495.549 L488.619 502.093 L485.291 491.133 L494.427 484.205 L482.971 483.965 L479.211 473.149 Z" fill="#009af9" fill-rule="evenodd" fill-opacity="1" stroke="#000000" stroke-opacity="1" stroke-width="3.2"/>
<path clip-path="url(#clip622)" d="M579.939 572.771 L576.179 583.587 L564.723 583.827 L573.859 590.755 L570.531 601.715 L579.939 595.171 L589.347 601.715 L586.019 590.755 L595.155 583.827 L583.699 583.587 L579.939 572.771 Z" fill="#009af9" fill-rule="evenodd" fill-opacity="1" stroke="#000000" stroke-opacity="1" stroke-width="3.2"/>
<path clip-path="url(#clip622)" d="M680.667 654.451 L676.907 665.267 L665.451 665.507 L674.587 672.435 L671.259 683.395 L680.667 676.851 L690.075 683.395 L686.747 672.435 L695.883 665.507 L684.427 665.267 L680.667 654.451 Z" fill="#009af9" fill-rule="evenodd" fill-opacity="1" stroke="#000000" stroke-opacity="1" stroke-width="3.2"/>
<path clip-path="url(#clip622)" d="M781.395 721.515 L777.635 732.331 L766.179 732.571 L775.315 739.499 L771.987 750.459 L781.395 743.915 L790.803 750.459 L787.475 739.499 L796.611 732.571 L785.155 732.331 L781.395 721.515 Z" fill="#009af9" fill-rule="evenodd" fill-opacity="1" stroke="#000000" stroke-opacity="1" stroke-width="3.2"/>
<path clip-path="url(#clip622)" d="M882.124 749.696 L878.364 760.512 L866.908 760.752 L876.044 767.68 L872.716 778.64 L882.124 772.096 L891.532 778.64 L888.204 767.68 L897.34 760.752 L885.884 760.512 L882.124 749.696 Z" fill="#009af9" fill-rule="evenodd" fill-opacity="1" stroke="#000000" stroke-opacity="1" stroke-width="3.2"/>
<path clip-path="url(#clip622)" d="M982.852 785.732 L979.092 796.548 L967.636 796.788 L976.772 803.716 L973.444 814.676 L982.852 808.132 L992.26 814.676 L988.932 803.716 L998.068 796.788 L986.612 796.548 L982.852 785.732 Z" fill="#009af9" fill-rule="evenodd" fill-opacity="1" stroke="#000000" stroke-opacity="1" stroke-width="3.2"/>
<path clip-path="url(#clip622)" d="M1083.58 830.92 L1079.82 841.736 L1068.36 841.976 L1077.5 848.904 L1074.17 859.864 L1083.58 853.32 L1092.99 859.864 L1089.66 848.904 L1098.8 841.976 L1087.34 841.736 L1083.58 830.92 Z" fill="#009af9" fill-rule="evenodd" fill-opacity="1" stroke="#000000" stroke-opacity="1" stroke-width="3.2"/>
<path clip-path="url(#clip622)" d="M1184.31 883.153 L1180.55 893.969 L1169.09 894.209 L1178.23 901.137 L1174.9 912.097 L1184.31 905.553 L1193.72 912.097 L1190.39 901.137 L1199.52 894.209 L1188.07 893.969 L1184.31 883.153 Z" fill="#009af9" fill-rule="evenodd" fill-opacity="1" stroke="#000000" stroke-opacity="1" stroke-width="3.2"/>
<path clip-path="url(#clip622)" d="M1285.04 937.628 L1281.28 948.444 L1269.82 948.684 L1278.96 955.612 L1275.63 966.572 L1285.04 960.028 L1294.44 966.572 L1291.12 955.612 L1300.25 948.684 L1288.8 948.444 L1285.04 937.628 Z" fill="#009af9" fill-rule="evenodd" fill-opacity="1" stroke="#000000" stroke-opacity="1" stroke-width="3.2"/>
<path clip-path="url(#clip622)" d="M1385.76 991.63 L1382 1002.45 L1370.55 1002.69 L1379.68 1009.61 L1376.36 1020.57 L1385.76 1014.03 L1395.17 1020.57 L1391.84 1009.61 L1400.98 1002.69 L1389.52 1002.45 L1385.76 991.63 Z" fill="#009af9" fill-rule="evenodd" fill-opacity="1" stroke="#000000" stroke-opacity="1" stroke-width="3.2"/>
<path clip-path="url(#clip622)" d="M1486.49 1041.77 L1482.73 1052.58 L1471.28 1052.82 L1480.41 1059.75 L1477.08 1070.71 L1486.49 1064.17 L1495.9 1070.71 L1492.57 1059.75 L1501.71 1052.82 L1490.25 1052.58 L1486.49 1041.77 Z" fill="#009af9" fill-rule="evenodd" fill-opacity="1" stroke="#000000" stroke-opacity="1" stroke-width="3.2"/>
<path clip-path="url(#clip622)" d="M1587.22 1089.27 L1583.46 1100.09 L1572.01 1100.33 L1581.14 1107.25 L1577.81 1118.21 L1587.22 1111.67 L1596.63 1118.21 L1593.3 1107.25 L1602.44 1100.33 L1590.98 1100.09 L1587.22 1089.27 Z" fill="#009af9" fill-rule="evenodd" fill-opacity="1" stroke="#000000" stroke-opacity="1" stroke-width="3.2"/>
<path clip-path="url(#clip622)" d="M1687.95 1135.08 L1684.19 1145.89 L1672.73 1146.13 L1681.87 1153.06 L1678.54 1164.02 L1687.95 1157.48 L1697.36 1164.02 L1694.03 1153.06 L1703.17 1146.13 L1691.71 1145.89 L1687.95 1135.08 Z" fill="#009af9" fill-rule="evenodd" fill-opacity="1" stroke="#000000" stroke-opacity="1" stroke-width="3.2"/>
<path clip-path="url(#clip622)" d="M1788.68 1179.17 L1784.92 1189.99 L1773.46 1190.23 L1782.6 1197.16 L1779.27 1208.12 L1788.68 1201.57 L1798.09 1208.12 L1794.76 1197.16 L1803.89 1190.23 L1792.44 1189.99 L1788.68 1179.17 Z" fill="#009af9" fill-rule="evenodd" fill-opacity="1" stroke="#000000" stroke-opacity="1" stroke-width="3.2"/>
<path clip-path="url(#clip622)" d="M1889.41 1221.53 L1885.65 1232.34 L1874.19 1232.58 L1883.33 1239.51 L1880 1250.47 L1889.41 1243.93 L1898.81 1250.47 L1895.49 1239.51 L1904.62 1232.58 L1893.17 1232.34 L1889.41 1221.53 Z" fill="#009af9" fill-rule="evenodd" fill-opacity="1" stroke="#000000" stroke-opacity="1" stroke-width="3.2"/>
<path clip-path="url(#clip622)" d="M1990.13 1262.24 L1986.37 1273.06 L1974.92 1273.3 L1984.05 1280.22 L1980.73 1291.18 L1990.13 1284.64 L1999.54 1291.18 L1996.21 1280.22 L2005.35 1273.3 L1993.89 1273.06 L1990.13 1262.24 Z" fill="#009af9" fill-rule="evenodd" fill-opacity="1" stroke="#000000" stroke-opacity="1" stroke-width="3.2"/>
<path clip-path="url(#clip622)" d="M2090.86 1301.3 L2087.1 1312.12 L2075.65 1312.36 L2084.78 1319.28 L2081.45 1330.24 L2090.86 1323.7 L2100.27 1330.24 L2096.94 1319.28 L2106.08 1312.36 L2094.62 1312.12 L2090.86 1301.3 Z" fill="#009af9" fill-rule="evenodd" fill-opacity="1" stroke="#000000" stroke-opacity="1" stroke-width="3.2"/>
<path clip-path="url(#clip622)" d="M2191.59 1338.33 L2187.83 1349.14 L2176.37 1349.38 L2185.51 1356.31 L2182.18 1367.27 L2191.59 1360.73 L2201 1367.27 L2197.67 1356.31 L2206.81 1349.38 L2195.35 1349.14 L2191.59 1338.33 Z" fill="#009af9" fill-rule="evenodd" fill-opacity="1" stroke="#000000" stroke-opacity="1" stroke-width="3.2"/>
<path clip-path="url(#clip622)" d="M2292.32 1372.44 L2288.56 1383.25 L2277.1 1383.49 L2286.24 1390.42 L2282.91 1401.38 L2292.32 1394.84 L2301.73 1401.38 L2298.4 1390.42 L2307.53 1383.49 L2296.08 1383.25 L2292.32 1372.44 Z" fill="#009af9" fill-rule="evenodd" fill-opacity="1" stroke="#000000" stroke-opacity="1" stroke-width="3.2"/>
<polyline clip-path="url(#clip622)" style="stroke:#0000ff; stroke-linecap:round; stroke-linejoin:round; stroke-width:8; stroke-opacity:1; fill:none" stroke-dasharray="32, 16, 4, 16" points="277.754,86.3079 378.482,351.975 479.211,488.204 579.939,586.598 680.667,668.599 781.395,740.216 882.124,804.151 982.852,826.114 1083.58,923.544 1184.31,978.11 1285.04,1030.9 1385.76,1082.33 1486.49,1100.75 1587.22,1098.24 1687.95,1116.42 1788.68,1153.98 1889.41,1199.7 1990.13,1245.07 2090.86,1285.54 2191.59,1323.35 2292.32,1359.42 "/>
<circle clip-path="url(#clip622)" cx="277.754" cy="86.3079" r="14.4" fill="#e26f46" fill-rule="evenodd" fill-opacity="1" stroke="#000000" stroke-opacity="1" stroke-width="3.2"/>
<circle clip-path="url(#clip622)" cx="378.482" cy="351.975" r="14.4" fill="#e26f46" fill-rule="evenodd" fill-opacity="1" stroke="#000000" stroke-opacity="1" stroke-width="3.2"/>
<circle clip-path="url(#clip622)" cx="479.211" cy="488.204" r="14.4" fill="#e26f46" fill-rule="evenodd" fill-opacity="1" stroke="#000000" stroke-opacity="1" stroke-width="3.2"/>
<circle clip-path="url(#clip622)" cx="579.939" cy="586.598" r="14.4" fill="#e26f46" fill-rule="evenodd" fill-opacity="1" stroke="#000000" stroke-opacity="1" stroke-width="3.2"/>
<circle clip-path="url(#clip622)" cx="680.667" cy="668.599" r="14.4" fill="#e26f46" fill-rule="evenodd" fill-opacity="1" stroke="#000000" stroke-opacity="1" stroke-width="3.2"/>
<circle clip-path="url(#clip622)" cx="781.395" cy="740.216" r="14.4" fill="#e26f46" fill-rule="evenodd" fill-opacity="1" stroke="#000000" stroke-opacity="1" stroke-width="3.2"/>
<circle clip-path="url(#clip622)" cx="882.124" cy="804.151" r="14.4" fill="#e26f46" fill-rule="evenodd" fill-opacity="1" stroke="#000000" stroke-opacity="1" stroke-width="3.2"/>
<circle clip-path="url(#clip622)" cx="982.852" cy="826.114" r="14.4" fill="#e26f46" fill-rule="evenodd" fill-opacity="1" stroke="#000000" stroke-opacity="1" stroke-width="3.2"/>
<circle clip-path="url(#clip622)" cx="1083.58" cy="923.544" r="14.4" fill="#e26f46" fill-rule="evenodd" fill-opacity="1" stroke="#000000" stroke-opacity="1" stroke-width="3.2"/>
<circle clip-path="url(#clip622)" cx="1184.31" cy="978.11" r="14.4" fill="#e26f46" fill-rule="evenodd" fill-opacity="1" stroke="#000000" stroke-opacity="1" stroke-width="3.2"/>
<circle clip-path="url(#clip622)" cx="1285.04" cy="1030.9" r="14.4" fill="#e26f46" fill-rule="evenodd" fill-opacity="1" stroke="#000000" stroke-opacity="1" stroke-width="3.2"/>
<circle clip-path="url(#clip622)" cx="1385.76" cy="1082.33" r="14.4" fill="#e26f46" fill-rule="evenodd" fill-opacity="1" stroke="#000000" stroke-opacity="1" stroke-width="3.2"/>
<circle clip-path="url(#clip622)" cx="1486.49" cy="1100.75" r="14.4" fill="#e26f46" fill-rule="evenodd" fill-opacity="1" stroke="#000000" stroke-opacity="1" stroke-width="3.2"/>
<circle clip-path="url(#clip622)" cx="1587.22" cy="1098.24" r="14.4" fill="#e26f46" fill-rule="evenodd" fill-opacity="1" stroke="#000000" stroke-opacity="1" stroke-width="3.2"/>
<circle clip-path="url(#clip622)" cx="1687.95" cy="1116.42" r="14.4" fill="#e26f46" fill-rule="evenodd" fill-opacity="1" stroke="#000000" stroke-opacity="1" stroke-width="3.2"/>
<circle clip-path="url(#clip622)" cx="1788.68" cy="1153.98" r="14.4" fill="#e26f46" fill-rule="evenodd" fill-opacity="1" stroke="#000000" stroke-opacity="1" stroke-width="3.2"/>
<circle clip-path="url(#clip622)" cx="1889.41" cy="1199.7" r="14.4" fill="#e26f46" fill-rule="evenodd" fill-opacity="1" stroke="#000000" stroke-opacity="1" stroke-width="3.2"/>
<circle clip-path="url(#clip622)" cx="1990.13" cy="1245.07" r="14.4" fill="#e26f46" fill-rule="evenodd" fill-opacity="1" stroke="#000000" stroke-opacity="1" stroke-width="3.2"/>
<circle clip-path="url(#clip622)" cx="2090.86" cy="1285.54" r="14.4" fill="#e26f46" fill-rule="evenodd" fill-opacity="1" stroke="#000000" stroke-opacity="1" stroke-width="3.2"/>
<circle clip-path="url(#clip622)" cx="2191.59" cy="1323.35" r="14.4" fill="#e26f46" fill-rule="evenodd" fill-opacity="1" stroke="#000000" stroke-opacity="1" stroke-width="3.2"/>
<circle clip-path="url(#clip622)" cx="2292.32" cy="1359.42" r="14.4" fill="#e26f46" fill-rule="evenodd" fill-opacity="1" stroke="#000000" stroke-opacity="1" stroke-width="3.2"/>
<polyline clip-path="url(#clip622)" style="stroke:#000000; stroke-linecap:round; stroke-linejoin:round; stroke-width:8; stroke-opacity:1; fill:none" points="277.754,86.3079 378.482,351.975 479.211,488.204 579.939,586.598 680.667,668.599 781.395,740.216 882.124,804.151 982.852,826.114 1083.58,836.593 1184.31,853.143 1285.04,876.308 1385.76,905.428 1486.49,938.646 1587.22,973.158 1687.95,1007.46 1788.68,1040.63 1889.41,1074.36 1990.13,1107.5 2090.86,1139.75 2191.59,1171.38 2292.32,1202.32 "/>
<path clip-path="url(#clip622)" d="M277.754 70.3079 L273.994 81.1239 L262.538 81.3639 L271.674 88.2919 L268.346 99.2519 L277.754 92.7079 L287.162 99.2519 L283.834 88.2919 L292.97 81.3639 L281.514 81.1239 L277.754 70.3079 Z" fill="#3da44d" fill-rule="evenodd" fill-opacity="1" stroke="#000000" stroke-opacity="1" stroke-width="3.2"/>
<path clip-path="url(#clip622)" d="M378.482 335.975 L374.722 346.791 L363.266 347.031 L372.402 353.959 L369.074 364.919 L378.482 358.375 L387.89 364.919 L384.562 353.959 L393.698 347.031 L382.242 346.791 L378.482 335.975 Z" fill="#3da44d" fill-rule="evenodd" fill-opacity="1" stroke="#000000" stroke-opacity="1" stroke-width="3.2"/>
<path clip-path="url(#clip622)" d="M479.211 472.204 L475.451 483.02 L463.995 483.26 L473.131 490.188 L469.803 501.148 L479.211 494.604 L488.619 501.148 L485.291 490.188 L494.427 483.26 L482.971 483.02 L479.211 472.204 Z" fill="#3da44d" fill-rule="evenodd" fill-opacity="1" stroke="#000000" stroke-opacity="1" stroke-width="3.2"/>
<path clip-path="url(#clip622)" d="M579.939 570.598 L576.179 581.414 L564.723 581.654 L573.859 588.582 L570.531 599.542 L579.939 592.998 L589.347 599.542 L586.019 588.582 L595.155 581.654 L583.699 581.414 L579.939 570.598 Z" fill="#3da44d" fill-rule="evenodd" fill-opacity="1" stroke="#000000" stroke-opacity="1" stroke-width="3.2"/>
<path clip-path="url(#clip622)" d="M680.667 652.599 L676.907 663.415 L665.451 663.655 L674.587 670.583 L671.259 681.543 L680.667 674.999 L690.075 681.543 L686.747 670.583 L695.883 663.655 L684.427 663.415 L680.667 652.599 Z" fill="#3da44d" fill-rule="evenodd" fill-opacity="1" stroke="#000000" stroke-opacity="1" stroke-width="3.2"/>
<path clip-path="url(#clip622)" d="M781.395 724.216 L777.635 735.032 L766.179 735.272 L775.315 742.2 L771.987 753.16 L781.395 746.616 L790.803 753.16 L787.475 742.2 L796.611 735.272 L785.155 735.032 L781.395 724.216 Z" fill="#3da44d" fill-rule="evenodd" fill-opacity="1" stroke="#000000" stroke-opacity="1" stroke-width="3.2"/>
<path clip-path="url(#clip622)" d="M882.124 788.151 L878.364 798.967 L866.908 799.207 L876.044 806.135 L872.716 817.095 L882.124 810.551 L891.532 817.095 L888.204 806.135 L897.34 799.207 L885.884 798.967 L882.124 788.151 Z" fill="#3da44d" fill-rule="evenodd" fill-opacity="1" stroke="#000000" stroke-opacity="1" stroke-width="3.2"/>
<path clip-path="url(#clip622)" d="M982.852 810.114 L979.092 820.93 L967.636 821.17 L976.772 828.098 L973.444 839.058 L982.852 832.514 L992.26 839.058 L988.932 828.098 L998.068 821.17 L986.612 820.93 L982.852 810.114 Z" fill="#3da44d" fill-rule="evenodd" fill-opacity="1" stroke="#000000" stroke-opacity="1" stroke-width="3.2"/>
<path clip-path="url(#clip622)" d="M1083.58 820.593 L1079.82 831.409 L1068.36 831.649 L1077.5 838.577 L1074.17 849.537 L1083.58 842.993 L1092.99 849.537 L1089.66 838.577 L1098.8 831.649 L1087.34 831.409 L1083.58 820.593 Z" fill="#3da44d" fill-rule="evenodd" fill-opacity="1" stroke="#000000" stroke-opacity="1" stroke-width="3.2"/>
<path clip-path="url(#clip622)" d="M1184.31 837.143 L1180.55 847.959 L1169.09 848.199 L1178.23 855.127 L1174.9 866.087 L1184.31 859.543 L1193.72 866.087 L1190.39 855.127 L1199.52 848.199 L1188.07 847.959 L1184.31 837.143 Z" fill="#3da44d" fill-rule="evenodd" fill-opacity="1" stroke="#000000" stroke-opacity="1" stroke-width="3.2"/>
<path clip-path="url(#clip622)" d="M1285.04 860.308 L1281.28 871.124 L1269.82 871.364 L1278.96 878.292 L1275.63 889.252 L1285.04 882.708 L1294.44 889.252 L1291.12 878.292 L1300.25 871.364 L1288.8 871.124 L1285.04 860.308 Z" fill="#3da44d" fill-rule="evenodd" fill-opacity="1" stroke="#000000" stroke-opacity="1" stroke-width="3.2"/>
<path clip-path="url(#clip622)" d="M1385.76 889.428 L1382 900.244 L1370.55 900.484 L1379.68 907.412 L1376.36 918.372 L1385.76 911.828 L1395.17 918.372 L1391.84 907.412 L1400.98 900.484 L1389.52 900.244 L1385.76 889.428 Z" fill="#3da44d" fill-rule="evenodd" fill-opacity="1" stroke="#000000" stroke-opacity="1" stroke-width="3.2"/>
<path clip-path="url(#clip622)" d="M1486.49 922.646 L1482.73 933.462 L1471.28 933.702 L1480.41 940.63 L1477.08 951.59 L1486.49 945.046 L1495.9 951.59 L1492.57 940.63 L1501.71 933.702 L1490.25 933.462 L1486.49 922.646 Z" fill="#3da44d" fill-rule="evenodd" fill-opacity="1" stroke="#000000" stroke-opacity="1" stroke-width="3.2"/>
<path clip-path="url(#clip622)" d="M1587.22 957.158 L1583.46 967.974 L1572.01 968.214 L1581.14 975.142 L1577.81 986.102 L1587.22 979.558 L1596.63 986.102 L1593.3 975.142 L1602.44 968.214 L1590.98 967.974 L1587.22 957.158 Z" fill="#3da44d" fill-rule="evenodd" fill-opacity="1" stroke="#000000" stroke-opacity="1" stroke-width="3.2"/>
<path clip-path="url(#clip622)" d="M1687.95 991.459 L1684.19 1002.28 L1672.73 1002.52 L1681.87 1009.44 L1678.54 1020.4 L1687.95 1013.86 L1697.36 1020.4 L1694.03 1009.44 L1703.17 1002.52 L1691.71 1002.28 L1687.95 991.459 Z" fill="#3da44d" fill-rule="evenodd" fill-opacity="1" stroke="#000000" stroke-opacity="1" stroke-width="3.2"/>
<path clip-path="url(#clip622)" d="M1788.68 1024.63 L1784.92 1035.45 L1773.46 1035.69 L1782.6 1042.62 L1779.27 1053.58 L1788.68 1047.03 L1798.09 1053.58 L1794.76 1042.62 L1803.89 1035.69 L1792.44 1035.45 L1788.68 1024.63 Z" fill="#3da44d" fill-rule="evenodd" fill-opacity="1" stroke="#000000" stroke-opacity="1" stroke-width="3.2"/>
<path clip-path="url(#clip622)" d="M1889.41 1058.36 L1885.65 1069.18 L1874.19 1069.42 L1883.33 1076.34 L1880 1087.3 L1889.41 1080.76 L1898.81 1087.3 L1895.49 1076.34 L1904.62 1069.42 L1893.17 1069.18 L1889.41 1058.36 Z" fill="#3da44d" fill-rule="evenodd" fill-opacity="1" stroke="#000000" stroke-opacity="1" stroke-width="3.2"/>
<path clip-path="url(#clip622)" d="M1990.13 1091.5 L1986.37 1102.32 L1974.92 1102.56 L1984.05 1109.48 L1980.73 1120.44 L1990.13 1113.9 L1999.54 1120.44 L1996.21 1109.48 L2005.35 1102.56 L1993.89 1102.32 L1990.13 1091.5 Z" fill="#3da44d" fill-rule="evenodd" fill-opacity="1" stroke="#000000" stroke-opacity="1" stroke-width="3.2"/>
<path clip-path="url(#clip622)" d="M2090.86 1123.75 L2087.1 1134.57 L2075.65 1134.81 L2084.78 1141.74 L2081.45 1152.7 L2090.86 1146.15 L2100.27 1152.7 L2096.94 1141.74 L2106.08 1134.81 L2094.62 1134.57 L2090.86 1123.75 Z" fill="#3da44d" fill-rule="evenodd" fill-opacity="1" stroke="#000000" stroke-opacity="1" stroke-width="3.2"/>
<path clip-path="url(#clip622)" d="M2191.59 1155.38 L2187.83 1166.2 L2176.37 1166.44 L2185.51 1173.37 L2182.18 1184.33 L2191.59 1177.78 L2201 1184.33 L2197.67 1173.37 L2206.81 1166.44 L2195.35 1166.2 L2191.59 1155.38 Z" fill="#3da44d" fill-rule="evenodd" fill-opacity="1" stroke="#000000" stroke-opacity="1" stroke-width="3.2"/>
<path clip-path="url(#clip622)" d="M2292.32 1186.32 L2288.56 1197.14 L2277.1 1197.38 L2286.24 1204.3 L2282.91 1215.26 L2292.32 1208.72 L2301.73 1215.26 L2298.4 1204.3 L2307.53 1197.38 L2296.08 1197.14 L2292.32 1186.32 Z" fill="#3da44d" fill-rule="evenodd" fill-opacity="1" stroke="#000000" stroke-opacity="1" stroke-width="3.2"/>
<path clip-path="url(#clip620)" d="M1649.97 466.424 L2281.57 466.424 L2281.57 93.2526 L1649.97 93.2526  Z" fill="#ffffff" fill-rule="evenodd" fill-opacity="1"/>
<polyline clip-path="url(#clip620)" style="stroke:#000000; stroke-linecap:round; stroke-linejoin:round; stroke-width:4; stroke-opacity:1; fill:none" points="1649.97,466.424 2281.57,466.424 2281.57,93.2526 1649.97,93.2526 1649.97,466.424 "/>
<polyline clip-path="url(#clip620)" style="stroke:#0000ff; stroke-linecap:round; stroke-linejoin:round; stroke-width:8; stroke-opacity:1; fill:none" points="1673.7,186.545 1816.06,186.545 "/>
<path clip-path="url(#clip620)" d="M1744.88 174.338 L1742.01 182.59 L1733.27 182.773 L1740.24 188.059 L1737.7 196.422 L1744.88 191.429 L1752.06 196.422 L1749.52 188.059 L1756.49 182.773 L1747.75 182.59 L1744.88 174.338 Z" fill="#009af9" fill-rule="evenodd" fill-opacity="1" stroke="#000000" stroke-opacity="1" stroke-width="4.55111"/>
<path clip-path="url(#clip620)" d="M1880.17 162.713 Q1880.17 163.673 1879.35 163.673 Q1876.7 163.767 1875.62 164.657 Q1874.57 165.524 1874.17 167.21 L1867.47 193.935 Q1867.24 194.779 1867.1 194.872 Q1866.96 194.942 1866.7 194.942 Q1866.37 194.942 1866.18 194.779 Q1866.02 194.615 1865.79 194.029 L1853.84 165.782 Q1853.75 165.594 1853.63 165.336 Q1853.51 165.079 1853.42 164.915 L1847.07 190.235 Q1846.88 190.961 1846.88 191.335 Q1846.88 192.249 1847.52 192.834 Q1848.17 193.397 1850.05 193.467 Q1851.01 193.467 1851.01 193.982 Q1851.01 194.942 1850.14 194.942 Q1849.34 194.942 1847.68 194.872 Q1846.02 194.802 1845.2 194.802 Q1844.4 194.802 1842.78 194.872 Q1841.17 194.942 1840.4 194.942 Q1839.79 194.942 1839.79 194.404 Q1839.79 193.982 1839.95 193.771 Q1840.11 193.537 1840.25 193.514 Q1840.4 193.467 1840.61 193.467 Q1842.01 193.42 1842.97 193.139 Q1843.93 192.858 1844.47 192.319 Q1845.03 191.78 1845.29 191.242 Q1845.57 190.68 1845.78 189.86 L1852.2 164.095 Q1852.2 163.673 1848.94 163.673 Q1848.38 163.673 1848.15 163.65 Q1847.94 163.627 1847.77 163.51 Q1847.61 163.392 1847.61 163.135 Q1847.61 162.479 1847.89 162.338 Q1848.17 162.174 1848.99 162.174 L1855.43 162.174 Q1856.25 162.174 1856.46 162.315 Q1856.67 162.432 1856.95 163.088 L1867.57 188.127 L1872.93 166.789 Q1873.07 166.367 1873.07 165.782 Q1873.07 164.845 1872.37 164.282 Q1871.69 163.697 1869.81 163.673 Q1868.95 163.673 1868.95 163.135 Q1868.95 162.69 1869.11 162.479 Q1869.3 162.245 1869.44 162.221 Q1869.6 162.174 1869.81 162.174 Q1870.61 162.174 1872.25 162.245 Q1873.89 162.315 1874.71 162.315 Q1875.51 162.315 1877.12 162.245 Q1878.76 162.174 1879.56 162.174 Q1879.84 162.174 1879.98 162.315 Q1880.14 162.432 1880.17 162.573 L1880.17 162.713 Z" fill="#000000" fill-rule="nonzero" fill-opacity="1" /><path clip-path="url(#clip620)" d="M1904.54 162.76 Q1904.54 163.205 1904.35 163.416 Q1904.19 163.603 1903.93 163.65 Q1903.67 163.673 1902.99 163.673 Q1901.84 163.673 1901.12 163.767 Q1900.39 163.837 1899.95 163.955 Q1899.5 164.048 1899.24 164.376 Q1899.01 164.681 1898.89 164.962 Q1898.8 165.243 1898.63 165.875 L1892.22 191.429 Q1892.01 192.179 1892.01 192.553 Q1892.01 192.952 1892.24 193.116 Q1892.47 193.279 1893.22 193.35 Q1894.42 193.467 1895.28 193.467 Q1896.43 193.467 1896.6 193.631 Q1896.71 193.795 1896.71 194.029 Q1896.71 194.451 1896.53 194.685 Q1896.34 194.896 1896.17 194.919 Q1896.03 194.942 1895.75 194.942 L1889.34 194.802 L1883.03 194.942 Q1882.33 194.942 1882.33 194.404 Q1882.33 194.052 1882.38 193.865 Q1882.45 193.654 1882.68 193.584 Q1882.94 193.49 1883.13 193.49 Q1883.32 193.467 1883.85 193.467 Q1884.81 193.467 1885.45 193.443 Q1886.1 193.397 1886.57 193.279 Q1887.06 193.139 1887.3 193.022 Q1887.56 192.881 1887.74 192.577 Q1887.95 192.249 1888.02 191.991 Q1888.12 191.734 1888.23 191.195 L1894.7 165.336 Q1894.79 164.915 1894.79 164.587 Q1894.79 163.955 1894.04 163.814 Q1893.32 163.673 1891.49 163.673 Q1890.93 163.673 1890.69 163.65 Q1890.48 163.627 1890.3 163.51 Q1890.13 163.392 1890.13 163.135 Q1890.13 162.807 1890.23 162.596 Q1890.32 162.362 1890.48 162.292 Q1890.67 162.221 1890.79 162.198 Q1890.9 162.174 1891.09 162.174 L1897.49 162.315 L1903.81 162.174 Q1904.54 162.174 1904.54 162.76 Z" fill="#000000" fill-rule="nonzero" fill-opacity="1" /><path clip-path="url(#clip620)" d="M1943.92 174.307 Q1943.92 178.172 1942.25 181.966 Q1940.61 185.737 1937.94 188.595 Q1935.3 191.429 1931.71 193.186 Q1928.13 194.942 1924.48 194.942 L1908.6 194.942 Q1908.03 194.942 1907.8 194.919 Q1907.59 194.896 1907.43 194.779 Q1907.26 194.638 1907.26 194.357 Q1907.26 193.912 1907.45 193.724 Q1907.64 193.514 1907.85 193.49 Q1908.06 193.467 1908.6 193.467 Q1909.77 193.467 1910.47 193.397 Q1911.17 193.326 1911.62 193.233 Q1912.09 193.116 1912.32 192.788 Q1912.58 192.46 1912.7 192.179 Q1912.81 191.874 1912.98 191.195 L1919.39 165.43 Q1919.58 164.657 1919.58 164.54 Q1919.58 164.142 1919.35 164.001 Q1919.14 163.837 1918.53 163.767 Q1917.36 163.673 1916.47 163.673 Q1915.88 163.673 1915.65 163.65 Q1915.44 163.627 1915.25 163.51 Q1915.08 163.369 1915.08 163.088 Q1915.08 162.643 1915.27 162.456 Q1915.48 162.245 1915.72 162.221 Q1915.95 162.174 1916.51 162.174 L1932.63 162.174 Q1936.12 162.174 1938.72 163.814 Q1941.32 165.43 1942.61 168.171 Q1943.92 170.888 1943.92 174.307 M1939.72 172.551 Q1939.72 168.077 1937.29 165.875 Q1934.88 163.673 1931.06 163.673 L1925.93 163.673 Q1924.41 163.673 1924.03 163.955 Q1923.66 164.212 1923.33 165.5 L1916.75 191.827 Q1916.51 192.694 1916.51 192.928 Q1916.51 193.186 1916.63 193.279 Q1916.77 193.35 1917.15 193.397 Q1917.57 193.467 1918.2 193.467 L1923.61 193.467 Q1925.69 193.467 1927.59 192.905 Q1929.51 192.319 1930.89 191.406 Q1932.28 190.469 1933.17 189.672 Q1934.06 188.853 1934.69 188.033 Q1936.12 186.182 1937.17 183.77 Q1938.25 181.357 1938.74 179.156 Q1939.26 176.931 1939.49 175.291 Q1939.72 173.628 1939.72 172.551 Z" fill="#000000" fill-rule="nonzero" fill-opacity="1" /><path clip-path="url(#clip620)" d="M1976.18 161.612 L1973.58 172.106 Q1973.44 172.738 1973.33 172.902 Q1973.21 173.066 1972.88 173.066 Q1972.62 173.066 1972.46 172.949 Q1972.32 172.832 1972.32 172.715 L1972.3 172.597 Q1972.3 172.527 1972.34 172.176 Q1972.39 171.801 1972.44 171.192 Q1972.48 170.583 1972.48 169.904 Q1972.48 166.063 1970.61 164.282 Q1968.76 162.479 1965.57 162.479 Q1963.37 162.479 1961.4 163.65 Q1959.44 164.821 1958.31 166.672 Q1957.19 168.499 1957.19 170.419 Q1957.19 172.176 1958.08 173.3 Q1958.97 174.424 1960.12 174.799 L1963.33 175.666 Q1966.7 176.532 1967.66 176.907 Q1968.62 177.259 1969.42 178.055 Q1971.78 180.257 1971.78 183.676 Q1971.78 186.627 1970.12 189.485 Q1968.45 192.319 1965.6 194.17 Q1962.74 195.996 1959.58 195.996 Q1954.03 195.996 1951.47 192.553 L1949.13 195.27 Q1948.69 195.786 1948.55 195.879 Q1948.43 195.996 1948.26 195.996 Q1948.05 195.996 1947.89 195.856 Q1947.73 195.739 1947.73 195.528 Q1947.73 195.364 1949.11 189.86 Q1950.49 184.356 1950.61 184.238 Q1950.79 184.051 1951.1 184.051 Q1951.66 184.051 1951.66 184.59 Q1951.61 184.73 1951.57 184.918 Q1951.29 186.604 1951.29 187.518 Q1951.29 189.227 1951.87 190.539 Q1952.46 191.827 1953.32 192.577 Q1954.21 193.303 1955.41 193.771 Q1956.6 194.216 1957.61 194.38 Q1958.62 194.521 1959.67 194.521 Q1961.94 194.521 1963.96 193.209 Q1966 191.898 1967.14 189.86 Q1968.31 187.822 1968.31 185.691 Q1968.31 184.566 1968.01 183.7 Q1967.71 182.81 1967.28 182.318 Q1966.89 181.826 1966.21 181.451 Q1965.53 181.076 1965.06 180.936 Q1964.61 180.772 1963.91 180.608 L1958.78 179.249 Q1956.72 178.64 1955.24 176.884 Q1953.79 175.127 1953.79 172.433 Q1953.79 169.599 1955.46 166.976 Q1957.14 164.329 1959.88 162.737 Q1962.65 161.12 1965.62 161.12 Q1967.96 161.12 1969.77 162.034 Q1971.57 162.924 1972.48 164.587 L1974.8 161.847 Q1975.27 161.308 1975.36 161.214 Q1975.48 161.12 1975.65 161.12 Q1975.93 161.12 1976.04 161.284 Q1976.18 161.448 1976.18 161.612 Z" fill="#000000" fill-rule="nonzero" fill-opacity="1" /><path clip-path="url(#clip620)" d="M2021.81 182.271 Q2022.09 182.552 2022.09 182.95 Q2022.09 183.348 2021.81 183.629 Q2021.52 183.91 2021.13 183.91 L1991.1 183.91 Q1990.7 183.91 1990.42 183.629 Q1990.14 183.348 1990.14 182.95 Q1990.14 182.552 1990.42 182.271 Q1990.7 181.99 1991.1 181.99 L2021.13 181.99 Q2021.52 181.99 2021.81 182.271 Z" fill="#000000" fill-rule="nonzero" fill-opacity="1" /><path clip-path="url(#clip620)" d="M2057.63 144.159 L2057.63 142.66 Q2063.39 142.66 2066.37 139.591 Q2067.19 139.591 2067.33 139.779 Q2067.47 139.966 2067.47 140.833 L2067.47 167.745 Q2067.47 169.174 2068.17 169.619 Q2068.87 170.064 2071.94 170.064 L2073.46 170.064 L2073.46 171.54 Q2071.78 171.399 2065.69 171.399 Q2059.6 171.399 2057.93 171.54 L2057.93 170.064 L2059.46 170.064 Q2062.48 170.064 2063.2 169.642 Q2063.93 169.197 2063.93 167.745 L2063.93 142.894 Q2061.42 144.159 2057.63 144.159 Z" fill="#000000" fill-rule="nonzero" fill-opacity="1" /><path clip-path="url(#clip620)" d="M2050.63 184.34 L2084.44 184.34 L2084.44 181.78 L2050.63 181.78  Z" fill="#000000" fill-rule="evenodd" fill-opacity="1"/>
<path clip-path="url(#clip620)" d="M2073.99 195.419 L2061.87 195.419 L2061.87 194.369 L2073.99 194.369 L2073.99 195.419 Z" fill="#000000" fill-rule="nonzero" fill-opacity="1" /><path clip-path="url(#clip620)" d="M2079.6 221.34 Q2079.6 221.481 2079.42 222.019 L2075.62 232.372 Q2075.41 232.981 2075.2 233.098 Q2074.99 233.192 2074.12 233.192 L2051.92 233.192 Q2051.38 233.192 2051.17 233.168 Q2050.96 233.145 2050.79 233.028 Q2050.63 232.911 2050.63 232.653 Q2050.63 232.185 2050.79 231.974 Q2050.98 231.763 2051.19 231.74 Q2051.4 231.716 2051.92 231.716 Q2053.09 231.716 2053.79 231.646 Q2054.49 231.576 2054.94 231.482 Q2055.41 231.365 2055.64 231.037 Q2055.9 230.709 2056.02 230.428 Q2056.13 230.123 2056.3 229.444 L2062.72 203.68 Q2062.9 202.907 2062.9 202.79 Q2062.9 202.344 2062.62 202.227 Q2062.36 202.087 2061.62 202.017 L2059.79 201.923 Q2059.23 201.923 2058.99 201.899 Q2058.78 201.876 2058.62 201.759 Q2058.45 201.642 2058.45 201.384 Q2058.45 200.939 2058.62 200.728 Q2058.8 200.494 2058.95 200.471 Q2059.11 200.424 2059.37 200.424 L2065.74 200.564 L2072.83 200.424 Q2073.61 200.424 2073.61 201.009 Q2073.61 201.665 2073.28 201.806 Q2072.95 201.923 2071.78 201.923 Q2069.53 201.923 2068.5 202.157 Q2067.49 202.391 2067.21 202.79 Q2066.96 203.164 2066.7 204.171 L2060.21 230.077 Q2059.98 230.943 2059.98 231.178 Q2059.98 231.435 2060.09 231.529 Q2060.23 231.599 2060.61 231.646 Q2061.03 231.716 2061.66 231.716 L2066.16 231.716 Q2067.52 231.716 2068.71 231.505 Q2069.91 231.295 2070.82 230.99 Q2071.76 230.686 2072.6 230.123 Q2073.44 229.561 2074.03 229.069 Q2074.64 228.554 2075.22 227.758 Q2075.83 226.938 2076.18 226.376 Q2076.56 225.79 2076.98 224.853 Q2077.4 223.893 2077.61 223.354 Q2077.85 222.792 2078.2 221.832 Q2078.41 221.34 2078.48 221.2 Q2078.55 221.059 2078.67 220.942 Q2078.81 220.825 2079.02 220.825 Q2079.3 220.825 2079.44 220.989 Q2079.6 221.153 2079.6 221.34 Z" fill="#000000" fill-rule="nonzero" fill-opacity="1" /><polyline clip-path="url(#clip620)" style="stroke:#0000ff; stroke-linecap:round; stroke-linejoin:round; stroke-width:8; stroke-opacity:1; fill:none" stroke-dasharray="32, 16, 4, 16" points="1673.7,279.838 1816.06,279.838 "/>
<circle clip-path="url(#clip620)" cx="1744.88" cy="279.838" r="10.987" fill="#e26f46" fill-rule="evenodd" fill-opacity="1" stroke="#000000" stroke-opacity="1" stroke-width="4.55111"/>
<path clip-path="url(#clip620)" d="M1872.69 291.011 Q1872.69 291.456 1872.51 291.69 Q1872.34 291.901 1872.18 291.948 Q1872.04 291.971 1871.83 291.971 Q1871.22 291.971 1869.11 291.901 Q1867 291.831 1866.39 291.831 Q1865.41 291.831 1863.4 291.901 Q1861.38 291.971 1860.4 291.971 Q1859.74 291.971 1859.74 291.432 Q1859.74 291.081 1859.81 290.894 Q1859.88 290.683 1860.07 290.613 Q1860.28 290.519 1860.4 290.519 Q1860.54 290.495 1860.89 290.495 Q1861.36 290.495 1861.85 290.449 Q1862.34 290.378 1862.95 290.238 Q1863.56 290.097 1863.93 289.746 Q1864.33 289.395 1864.33 288.903 Q1864.33 288.692 1864.17 286.959 Q1864 285.225 1863.79 283.211 Q1863.58 281.173 1863.56 280.892 L1851.52 280.892 Q1850.42 282.789 1849.65 284.101 Q1848.87 285.413 1848.59 285.858 Q1848.31 286.303 1848.15 286.584 Q1847.98 286.865 1847.89 287.029 Q1847.21 288.27 1847.21 288.809 Q1847.21 290.308 1849.46 290.495 Q1850.23 290.495 1850.23 291.058 Q1850.23 291.479 1850.05 291.713 Q1849.86 291.924 1849.69 291.948 Q1849.55 291.971 1849.32 291.971 Q1848.55 291.971 1846.93 291.901 Q1845.31 291.831 1844.52 291.831 Q1843.84 291.831 1842.43 291.901 Q1841.03 291.971 1840.4 291.971 Q1840.11 291.971 1839.95 291.807 Q1839.79 291.643 1839.79 291.432 Q1839.79 291.104 1839.83 290.917 Q1839.9 290.73 1840.09 290.636 Q1840.28 290.542 1840.37 290.542 Q1840.47 290.519 1840.79 290.495 Q1842.57 290.378 1843.96 289.535 Q1845.36 288.668 1846.7 286.443 L1863.37 258.43 Q1863.54 258.149 1863.65 258.009 Q1863.77 257.868 1864 257.751 Q1864.26 257.634 1864.64 257.634 Q1865.22 257.634 1865.34 257.821 Q1865.46 257.985 1865.53 258.781 L1868.46 288.762 Q1868.53 289.395 1868.57 289.652 Q1868.64 289.886 1868.95 290.144 Q1869.27 290.378 1869.86 290.449 Q1870.47 290.495 1871.59 290.495 Q1872.02 290.495 1872.18 290.519 Q1872.34 290.519 1872.51 290.636 Q1872.69 290.753 1872.69 291.011 M1863.42 279.393 L1861.9 263.583 L1852.43 279.393 L1863.42 279.393 Z" fill="#000000" fill-rule="nonzero" fill-opacity="1" /><path clip-path="url(#clip620)" d="M1885.86 259.203 L1878.95 286.935 Q1878.67 288.036 1878.67 289.231 Q1878.67 291.432 1880.12 291.432 Q1880.8 291.432 1881.37 290.987 Q1881.93 290.519 1882.35 289.605 Q1882.79 288.668 1883.07 287.778 Q1883.38 286.888 1883.75 285.506 Q1883.87 284.968 1883.99 284.804 Q1884.11 284.64 1884.43 284.64 Q1885.02 284.64 1885.02 285.108 Q1884.43 287.989 1883.57 289.816 Q1882.3 292.51 1879.96 292.51 Q1878.2 292.51 1876.89 291.292 Q1875.6 290.05 1875.6 288.083 Q1875.6 287.333 1875.84 286.443 L1881.88 262.459 L1882.04 261.522 Q1882.04 261.264 1881.95 261.124 Q1881.86 260.983 1881.29 260.843 Q1880.76 260.702 1879.68 260.702 Q1879.23 260.702 1879.02 260.679 Q1878.84 260.655 1878.65 260.538 Q1878.48 260.421 1878.48 260.163 Q1878.48 259.742 1878.65 259.508 Q1878.84 259.273 1878.98 259.226 Q1879.12 259.18 1879.4 259.156 Q1879.8 259.133 1881.13 259.016 Q1882.47 258.875 1883.61 258.781 Q1884.76 258.688 1885.25 258.688 Q1885.53 258.688 1885.67 258.828 Q1885.84 258.945 1885.86 259.086 L1885.86 259.203 Z" fill="#000000" fill-rule="nonzero" fill-opacity="1" /><path clip-path="url(#clip620)" d="M1910.62 273.022 Q1910.62 273.046 1910.48 273.889 L1905.14 295.18 Q1904.85 296.304 1904.06 297.428 Q1903.28 298.576 1902.04 299.56 Q1900.83 300.567 1898.95 301.176 Q1897.1 301.808 1894.97 301.808 Q1891.57 301.808 1890.07 301.082 Q1888.6 300.38 1888.6 298.881 Q1888.6 297.569 1889.42 296.82 Q1890.24 296.093 1891.18 296.093 Q1892.07 296.093 1892.53 296.609 Q1893 297.124 1893 297.78 Q1893 298.506 1892.51 299.232 Q1892.02 299.982 1891.04 300.263 Q1892.6 300.754 1894.88 300.754 Q1899.68 300.754 1901.74 295.672 Q1901.79 295.602 1901.79 295.578 L1903.38 289.231 L1903.31 289.184 Q1902.91 289.652 1902.28 290.191 Q1901.67 290.706 1900.36 291.339 Q1899.05 291.971 1897.76 291.971 Q1895.06 291.971 1893.21 289.91 Q1891.39 287.825 1891.39 284.382 Q1891.39 281.876 1892.39 279.37 Q1893.42 276.84 1895.02 274.99 Q1896.63 273.116 1898.69 271.945 Q1900.78 270.774 1902.79 270.774 Q1904.2 270.774 1905.39 271.617 Q1906.59 272.437 1907.24 273.795 Q1907.36 272.671 1907.99 272.203 Q1908.65 271.734 1909.21 271.734 Q1909.84 271.734 1910.22 272.085 Q1910.62 272.413 1910.62 273.022 M1906.68 275.95 Q1906.68 275.81 1906.59 275.435 Q1906.49 275.037 1906.21 274.404 Q1905.96 273.772 1905.56 273.21 Q1905.16 272.648 1904.43 272.249 Q1903.73 271.828 1902.84 271.828 Q1901.39 271.828 1899.94 273.046 Q1898.48 274.24 1897.48 276.091 Q1896.54 277.871 1895.65 281.314 Q1894.78 284.757 1894.78 286.514 Q1894.78 288.247 1895.53 289.582 Q1896.28 290.917 1897.9 290.917 Q1899.77 290.917 1901.79 289.184 Q1903.87 287.38 1904.22 285.834 L1906.54 276.676 Q1906.68 276.114 1906.68 275.95 Z" fill="#000000" fill-rule="nonzero" fill-opacity="1" /><path clip-path="url(#clip620)" d="M1935.81 278.878 Q1935.81 281.431 1934.68 283.961 Q1933.56 286.467 1931.76 288.341 Q1929.98 290.191 1927.63 291.362 Q1925.29 292.51 1922.95 292.51 Q1919.6 292.51 1917.42 290.238 Q1915.27 287.942 1915.27 284.382 Q1915.27 281.056 1917.12 277.894 Q1918.99 274.709 1921.99 272.741 Q1924.99 270.774 1928.13 270.774 Q1931.43 270.774 1933.61 272.999 Q1935.81 275.224 1935.81 278.878 M1932.3 277.004 Q1932.3 274.732 1931.2 273.28 Q1930.09 271.828 1928.08 271.828 Q1927.49 271.828 1926.82 272.015 Q1926.14 272.179 1925.25 272.624 Q1924.38 273.069 1923.4 274.006 Q1922.44 274.92 1921.59 276.231 Q1920.49 277.964 1919.65 281.15 Q1918.83 284.312 1918.83 286.209 Q1918.83 288.832 1920.05 290.144 Q1921.26 291.432 1923 291.432 Q1924.68 291.432 1926.46 290.261 Q1928.27 289.067 1929.51 287.029 Q1930.75 284.921 1931.52 281.829 Q1932.3 278.714 1932.3 277.004 Z" fill="#000000" fill-rule="nonzero" fill-opacity="1" /><path clip-path="url(#clip620)" d="M1956.87 273.889 Q1956.87 275.13 1956.05 275.927 Q1955.26 276.723 1954.23 276.723 Q1953.34 276.723 1952.87 276.208 Q1952.4 275.692 1952.4 275.037 Q1952.4 274.1 1953.13 273.327 Q1953.85 272.554 1954.91 272.39 Q1954.13 271.828 1952.89 271.828 Q1950.85 271.828 1949.05 273.397 Q1948.25 274.123 1947.39 275.458 Q1946.52 276.77 1946.36 277.332 L1944.83 283.586 Q1944.69 284.288 1943.83 287.661 Q1942.98 291.011 1942.91 291.151 Q1942.68 291.807 1942.16 292.158 Q1941.65 292.51 1941.13 292.51 Q1940.55 292.51 1940.15 292.158 Q1939.75 291.807 1939.75 291.198 Q1939.75 291.104 1939.82 290.753 Q1939.89 290.402 1940.01 289.91 Q1940.13 289.418 1940.17 289.137 L1942.96 278.058 Q1943.48 276.044 1943.59 275.411 Q1943.73 274.756 1943.73 274.029 Q1943.73 272.765 1943.33 272.296 Q1942.94 271.828 1942.23 271.828 Q1941.02 271.828 1940.22 273.28 Q1939.42 274.732 1938.74 277.543 Q1938.53 278.316 1938.39 278.48 Q1938.28 278.644 1937.92 278.644 Q1937.34 278.62 1937.34 278.152 Q1937.34 278.035 1937.53 277.285 Q1937.71 276.512 1938.06 275.388 Q1938.44 274.24 1938.84 273.514 Q1939.07 273.022 1939.28 272.694 Q1939.49 272.366 1939.92 271.851 Q1940.34 271.336 1940.97 271.055 Q1941.6 270.774 1942.37 270.774 Q1944.06 270.774 1945.26 271.804 Q1946.47 272.835 1946.75 274.451 Q1947.34 273.608 1948.07 272.882 Q1948.79 272.132 1950.13 271.453 Q1951.46 270.774 1952.89 270.774 Q1954.67 270.774 1955.77 271.687 Q1956.87 272.577 1956.87 273.889 Z" fill="#000000" fill-rule="nonzero" fill-opacity="1" /><path clip-path="url(#clip620)" d="M1970.45 261.99 Q1970.45 263.021 1969.6 263.794 Q1968.78 264.543 1967.89 264.543 Q1967.07 264.543 1966.56 264.052 Q1966.07 263.536 1966.07 262.81 Q1966.07 261.85 1966.89 261.053 Q1967.71 260.257 1968.67 260.257 Q1969.46 260.257 1969.96 260.749 Q1970.45 261.241 1970.45 261.99 M1970.87 285.108 Q1970.87 285.296 1970.66 286.045 Q1970.45 286.771 1969.93 287.896 Q1969.44 288.996 1968.76 290.027 Q1968.08 291.058 1966.96 291.784 Q1965.86 292.51 1964.59 292.51 Q1962.88 292.51 1961.76 291.385 Q1960.66 290.261 1960.66 288.575 Q1960.66 287.661 1961.76 284.734 Q1964.94 276.208 1965.06 275.856 Q1965.6 274.521 1965.6 273.35 Q1965.6 272.811 1965.48 272.484 Q1965.36 272.132 1965.13 272.015 Q1964.9 271.875 1964.76 271.851 Q1964.64 271.828 1964.4 271.828 Q1963.02 271.828 1961.73 273.233 Q1960.45 274.638 1959.56 277.777 Q1959.37 278.363 1959.25 278.503 Q1959.13 278.644 1958.78 278.644 Q1958.2 278.62 1958.2 278.152 Q1958.2 278.011 1958.36 277.473 Q1958.53 276.91 1958.83 276.067 Q1959.13 275.201 1959.67 274.311 Q1960.21 273.397 1960.87 272.601 Q1961.55 271.804 1962.51 271.289 Q1963.47 270.774 1964.54 270.774 Q1966.3 270.774 1967.38 271.921 Q1968.48 273.046 1968.48 274.709 Q1968.48 275.622 1967.85 277.238 Q1967.07 279.346 1966.79 280.026 L1964.92 285.061 Q1964.24 286.888 1964.03 287.451 Q1963.84 287.989 1963.68 288.645 Q1963.54 289.277 1963.54 289.863 Q1963.54 290.683 1963.8 291.058 Q1964.08 291.432 1964.69 291.432 Q1966.37 291.432 1967.61 289.769 Q1968.85 288.083 1969.58 285.506 Q1969.6 285.436 1969.63 285.319 Q1969.81 284.734 1970 284.663 Q1970.1 284.64 1970.28 284.64 Q1970.87 284.64 1970.87 285.108 Z" fill="#000000" fill-rule="nonzero" fill-opacity="1" /><path clip-path="url(#clip620)" d="M1989.69 271.828 Q1989.69 272.484 1989.38 272.648 Q1989.08 272.788 1988.24 272.788 L1983.74 272.788 L1980.18 286.935 Q1979.9 288.177 1979.9 289.231 Q1979.9 290.402 1980.25 290.917 Q1980.62 291.432 1981.4 291.432 Q1982.92 291.432 1984.56 290.05 Q1986.22 288.668 1987.63 285.296 Q1987.81 284.851 1987.91 284.757 Q1988.03 284.64 1988.33 284.64 Q1988.92 284.64 1988.92 285.108 Q1988.92 285.272 1988.59 286.022 Q1988.28 286.771 1987.6 287.872 Q1986.95 288.973 1986.08 290.004 Q1985.24 291.034 1983.95 291.784 Q1982.66 292.51 1981.28 292.51 Q1979.34 292.51 1978.09 291.268 Q1976.88 290.027 1976.88 288.083 Q1976.88 287.451 1977.37 285.436 Q1977.86 283.398 1980.53 272.788 L1976.29 272.788 Q1975.71 272.788 1975.47 272.765 Q1975.26 272.741 1975.1 272.624 Q1974.96 272.484 1974.96 272.203 Q1974.96 271.757 1975.14 271.57 Q1975.33 271.359 1975.56 271.336 Q1975.82 271.289 1976.41 271.289 L1980.91 271.289 L1982.78 263.677 Q1982.97 262.927 1983.43 262.506 Q1983.93 262.061 1984.21 262.014 Q1984.49 261.943 1984.7 261.943 Q1985.33 261.943 1985.71 262.295 Q1986.08 262.623 1986.08 263.232 Q1986.08 263.56 1984.11 271.289 L1988.33 271.289 Q1988.87 271.289 1989.08 271.312 Q1989.31 271.336 1989.5 271.453 Q1989.69 271.57 1989.69 271.828 Z" fill="#000000" fill-rule="nonzero" fill-opacity="1" /><path clip-path="url(#clip620)" d="M2015.77 285.108 Q2015.77 285.296 2015.56 286.022 Q2015.35 286.748 2014.83 287.872 Q2014.34 288.996 2013.66 290.027 Q2012.98 291.034 2011.86 291.784 Q2010.76 292.51 2009.49 292.51 Q2007.81 292.51 2006.68 291.385 Q2005.56 290.261 2005.56 288.575 Q2005.56 288.341 2005.58 288.106 Q2005.6 287.872 2005.63 287.732 Q2005.65 287.568 2005.72 287.31 Q2005.81 287.029 2005.84 286.912 Q2005.88 286.795 2006 286.443 Q2006.14 286.069 2006.19 285.928 Q2009.16 278.339 2009.16 275.177 Q2009.16 271.828 2006.56 271.828 Q2004.25 271.828 2001.95 273.514 Q2000.9 274.357 1999.89 275.856 Q1998.88 277.355 1998.69 277.918 Q1998.48 279.136 1998.18 280.072 Q1998.04 280.728 1997.36 283.281 L1996.31 287.614 L1995.39 291.245 Q1995.2 291.76 1994.69 292.135 Q1994.17 292.51 1993.61 292.51 Q1993.14 292.51 1992.67 292.182 Q1992.23 291.877 1992.23 291.151 Q1992.23 290.777 1992.42 290.097 L1999.37 262.459 L1999.51 261.522 Q1999.51 261.241 1999.4 261.1 Q1999.3 260.936 1998.74 260.819 Q1998.2 260.702 1997.12 260.702 Q1996.68 260.702 1996.47 260.679 Q1996.28 260.655 1996.12 260.538 Q1995.95 260.398 1995.95 260.117 Q1995.95 259.718 1996.12 259.508 Q1996.31 259.273 1996.45 259.226 Q1996.59 259.18 1996.87 259.156 Q1997.27 259.133 1998.6 259.016 Q1999.94 258.875 2001.08 258.781 Q2002.23 258.688 2002.72 258.688 Q2003 258.688 2003.14 258.828 Q2003.31 258.945 2003.33 259.086 L2003.36 259.203 L1999.61 274.451 Q2002.58 270.774 2006.7 270.774 Q2009.37 270.774 2010.8 272.156 Q2012.23 273.514 2012.23 275.903 Q2012.23 278.644 2009.3 286.443 Q2008.44 288.622 2008.44 289.863 Q2008.44 290.683 2008.7 291.058 Q2008.98 291.432 2009.59 291.432 Q2010.52 291.432 2011.34 290.894 Q2012.19 290.331 2012.77 289.418 Q2013.36 288.481 2013.75 287.544 Q2014.18 286.584 2014.48 285.506 Q2014.67 284.921 2014.76 284.78 Q2014.88 284.64 2015.21 284.64 Q2015.77 284.64 2015.77 285.108 Z" fill="#000000" fill-rule="nonzero" fill-opacity="1" /><path clip-path="url(#clip620)" d="M2057.34 285.108 Q2057.34 285.296 2057.13 286.022 Q2056.92 286.748 2056.4 287.872 Q2055.91 288.996 2055.21 290.027 Q2054.53 291.034 2053.41 291.784 Q2052.31 292.51 2051.04 292.51 Q2049.35 292.51 2048.23 291.385 Q2047.11 290.261 2047.11 288.575 Q2047.11 287.661 2047.74 285.928 Q2050.71 278.011 2050.71 275.177 Q2050.71 271.828 2048.11 271.828 Q2046.64 271.828 2045.3 272.437 Q2043.97 273.046 2043.1 273.889 Q2042.23 274.732 2041.55 275.692 Q2040.88 276.653 2040.57 277.285 Q2040.29 277.918 2040.22 278.199 L2037.34 289.769 Q2037.1 290.753 2036.94 291.222 Q2036.78 291.69 2036.33 292.088 Q2035.89 292.51 2035.18 292.51 Q2034.6 292.51 2034.18 292.158 Q2033.78 291.807 2033.78 291.198 Q2033.78 291.104 2033.9 290.613 Q2034.01 290.121 2034.18 289.441 Q2034.34 288.762 2034.41 288.364 Q2035.25 285.179 2035.37 284.734 L2036.71 279.159 Q2037.43 276.395 2037.43 275.177 Q2037.43 271.828 2034.83 271.828 Q2033.54 271.828 2032.33 272.32 Q2031.13 272.788 2030.31 273.444 Q2029.49 274.1 2028.74 275.013 Q2028.02 275.903 2027.64 276.512 Q2027.29 277.098 2027.01 277.683 L2026.4 280.072 Q2026.26 280.728 2025.58 283.281 L2024.53 287.614 Q2023.78 290.847 2023.61 291.151 Q2023.38 291.807 2022.86 292.158 Q2022.35 292.51 2021.83 292.51 Q2021.25 292.51 2020.85 292.158 Q2020.45 291.807 2020.45 291.198 Q2020.45 291.104 2020.52 290.753 Q2020.59 290.402 2020.71 289.91 Q2020.83 289.418 2020.87 289.137 L2023.66 278.058 Q2024.18 276.044 2024.29 275.411 Q2024.43 274.756 2024.43 274.029 Q2024.43 271.828 2022.93 271.828 Q2021.72 271.828 2020.92 273.28 Q2020.12 274.732 2019.44 277.543 Q2019.23 278.316 2019.09 278.48 Q2018.98 278.644 2018.62 278.644 Q2018.04 278.62 2018.04 278.152 Q2018.04 278.035 2018.23 277.285 Q2018.41 276.536 2018.76 275.411 Q2019.14 274.264 2019.54 273.514 Q2019.77 273.022 2019.98 272.694 Q2020.19 272.366 2020.62 271.851 Q2021.04 271.336 2021.67 271.055 Q2022.3 270.774 2023.07 270.774 Q2024.78 270.774 2026.05 271.875 Q2027.34 272.975 2027.5 274.943 Q2030.62 270.774 2034.97 270.774 Q2037.43 270.774 2038.91 272.015 Q2040.29 273.21 2040.45 275.411 Q2043.69 270.774 2048.28 270.774 Q2050.92 270.774 2052.35 272.156 Q2053.78 273.514 2053.78 275.903 Q2053.78 277.145 2053.15 279.51 Q2052.52 281.853 2052.09 283.024 Q2051.67 284.195 2050.85 286.443 Q2049.99 288.598 2049.99 289.863 Q2049.99 290.683 2050.27 291.058 Q2050.55 291.432 2051.16 291.432 Q2052.09 291.432 2052.91 290.894 Q2053.73 290.331 2054.32 289.418 Q2054.93 288.481 2055.33 287.544 Q2055.73 286.584 2056.03 285.506 Q2056.22 284.921 2056.31 284.78 Q2056.43 284.64 2056.76 284.64 Q2057.34 284.64 2057.34 285.108 Z" fill="#000000" fill-rule="nonzero" fill-opacity="1" /><path clip-path="url(#clip620)" d="M2062.24 264.59 L2062.24 263.091 Q2068 263.091 2070.97 260.023 Q2071.79 260.023 2071.93 260.21 Q2072.07 260.398 2072.07 261.264 L2072.07 288.177 Q2072.07 289.605 2072.78 290.05 Q2073.48 290.495 2076.55 290.495 L2078.07 290.495 L2078.07 291.971 Q2076.38 291.831 2070.29 291.831 Q2064.2 291.831 2062.54 291.971 L2062.54 290.495 L2064.06 290.495 Q2067.08 290.495 2067.81 290.074 Q2068.54 289.629 2068.54 288.177 L2068.54 263.325 Q2066.03 264.59 2062.24 264.59 Z" fill="#000000" fill-rule="nonzero" fill-opacity="1" /><polyline clip-path="url(#clip620)" style="stroke:#000000; stroke-linecap:round; stroke-linejoin:round; stroke-width:8; stroke-opacity:1; fill:none" points="1673.7,373.131 1816.06,373.131 "/>
<path clip-path="url(#clip620)" d="M1744.88 360.923 L1742.01 369.176 L1733.27 369.359 L1740.24 374.645 L1737.7 383.007 L1744.88 378.014 L1752.06 383.007 L1749.52 374.645 L1756.49 369.359 L1747.75 369.176 L1744.88 360.923 Z" fill="#3da44d" fill-rule="evenodd" fill-opacity="1" stroke="#000000" stroke-opacity="1" stroke-width="4.55111"/>
<path clip-path="url(#clip620)" d="M1880.17 352.777 Q1880.17 353.737 1879.35 353.737 Q1876.7 353.831 1875.62 354.721 Q1874.57 355.587 1874.17 357.274 L1867.47 383.999 Q1867.24 384.842 1867.1 384.936 Q1866.96 385.006 1866.7 385.006 Q1866.37 385.006 1866.18 384.842 Q1866.02 384.678 1865.79 384.093 L1853.84 355.845 Q1853.75 355.658 1853.63 355.4 Q1853.51 355.142 1853.42 354.978 L1847.07 380.298 Q1846.88 381.024 1846.88 381.399 Q1846.88 382.312 1847.52 382.898 Q1848.17 383.46 1850.05 383.53 Q1851.01 383.53 1851.01 384.046 Q1851.01 385.006 1850.14 385.006 Q1849.34 385.006 1847.68 384.936 Q1846.02 384.866 1845.2 384.866 Q1844.4 384.866 1842.78 384.936 Q1841.17 385.006 1840.4 385.006 Q1839.79 385.006 1839.79 384.467 Q1839.79 384.046 1839.95 383.835 Q1840.11 383.601 1840.25 383.577 Q1840.4 383.53 1840.61 383.53 Q1842.01 383.484 1842.97 383.203 Q1843.93 382.921 1844.47 382.383 Q1845.03 381.844 1845.29 381.305 Q1845.57 380.743 1845.78 379.923 L1852.2 354.159 Q1852.2 353.737 1848.94 353.737 Q1848.38 353.737 1848.15 353.714 Q1847.94 353.69 1847.77 353.573 Q1847.61 353.456 1847.61 353.198 Q1847.61 352.543 1847.89 352.402 Q1848.17 352.238 1848.99 352.238 L1855.43 352.238 Q1856.25 352.238 1856.46 352.379 Q1856.67 352.496 1856.95 353.152 L1867.57 378.19 L1872.93 356.852 Q1873.07 356.431 1873.07 355.845 Q1873.07 354.908 1872.37 354.346 Q1871.69 353.761 1869.81 353.737 Q1868.95 353.737 1868.95 353.198 Q1868.95 352.753 1869.11 352.543 Q1869.3 352.308 1869.44 352.285 Q1869.6 352.238 1869.81 352.238 Q1870.61 352.238 1872.25 352.308 Q1873.89 352.379 1874.71 352.379 Q1875.51 352.379 1877.12 352.308 Q1878.76 352.238 1879.56 352.238 Q1879.84 352.238 1879.98 352.379 Q1880.14 352.496 1880.17 352.636 L1880.17 352.777 Z" fill="#000000" fill-rule="nonzero" fill-opacity="1" /><path clip-path="url(#clip620)" d="M1904.54 352.824 Q1904.54 353.269 1904.35 353.479 Q1904.19 353.667 1903.93 353.714 Q1903.67 353.737 1902.99 353.737 Q1901.84 353.737 1901.12 353.831 Q1900.39 353.901 1899.95 354.018 Q1899.5 354.112 1899.24 354.44 Q1899.01 354.744 1898.89 355.025 Q1898.8 355.306 1898.63 355.939 L1892.22 381.493 Q1892.01 382.242 1892.01 382.617 Q1892.01 383.015 1892.24 383.179 Q1892.47 383.343 1893.22 383.413 Q1894.42 383.53 1895.28 383.53 Q1896.43 383.53 1896.6 383.694 Q1896.71 383.858 1896.71 384.093 Q1896.71 384.514 1896.53 384.748 Q1896.34 384.959 1896.17 384.983 Q1896.03 385.006 1895.75 385.006 L1889.34 384.866 L1883.03 385.006 Q1882.33 385.006 1882.33 384.467 Q1882.33 384.116 1882.38 383.929 Q1882.45 383.718 1882.68 383.648 Q1882.94 383.554 1883.13 383.554 Q1883.32 383.53 1883.85 383.53 Q1884.81 383.53 1885.45 383.507 Q1886.1 383.46 1886.57 383.343 Q1887.06 383.203 1887.3 383.085 Q1887.56 382.945 1887.74 382.64 Q1887.95 382.312 1888.02 382.055 Q1888.12 381.797 1888.23 381.258 L1894.7 355.4 Q1894.79 354.978 1894.79 354.651 Q1894.79 354.018 1894.04 353.878 Q1893.32 353.737 1891.49 353.737 Q1890.93 353.737 1890.69 353.714 Q1890.48 353.69 1890.3 353.573 Q1890.13 353.456 1890.13 353.198 Q1890.13 352.87 1890.23 352.66 Q1890.32 352.425 1890.48 352.355 Q1890.67 352.285 1890.79 352.261 Q1890.9 352.238 1891.09 352.238 L1897.49 352.379 L1903.81 352.238 Q1904.54 352.238 1904.54 352.824 Z" fill="#000000" fill-rule="nonzero" fill-opacity="1" /><path clip-path="url(#clip620)" d="M1943.92 364.371 Q1943.92 368.236 1942.25 372.03 Q1940.61 375.801 1937.94 378.659 Q1935.3 381.493 1931.71 383.249 Q1928.13 385.006 1924.48 385.006 L1908.6 385.006 Q1908.03 385.006 1907.8 384.983 Q1907.59 384.959 1907.43 384.842 Q1907.26 384.702 1907.26 384.42 Q1907.26 383.975 1907.45 383.788 Q1907.64 383.577 1907.85 383.554 Q1908.06 383.53 1908.6 383.53 Q1909.77 383.53 1910.47 383.46 Q1911.17 383.39 1911.62 383.296 Q1912.09 383.179 1912.32 382.851 Q1912.58 382.523 1912.7 382.242 Q1912.81 381.938 1912.98 381.258 L1919.39 355.494 Q1919.58 354.721 1919.58 354.604 Q1919.58 354.206 1919.35 354.065 Q1919.14 353.901 1918.53 353.831 Q1917.36 353.737 1916.47 353.737 Q1915.88 353.737 1915.65 353.714 Q1915.44 353.69 1915.25 353.573 Q1915.08 353.433 1915.08 353.152 Q1915.08 352.707 1915.27 352.519 Q1915.48 352.308 1915.72 352.285 Q1915.95 352.238 1916.51 352.238 L1932.63 352.238 Q1936.12 352.238 1938.72 353.878 Q1941.32 355.494 1942.61 358.234 Q1943.92 360.951 1943.92 364.371 M1939.72 362.614 Q1939.72 358.141 1937.29 355.939 Q1934.88 353.737 1931.06 353.737 L1925.93 353.737 Q1924.41 353.737 1924.03 354.018 Q1923.66 354.276 1923.33 355.564 L1916.75 381.891 Q1916.51 382.758 1916.51 382.992 Q1916.51 383.249 1916.63 383.343 Q1916.77 383.413 1917.15 383.46 Q1917.57 383.53 1918.2 383.53 L1923.61 383.53 Q1925.69 383.53 1927.59 382.968 Q1929.51 382.383 1930.89 381.469 Q1932.28 380.532 1933.17 379.736 Q1934.06 378.916 1934.69 378.096 Q1936.12 376.246 1937.17 373.834 Q1938.25 371.421 1938.74 369.219 Q1939.26 366.994 1939.49 365.355 Q1939.72 363.692 1939.72 362.614 Z" fill="#000000" fill-rule="nonzero" fill-opacity="1" /><path clip-path="url(#clip620)" d="M1976.18 351.676 L1973.58 362.169 Q1973.44 362.802 1973.33 362.966 Q1973.21 363.129 1972.88 363.129 Q1972.62 363.129 1972.46 363.012 Q1972.32 362.895 1972.32 362.778 L1972.3 362.661 Q1972.3 362.591 1972.34 362.239 Q1972.39 361.865 1972.44 361.256 Q1972.48 360.647 1972.48 359.967 Q1972.48 356.126 1970.61 354.346 Q1968.76 352.543 1965.57 352.543 Q1963.37 352.543 1961.4 353.714 Q1959.44 354.885 1958.31 356.735 Q1957.19 358.562 1957.19 360.483 Q1957.19 362.239 1958.08 363.364 Q1958.97 364.488 1960.12 364.863 L1963.33 365.729 Q1966.7 366.596 1967.66 366.971 Q1968.62 367.322 1969.42 368.118 Q1971.78 370.32 1971.78 373.74 Q1971.78 376.691 1970.12 379.549 Q1968.45 382.383 1965.6 384.233 Q1962.74 386.06 1959.58 386.06 Q1954.03 386.06 1951.47 382.617 L1949.13 385.334 Q1948.69 385.849 1948.55 385.943 Q1948.43 386.06 1948.26 386.06 Q1948.05 386.06 1947.89 385.92 Q1947.73 385.802 1947.73 385.592 Q1947.73 385.428 1949.11 379.923 Q1950.49 374.419 1950.61 374.302 Q1950.79 374.115 1951.1 374.115 Q1951.66 374.115 1951.66 374.653 Q1951.61 374.794 1951.57 374.981 Q1951.29 376.668 1951.29 377.581 Q1951.29 379.291 1951.87 380.603 Q1952.46 381.891 1953.32 382.64 Q1954.21 383.366 1955.41 383.835 Q1956.6 384.28 1957.61 384.444 Q1958.62 384.584 1959.67 384.584 Q1961.94 384.584 1963.96 383.273 Q1966 381.961 1967.14 379.923 Q1968.31 377.886 1968.31 375.754 Q1968.31 374.63 1968.01 373.763 Q1967.71 372.873 1967.28 372.381 Q1966.89 371.889 1966.21 371.515 Q1965.53 371.14 1965.06 370.999 Q1964.61 370.835 1963.91 370.672 L1958.78 369.313 Q1956.72 368.704 1955.24 366.947 Q1953.79 365.191 1953.79 362.497 Q1953.79 359.663 1955.46 357.04 Q1957.14 354.393 1959.88 352.8 Q1962.65 351.184 1965.62 351.184 Q1967.96 351.184 1969.77 352.098 Q1971.57 352.988 1972.48 354.651 L1974.8 351.91 Q1975.27 351.371 1975.36 351.278 Q1975.48 351.184 1975.65 351.184 Q1975.93 351.184 1976.04 351.348 Q1976.18 351.512 1976.18 351.676 Z" fill="#000000" fill-rule="nonzero" fill-opacity="1" /><path clip-path="url(#clip620)" d="M2021.81 372.335 Q2022.09 372.616 2022.09 373.014 Q2022.09 373.412 2021.81 373.693 Q2021.52 373.974 2021.13 373.974 L1991.1 373.974 Q1990.7 373.974 1990.42 373.693 Q1990.14 373.412 1990.14 373.014 Q1990.14 372.616 1990.42 372.335 Q1990.7 372.053 1991.1 372.053 L2021.13 372.053 Q2021.52 372.053 2021.81 372.335 Z" fill="#000000" fill-rule="nonzero" fill-opacity="1" /><path clip-path="url(#clip620)" d="M2040.39 373.014 Q2040.39 364.91 2043.41 358.375 Q2044.7 355.634 2046.5 353.339 Q2048.31 351.044 2049.5 350.036 Q2050.7 349.029 2051.02 349.029 Q2051.49 349.029 2051.52 349.498 Q2051.52 349.732 2050.88 350.317 Q2043.15 358.187 2043.18 373.014 Q2043.18 387.887 2050.7 395.452 Q2051.52 396.272 2051.52 396.53 Q2051.52 396.998 2051.02 396.998 Q2050.7 396.998 2049.55 396.038 Q2048.4 395.078 2046.62 392.876 Q2044.84 390.674 2043.55 387.981 Q2040.39 381.446 2040.39 373.014 Z" fill="#000000" fill-rule="nonzero" fill-opacity="1" /><path clip-path="url(#clip620)" d="M2077.36 352.824 Q2077.36 353.269 2077.17 353.479 Q2077.01 353.667 2076.75 353.714 Q2076.5 353.737 2075.82 353.737 Q2074.67 353.737 2073.94 353.831 Q2073.22 353.901 2072.77 354.018 Q2072.33 354.112 2072.07 354.44 Q2071.83 354.744 2071.72 355.025 Q2071.62 355.306 2071.46 355.939 L2065.04 381.493 Q2064.83 382.242 2064.83 382.617 Q2064.83 383.015 2065.07 383.179 Q2065.3 383.343 2066.05 383.413 Q2067.24 383.53 2068.11 383.53 Q2069.26 383.53 2069.42 383.694 Q2069.54 383.858 2069.54 384.093 Q2069.54 384.514 2069.35 384.748 Q2069.16 384.959 2069 384.983 Q2068.86 385.006 2068.58 385.006 L2062.16 384.866 L2055.86 385.006 Q2055.16 385.006 2055.16 384.467 Q2055.16 384.116 2055.2 383.929 Q2055.27 383.718 2055.51 383.648 Q2055.77 383.554 2055.95 383.554 Q2056.14 383.53 2056.68 383.53 Q2057.64 383.53 2058.27 383.507 Q2058.93 383.46 2059.4 383.343 Q2059.89 383.203 2060.12 383.085 Q2060.38 382.945 2060.57 382.64 Q2060.78 382.312 2060.85 382.055 Q2060.94 381.797 2061.06 381.258 L2067.52 355.4 Q2067.62 354.978 2067.62 354.651 Q2067.62 354.018 2066.87 353.878 Q2066.14 353.737 2064.32 353.737 Q2063.75 353.737 2063.52 353.714 Q2063.31 353.69 2063.12 353.573 Q2062.96 353.456 2062.96 353.198 Q2062.96 352.87 2063.05 352.66 Q2063.14 352.425 2063.31 352.355 Q2063.5 352.285 2063.61 352.261 Q2063.73 352.238 2063.92 352.238 L2070.31 352.379 L2076.64 352.238 Q2077.36 352.238 2077.36 352.824 Z" fill="#000000" fill-rule="nonzero" fill-opacity="1" /><path clip-path="url(#clip620)" d="M2090.46 373.599 Q2089.36 373.599 2089.36 373.014 Q2089.36 372.428 2090.51 372.428 Q2090.65 372.428 2090.88 372.452 Q2091.14 372.475 2091.19 372.475 L2104.7 372.475 L2104.7 358.913 Q2104.7 358.867 2104.68 358.656 Q2104.65 358.422 2104.65 358.281 Q2104.65 357.133 2105.22 357.133 Q2105.8 357.133 2105.8 358.281 L2105.8 372.475 L2119.34 372.475 Q2119.39 372.475 2119.62 372.452 Q2119.86 372.428 2120 372.428 Q2121.1 372.428 2121.1 373.014 Q2121.12 373.599 2119.95 373.599 Q2119.81 373.599 2119.6 373.576 Q2119.39 373.552 2119.34 373.552 L2105.8 373.552 L2105.8 387.793 Q2105.8 388.894 2105.22 388.894 Q2104.65 388.894 2104.65 387.746 Q2104.65 387.606 2104.68 387.372 Q2104.7 387.161 2104.7 387.114 L2104.7 373.552 L2091.19 373.552 Q2091.14 373.552 2090.86 373.576 Q2090.6 373.599 2090.46 373.599 Z" fill="#000000" fill-rule="nonzero" fill-opacity="1" /><path clip-path="url(#clip620)" d="M2187.23 352.777 Q2187.23 353.198 2187.07 353.433 Q2186.9 353.643 2186.76 353.667 Q2186.64 353.69 2186.32 353.737 Q2185.24 353.831 2184.39 354.159 Q2183.55 354.487 2182.92 355.119 Q2182.29 355.728 2181.89 356.29 Q2181.49 356.852 2180.95 357.813 L2165.21 385.147 Q2165.05 385.428 2164.93 385.568 Q2164.84 385.732 2164.6 385.896 Q2164.37 386.06 2164.06 386.06 Q2163.64 386.06 2163.5 385.826 Q2163.36 385.592 2163.29 384.819 L2161.53 360.6 L2147.41 385.053 Q2147.15 385.498 2147.04 385.638 Q2146.94 385.802 2146.73 385.92 Q2146.54 386.06 2146.26 386.06 Q2145.94 386.06 2145.77 385.896 Q2145.61 385.756 2145.56 385.545 Q2145.54 385.334 2145.51 384.819 L2143.34 355.494 Q2143.27 354.393 2142.87 354.065 Q2142.49 353.737 2140.81 353.737 Q2140.34 353.737 2140.13 353.714 Q2139.94 353.69 2139.78 353.573 Q2139.61 353.433 2139.61 353.152 Q2139.61 352.238 2140.48 352.238 Q2141.3 352.238 2142.98 352.308 Q2144.67 352.379 2145.51 352.379 Q2146.5 352.379 2148.46 352.308 Q2150.43 352.238 2151.39 352.238 Q2152.07 352.238 2152.07 352.777 Q2152.07 353.222 2151.88 353.456 Q2151.72 353.667 2151.56 353.714 Q2151.39 353.737 2151.06 353.737 Q2149.78 353.761 2148.96 353.924 Q2148.16 354.088 2147.86 354.416 Q2147.55 354.721 2147.48 354.932 Q2147.41 355.119 2147.41 355.447 L2149.24 379.783 L2161.37 358.632 L2161.09 354.932 Q2161.02 354.206 2160.55 353.971 Q2160.08 353.737 2158.56 353.737 Q2158.14 353.737 2157.93 353.714 Q2157.74 353.69 2157.55 353.573 Q2157.39 353.456 2157.39 353.198 Q2157.39 352.753 2157.58 352.543 Q2157.76 352.308 2157.9 352.285 Q2158.07 352.238 2158.3 352.238 Q2158.84 352.238 2160.81 352.308 Q2162.78 352.379 2163.34 352.379 Q2164.3 352.379 2166.27 352.308 Q2168.23 352.238 2169.19 352.238 Q2169.92 352.238 2169.92 352.777 Q2169.92 353.433 2169.64 353.597 Q2169.36 353.737 2168.63 353.737 Q2167.39 353.761 2166.62 353.948 Q2165.87 354.135 2165.59 354.557 Q2165.33 354.955 2165.28 355.213 Q2165.24 355.47 2165.26 355.986 L2167.04 379.783 L2179.99 357.18 Q2180.04 357.087 2180.18 356.829 Q2180.34 356.548 2180.37 356.478 Q2180.41 356.407 2180.48 356.22 Q2180.58 356.032 2180.6 355.915 Q2180.62 355.775 2180.62 355.611 Q2180.62 354.651 2179.76 354.229 Q2178.89 353.784 2177.79 353.737 Q2177.06 353.737 2177.06 353.152 Q2177.06 352.73 2177.25 352.519 Q2177.44 352.285 2177.58 352.261 Q2177.74 352.238 2177.98 352.238 Q2178.77 352.238 2180.46 352.308 Q2182.15 352.379 2182.97 352.379 Q2183.58 352.379 2184.84 352.308 Q2186.1 352.238 2186.67 352.238 Q2186.92 352.238 2187.07 352.425 Q2187.23 352.613 2187.23 352.777 Z" fill="#000000" fill-rule="nonzero" fill-opacity="1" /><path clip-path="url(#clip620)" d="M2191.93 396.53 Q2191.93 396.296 2192.54 395.71 Q2200.27 387.84 2200.27 373.014 Q2200.27 358.141 2192.85 350.622 Q2191.93 349.755 2191.93 349.498 Q2191.93 349.029 2192.4 349.029 Q2192.73 349.029 2193.88 349.99 Q2195.05 350.95 2196.8 353.152 Q2198.58 355.353 2199.9 358.047 Q2203.06 364.582 2203.06 373.014 Q2203.06 381.118 2200.04 387.653 Q2198.75 390.393 2196.94 392.689 Q2195.14 394.984 2193.95 395.991 Q2192.75 396.998 2192.4 396.998 Q2191.93 396.998 2191.93 396.53 Z" fill="#000000" fill-rule="nonzero" fill-opacity="1" /><path clip-path="url(#clip620)" d="M2210.35 396.319 Q2210.35 396.085 2210.53 395.57 L2227.47 350.317 Q2227.47 350.271 2227.59 350.013 Q2227.7 349.755 2227.77 349.591 Q2227.84 349.404 2227.98 349.263 Q2228.15 349.123 2228.34 349.123 Q2228.8 349.123 2228.8 349.708 Q2228.8 349.755 2228.66 350.317 L2211.68 395.616 Q2211.4 396.436 2211.21 396.67 Q2211.05 396.905 2210.77 396.905 Q2210.35 396.905 2210.35 396.319 Z" fill="#000000" fill-rule="nonzero" fill-opacity="1" /><path clip-path="url(#clip620)" d="M2234.1 385.006 Q2234.1 384.139 2234.17 383.882 Q2234.26 383.624 2234.64 383.226 L2243.84 372.967 Q2248.88 367.299 2248.88 362.357 Q2248.88 359.148 2247.19 356.852 Q2245.53 354.557 2242.46 354.557 Q2240.35 354.557 2238.57 355.845 Q2236.79 357.133 2235.97 359.429 Q2236.11 359.382 2236.6 359.382 Q2237.8 359.382 2238.45 360.131 Q2239.13 360.881 2239.13 361.888 Q2239.13 363.176 2238.29 363.809 Q2237.47 364.418 2236.65 364.418 Q2236.32 364.418 2235.88 364.347 Q2235.46 364.277 2234.78 363.621 Q2234.1 362.942 2234.1 361.748 Q2234.1 358.398 2236.63 355.728 Q2239.18 353.058 2243.07 353.058 Q2247.47 353.058 2250.35 355.681 Q2253.26 358.281 2253.26 362.357 Q2253.26 363.785 2252.81 365.097 Q2252.39 366.385 2251.8 367.392 Q2251.24 368.4 2249.7 370.016 Q2248.15 371.632 2246.91 372.78 Q2245.67 373.927 2242.88 376.363 L2237.8 381.305 L2246.44 381.305 Q2250.66 381.305 2250.99 380.931 Q2251.45 380.251 2252.04 376.668 L2253.26 376.668 L2251.9 385.006 L2234.1 385.006 Z" fill="#000000" fill-rule="nonzero" fill-opacity="1" /></svg>
