<?xml version="1.0" encoding="utf-8"?>
<svg xmlns="http://www.w3.org/2000/svg" xmlns:xlink="http://www.w3.org/1999/xlink" width="600" height="400" viewBox="0 0 2400 1600">
<defs>
  <clipPath id="clip740">
    <rect x="0" y="0" width="2400" height="1600"/>
  </clipPath>
</defs>
<path clip-path="url(#clip740)" d="M0 1600 L2400 1600 L2400 0 L0 0  Z" fill="#ffffff" fill-rule="evenodd" fill-opacity="1"/>
<defs>
  <clipPath id="clip741">
    <rect x="480" y="0" width="1681" height="1600"/>
  </clipPath>
</defs>
<path clip-path="url(#clip740)" d="M216.396 1427.5 L2352.76 1427.5 L2352.76 47.2441 L216.396 47.2441  Z" fill="#ffffff" fill-rule="evenodd" fill-opacity="1"/>
<defs>
  <clipPath id="clip742">
    <rect x="216" y="47" width="2137" height="1381"/>
  </clipPath>
</defs>
<polyline clip-path="url(#clip742)" style="stroke:#000000; stroke-linecap:round; stroke-linejoin:round; stroke-width:2; stroke-opacity:0.05; fill:none" points="377.63,1427.5 377.63,47.2441 "/>
<polyline clip-path="url(#clip742)" style="stroke:#000000; stroke-linecap:round; stroke-linejoin:round; stroke-width:2; stroke-opacity:0.05; fill:none" points="478.402,1427.5 478.402,47.2441 "/>
<polyline clip-path="url(#clip742)" style="stroke:#000000; stroke-linecap:round; stroke-linejoin:round; stroke-width:2; stroke-opacity:0.05; fill:none" points="579.174,1427.5 579.174,47.2441 "/>
<polyline clip-path="url(#clip742)" style="stroke:#000000; stroke-linecap:round; stroke-linejoin:round; stroke-width:2; stroke-opacity:0.05; fill:none" points="679.945,1427.5 679.945,47.2441 "/>
<polyline clip-path="url(#clip742)" style="stroke:#000000; stroke-linecap:round; stroke-linejoin:round; stroke-width:2; stroke-opacity:0.05; fill:none" points="881.489,1427.5 881.489,47.2441 "/>
<polyline clip-path="url(#clip742)" style="stroke:#000000; stroke-linecap:round; stroke-linejoin:round; stroke-width:2; stroke-opacity:0.05; fill:none" points="982.261,1427.5 982.261,47.2441 "/>
<polyline clip-path="url(#clip742)" style="stroke:#000000; stroke-linecap:round; stroke-linejoin:round; stroke-width:2; stroke-opacity:0.05; fill:none" points="1083.03,1427.5 1083.03,47.2441 "/>
<polyline clip-path="url(#clip742)" style="stroke:#000000; stroke-linecap:round; stroke-linejoin:round; stroke-width:2; stroke-opacity:0.05; fill:none" points="1183.8,1427.5 1183.8,47.2441 "/>
<polyline clip-path="url(#clip742)" style="stroke:#000000; stroke-linecap:round; stroke-linejoin:round; stroke-width:2; stroke-opacity:0.05; fill:none" points="1385.35,1427.5 1385.35,47.2441 "/>
<polyline clip-path="url(#clip742)" style="stroke:#000000; stroke-linecap:round; stroke-linejoin:round; stroke-width:2; stroke-opacity:0.05; fill:none" points="1486.12,1427.5 1486.12,47.2441 "/>
<polyline clip-path="url(#clip742)" style="stroke:#000000; stroke-linecap:round; stroke-linejoin:round; stroke-width:2; stroke-opacity:0.05; fill:none" points="1586.89,1427.5 1586.89,47.2441 "/>
<polyline clip-path="url(#clip742)" style="stroke:#000000; stroke-linecap:round; stroke-linejoin:round; stroke-width:2; stroke-opacity:0.05; fill:none" points="1687.66,1427.5 1687.66,47.2441 "/>
<polyline clip-path="url(#clip742)" style="stroke:#000000; stroke-linecap:round; stroke-linejoin:round; stroke-width:2; stroke-opacity:0.05; fill:none" points="1889.21,1427.5 1889.21,47.2441 "/>
<polyline clip-path="url(#clip742)" style="stroke:#000000; stroke-linecap:round; stroke-linejoin:round; stroke-width:2; stroke-opacity:0.05; fill:none" points="1989.98,1427.5 1989.98,47.2441 "/>
<polyline clip-path="url(#clip742)" style="stroke:#000000; stroke-linecap:round; stroke-linejoin:round; stroke-width:2; stroke-opacity:0.05; fill:none" points="2090.75,1427.5 2090.75,47.2441 "/>
<polyline clip-path="url(#clip742)" style="stroke:#000000; stroke-linecap:round; stroke-linejoin:round; stroke-width:2; stroke-opacity:0.05; fill:none" points="2191.52,1427.5 2191.52,47.2441 "/>
<polyline clip-path="url(#clip742)" style="stroke:#000000; stroke-linecap:round; stroke-linejoin:round; stroke-width:2; stroke-opacity:0.05; fill:none" points="216.396,1400.93 2352.76,1400.93 "/>
<polyline clip-path="url(#clip742)" style="stroke:#000000; stroke-linecap:round; stroke-linejoin:round; stroke-width:2; stroke-opacity:0.05; fill:none" points="216.396,1365.56 2352.76,1365.56 "/>
<polyline clip-path="url(#clip742)" style="stroke:#000000; stroke-linecap:round; stroke-linejoin:round; stroke-width:2; stroke-opacity:0.05; fill:none" points="216.396,1334.35 2352.76,1334.35 "/>
<polyline clip-path="url(#clip742)" style="stroke:#000000; stroke-linecap:round; stroke-linejoin:round; stroke-width:2; stroke-opacity:0.05; fill:none" points="216.396,1122.79 2352.76,1122.79 "/>
<polyline clip-path="url(#clip742)" style="stroke:#000000; stroke-linecap:round; stroke-linejoin:round; stroke-width:2; stroke-opacity:0.05; fill:none" points="216.396,1015.36 2352.76,1015.36 "/>
<polyline clip-path="url(#clip742)" style="stroke:#000000; stroke-linecap:round; stroke-linejoin:round; stroke-width:2; stroke-opacity:0.05; fill:none" points="216.396,939.14 2352.76,939.14 "/>
<polyline clip-path="url(#clip742)" style="stroke:#000000; stroke-linecap:round; stroke-linejoin:round; stroke-width:2; stroke-opacity:0.05; fill:none" points="216.396,880.019 2352.76,880.019 "/>
<polyline clip-path="url(#clip742)" style="stroke:#000000; stroke-linecap:round; stroke-linejoin:round; stroke-width:2; stroke-opacity:0.05; fill:none" points="216.396,831.713 2352.76,831.713 "/>
<polyline clip-path="url(#clip742)" style="stroke:#000000; stroke-linecap:round; stroke-linejoin:round; stroke-width:2; stroke-opacity:0.05; fill:none" points="216.396,790.871 2352.76,790.871 "/>
<polyline clip-path="url(#clip742)" style="stroke:#000000; stroke-linecap:round; stroke-linejoin:round; stroke-width:2; stroke-opacity:0.05; fill:none" points="216.396,755.493 2352.76,755.493 "/>
<polyline clip-path="url(#clip742)" style="stroke:#000000; stroke-linecap:round; stroke-linejoin:round; stroke-width:2; stroke-opacity:0.05; fill:none" points="216.396,724.286 2352.76,724.286 "/>
<polyline clip-path="url(#clip742)" style="stroke:#000000; stroke-linecap:round; stroke-linejoin:round; stroke-width:2; stroke-opacity:0.05; fill:none" points="216.396,512.724 2352.76,512.724 "/>
<polyline clip-path="url(#clip742)" style="stroke:#000000; stroke-linecap:round; stroke-linejoin:round; stroke-width:2; stroke-opacity:0.05; fill:none" points="216.396,405.297 2352.76,405.297 "/>
<polyline clip-path="url(#clip742)" style="stroke:#000000; stroke-linecap:round; stroke-linejoin:round; stroke-width:2; stroke-opacity:0.05; fill:none" points="216.396,329.077 2352.76,329.077 "/>
<polyline clip-path="url(#clip742)" style="stroke:#000000; stroke-linecap:round; stroke-linejoin:round; stroke-width:2; stroke-opacity:0.05; fill:none" points="216.396,269.955 2352.76,269.955 "/>
<polyline clip-path="url(#clip742)" style="stroke:#000000; stroke-linecap:round; stroke-linejoin:round; stroke-width:2; stroke-opacity:0.05; fill:none" points="216.396,221.65 2352.76,221.65 "/>
<polyline clip-path="url(#clip742)" style="stroke:#000000; stroke-linecap:round; stroke-linejoin:round; stroke-width:2; stroke-opacity:0.05; fill:none" points="216.396,180.808 2352.76,180.808 "/>
<polyline clip-path="url(#clip742)" style="stroke:#000000; stroke-linecap:round; stroke-linejoin:round; stroke-width:2; stroke-opacity:0.05; fill:none" points="216.396,145.429 2352.76,145.429 "/>
<polyline clip-path="url(#clip742)" style="stroke:#000000; stroke-linecap:round; stroke-linejoin:round; stroke-width:2; stroke-opacity:0.05; fill:none" points="216.396,114.223 2352.76,114.223 "/>
<polyline clip-path="url(#clip742)" style="stroke:#000000; stroke-linecap:round; stroke-linejoin:round; stroke-width:2; stroke-opacity:0.1; fill:none" points="276.859,1427.5 276.859,47.2441 "/>
<polyline clip-path="url(#clip742)" style="stroke:#000000; stroke-linecap:round; stroke-linejoin:round; stroke-width:2; stroke-opacity:0.1; fill:none" points="780.717,1427.5 780.717,47.2441 "/>
<polyline clip-path="url(#clip742)" style="stroke:#000000; stroke-linecap:round; stroke-linejoin:round; stroke-width:2; stroke-opacity:0.1; fill:none" points="1284.58,1427.5 1284.58,47.2441 "/>
<polyline clip-path="url(#clip742)" style="stroke:#000000; stroke-linecap:round; stroke-linejoin:round; stroke-width:2; stroke-opacity:0.1; fill:none" points="1788.43,1427.5 1788.43,47.2441 "/>
<polyline clip-path="url(#clip742)" style="stroke:#000000; stroke-linecap:round; stroke-linejoin:round; stroke-width:2; stroke-opacity:0.1; fill:none" points="2292.29,1427.5 2292.29,47.2441 "/>
<polyline clip-path="url(#clip742)" style="stroke:#000000; stroke-linecap:round; stroke-linejoin:round; stroke-width:2; stroke-opacity:0.1; fill:none" points="216.396,1306.43 2352.76,1306.43 "/>
<polyline clip-path="url(#clip742)" style="stroke:#000000; stroke-linecap:round; stroke-linejoin:round; stroke-width:2; stroke-opacity:0.1; fill:none" points="216.396,696.371 2352.76,696.371 "/>
<polyline clip-path="url(#clip742)" style="stroke:#000000; stroke-linecap:round; stroke-linejoin:round; stroke-width:2; stroke-opacity:0.1; fill:none" points="216.396,86.3079 2352.76,86.3079 "/>
<polyline clip-path="url(#clip740)" style="stroke:#000000; stroke-linecap:round; stroke-linejoin:round; stroke-width:4; stroke-opacity:1; fill:none" points="216.396,1427.5 2352.76,1427.5 "/>
<polyline clip-path="url(#clip740)" style="stroke:#000000; stroke-linecap:round; stroke-linejoin:round; stroke-width:4; stroke-opacity:1; fill:none" points="276.859,1427.5 276.859,1408.6 "/>
<polyline clip-path="url(#clip740)" style="stroke:#000000; stroke-linecap:round; stroke-linejoin:round; stroke-width:4; stroke-opacity:1; fill:none" points="780.717,1427.5 780.717,1408.6 "/>
<polyline clip-path="url(#clip740)" style="stroke:#000000; stroke-linecap:round; stroke-linejoin:round; stroke-width:4; stroke-opacity:1; fill:none" points="1284.58,1427.5 1284.58,1408.6 "/>
<polyline clip-path="url(#clip740)" style="stroke:#000000; stroke-linecap:round; stroke-linejoin:round; stroke-width:4; stroke-opacity:1; fill:none" points="1788.43,1427.5 1788.43,1408.6 "/>
<polyline clip-path="url(#clip740)" style="stroke:#000000; stroke-linecap:round; stroke-linejoin:round; stroke-width:4; stroke-opacity:1; fill:none" points="2292.29,1427.5 2292.29,1408.6 "/>
<polyline clip-path="url(#clip740)" style="stroke:#000000; stroke-linecap:round; stroke-linejoin:round; stroke-width:4; stroke-opacity:1; fill:none" points="377.63,1427.5 377.63,1418.05 "/>
<polyline clip-path="url(#clip740)" style="stroke:#000000; stroke-linecap:round; stroke-linejoin:round; stroke-width:4; stroke-opacity:1; fill:none" points="478.402,1427.5 478.402,1418.05 "/>
<polyline clip-path="url(#clip740)" style="stroke:#000000; stroke-linecap:round; stroke-linejoin:round; stroke-width:4; stroke-opacity:1; fill:none" points="579.174,1427.5 579.174,1418.05 "/>
<polyline clip-path="url(#clip740)" style="stroke:#000000; stroke-linecap:round; stroke-linejoin:round; stroke-width:4; stroke-opacity:1; fill:none" points="679.945,1427.5 679.945,1418.05 "/>
<polyline clip-path="url(#clip740)" style="stroke:#000000; stroke-linecap:round; stroke-linejoin:round; stroke-width:4; stroke-opacity:1; fill:none" points="881.489,1427.5 881.489,1418.05 "/>
<polyline clip-path="url(#clip740)" style="stroke:#000000; stroke-linecap:round; stroke-linejoin:round; stroke-width:4; stroke-opacity:1; fill:none" points="982.261,1427.5 982.261,1418.05 "/>
<polyline clip-path="url(#clip740)" style="stroke:#000000; stroke-linecap:round; stroke-linejoin:round; stroke-width:4; stroke-opacity:1; fill:none" points="1083.03,1427.5 1083.03,1418.05 "/>
<polyline clip-path="url(#clip740)" style="stroke:#000000; stroke-linecap:round; stroke-linejoin:round; stroke-width:4; stroke-opacity:1; fill:none" points="1183.8,1427.5 1183.8,1418.05 "/>
<polyline clip-path="url(#clip740)" style="stroke:#000000; stroke-linecap:round; stroke-linejoin:round; stroke-width:4; stroke-opacity:1; fill:none" points="1385.35,1427.5 1385.35,1418.05 "/>
<polyline clip-path="url(#clip740)" style="stroke:#000000; stroke-linecap:round; stroke-linejoin:round; stroke-width:4; stroke-opacity:1; fill:none" points="1486.12,1427.5 1486.12,1418.05 "/>
<polyline clip-path="url(#clip740)" style="stroke:#000000; stroke-linecap:round; stroke-linejoin:round; stroke-width:4; stroke-opacity:1; fill:none" points="1586.89,1427.5 1586.89,1418.05 "/>
<polyline clip-path="url(#clip740)" style="stroke:#000000; stroke-linecap:round; stroke-linejoin:round; stroke-width:4; stroke-opacity:1; fill:none" points="1687.66,1427.5 1687.66,1418.05 "/>
<polyline clip-path="url(#clip740)" style="stroke:#000000; stroke-linecap:round; stroke-linejoin:round; stroke-width:4; stroke-opacity:1; fill:none" points="1889.21,1427.5 1889.21,1418.05 "/>
<polyline clip-path="url(#clip740)" style="stroke:#000000; stroke-linecap:round; stroke-linejoin:round; stroke-width:4; stroke-opacity:1; fill:none" points="1989.98,1427.5 1989.98,1418.05 "/>
<polyline clip-path="url(#clip740)" style="stroke:#000000; stroke-linecap:round; stroke-linejoin:round; stroke-width:4; stroke-opacity:1; fill:none" points="2090.75,1427.5 2090.75,1418.05 "/>
<polyline clip-path="url(#clip740)" style="stroke:#000000; stroke-linecap:round; stroke-linejoin:round; stroke-width:4; stroke-opacity:1; fill:none" points="2191.52,1427.5 2191.52,1418.05 "/>
<path clip-path="url(#clip740)" d="M276.859 1458.42 Q273.247 1458.42 271.419 1461.98 Q269.613 1465.52 269.613 1472.65 Q269.613 1479.76 271.419 1483.33 Q273.247 1486.87 276.859 1486.87 Q280.493 1486.87 282.298 1483.33 Q284.127 1479.76 284.127 1472.65 Q284.127 1465.52 282.298 1461.98 Q280.493 1458.42 276.859 1458.42 M276.859 1454.71 Q282.669 1454.71 285.724 1459.32 Q288.803 1463.9 288.803 1472.65 Q288.803 1481.38 285.724 1485.99 Q282.669 1490.57 276.859 1490.57 Q271.048 1490.57 267.97 1485.99 Q264.914 1481.38 264.914 1472.65 Q264.914 1463.9 267.97 1459.32 Q271.048 1454.71 276.859 1454.71 Z" fill="#000000" fill-rule="nonzero" fill-opacity="1" /><path clip-path="url(#clip740)" d="M770.995 1455.34 L789.351 1455.34 L789.351 1459.28 L775.277 1459.28 L775.277 1467.75 Q776.296 1467.4 777.314 1467.24 Q778.333 1467.05 779.351 1467.05 Q785.138 1467.05 788.518 1470.22 Q791.898 1473.4 791.898 1478.81 Q791.898 1484.39 788.425 1487.49 Q784.953 1490.57 778.634 1490.57 Q776.458 1490.57 774.189 1490.2 Q771.944 1489.83 769.537 1489.09 L769.537 1484.39 Q771.62 1485.52 773.842 1486.08 Q776.064 1486.64 778.541 1486.64 Q782.546 1486.64 784.884 1484.53 Q787.222 1482.42 787.222 1478.81 Q787.222 1475.2 784.884 1473.09 Q782.546 1470.99 778.541 1470.99 Q776.666 1470.99 774.791 1471.4 Q772.939 1471.82 770.995 1472.7 L770.995 1455.34 Z" fill="#000000" fill-rule="nonzero" fill-opacity="1" /><path clip-path="url(#clip740)" d="M1259.26 1485.96 L1266.9 1485.96 L1266.9 1459.6 L1258.59 1461.27 L1258.59 1457.01 L1266.86 1455.34 L1271.53 1455.34 L1271.53 1485.96 L1279.17 1485.96 L1279.17 1489.9 L1259.26 1489.9 L1259.26 1485.96 Z" fill="#000000" fill-rule="nonzero" fill-opacity="1" /><path clip-path="url(#clip740)" d="M1298.61 1458.42 Q1295 1458.42 1293.18 1461.98 Q1291.37 1465.52 1291.37 1472.65 Q1291.37 1479.76 1293.18 1483.33 Q1295 1486.87 1298.61 1486.87 Q1302.25 1486.87 1304.05 1483.33 Q1305.88 1479.76 1305.88 1472.65 Q1305.88 1465.52 1304.05 1461.98 Q1302.25 1458.42 1298.61 1458.42 M1298.61 1454.71 Q1304.43 1454.71 1307.48 1459.32 Q1310.56 1463.9 1310.56 1472.65 Q1310.56 1481.38 1307.48 1485.99 Q1304.43 1490.57 1298.61 1490.57 Q1292.8 1490.57 1289.73 1485.99 Q1286.67 1481.38 1286.67 1472.65 Q1286.67 1463.9 1289.73 1459.32 Q1292.8 1454.71 1298.61 1454.71 Z" fill="#000000" fill-rule="nonzero" fill-opacity="1" /><path clip-path="url(#clip740)" d="M1763.62 1485.96 L1771.26 1485.96 L1771.26 1459.6 L1762.95 1461.27 L1762.95 1457.01 L1771.21 1455.34 L1775.89 1455.34 L1775.89 1485.96 L1783.53 1485.96 L1783.53 1489.9 L1763.62 1489.9 L1763.62 1485.96 Z" fill="#000000" fill-rule="nonzero" fill-opacity="1" /><path clip-path="url(#clip740)" d="M1793.02 1455.34 L1811.37 1455.34 L1811.37 1459.28 L1797.3 1459.28 L1797.3 1467.75 Q1798.32 1467.4 1799.34 1467.24 Q1800.36 1467.05 1801.37 1467.05 Q1807.16 1467.05 1810.54 1470.22 Q1813.92 1473.4 1813.92 1478.81 Q1813.92 1484.39 1810.45 1487.49 Q1806.98 1490.57 1800.66 1490.57 Q1798.48 1490.57 1796.21 1490.2 Q1793.97 1489.83 1791.56 1489.09 L1791.56 1484.39 Q1793.64 1485.52 1795.86 1486.08 Q1798.09 1486.64 1800.56 1486.64 Q1804.57 1486.64 1806.91 1484.53 Q1809.24 1482.42 1809.24 1478.81 Q1809.24 1475.2 1806.91 1473.09 Q1804.57 1470.99 1800.56 1470.99 Q1798.69 1470.99 1796.81 1471.4 Q1794.96 1471.82 1793.02 1472.7 L1793.02 1455.34 Z" fill="#000000" fill-rule="nonzero" fill-opacity="1" /><path clip-path="url(#clip740)" d="M2271.07 1485.96 L2287.39 1485.96 L2287.39 1489.9 L2265.44 1489.9 L2265.44 1485.96 Q2268.1 1483.21 2272.69 1478.58 Q2277.29 1473.93 2278.47 1472.59 Q2280.72 1470.06 2281.6 1468.33 Q2282.5 1466.57 2282.5 1464.88 Q2282.5 1462.12 2280.56 1460.39 Q2278.64 1458.65 2275.53 1458.65 Q2273.33 1458.65 2270.88 1459.41 Q2268.45 1460.18 2265.67 1461.73 L2265.67 1457.01 Q2268.5 1455.87 2270.95 1455.29 Q2273.4 1454.71 2275.44 1454.71 Q2280.81 1454.71 2284.01 1457.4 Q2287.2 1460.09 2287.2 1464.58 Q2287.2 1466.71 2286.39 1468.63 Q2285.6 1470.52 2283.5 1473.12 Q2282.92 1473.79 2279.82 1477.01 Q2276.71 1480.2 2271.07 1485.96 Z" fill="#000000" fill-rule="nonzero" fill-opacity="1" /><path clip-path="url(#clip740)" d="M2307.2 1458.42 Q2303.59 1458.42 2301.76 1461.98 Q2299.95 1465.52 2299.95 1472.65 Q2299.95 1479.76 2301.76 1483.33 Q2303.59 1486.87 2307.2 1486.87 Q2310.83 1486.87 2312.64 1483.33 Q2314.47 1479.76 2314.47 1472.65 Q2314.47 1465.52 2312.64 1461.98 Q2310.83 1458.42 2307.2 1458.42 M2307.2 1454.71 Q2313.01 1454.71 2316.07 1459.32 Q2319.14 1463.9 2319.14 1472.65 Q2319.14 1481.38 2316.07 1485.99 Q2313.01 1490.57 2307.2 1490.57 Q2301.39 1490.57 2298.31 1485.99 Q2295.26 1481.38 2295.26 1472.65 Q2295.26 1463.9 2298.31 1459.32 Q2301.39 1454.71 2307.2 1454.71 Z" fill="#000000" fill-rule="nonzero" fill-opacity="1" /><path clip-path="url(#clip740)" d="M1164.32 1523.98 L1170.17 1523.98 L1170.17 1567.18 L1164.32 1567.18 L1164.32 1523.98 Z" fill="#000000" fill-rule="nonzero" fill-opacity="1" /><path clip-path="url(#clip740)" d="M1186.83 1525.57 L1186.83 1534.77 L1197.8 1534.77 L1197.8 1538.91 L1186.83 1538.91 L1186.83 1556.5 Q1186.83 1560.47 1187.9 1561.6 Q1189 1562.72 1192.33 1562.72 L1197.8 1562.72 L1197.8 1567.18 L1192.33 1567.18 Q1186.17 1567.18 1183.82 1564.89 Q1181.48 1562.58 1181.48 1556.5 L1181.48 1538.91 L1177.57 1538.91 L1177.57 1534.77 L1181.48 1534.77 L1181.48 1525.57 L1186.83 1525.57 Z" fill="#000000" fill-rule="nonzero" fill-opacity="1" /><path clip-path="url(#clip740)" d="M1232.52 1549.65 L1232.52 1552.25 L1208.04 1552.25 Q1208.39 1557.75 1211.34 1560.64 Q1214.32 1563.51 1219.62 1563.51 Q1222.68 1563.51 1225.55 1562.75 Q1228.44 1562 1231.28 1560.5 L1231.28 1565.53 Q1228.41 1566.75 1225.4 1567.38 Q1222.39 1568.02 1219.3 1568.02 Q1211.54 1568.02 1207 1563.51 Q1202.49 1558.99 1202.49 1551.29 Q1202.49 1543.34 1206.77 1538.68 Q1211.08 1533.99 1218.37 1533.99 Q1224.91 1533.99 1228.7 1538.22 Q1232.52 1542.41 1232.52 1549.65 M1227.2 1548.08 Q1227.14 1543.71 1224.74 1541.11 Q1222.37 1538.51 1218.43 1538.51 Q1213.97 1538.51 1211.28 1541.02 Q1208.62 1543.54 1208.22 1548.11 L1227.2 1548.08 Z" fill="#000000" fill-rule="nonzero" fill-opacity="1" /><path clip-path="url(#clip740)" d="M1260.04 1539.75 Q1259.14 1539.23 1258.07 1539 Q1257.03 1538.74 1255.76 1538.74 Q1251.24 1538.74 1248.81 1541.69 Q1246.41 1544.61 1246.41 1550.11 L1246.41 1567.18 L1241.06 1567.18 L1241.06 1534.77 L1246.41 1534.77 L1246.41 1539.81 Q1248.09 1536.86 1250.78 1535.44 Q1253.47 1533.99 1257.32 1533.99 Q1257.87 1533.99 1258.53 1534.08 Q1259.2 1534.14 1260.01 1534.28 L1260.04 1539.75 Z" fill="#000000" fill-rule="nonzero" fill-opacity="1" /><path clip-path="url(#clip740)" d="M1280.35 1550.89 Q1273.9 1550.89 1271.41 1552.37 Q1268.92 1553.84 1268.92 1557.4 Q1268.92 1560.24 1270.77 1561.91 Q1272.65 1563.56 1275.87 1563.56 Q1280.29 1563.56 1282.96 1560.44 Q1285.65 1557.28 1285.65 1552.08 L1285.65 1550.89 L1280.35 1550.89 M1290.97 1548.69 L1290.97 1567.18 L1285.65 1567.18 L1285.65 1562.26 Q1283.82 1565.21 1281.1 1566.63 Q1278.38 1568.02 1274.45 1568.02 Q1269.47 1568.02 1266.52 1565.24 Q1263.6 1562.43 1263.6 1557.75 Q1263.6 1552.28 1267.24 1549.5 Q1270.92 1546.72 1278.18 1546.72 L1285.65 1546.72 L1285.65 1546.2 Q1285.65 1542.53 1283.22 1540.53 Q1280.81 1538.51 1276.44 1538.51 Q1273.67 1538.51 1271.03 1539.17 Q1268.4 1539.84 1265.97 1541.17 L1265.97 1536.25 Q1268.89 1535.12 1271.64 1534.57 Q1274.39 1533.99 1276.99 1533.99 Q1284.03 1533.99 1287.5 1537.64 Q1290.97 1541.28 1290.97 1548.69 Z" fill="#000000" fill-rule="nonzero" fill-opacity="1" /><path clip-path="url(#clip740)" d="M1307.2 1525.57 L1307.2 1534.77 L1318.17 1534.77 L1318.17 1538.91 L1307.2 1538.91 L1307.2 1556.5 Q1307.2 1560.47 1308.27 1561.6 Q1309.37 1562.72 1312.7 1562.72 L1318.17 1562.72 L1318.17 1567.18 L1312.7 1567.18 Q1306.54 1567.18 1304.19 1564.89 Q1301.85 1562.58 1301.85 1556.5 L1301.85 1538.91 L1297.94 1538.91 L1297.94 1534.77 L1301.85 1534.77 L1301.85 1525.57 L1307.2 1525.57 Z" fill="#000000" fill-rule="nonzero" fill-opacity="1" /><path clip-path="url(#clip740)" d="M1325.17 1534.77 L1330.5 1534.77 L1330.5 1567.18 L1325.17 1567.18 L1325.17 1534.77 M1325.17 1522.16 L1330.5 1522.16 L1330.5 1528.9 L1325.17 1528.9 L1325.17 1522.16 Z" fill="#000000" fill-rule="nonzero" fill-opacity="1" /><path clip-path="url(#clip740)" d="M1354.19 1538.51 Q1349.91 1538.51 1347.42 1541.86 Q1344.93 1545.19 1344.93 1551.01 Q1344.93 1556.82 1347.39 1560.18 Q1349.88 1563.51 1354.19 1563.51 Q1358.45 1563.51 1360.94 1560.15 Q1363.42 1556.79 1363.42 1551.01 Q1363.42 1545.25 1360.94 1541.89 Q1358.45 1538.51 1354.19 1538.51 M1354.19 1533.99 Q1361.14 1533.99 1365.1 1538.51 Q1369.07 1543.02 1369.07 1551.01 Q1369.07 1558.96 1365.1 1563.51 Q1361.14 1568.02 1354.19 1568.02 Q1347.22 1568.02 1343.26 1563.51 Q1339.32 1558.96 1339.32 1551.01 Q1339.32 1543.02 1343.26 1538.51 Q1347.22 1533.99 1354.19 1533.99 Z" fill="#000000" fill-rule="nonzero" fill-opacity="1" /><path clip-path="url(#clip740)" d="M1404.83 1547.62 L1404.83 1567.18 L1399.51 1567.18 L1399.51 1547.79 Q1399.51 1543.19 1397.71 1540.91 Q1395.92 1538.62 1392.33 1538.62 Q1388.02 1538.62 1385.53 1541.37 Q1383.04 1544.12 1383.04 1548.86 L1383.04 1567.18 L1377.69 1567.18 L1377.69 1534.77 L1383.04 1534.77 L1383.04 1539.81 Q1384.95 1536.88 1387.53 1535.44 Q1390.13 1533.99 1393.52 1533.99 Q1399.1 1533.99 1401.97 1537.46 Q1404.83 1540.91 1404.83 1547.62 Z" fill="#000000" fill-rule="nonzero" fill-opacity="1" /><polyline clip-path="url(#clip740)" style="stroke:#000000; stroke-linecap:round; stroke-linejoin:round; stroke-width:4; stroke-opacity:1; fill:none" points="216.396,1427.5 216.396,47.2441 "/>
<polyline clip-path="url(#clip740)" style="stroke:#000000; stroke-linecap:round; stroke-linejoin:round; stroke-width:4; stroke-opacity:1; fill:none" points="216.396,1306.43 235.293,1306.43 "/>
<polyline clip-path="url(#clip740)" style="stroke:#000000; stroke-linecap:round; stroke-linejoin:round; stroke-width:4; stroke-opacity:1; fill:none" points="216.396,696.371 235.293,696.371 "/>
<polyline clip-path="url(#clip740)" style="stroke:#000000; stroke-linecap:round; stroke-linejoin:round; stroke-width:4; stroke-opacity:1; fill:none" points="216.396,86.3079 235.293,86.3079 "/>
<polyline clip-path="url(#clip740)" style="stroke:#000000; stroke-linecap:round; stroke-linejoin:round; stroke-width:4; stroke-opacity:1; fill:none" points="216.396,1400.93 225.844,1400.93 "/>
<polyline clip-path="url(#clip740)" style="stroke:#000000; stroke-linecap:round; stroke-linejoin:round; stroke-width:4; stroke-opacity:1; fill:none" points="216.396,1365.56 225.844,1365.56 "/>
<polyline clip-path="url(#clip740)" style="stroke:#000000; stroke-linecap:round; stroke-linejoin:round; stroke-width:4; stroke-opacity:1; fill:none" points="216.396,1334.35 225.844,1334.35 "/>
<polyline clip-path="url(#clip740)" style="stroke:#000000; stroke-linecap:round; stroke-linejoin:round; stroke-width:4; stroke-opacity:1; fill:none" points="216.396,1122.79 225.844,1122.79 "/>
<polyline clip-path="url(#clip740)" style="stroke:#000000; stroke-linecap:round; stroke-linejoin:round; stroke-width:4; stroke-opacity:1; fill:none" points="216.396,1015.36 225.844,1015.36 "/>
<polyline clip-path="url(#clip740)" style="stroke:#000000; stroke-linecap:round; stroke-linejoin:round; stroke-width:4; stroke-opacity:1; fill:none" points="216.396,939.14 225.844,939.14 "/>
<polyline clip-path="url(#clip740)" style="stroke:#000000; stroke-linecap:round; stroke-linejoin:round; stroke-width:4; stroke-opacity:1; fill:none" points="216.396,880.019 225.844,880.019 "/>
<polyline clip-path="url(#clip740)" style="stroke:#000000; stroke-linecap:round; stroke-linejoin:round; stroke-width:4; stroke-opacity:1; fill:none" points="216.396,831.713 225.844,831.713 "/>
<polyline clip-path="url(#clip740)" style="stroke:#000000; stroke-linecap:round; stroke-linejoin:round; stroke-width:4; stroke-opacity:1; fill:none" points="216.396,790.871 225.844,790.871 "/>
<polyline clip-path="url(#clip740)" style="stroke:#000000; stroke-linecap:round; stroke-linejoin:round; stroke-width:4; stroke-opacity:1; fill:none" points="216.396,755.493 225.844,755.493 "/>
<polyline clip-path="url(#clip740)" style="stroke:#000000; stroke-linecap:round; stroke-linejoin:round; stroke-width:4; stroke-opacity:1; fill:none" points="216.396,724.286 225.844,724.286 "/>
<polyline clip-path="url(#clip740)" style="stroke:#000000; stroke-linecap:round; stroke-linejoin:round; stroke-width:4; stroke-opacity:1; fill:none" points="216.396,512.724 225.844,512.724 "/>
<polyline clip-path="url(#clip740)" style="stroke:#000000; stroke-linecap:round; stroke-linejoin:round; stroke-width:4; stroke-opacity:1; fill:none" points="216.396,405.297 225.844,405.297 "/>
<polyline clip-path="url(#clip740)" style="stroke:#000000; stroke-linecap:round; stroke-linejoin:round; stroke-width:4; stroke-opacity:1; fill:none" points="216.396,329.077 225.844,329.077 "/>
<polyline clip-path="url(#clip740)" style="stroke:#000000; stroke-linecap:round; stroke-linejoin:round; stroke-width:4; stroke-opacity:1; fill:none" points="216.396,269.955 225.844,269.955 "/>
<polyline clip-path="url(#clip740)" style="stroke:#000000; stroke-linecap:round; stroke-linejoin:round; stroke-width:4; stroke-opacity:1; fill:none" points="216.396,221.65 225.844,221.65 "/>
<polyline clip-path="url(#clip740)" style="stroke:#000000; stroke-linecap:round; stroke-linejoin:round; stroke-width:4; stroke-opacity:1; fill:none" points="216.396,180.808 225.844,180.808 "/>
<polyline clip-path="url(#clip740)" style="stroke:#000000; stroke-linecap:round; stroke-linejoin:round; stroke-width:4; stroke-opacity:1; fill:none" points="216.396,145.429 225.844,145.429 "/>
<polyline clip-path="url(#clip740)" style="stroke:#000000; stroke-linecap:round; stroke-linejoin:round; stroke-width:4; stroke-opacity:1; fill:none" points="216.396,114.223 225.844,114.223 "/>
<path clip-path="url(#clip740)" d="M112.379 1326.23 L120.018 1326.23 L120.018 1299.86 L111.708 1301.53 L111.708 1297.27 L119.972 1295.6 L124.648 1295.6 L124.648 1326.23 L132.287 1326.23 L132.287 1330.16 L112.379 1330.16 L112.379 1326.23 Z" fill="#000000" fill-rule="nonzero" fill-opacity="1" /><path clip-path="url(#clip740)" d="M151.731 1298.68 Q148.12 1298.68 146.291 1302.25 Q144.486 1305.79 144.486 1312.92 Q144.486 1320.02 146.291 1323.59 Q148.12 1327.13 151.731 1327.13 Q155.365 1327.13 157.171 1323.59 Q159 1320.02 159 1312.92 Q159 1305.79 157.171 1302.25 Q155.365 1298.68 151.731 1298.68 M151.731 1294.98 Q157.541 1294.98 160.597 1299.58 Q163.675 1304.17 163.675 1312.92 Q163.675 1321.64 160.597 1326.25 Q157.541 1330.83 151.731 1330.83 Q145.921 1330.83 142.842 1326.25 Q139.787 1321.64 139.787 1312.92 Q139.787 1304.17 142.842 1299.58 Q145.921 1294.98 151.731 1294.98 Z" fill="#000000" fill-rule="nonzero" fill-opacity="1" /><path clip-path="url(#clip740)" d="M164.221 1299.55 L170.427 1299.55 L170.427 1278.13 L163.675 1279.49 L163.675 1276.03 L170.39 1274.67 L174.189 1274.67 L174.189 1299.55 L180.396 1299.55 L180.396 1302.75 L164.221 1302.75 L164.221 1299.55 Z" fill="#000000" fill-rule="nonzero" fill-opacity="1" /><path clip-path="url(#clip740)" d="M111.27 716.164 L118.909 716.164 L118.909 689.798 L110.598 691.465 L110.598 687.206 L118.862 685.539 L123.538 685.539 L123.538 716.164 L131.177 716.164 L131.177 720.099 L111.27 720.099 L111.27 716.164 Z" fill="#000000" fill-rule="nonzero" fill-opacity="1" /><path clip-path="url(#clip740)" d="M150.621 688.618 Q147.01 688.618 145.182 692.182 Q143.376 695.724 143.376 702.854 Q143.376 709.96 145.182 713.525 Q147.01 717.067 150.621 717.067 Q154.256 717.067 156.061 713.525 Q157.89 709.96 157.89 702.854 Q157.89 695.724 156.061 692.182 Q154.256 688.618 150.621 688.618 M150.621 684.914 Q156.432 684.914 159.487 689.52 Q162.566 694.104 162.566 702.854 Q162.566 711.581 159.487 716.187 Q156.432 720.77 150.621 720.77 Q144.811 720.77 141.733 716.187 Q138.677 711.581 138.677 702.854 Q138.677 694.104 141.733 689.52 Q144.811 684.914 150.621 684.914 Z" fill="#000000" fill-rule="nonzero" fill-opacity="1" /><path clip-path="url(#clip740)" d="M167.136 689.491 L180.396 689.491 L180.396 692.689 L162.566 692.689 L162.566 689.491 Q164.729 687.253 168.453 683.492 Q172.195 679.711 173.155 678.62 Q174.979 676.57 175.694 675.16 Q176.427 673.73 176.427 672.357 Q176.427 670.119 174.847 668.709 Q173.286 667.298 170.766 667.298 Q168.979 667.298 166.986 667.919 Q165.011 668.539 162.754 669.8 L162.754 665.963 Q165.048 665.041 167.042 664.571 Q169.036 664.101 170.691 664.101 Q175.054 664.101 177.65 666.282 Q180.245 668.464 180.245 672.113 Q180.245 673.843 179.587 675.404 Q178.947 676.946 177.236 679.053 Q176.766 679.598 174.245 682.213 Q171.725 684.808 167.136 689.491 Z" fill="#000000" fill-rule="nonzero" fill-opacity="1" /><path clip-path="url(#clip740)" d="M110.611 106.1 L118.25 106.1 L118.25 79.7348 L109.94 81.4014 L109.94 77.1422 L118.204 75.4755 L122.88 75.4755 L122.88 106.1 L130.519 106.1 L130.519 110.036 L110.611 110.036 L110.611 106.1 Z" fill="#000000" fill-rule="nonzero" fill-opacity="1" /><path clip-path="url(#clip740)" d="M149.963 78.5542 Q146.352 78.5542 144.523 82.119 Q142.718 85.6607 142.718 92.7903 Q142.718 99.8967 144.523 103.461 Q146.352 107.003 149.963 107.003 Q153.597 107.003 155.403 103.461 Q157.232 99.8967 157.232 92.7903 Q157.232 85.6607 155.403 82.119 Q153.597 78.5542 149.963 78.5542 M149.963 74.8505 Q155.773 74.8505 158.829 79.457 Q161.907 84.0403 161.907 92.7903 Q161.907 101.517 158.829 106.124 Q155.773 110.707 149.963 110.707 Q144.153 110.707 141.074 106.124 Q138.019 101.517 138.019 92.7903 Q138.019 84.0403 141.074 79.457 Q144.153 74.8505 149.963 74.8505 Z" fill="#000000" fill-rule="nonzero" fill-opacity="1" /><path clip-path="url(#clip740)" d="M174.603 67.4849 Q177.33 68.0679 178.853 69.9111 Q180.396 71.7542 180.396 74.4626 Q180.396 78.6191 177.537 80.8948 Q174.678 83.1706 169.412 83.1706 Q167.644 83.1706 165.763 82.8132 Q163.901 82.4747 161.907 81.7788 L161.907 78.1113 Q163.487 79.0328 165.368 79.503 Q167.249 79.9732 169.299 79.9732 Q172.872 79.9732 174.734 78.5627 Q176.615 77.1521 176.615 74.4626 Q176.615 71.9799 174.866 70.5882 Q173.136 69.1776 170.032 69.1776 L166.76 69.1776 L166.76 66.0555 L170.183 66.0555 Q172.985 66.0555 174.471 64.9458 Q175.957 63.8174 175.957 61.7109 Q175.957 59.548 174.415 58.4007 Q172.891 57.2346 170.032 57.2346 Q168.471 57.2346 166.685 57.5732 Q164.898 57.9117 162.754 58.6264 L162.754 55.241 Q164.917 54.6392 166.797 54.3382 Q168.697 54.0373 170.371 54.0373 Q174.697 54.0373 177.217 56.0121 Q179.737 57.9681 179.737 61.3159 Q179.737 63.6481 178.402 65.2656 Q177.067 66.8642 174.603 67.4849 Z" fill="#000000" fill-rule="nonzero" fill-opacity="1" /><path clip-path="url(#clip740)" d="M29.5278 786.214 L34.5625 786.214 Q33.4051 788.471 32.8264 790.902 Q32.2477 793.332 32.2477 795.936 Q32.2477 799.901 33.4629 801.897 Q34.6782 803.865 37.1088 803.865 Q38.9606 803.865 40.0312 802.447 Q41.0729 801.029 42.0277 796.747 L42.4328 794.924 Q43.6481 789.252 45.8761 786.88 Q48.0751 784.478 52.0392 784.478 Q56.5531 784.478 59.1862 788.066 Q61.8193 791.625 61.8193 797.875 Q61.8193 800.479 61.2984 803.315 Q60.8065 806.122 59.7938 809.247 L54.2962 809.247 Q55.8297 806.295 56.611 803.431 Q57.3633 800.566 57.3633 797.759 Q57.3633 793.998 56.0901 791.972 Q54.7881 789.947 52.4443 789.947 Q50.2742 789.947 49.1168 791.423 Q47.9594 792.869 46.8888 797.817 L46.4548 799.669 Q45.4131 804.617 43.2719 806.816 Q41.1018 809.015 37.3402 809.015 Q32.7685 809.015 30.2801 805.774 Q27.7917 802.534 27.7917 796.573 Q27.7917 793.622 28.2257 791.018 Q28.6597 788.413 29.5278 786.214 Z" fill="#000000" fill-rule="nonzero" fill-opacity="1" /><path clip-path="url(#clip740)" d="M19.3716 770.734 L28.5729 770.734 L28.5729 759.768 L32.7106 759.768 L32.7106 770.734 L50.3031 770.734 Q54.2672 770.734 55.3957 769.663 Q56.5242 768.564 56.5242 765.236 L56.5242 759.768 L60.9802 759.768 L60.9802 765.236 Q60.9802 771.4 58.6943 773.743 Q56.3795 776.087 50.3031 776.087 L32.7106 776.087 L32.7106 779.993 L28.5729 779.993 L28.5729 776.087 L19.3716 776.087 L19.3716 770.734 Z" fill="#000000" fill-rule="nonzero" fill-opacity="1" /><path clip-path="url(#clip740)" d="M44.6897 738.037 Q44.6897 744.49 46.1654 746.978 Q47.6411 749.467 51.2001 749.467 Q54.0358 749.467 55.714 747.615 Q57.3633 745.734 57.3633 742.522 Q57.3633 738.095 54.2383 735.433 Q51.0844 732.742 45.8761 732.742 L44.6897 732.742 L44.6897 738.037 M42.4907 727.418 L60.9802 727.418 L60.9802 732.742 L56.0612 732.742 Q59.0126 734.565 60.4304 737.285 Q61.8193 740.005 61.8193 743.94 Q61.8193 748.917 59.0415 751.868 Q56.2348 754.791 51.5473 754.791 Q46.0786 754.791 43.3009 751.145 Q40.5231 747.47 40.5231 740.208 L40.5231 732.742 L40.0023 732.742 Q36.3275 732.742 34.331 735.173 Q32.3055 737.575 32.3055 741.944 Q32.3055 744.721 32.971 747.355 Q33.6366 749.988 34.9676 752.418 L30.0486 752.418 Q28.9201 749.496 28.3704 746.747 Q27.7917 743.998 27.7917 741.394 Q27.7917 734.363 31.4375 730.891 Q35.0833 727.418 42.4907 727.418 Z" fill="#000000" fill-rule="nonzero" fill-opacity="1" /><path clip-path="url(#clip740)" d="M19.3716 711.186 L28.5729 711.186 L28.5729 700.219 L32.7106 700.219 L32.7106 711.186 L50.3031 711.186 Q54.2672 711.186 55.3957 710.115 Q56.5242 709.016 56.5242 705.688 L56.5242 700.219 L60.9802 700.219 L60.9802 705.688 Q60.9802 711.851 58.6943 714.195 Q56.3795 716.539 50.3031 716.539 L32.7106 716.539 L32.7106 720.445 L28.5729 720.445 L28.5729 716.539 L19.3716 716.539 L19.3716 711.186 Z" fill="#000000" fill-rule="nonzero" fill-opacity="1" /><path clip-path="url(#clip740)" d="M43.4455 665.497 L46.0497 665.497 L46.0497 689.976 Q51.5473 689.629 54.4408 686.678 Q57.3054 683.697 57.3054 678.402 Q57.3054 675.335 56.5531 672.471 Q55.8008 669.577 54.2962 666.742 L59.3309 666.742 Q60.5461 669.606 61.1827 672.615 Q61.8193 675.625 61.8193 678.721 Q61.8193 686.475 57.3054 691.018 Q52.7915 695.532 45.0948 695.532 Q37.1377 695.532 32.4792 691.25 Q27.7917 686.938 27.7917 679.647 Q27.7917 673.107 32.0162 669.317 Q36.2118 665.497 43.4455 665.497 M41.883 670.821 Q37.5138 670.879 34.9097 673.281 Q32.3055 675.654 32.3055 679.589 Q32.3055 684.045 34.8229 686.736 Q37.3402 689.398 41.912 689.803 L41.883 670.821 Z" fill="#000000" fill-rule="nonzero" fill-opacity="1" /><polyline clip-path="url(#clip742)" style="stroke:#0000ff; stroke-linecap:round; stroke-linejoin:round; stroke-width:8; stroke-opacity:1; fill:none" stroke-dasharray="32, 16, 4, 16" points="276.859,86.3079 377.63,155.63 478.402,220.925 579.174,284.947 679.945,349.868 780.717,416.901 881.489,486.186 982.261,556.979 1083.03,628.107 1183.8,698.413 1284.58,767.101 1385.35,833.875 1486.12,898.971 1586.89,962.835 1687.66,1025.92 1788.43,1088.49 1889.21,1150.6 1989.98,1212 2090.75,1272.36 2191.52,1331.27 2292.29,1388.44 "/>
<path clip-path="url(#clip742)" d="M276.859 70.3079 L273.099 81.1239 L261.643 81.3639 L270.779 88.2919 L267.451 99.2519 L276.859 92.7079 L286.267 99.2519 L282.939 88.2919 L292.075 81.3639 L280.619 81.1239 L276.859 70.3079 Z" fill="#009af9" fill-rule="evenodd" fill-opacity="1" stroke="#000000" stroke-opacity="1" stroke-width="3.2"/>
<path clip-path="url(#clip742)" d="M377.63 139.63 L373.87 150.446 L362.414 150.686 L371.55 157.614 L368.222 168.574 L377.63 162.03 L387.038 168.574 L383.71 157.614 L392.846 150.686 L381.39 150.446 L377.63 139.63 Z" fill="#009af9" fill-rule="evenodd" fill-opacity="1" stroke="#000000" stroke-opacity="1" stroke-width="3.2"/>
<path clip-path="url(#clip742)" d="M478.402 204.925 L474.642 215.741 L463.186 215.981 L472.322 222.909 L468.994 233.869 L478.402 227.325 L487.81 233.869 L484.482 222.909 L493.618 215.981 L482.162 215.741 L478.402 204.925 Z" fill="#009af9" fill-rule="evenodd" fill-opacity="1" stroke="#000000" stroke-opacity="1" stroke-width="3.2"/>
<path clip-path="url(#clip742)" d="M579.174 268.947 L575.414 279.763 L563.958 280.003 L573.094 286.931 L569.766 297.891 L579.174 291.347 L588.582 297.891 L585.254 286.931 L594.39 280.003 L582.934 279.763 L579.174 268.947 Z" fill="#009af9" fill-rule="evenodd" fill-opacity="1" stroke="#000000" stroke-opacity="1" stroke-width="3.2"/>
<path clip-path="url(#clip742)" d="M679.945 333.868 L676.185 344.684 L664.729 344.924 L673.865 351.852 L670.537 362.812 L679.945 356.268 L689.353 362.812 L686.025 351.852 L695.161 344.924 L683.705 344.684 L679.945 333.868 Z" fill="#009af9" fill-rule="evenodd" fill-opacity="1" stroke="#000000" stroke-opacity="1" stroke-width="3.2"/>
<path clip-path="url(#clip742)" d="M780.717 400.901 L776.957 411.717 L765.501 411.957 L774.637 418.885 L771.309 429.845 L780.717 423.301 L790.125 429.845 L786.797 418.885 L795.933 411.957 L784.477 411.717 L780.717 400.901 Z" fill="#009af9" fill-rule="evenodd" fill-opacity="1" stroke="#000000" stroke-opacity="1" stroke-width="3.2"/>
<path clip-path="url(#clip742)" d="M881.489 470.186 L877.729 481.002 L866.273 481.242 L875.409 488.17 L872.081 499.13 L881.489 492.586 L890.897 499.13 L887.569 488.17 L896.705 481.242 L885.249 481.002 L881.489 470.186 Z" fill="#009af9" fill-rule="evenodd" fill-opacity="1" stroke="#000000" stroke-opacity="1" stroke-width="3.2"/>
<path clip-path="url(#clip742)" d="M982.261 540.979 L978.501 551.795 L967.045 552.035 L976.181 558.963 L972.853 569.923 L982.261 563.379 L991.669 569.923 L988.341 558.963 L997.477 552.035 L986.021 551.795 L982.261 540.979 Z" fill="#009af9" fill-rule="evenodd" fill-opacity="1" stroke="#000000" stroke-opacity="1" stroke-width="3.2"/>
<path clip-path="url(#clip742)" d="M1083.03 612.107 L1079.27 622.923 L1067.82 623.163 L1076.95 630.091 L1073.62 641.051 L1083.03 634.507 L1092.44 641.051 L1089.11 630.091 L1098.25 623.163 L1086.79 622.923 L1083.03 612.107 Z" fill="#009af9" fill-rule="evenodd" fill-opacity="1" stroke="#000000" stroke-opacity="1" stroke-width="3.2"/>
<path clip-path="url(#clip742)" d="M1183.8 682.413 L1180.04 693.229 L1168.59 693.469 L1177.72 700.397 L1174.4 711.357 L1183.8 704.813 L1193.21 711.357 L1189.88 700.397 L1199.02 693.469 L1187.56 693.229 L1183.8 682.413 Z" fill="#009af9" fill-rule="evenodd" fill-opacity="1" stroke="#000000" stroke-opacity="1" stroke-width="3.2"/>
<path clip-path="url(#clip742)" d="M1284.58 751.101 L1280.82 761.917 L1269.36 762.157 L1278.5 769.085 L1275.17 780.045 L1284.58 773.501 L1293.98 780.045 L1290.66 769.085 L1299.79 762.157 L1288.34 761.917 L1284.58 751.101 Z" fill="#009af9" fill-rule="evenodd" fill-opacity="1" stroke="#000000" stroke-opacity="1" stroke-width="3.2"/>
<path clip-path="url(#clip742)" d="M1385.35 817.875 L1381.59 828.691 L1370.13 828.931 L1379.27 835.859 L1375.94 846.819 L1385.35 840.275 L1394.76 846.819 L1391.43 835.859 L1400.56 828.931 L1389.11 828.691 L1385.35 817.875 Z" fill="#009af9" fill-rule="evenodd" fill-opacity="1" stroke="#000000" stroke-opacity="1" stroke-width="3.2"/>
<path clip-path="url(#clip742)" d="M1486.12 882.971 L1482.36 893.787 L1470.9 894.027 L1480.04 900.955 L1476.71 911.915 L1486.12 905.371 L1495.53 911.915 L1492.2 900.955 L1501.34 894.027 L1489.88 893.787 L1486.12 882.971 Z" fill="#009af9" fill-rule="evenodd" fill-opacity="1" stroke="#000000" stroke-opacity="1" stroke-width="3.2"/>
<path clip-path="url(#clip742)" d="M1586.89 946.835 L1583.13 957.651 L1571.67 957.891 L1580.81 964.819 L1577.48 975.779 L1586.89 969.235 L1596.3 975.779 L1592.97 964.819 L1602.11 957.891 L1590.65 957.651 L1586.89 946.835 Z" fill="#009af9" fill-rule="evenodd" fill-opacity="1" stroke="#000000" stroke-opacity="1" stroke-width="3.2"/>
<path clip-path="url(#clip742)" d="M1687.66 1009.92 L1683.9 1020.74 L1672.45 1020.98 L1681.58 1027.91 L1678.25 1038.87 L1687.66 1032.32 L1697.07 1038.87 L1693.74 1027.91 L1702.88 1020.98 L1691.42 1020.74 L1687.66 1009.92 Z" fill="#009af9" fill-rule="evenodd" fill-opacity="1" stroke="#000000" stroke-opacity="1" stroke-width="3.2"/>
<path clip-path="url(#clip742)" d="M1788.43 1072.49 L1784.67 1083.31 L1773.22 1083.55 L1782.35 1090.48 L1779.03 1101.44 L1788.43 1094.89 L1797.84 1101.44 L1794.51 1090.48 L1803.65 1083.55 L1792.19 1083.31 L1788.43 1072.49 Z" fill="#009af9" fill-rule="evenodd" fill-opacity="1" stroke="#000000" stroke-opacity="1" stroke-width="3.2"/>
<path clip-path="url(#clip742)" d="M1889.21 1134.6 L1885.45 1145.41 L1873.99 1145.65 L1883.13 1152.58 L1879.8 1163.54 L1889.21 1157 L1898.61 1163.54 L1895.29 1152.58 L1904.42 1145.65 L1892.97 1145.41 L1889.21 1134.6 Z" fill="#009af9" fill-rule="evenodd" fill-opacity="1" stroke="#000000" stroke-opacity="1" stroke-width="3.2"/>
<path clip-path="url(#clip742)" d="M1989.98 1196 L1986.22 1206.82 L1974.76 1207.06 L1983.9 1213.99 L1980.57 1224.95 L1989.98 1218.4 L1999.39 1224.95 L1996.06 1213.99 L2005.19 1207.06 L1993.74 1206.82 L1989.98 1196 Z" fill="#009af9" fill-rule="evenodd" fill-opacity="1" stroke="#000000" stroke-opacity="1" stroke-width="3.2"/>
<path clip-path="url(#clip742)" d="M2090.75 1256.36 L2086.99 1267.18 L2075.53 1267.42 L2084.67 1274.34 L2081.34 1285.3 L2090.75 1278.76 L2100.16 1285.3 L2096.83 1274.34 L2105.97 1267.42 L2094.51 1267.18 L2090.75 1256.36 Z" fill="#009af9" fill-rule="evenodd" fill-opacity="1" stroke="#000000" stroke-opacity="1" stroke-width="3.2"/>
<path clip-path="url(#clip742)" d="M2191.52 1315.27 L2187.76 1326.09 L2176.31 1326.33 L2185.44 1333.26 L2182.11 1344.22 L2191.52 1337.67 L2200.93 1344.22 L2197.6 1333.26 L2206.74 1326.33 L2195.28 1326.09 L2191.52 1315.27 Z" fill="#009af9" fill-rule="evenodd" fill-opacity="1" stroke="#000000" stroke-opacity="1" stroke-width="3.2"/>
<path clip-path="url(#clip742)" d="M2292.29 1372.44 L2288.53 1383.25 L2277.08 1383.49 L2286.21 1390.42 L2282.88 1401.38 L2292.29 1394.84 L2301.7 1401.38 L2298.37 1390.42 L2307.51 1383.49 L2296.05 1383.25 L2292.29 1372.44 Z" fill="#009af9" fill-rule="evenodd" fill-opacity="1" stroke="#000000" stroke-opacity="1" stroke-width="3.2"/>
<polyline clip-path="url(#clip742)" style="stroke:#000000; stroke-linecap:round; stroke-linejoin:round; stroke-width:8; stroke-opacity:1; fill:none" points="276.859,86.3079 377.63,130.491 478.402,173.613 579.174,217.875 679.945,262.06 780.717,306.249 881.489,350.431 982.261,394.612 1083.03,438.793 1183.8,482.974 1284.58,527.155 1385.35,571.338 1486.12,615.515 1586.89,659.695 1687.66,703.883 1788.43,748.059 1889.21,792.241 1989.98,836.422 2090.75,880.6 2191.52,924.781 2292.29,968.965 "/>
<path clip-path="url(#clip742)" d="M276.859 70.3079 L273.099 81.1239 L261.643 81.3639 L270.779 88.2919 L267.451 99.2519 L276.859 92.7079 L286.267 99.2519 L282.939 88.2919 L292.075 81.3639 L280.619 81.1239 L276.859 70.3079 Z" fill="#e26f46" fill-rule="evenodd" fill-opacity="1" stroke="#000000" stroke-opacity="1" stroke-width="3.2"/>
<path clip-path="url(#clip742)" d="M377.63 114.491 L373.87 125.307 L362.414 125.547 L371.55 132.475 L368.222 143.435 L377.63 136.891 L387.038 143.435 L383.71 132.475 L392.846 125.547 L381.39 125.307 L377.63 114.491 Z" fill="#e26f46" fill-rule="evenodd" fill-opacity="1" stroke="#000000" stroke-opacity="1" stroke-width="3.2"/>
<path clip-path="url(#clip742)" d="M478.402 157.613 L474.642 168.429 L463.186 168.669 L472.322 175.597 L468.994 186.557 L478.402 180.013 L487.81 186.557 L484.482 175.597 L493.618 168.669 L482.162 168.429 L478.402 157.613 Z" fill="#e26f46" fill-rule="evenodd" fill-opacity="1" stroke="#000000" stroke-opacity="1" stroke-width="3.2"/>
<path clip-path="url(#clip742)" d="M579.174 201.875 L575.414 212.691 L563.958 212.931 L573.094 219.859 L569.766 230.819 L579.174 224.275 L588.582 230.819 L585.254 219.859 L594.39 212.931 L582.934 212.691 L579.174 201.875 Z" fill="#e26f46" fill-rule="evenodd" fill-opacity="1" stroke="#000000" stroke-opacity="1" stroke-width="3.2"/>
<path clip-path="url(#clip742)" d="M679.945 246.06 L676.185 256.876 L664.729 257.116 L673.865 264.044 L670.537 275.004 L679.945 268.46 L689.353 275.004 L686.025 264.044 L695.161 257.116 L683.705 256.876 L679.945 246.06 Z" fill="#e26f46" fill-rule="evenodd" fill-opacity="1" stroke="#000000" stroke-opacity="1" stroke-width="3.2"/>
<path clip-path="url(#clip742)" d="M780.717 290.249 L776.957 301.065 L765.501 301.305 L774.637 308.233 L771.309 319.193 L780.717 312.649 L790.125 319.193 L786.797 308.233 L795.933 301.305 L784.477 301.065 L780.717 290.249 Z" fill="#e26f46" fill-rule="evenodd" fill-opacity="1" stroke="#000000" stroke-opacity="1" stroke-width="3.2"/>
<path clip-path="url(#clip742)" d="M881.489 334.431 L877.729 345.247 L866.273 345.487 L875.409 352.415 L872.081 363.375 L881.489 356.831 L890.897 363.375 L887.569 352.415 L896.705 345.487 L885.249 345.247 L881.489 334.431 Z" fill="#e26f46" fill-rule="evenodd" fill-opacity="1" stroke="#000000" stroke-opacity="1" stroke-width="3.2"/>
<path clip-path="url(#clip742)" d="M982.261 378.612 L978.501 389.428 L967.045 389.668 L976.181 396.596 L972.853 407.556 L982.261 401.012 L991.669 407.556 L988.341 396.596 L997.477 389.668 L986.021 389.428 L982.261 378.612 Z" fill="#e26f46" fill-rule="evenodd" fill-opacity="1" stroke="#000000" stroke-opacity="1" stroke-width="3.2"/>
<path clip-path="url(#clip742)" d="M1083.03 422.793 L1079.27 433.609 L1067.82 433.849 L1076.95 440.777 L1073.62 451.737 L1083.03 445.193 L1092.44 451.737 L1089.11 440.777 L1098.25 433.849 L1086.79 433.609 L1083.03 422.793 Z" fill="#e26f46" fill-rule="evenodd" fill-opacity="1" stroke="#000000" stroke-opacity="1" stroke-width="3.2"/>
<path clip-path="url(#clip742)" d="M1183.8 466.974 L1180.04 477.79 L1168.59 478.03 L1177.72 484.958 L1174.4 495.918 L1183.8 489.374 L1193.21 495.918 L1189.88 484.958 L1199.02 478.03 L1187.56 477.79 L1183.8 466.974 Z" fill="#e26f46" fill-rule="evenodd" fill-opacity="1" stroke="#000000" stroke-opacity="1" stroke-width="3.2"/>
<path clip-path="url(#clip742)" d="M1284.58 511.155 L1280.82 521.971 L1269.36 522.211 L1278.5 529.139 L1275.17 540.099 L1284.58 533.555 L1293.98 540.099 L1290.66 529.139 L1299.79 522.211 L1288.34 521.971 L1284.58 511.155 Z" fill="#e26f46" fill-rule="evenodd" fill-opacity="1" stroke="#000000" stroke-opacity="1" stroke-width="3.2"/>
<path clip-path="url(#clip742)" d="M1385.35 555.338 L1381.59 566.154 L1370.13 566.394 L1379.27 573.322 L1375.94 584.282 L1385.35 577.738 L1394.76 584.282 L1391.43 573.322 L1400.56 566.394 L1389.11 566.154 L1385.35 555.338 Z" fill="#e26f46" fill-rule="evenodd" fill-opacity="1" stroke="#000000" stroke-opacity="1" stroke-width="3.2"/>
<path clip-path="url(#clip742)" d="M1486.12 599.515 L1482.36 610.331 L1470.9 610.571 L1480.04 617.499 L1476.71 628.459 L1486.12 621.915 L1495.53 628.459 L1492.2 617.499 L1501.34 610.571 L1489.88 610.331 L1486.12 599.515 Z" fill="#e26f46" fill-rule="evenodd" fill-opacity="1" stroke="#000000" stroke-opacity="1" stroke-width="3.2"/>
<path clip-path="url(#clip742)" d="M1586.89 643.695 L1583.13 654.511 L1571.67 654.751 L1580.81 661.679 L1577.48 672.639 L1586.89 666.095 L1596.3 672.639 L1592.97 661.679 L1602.11 654.751 L1590.65 654.511 L1586.89 643.695 Z" fill="#e26f46" fill-rule="evenodd" fill-opacity="1" stroke="#000000" stroke-opacity="1" stroke-width="3.2"/>
<path clip-path="url(#clip742)" d="M1687.66 687.883 L1683.9 698.699 L1672.45 698.939 L1681.58 705.867 L1678.25 716.827 L1687.66 710.283 L1697.07 716.827 L1693.74 705.867 L1702.88 698.939 L1691.42 698.699 L1687.66 687.883 Z" fill="#e26f46" fill-rule="evenodd" fill-opacity="1" stroke="#000000" stroke-opacity="1" stroke-width="3.2"/>
<path clip-path="url(#clip742)" d="M1788.43 732.059 L1784.67 742.875 L1773.22 743.115 L1782.35 750.043 L1779.03 761.003 L1788.43 754.459 L1797.84 761.003 L1794.51 750.043 L1803.65 743.115 L1792.19 742.875 L1788.43 732.059 Z" fill="#e26f46" fill-rule="evenodd" fill-opacity="1" stroke="#000000" stroke-opacity="1" stroke-width="3.2"/>
<path clip-path="url(#clip742)" d="M1889.21 776.241 L1885.45 787.057 L1873.99 787.297 L1883.13 794.225 L1879.8 805.185 L1889.21 798.641 L1898.61 805.185 L1895.29 794.225 L1904.42 787.297 L1892.97 787.057 L1889.21 776.241 Z" fill="#e26f46" fill-rule="evenodd" fill-opacity="1" stroke="#000000" stroke-opacity="1" stroke-width="3.2"/>
<path clip-path="url(#clip742)" d="M1989.98 820.422 L1986.22 831.238 L1974.76 831.478 L1983.9 838.406 L1980.57 849.366 L1989.98 842.822 L1999.39 849.366 L1996.06 838.406 L2005.19 831.478 L1993.74 831.238 L1989.98 820.422 Z" fill="#e26f46" fill-rule="evenodd" fill-opacity="1" stroke="#000000" stroke-opacity="1" stroke-width="3.2"/>
<path clip-path="url(#clip742)" d="M2090.75 864.6 L2086.99 875.416 L2075.53 875.656 L2084.67 882.584 L2081.34 893.544 L2090.75 887 L2100.16 893.544 L2096.83 882.584 L2105.97 875.656 L2094.51 875.416 L2090.75 864.6 Z" fill="#e26f46" fill-rule="evenodd" fill-opacity="1" stroke="#000000" stroke-opacity="1" stroke-width="3.2"/>
<path clip-path="url(#clip742)" d="M2191.52 908.781 L2187.76 919.597 L2176.31 919.837 L2185.44 926.765 L2182.11 937.725 L2191.52 931.181 L2200.93 937.725 L2197.6 926.765 L2206.74 919.837 L2195.28 919.597 L2191.52 908.781 Z" fill="#e26f46" fill-rule="evenodd" fill-opacity="1" stroke="#000000" stroke-opacity="1" stroke-width="3.2"/>
<path clip-path="url(#clip742)" d="M2292.29 952.965 L2288.53 963.781 L2277.08 964.021 L2286.21 970.949 L2282.88 981.909 L2292.29 975.365 L2301.7 981.909 L2298.37 970.949 L2307.51 964.021 L2296.05 963.781 L2292.29 952.965 Z" fill="#e26f46" fill-rule="evenodd" fill-opacity="1" stroke="#000000" stroke-opacity="1" stroke-width="3.2"/>
<path clip-path="url(#clip740)" d="M1626.18 248.773 L2281.54 248.773 L2281.54 93.2526 L1626.18 93.2526  Z" fill="#ffffff" fill-rule="evenodd" fill-opacity="1"/>
<polyline clip-path="url(#clip740)" style="stroke:#000000; stroke-linecap:round; stroke-linejoin:round; stroke-width:4; stroke-opacity:1; fill:none" points="1626.18,248.773 2281.54,248.773 2281.54,93.2526 1626.18,93.2526 1626.18,248.773 "/>
<polyline clip-path="url(#clip740)" style="stroke:#0000ff; stroke-linecap:round; stroke-linejoin:round; stroke-width:8; stroke-opacity:1; fill:none" stroke-dasharray="32, 16, 4, 16" points="1649.92,145.093 1792.35,145.093 "/>
<path clip-path="url(#clip740)" d="M1721.13 123.114 L1715.97 137.971 L1700.23 138.301 L1712.78 147.818 L1708.21 162.874 L1721.13 153.884 L1734.06 162.874 L1729.49 147.818 L1742.04 138.301 L1726.3 137.971 L1721.13 123.114 Z" fill="#009af9" fill-rule="evenodd" fill-opacity="1" stroke="#000000" stroke-opacity="1" stroke-width="4.55111"/>
<path clip-path="url(#clip740)" d="M1850.14 127.981 L1847.12 140.208 Q1846.91 140.981 1846.77 141.074 Q1846.65 141.168 1846.27 141.168 Q1845.55 141.168 1845.55 140.676 Q1845.55 140.629 1845.62 140.02 Q1845.69 139.388 1845.69 138.24 Q1845.69 134.001 1843.63 131.495 Q1841.59 128.988 1837.96 128.988 Q1834.82 128.988 1831.66 130.581 Q1828.52 132.174 1826.27 134.774 Q1824.59 136.741 1823.34 139.224 Q1822.13 141.707 1821.54 143.979 Q1820.98 146.251 1820.72 147.961 Q1820.46 149.67 1820.46 150.912 Q1820.46 152.715 1820.84 154.238 Q1821.24 155.76 1821.94 156.838 Q1822.64 157.892 1823.53 158.711 Q1824.45 159.508 1825.5 159.976 Q1826.58 160.445 1827.65 160.679 Q1828.73 160.89 1829.86 160.89 Q1834.38 160.89 1838.69 157.376 Q1842.11 154.495 1843.53 149.788 Q1843.65 149.319 1844.14 149.319 Q1844.73 149.319 1844.73 149.788 Q1844.73 149.881 1844.61 150.35 Q1844.49 150.795 1844.14 151.708 Q1843.79 152.598 1843.25 153.605 Q1842.71 154.613 1841.71 155.877 Q1840.7 157.142 1839.46 158.243 Q1837.35 160.07 1834.68 161.218 Q1832.01 162.365 1829.08 162.365 Q1825.43 162.365 1822.48 160.749 Q1819.53 159.133 1817.79 156.112 Q1816.08 153.09 1816.08 149.225 Q1816.08 145.15 1817.96 141.145 Q1819.83 137.139 1822.81 134.165 Q1825.78 131.19 1829.72 129.34 Q1833.65 127.489 1837.59 127.489 Q1839.08 127.489 1840.42 127.888 Q1841.75 128.286 1842.55 128.778 Q1843.37 129.269 1844.1 129.996 Q1844.82 130.698 1845.06 131.026 Q1845.31 131.354 1845.55 131.752 L1848.9 128.075 Q1849.48 127.489 1849.62 127.489 Q1849.91 127.489 1850.02 127.653 Q1850.14 127.817 1850.14 127.981 Z" fill="#000000" fill-rule="nonzero" fill-opacity="1" /><path clip-path="url(#clip740)" d="M1874.42 148.218 Q1874.42 150.771 1873.3 153.301 Q1872.17 155.807 1870.37 157.681 Q1868.59 159.531 1866.25 160.702 Q1863.9 161.85 1861.56 161.85 Q1858.21 161.85 1856.03 159.578 Q1853.88 157.283 1853.88 153.722 Q1853.88 150.397 1855.73 147.234 Q1857.6 144.049 1860.6 142.082 Q1863.6 140.114 1866.74 140.114 Q1870.04 140.114 1872.22 142.339 Q1874.42 144.564 1874.42 148.218 M1870.91 146.344 Q1870.91 144.072 1869.81 142.62 Q1868.7 141.168 1866.69 141.168 Q1866.1 141.168 1865.43 141.355 Q1864.75 141.519 1863.86 141.964 Q1862.99 142.409 1862.01 143.346 Q1861.05 144.26 1860.2 145.571 Q1859.1 147.305 1858.26 150.49 Q1857.44 153.652 1857.44 155.549 Q1857.44 158.173 1858.66 159.484 Q1859.87 160.773 1861.61 160.773 Q1863.29 160.773 1865.07 159.602 Q1866.88 158.407 1868.12 156.369 Q1869.36 154.261 1870.13 151.169 Q1870.91 148.054 1870.91 146.344 Z" fill="#000000" fill-rule="nonzero" fill-opacity="1" /><path clip-path="url(#clip740)" d="M1915.25 154.449 Q1915.25 154.636 1915.04 155.362 Q1914.83 156.088 1914.32 157.212 Q1913.82 158.337 1913.12 159.367 Q1912.44 160.374 1911.32 161.124 Q1910.22 161.85 1908.95 161.85 Q1907.27 161.85 1906.14 160.726 Q1905.02 159.602 1905.02 157.915 Q1905.02 157.002 1905.65 155.268 Q1908.62 147.352 1908.62 144.517 Q1908.62 141.168 1906.02 141.168 Q1904.55 141.168 1903.21 141.777 Q1901.88 142.386 1901.01 143.229 Q1900.14 144.072 1899.47 145.033 Q1898.79 145.993 1898.48 146.625 Q1898.2 147.258 1898.13 147.539 L1895.25 159.11 Q1895.02 160.093 1894.85 160.562 Q1894.69 161.03 1894.24 161.428 Q1893.8 161.85 1893.09 161.85 Q1892.51 161.85 1892.09 161.499 Q1891.69 161.147 1891.69 160.538 Q1891.69 160.445 1891.81 159.953 Q1891.92 159.461 1892.09 158.782 Q1892.25 158.102 1892.32 157.704 Q1893.16 154.519 1893.28 154.074 L1894.62 148.499 Q1895.34 145.735 1895.34 144.517 Q1895.34 141.168 1892.74 141.168 Q1891.46 141.168 1890.24 141.66 Q1889.04 142.128 1888.22 142.784 Q1887.4 143.44 1886.65 144.354 Q1885.93 145.244 1885.55 145.853 Q1885.2 146.438 1884.92 147.024 L1884.31 149.413 Q1884.17 150.069 1883.49 152.622 L1882.44 156.955 Q1881.69 160.187 1881.52 160.492 Q1881.29 161.147 1880.77 161.499 Q1880.26 161.85 1879.74 161.85 Q1879.16 161.85 1878.76 161.499 Q1878.36 161.147 1878.36 160.538 Q1878.36 160.445 1878.43 160.093 Q1878.5 159.742 1878.62 159.25 Q1878.74 158.758 1878.78 158.477 L1881.57 147.398 Q1882.09 145.384 1882.2 144.752 Q1882.34 144.096 1882.34 143.37 Q1882.34 141.168 1880.84 141.168 Q1879.63 141.168 1878.83 142.62 Q1878.03 144.072 1877.35 146.883 Q1877.14 147.656 1877 147.82 Q1876.89 147.984 1876.54 147.984 Q1875.95 147.961 1875.95 147.492 Q1875.95 147.375 1876.14 146.625 Q1876.32 145.876 1876.68 144.752 Q1877.05 143.604 1877.45 142.854 Q1877.68 142.363 1877.89 142.035 Q1878.1 141.707 1878.53 141.191 Q1878.95 140.676 1879.58 140.395 Q1880.21 140.114 1880.99 140.114 Q1882.7 140.114 1883.96 141.215 Q1885.25 142.316 1885.41 144.283 Q1888.53 140.114 1892.88 140.114 Q1895.34 140.114 1896.82 141.355 Q1898.2 142.55 1898.36 144.752 Q1901.6 140.114 1906.19 140.114 Q1908.83 140.114 1910.26 141.496 Q1911.69 142.854 1911.69 145.244 Q1911.69 146.485 1911.06 148.851 Q1910.43 151.193 1910.01 152.364 Q1909.58 153.535 1908.76 155.784 Q1907.9 157.939 1907.9 159.203 Q1907.9 160.023 1908.18 160.398 Q1908.46 160.773 1909.07 160.773 Q1910.01 160.773 1910.83 160.234 Q1911.65 159.672 1912.23 158.758 Q1912.84 157.821 1913.24 156.885 Q1913.64 155.924 1913.94 154.847 Q1914.13 154.261 1914.22 154.121 Q1914.34 153.98 1914.67 153.98 Q1915.25 153.98 1915.25 154.449 Z" fill="#000000" fill-rule="nonzero" fill-opacity="1" /><path clip-path="url(#clip740)" d="M1936.08 147.773 Q1936.08 151.146 1934.37 154.449 Q1932.68 157.728 1929.97 159.789 Q1927.27 161.85 1924.51 161.85 Q1921.82 161.85 1920.11 159.789 Q1918.42 157.704 1918.42 154.308 Q1918.42 153.114 1918.56 152.27 Q1918.7 151.427 1919.19 149.46 L1923.13 133.813 Q1923.81 130.886 1923.81 130.862 Q1923.81 130.581 1923.69 130.441 Q1923.6 130.277 1923.03 130.16 Q1922.47 130.042 1921.39 130.042 Q1920.95 130.042 1920.74 130.019 Q1920.55 129.996 1920.39 129.878 Q1920.25 129.738 1920.25 129.457 Q1920.25 129.059 1920.41 128.848 Q1920.6 128.614 1920.74 128.567 Q1920.88 128.52 1921.16 128.497 Q1921.56 128.473 1922.89 128.356 Q1924.23 128.215 1925.38 128.122 Q1926.52 128.028 1927.02 128.028 Q1927.3 128.028 1927.44 128.169 Q1927.6 128.286 1927.6 128.426 L1927.62 128.543 L1924.09 142.995 Q1926.87 140.114 1929.71 140.114 Q1932.54 140.114 1934.3 142.292 Q1936.08 144.471 1936.08 147.773 M1932.61 145.665 Q1932.61 143.44 1931.77 142.316 Q1930.95 141.168 1929.59 141.168 Q1928.44 141.168 1926.94 142.035 Q1925.45 142.901 1923.85 145.009 Q1923.55 145.408 1923.43 145.642 Q1923.34 145.876 1923.13 146.672 L1922.07 151.099 Q1921.3 154.121 1921.3 155.948 Q1921.3 158.43 1922.21 159.602 Q1923.13 160.773 1924.51 160.773 Q1925.96 160.773 1927.48 159.484 Q1929.01 158.196 1930.18 155.854 Q1930.9 154.308 1931.75 150.982 Q1932.61 147.633 1932.61 145.665 Z" fill="#000000" fill-rule="nonzero" fill-opacity="1" /><path clip-path="url(#clip740)" d="M1949.88 131.331 Q1949.88 132.361 1949.04 133.134 Q1948.22 133.884 1947.33 133.884 Q1946.51 133.884 1945.99 133.392 Q1945.5 132.877 1945.5 132.15 Q1945.5 131.19 1946.32 130.394 Q1947.14 129.597 1948.1 129.597 Q1948.9 129.597 1949.39 130.089 Q1949.88 130.581 1949.88 131.331 M1950.3 154.449 Q1950.3 154.636 1950.09 155.385 Q1949.88 156.112 1949.37 157.236 Q1948.87 158.337 1948.19 159.367 Q1947.52 160.398 1946.39 161.124 Q1945.29 161.85 1944.03 161.85 Q1942.32 161.85 1941.19 160.726 Q1940.09 159.602 1940.09 157.915 Q1940.09 157.002 1941.19 154.074 Q1944.38 145.548 1944.49 145.197 Q1945.03 143.862 1945.03 142.691 Q1945.03 142.152 1944.92 141.824 Q1944.8 141.473 1944.56 141.355 Q1944.33 141.215 1944.19 141.191 Q1944.07 141.168 1943.84 141.168 Q1942.46 141.168 1941.17 142.573 Q1939.88 143.979 1938.99 147.117 Q1938.8 147.703 1938.68 147.843 Q1938.57 147.984 1938.22 147.984 Q1937.63 147.961 1937.63 147.492 Q1937.63 147.352 1937.79 146.813 Q1937.96 146.251 1938.26 145.408 Q1938.57 144.541 1939.11 143.651 Q1939.65 142.737 1940.3 141.941 Q1940.98 141.145 1941.94 140.629 Q1942.9 140.114 1943.98 140.114 Q1945.74 140.114 1946.81 141.262 Q1947.91 142.386 1947.91 144.049 Q1947.91 144.963 1947.28 146.579 Q1946.51 148.687 1946.23 149.366 L1944.35 154.402 Q1943.67 156.229 1943.46 156.791 Q1943.28 157.33 1943.11 157.985 Q1942.97 158.618 1942.97 159.203 Q1942.97 160.023 1943.23 160.398 Q1943.51 160.773 1944.12 160.773 Q1945.81 160.773 1947.05 159.11 Q1948.29 157.423 1949.01 154.847 Q1949.04 154.777 1949.06 154.659 Q1949.25 154.074 1949.44 154.004 Q1949.53 153.98 1949.72 153.98 Q1950.3 153.98 1950.3 154.449 Z" fill="#000000" fill-rule="nonzero" fill-opacity="1" /><path clip-path="url(#clip740)" d="M1980.39 154.449 Q1980.39 154.636 1980.18 155.362 Q1979.97 156.088 1979.45 157.212 Q1978.96 158.337 1978.28 159.367 Q1977.6 160.374 1976.48 161.124 Q1975.38 161.85 1974.11 161.85 Q1972.42 161.85 1971.3 160.726 Q1970.18 159.602 1970.18 157.915 Q1970.18 156.978 1970.67 155.69 Q1973.78 147.375 1973.78 144.517 Q1973.78 141.168 1971.18 141.168 Q1969.9 141.168 1968.68 141.66 Q1967.48 142.128 1966.66 142.784 Q1965.84 143.44 1965.09 144.354 Q1964.37 145.244 1963.99 145.853 Q1963.64 146.438 1963.36 147.024 L1962.75 149.413 Q1962.61 150.069 1961.93 152.622 L1960.88 156.955 Q1960.13 160.187 1959.96 160.492 Q1959.73 161.147 1959.21 161.499 Q1958.7 161.85 1958.18 161.85 Q1957.6 161.85 1957.2 161.499 Q1956.8 161.147 1956.8 160.538 Q1956.8 160.445 1956.87 160.093 Q1956.94 159.742 1957.06 159.25 Q1957.18 158.758 1957.22 158.477 L1960.01 147.398 Q1960.53 145.384 1960.64 144.752 Q1960.78 144.096 1960.78 143.37 Q1960.78 141.168 1959.28 141.168 Q1958.07 141.168 1957.27 142.62 Q1956.47 144.072 1955.79 146.883 Q1955.58 147.656 1955.44 147.82 Q1955.33 147.984 1954.97 147.984 Q1954.39 147.961 1954.39 147.492 Q1954.39 147.375 1954.58 146.602 Q1954.76 145.829 1955.12 144.728 Q1955.49 143.604 1955.84 142.854 Q1956.15 142.292 1956.31 142.035 Q1956.5 141.754 1956.94 141.215 Q1957.41 140.653 1958.02 140.395 Q1958.65 140.114 1959.43 140.114 Q1961.16 140.114 1962.42 141.238 Q1963.69 142.339 1963.85 144.283 Q1966.97 140.114 1971.32 140.114 Q1973.9 140.114 1975.38 141.473 Q1976.85 142.831 1976.85 145.244 Q1976.85 145.806 1976.73 146.532 Q1976.64 147.234 1976.41 148.125 Q1976.2 149.015 1976.01 149.694 Q1975.82 150.373 1975.45 151.474 Q1975.07 152.551 1974.91 153.02 Q1974.74 153.488 1974.35 154.589 Q1973.97 155.667 1973.92 155.784 Q1973.06 157.962 1973.06 159.203 Q1973.06 160.023 1973.31 160.398 Q1973.6 160.773 1974.2 160.773 Q1975.84 160.773 1977.06 159.157 Q1978.3 157.517 1979.1 154.847 Q1979.29 154.261 1979.38 154.121 Q1979.5 153.98 1979.83 153.98 Q1980.39 153.98 1980.39 154.449 Z" fill="#000000" fill-rule="nonzero" fill-opacity="1" /><path clip-path="url(#clip740)" d="M2002.46 155.76 Q2002.65 155.971 2002.65 156.182 Q2002.65 156.393 2002.18 157.002 Q2001.73 157.611 2000.77 158.43 Q1999.81 159.25 1998.57 160.023 Q1997.33 160.796 1995.5 161.311 Q1993.68 161.85 1991.76 161.85 Q1988.31 161.85 1986.25 159.391 Q1984.21 156.931 1984.21 153.16 Q1984.21 150.748 1985.01 148.616 Q1985.81 146.462 1987.1 144.939 Q1988.41 143.417 1990.05 142.316 Q1991.71 141.191 1993.44 140.653 Q1995.18 140.114 1996.79 140.114 Q1999.16 140.114 2000.54 141.309 Q2001.92 142.503 2001.92 144.19 Q2001.92 144.588 2001.81 145.08 Q2001.71 145.571 2001.38 146.344 Q2001.08 147.117 2000.28 147.89 Q1999.49 148.64 1998.32 149.132 Q1995.72 150.233 1990.98 150.233 L1988.43 150.233 Q1987.68 153.254 1987.68 155.222 Q1987.68 155.994 1987.82 156.791 Q1987.96 157.564 1988.34 158.548 Q1988.74 159.531 1989.63 160.164 Q1990.54 160.773 1991.85 160.773 Q1992.27 160.773 1992.72 160.749 Q1993.19 160.726 1994.36 160.468 Q1995.55 160.211 1996.61 159.765 Q1997.66 159.32 1998.99 158.36 Q2000.35 157.376 2001.43 156.041 Q2001.81 155.549 2002.06 155.549 Q2002.27 155.549 2002.46 155.76 M2000.33 144.19 Q2000.33 142.901 1999.37 142.035 Q1998.43 141.168 1996.79 141.168 Q1996.28 141.168 1995.65 141.285 Q1995.01 141.402 1993.96 141.894 Q1992.93 142.386 1992.01 143.206 Q1991.1 144.002 1990.19 145.571 Q1989.27 147.117 1988.74 149.179 L1990.7 149.179 Q1991.38 149.179 1991.87 149.179 Q1992.37 149.155 1993.44 149.061 Q1994.54 148.968 1995.34 148.804 Q1996.14 148.616 1997.14 148.242 Q1998.15 147.867 1998.78 147.375 Q1999.44 146.86 1999.88 146.04 Q2000.33 145.22 2000.33 144.19 Z" fill="#000000" fill-rule="nonzero" fill-opacity="1" /><path clip-path="url(#clip740)" d="M2029.18 128.543 L2022.27 156.276 Q2021.99 157.517 2021.99 158.571 Q2021.99 160.773 2023.42 160.773 Q2024.12 160.773 2024.68 160.328 Q2025.24 159.883 2025.69 158.946 Q2026.13 158.009 2026.41 157.142 Q2026.7 156.252 2027.07 154.847 Q2027.19 154.285 2027.28 154.144 Q2027.4 153.98 2027.73 153.98 Q2028.31 153.98 2028.31 154.449 Q2027.68 157.47 2026.86 159.203 Q2025.55 161.85 2023.32 161.85 Q2021.64 161.85 2020.44 160.819 Q2019.25 159.789 2018.97 158.243 Q2015.9 161.85 2012.71 161.85 Q2009.9 161.85 2008.12 159.719 Q2006.34 157.564 2006.34 154.168 Q2006.34 150.748 2008.03 147.469 Q2009.74 144.19 2012.43 142.152 Q2015.12 140.114 2017.89 140.114 Q2020.82 140.114 2022.32 143.182 L2025.2 131.799 L2025.34 130.862 Q2025.34 130.581 2025.22 130.441 Q2025.13 130.277 2024.56 130.16 Q2024.03 130.042 2022.95 130.042 Q2022.5 130.042 2022.29 130.019 Q2022.1 129.996 2021.94 129.878 Q2021.78 129.738 2021.78 129.457 Q2021.78 128.637 2022.46 128.543 Q2026.95 128.028 2028.55 128.028 Q2028.83 128.028 2028.99 128.169 Q2029.15 128.286 2029.15 128.426 L2029.18 128.543 M2021.73 145.384 Q2021.73 145.173 2021.57 144.588 Q2021.4 144.002 2021.03 143.182 Q2020.65 142.363 2019.83 141.777 Q2019.04 141.168 2017.96 141.168 Q2016.51 141.168 2014.98 142.409 Q2013.49 143.651 2012.38 145.759 Q2011.54 147.445 2010.63 150.982 Q2009.74 154.519 2009.74 156.276 Q2009.74 157.353 2009.97 158.313 Q2010.23 159.25 2010.96 160.023 Q2011.68 160.773 2012.81 160.773 Q2015.55 160.773 2018.24 157.376 Q2018.76 156.791 2018.87 156.557 Q2019.01 156.299 2019.2 155.596 L2021.59 146.204 Q2021.73 145.501 2021.73 145.384 Z" fill="#000000" fill-rule="nonzero" fill-opacity="1" /><path clip-path="url(#clip740)" d="M2075.99 148.64 Q2076.27 148.921 2076.27 149.319 Q2076.27 149.717 2075.99 149.998 Q2075.71 150.279 2075.31 150.279 L2045.28 150.279 Q2044.89 150.279 2044.6 149.998 Q2044.32 149.717 2044.32 149.319 Q2044.32 148.921 2044.6 148.64 Q2044.89 148.359 2045.28 148.359 L2075.31 148.359 Q2075.71 148.359 2075.99 148.64 Z" fill="#000000" fill-rule="nonzero" fill-opacity="1" /><path clip-path="url(#clip740)" d="M2142.64 129.082 Q2142.64 129.761 2142.33 129.902 Q2142.05 130.042 2141.12 130.042 Q2140.02 130.042 2139.34 130.136 Q2138.66 130.206 2138.23 130.323 Q2137.81 130.417 2137.56 130.745 Q2137.32 131.073 2137.23 131.354 Q2137.13 131.612 2136.97 132.244 L2130.6 157.798 Q2130.36 158.665 2130.36 158.969 Q2130.36 159.274 2130.55 159.461 Q2130.76 159.648 2131.28 159.742 Q2131.79 159.812 2132.19 159.836 Q2132.61 159.836 2133.48 159.836 Q2134.56 159.836 2134.72 160.023 Q2134.82 160.14 2134.82 160.351 Q2134.82 160.796 2134.63 161.03 Q2134.44 161.241 2134.28 161.288 Q2134.14 161.311 2133.9 161.311 Q2132.92 161.311 2130.9 161.241 Q2128.89 161.171 2127.91 161.171 L2121.96 161.311 Q2121.25 161.311 2121.25 160.726 Q2121.25 160.281 2121.44 160.093 Q2121.63 159.883 2121.84 159.859 Q2122.05 159.836 2122.59 159.836 Q2124.51 159.836 2125.33 159.625 Q2126.17 159.414 2126.41 159.039 Q2126.66 158.641 2126.95 157.564 L2133.81 130.089 L2133.76 130.089 L2114.39 160.445 L2114.25 160.656 Q2114.11 160.843 2114.06 160.913 Q2114.02 160.96 2113.88 161.101 Q2113.76 161.218 2113.62 161.265 Q2113.5 161.311 2113.34 161.311 Q2113.06 161.311 2112.89 161.124 Q2112.75 160.937 2112.7 160.796 Q2112.68 160.632 2112.61 160.211 L2108.49 130.464 L2108.44 130.464 L2101.91 156.603 Q2101.72 157.33 2101.72 157.704 Q2101.72 158.665 2102.4 159.25 Q2103.1 159.812 2104.98 159.836 Q2105.84 159.836 2105.84 160.351 Q2105.84 161.311 2104.98 161.311 Q2104.18 161.311 2102.52 161.241 Q2100.85 161.171 2100.03 161.171 Q2099.24 161.171 2097.62 161.241 Q2096.03 161.311 2095.25 161.311 Q2094.58 161.311 2094.58 160.726 Q2094.58 159.836 2095.44 159.836 Q2096.85 159.789 2097.81 159.508 Q2098.77 159.227 2099.31 158.688 Q2099.87 158.149 2100.13 157.611 Q2100.41 157.048 2100.62 156.229 L2106.71 131.799 Q2106.9 131.026 2106.9 130.909 Q2106.9 130.511 2106.66 130.37 Q2106.45 130.206 2105.84 130.136 Q2104.67 130.042 2103.78 130.042 Q2103.19 130.042 2102.96 130.019 Q2102.75 129.996 2102.56 129.878 Q2102.4 129.738 2102.4 129.457 Q2102.4 129.012 2102.59 128.824 Q2102.8 128.614 2103.03 128.59 Q2103.27 128.543 2103.83 128.543 L2110.41 128.543 Q2111.37 128.543 2111.58 128.707 Q2111.79 128.848 2111.88 129.644 L2115.63 156.791 L2133.15 129.457 Q2133.6 128.778 2133.83 128.66 Q2134.07 128.543 2135 128.543 L2141.35 128.543 Q2141.87 128.543 2142.08 128.567 Q2142.29 128.59 2142.45 128.707 Q2142.64 128.824 2142.64 129.082 Z" fill="#000000" fill-rule="nonzero" fill-opacity="1" /><path clip-path="url(#clip740)" d="M2164.45 155.76 Q2164.64 155.971 2164.64 156.182 Q2164.64 156.393 2164.17 157.002 Q2163.73 157.611 2162.77 158.43 Q2161.8 159.25 2160.56 160.023 Q2159.32 160.796 2157.5 161.311 Q2155.67 161.85 2153.75 161.85 Q2150.3 161.85 2148.24 159.391 Q2146.21 156.931 2146.21 153.16 Q2146.21 150.748 2147 148.616 Q2147.8 146.462 2149.09 144.939 Q2150.4 143.417 2152.04 142.316 Q2153.7 141.191 2155.43 140.653 Q2157.17 140.114 2158.78 140.114 Q2161.15 140.114 2162.53 141.309 Q2163.91 142.503 2163.91 144.19 Q2163.91 144.588 2163.8 145.08 Q2163.7 145.571 2163.37 146.344 Q2163.07 147.117 2162.27 147.89 Q2161.48 148.64 2160.31 149.132 Q2157.71 150.233 2152.97 150.233 L2150.42 150.233 Q2149.67 153.254 2149.67 155.222 Q2149.67 155.994 2149.81 156.791 Q2149.95 157.564 2150.33 158.548 Q2150.73 159.531 2151.62 160.164 Q2152.53 160.773 2153.84 160.773 Q2154.26 160.773 2154.71 160.749 Q2155.18 160.726 2156.35 160.468 Q2157.54 160.211 2158.6 159.765 Q2159.65 159.32 2160.99 158.36 Q2162.34 157.376 2163.42 156.041 Q2163.8 155.549 2164.05 155.549 Q2164.26 155.549 2164.45 155.76 M2162.32 144.19 Q2162.32 142.901 2161.36 142.035 Q2160.42 141.168 2158.78 141.168 Q2158.27 141.168 2157.64 141.285 Q2157 141.402 2155.95 141.894 Q2154.92 142.386 2154.01 143.206 Q2153.09 144.002 2152.18 145.571 Q2151.26 147.117 2150.73 149.179 L2152.69 149.179 Q2153.37 149.179 2153.86 149.179 Q2154.36 149.155 2155.43 149.061 Q2156.53 148.968 2157.33 148.804 Q2158.13 148.616 2159.13 148.242 Q2160.14 147.867 2160.77 147.375 Q2161.43 146.86 2161.88 146.04 Q2162.32 145.22 2162.32 144.19 Z" fill="#000000" fill-rule="nonzero" fill-opacity="1" /><path clip-path="url(#clip740)" d="M2180.98 141.168 Q2180.98 141.824 2180.68 141.988 Q2180.37 142.128 2179.53 142.128 L2175.03 142.128 L2171.47 156.276 Q2171.19 157.517 2171.19 158.571 Q2171.19 159.742 2171.54 160.257 Q2171.92 160.773 2172.69 160.773 Q2174.21 160.773 2175.85 159.391 Q2177.51 158.009 2178.92 154.636 Q2179.11 154.191 2179.2 154.097 Q2179.32 153.98 2179.62 153.98 Q2180.21 153.98 2180.21 154.449 Q2180.21 154.613 2179.88 155.362 Q2179.57 156.112 2178.9 157.212 Q2178.24 158.313 2177.37 159.344 Q2176.53 160.374 2175.24 161.124 Q2173.95 161.85 2172.57 161.85 Q2170.63 161.85 2169.39 160.609 Q2168.17 159.367 2168.17 157.423 Q2168.17 156.791 2168.66 154.777 Q2169.15 152.739 2171.82 142.128 L2167.58 142.128 Q2167 142.128 2166.76 142.105 Q2166.55 142.082 2166.39 141.964 Q2166.25 141.824 2166.25 141.543 Q2166.25 141.098 2166.43 140.91 Q2166.62 140.7 2166.86 140.676 Q2167.11 140.629 2167.7 140.629 L2172.2 140.629 L2174.07 133.017 Q2174.26 132.268 2174.73 131.846 Q2175.22 131.401 2175.5 131.354 Q2175.78 131.284 2175.99 131.284 Q2176.62 131.284 2177 131.635 Q2177.37 131.963 2177.37 132.572 Q2177.37 132.9 2175.41 140.629 L2179.62 140.629 Q2180.16 140.629 2180.37 140.653 Q2180.6 140.676 2180.79 140.793 Q2180.98 140.91 2180.98 141.168 Z" fill="#000000" fill-rule="nonzero" fill-opacity="1" /><path clip-path="url(#clip740)" d="M2207.06 154.449 Q2207.06 154.636 2206.85 155.362 Q2206.64 156.088 2206.12 157.212 Q2205.63 158.337 2204.95 159.367 Q2204.27 160.374 2203.15 161.124 Q2202.05 161.85 2200.78 161.85 Q2199.1 161.85 2197.97 160.726 Q2196.85 159.602 2196.85 157.915 Q2196.85 157.681 2196.87 157.447 Q2196.9 157.212 2196.92 157.072 Q2196.94 156.908 2197.01 156.65 Q2197.11 156.369 2197.13 156.252 Q2197.18 156.135 2197.29 155.784 Q2197.43 155.409 2197.48 155.268 Q2200.46 147.68 2200.46 144.517 Q2200.46 141.168 2197.86 141.168 Q2195.54 141.168 2193.24 142.854 Q2192.19 143.698 2191.18 145.197 Q2190.17 146.696 2189.99 147.258 Q2189.77 148.476 2189.47 149.413 Q2189.33 150.069 2188.65 152.622 L2187.6 156.955 L2186.68 160.585 Q2186.5 161.101 2185.98 161.475 Q2185.46 161.85 2184.9 161.85 Q2184.43 161.85 2183.97 161.522 Q2183.52 161.218 2183.52 160.492 Q2183.52 160.117 2183.71 159.438 L2190.66 131.799 L2190.81 130.862 Q2190.81 130.581 2190.69 130.441 Q2190.59 130.277 2190.03 130.16 Q2189.49 130.042 2188.42 130.042 Q2187.97 130.042 2187.76 130.019 Q2187.57 129.996 2187.41 129.878 Q2187.25 129.738 2187.25 129.457 Q2187.25 129.059 2187.41 128.848 Q2187.6 128.614 2187.74 128.567 Q2187.88 128.52 2188.16 128.497 Q2188.56 128.473 2189.89 128.356 Q2191.23 128.215 2192.37 128.122 Q2193.52 128.028 2194.01 128.028 Q2194.3 128.028 2194.44 128.169 Q2194.6 128.286 2194.62 128.426 L2194.65 128.543 L2190.9 143.791 Q2193.87 140.114 2198 140.114 Q2200.67 140.114 2202.09 141.496 Q2203.52 142.854 2203.52 145.244 Q2203.52 147.984 2200.6 155.784 Q2199.73 157.962 2199.73 159.203 Q2199.73 160.023 2199.99 160.398 Q2200.27 160.773 2200.88 160.773 Q2201.81 160.773 2202.63 160.234 Q2203.48 159.672 2204.06 158.758 Q2204.65 157.821 2205.05 156.885 Q2205.47 155.924 2205.77 154.847 Q2205.96 154.261 2206.05 154.121 Q2206.17 153.98 2206.5 153.98 Q2207.06 153.98 2207.06 154.449 Z" fill="#000000" fill-rule="nonzero" fill-opacity="1" /><path clip-path="url(#clip740)" d="M2230.64 148.218 Q2230.64 150.771 2229.52 153.301 Q2228.39 155.807 2226.59 157.681 Q2224.81 159.531 2222.46 160.702 Q2220.12 161.85 2217.78 161.85 Q2214.43 161.85 2212.25 159.578 Q2210.1 157.283 2210.1 153.722 Q2210.1 150.397 2211.95 147.234 Q2213.82 144.049 2216.82 142.082 Q2219.82 140.114 2222.96 140.114 Q2226.26 140.114 2228.44 142.339 Q2230.64 144.564 2230.64 148.218 M2227.13 146.344 Q2227.13 144.072 2226.03 142.62 Q2224.92 141.168 2222.91 141.168 Q2222.32 141.168 2221.65 141.355 Q2220.97 141.519 2220.08 141.964 Q2219.21 142.409 2218.23 143.346 Q2217.27 144.26 2216.42 145.571 Q2215.32 147.305 2214.48 150.49 Q2213.66 153.652 2213.66 155.549 Q2213.66 158.173 2214.88 159.484 Q2216.09 160.773 2217.83 160.773 Q2219.51 160.773 2221.29 159.602 Q2223.1 158.407 2224.34 156.369 Q2225.58 154.261 2226.35 151.169 Q2227.13 148.054 2227.13 146.344 Z" fill="#000000" fill-rule="nonzero" fill-opacity="1" /><path clip-path="url(#clip740)" d="M2255.97 128.543 L2249.06 156.276 Q2248.78 157.517 2248.78 158.571 Q2248.78 160.773 2250.2 160.773 Q2250.91 160.773 2251.47 160.328 Q2252.03 159.883 2252.48 158.946 Q2252.92 158.009 2253.2 157.142 Q2253.48 156.252 2253.86 154.847 Q2253.97 154.285 2254.07 154.144 Q2254.19 153.98 2254.51 153.98 Q2255.1 153.98 2255.1 154.449 Q2254.47 157.47 2253.65 159.203 Q2252.34 161.85 2250.11 161.85 Q2248.42 161.85 2247.23 160.819 Q2246.03 159.789 2245.75 158.243 Q2242.69 161.85 2239.5 161.85 Q2236.69 161.85 2234.91 159.719 Q2233.13 157.564 2233.13 154.168 Q2233.13 150.748 2234.82 147.469 Q2236.53 144.19 2239.22 142.152 Q2241.91 140.114 2244.68 140.114 Q2247.6 140.114 2249.1 143.182 L2251.98 131.799 L2252.12 130.862 Q2252.12 130.581 2252.01 130.441 Q2251.91 130.277 2251.35 130.16 Q2250.81 130.042 2249.74 130.042 Q2249.29 130.042 2249.08 130.019 Q2248.89 129.996 2248.73 129.878 Q2248.56 129.738 2248.56 129.457 Q2248.56 128.637 2249.24 128.543 Q2253.74 128.028 2255.33 128.028 Q2255.61 128.028 2255.78 128.169 Q2255.94 128.286 2255.94 128.426 L2255.97 128.543 M2248.52 145.384 Q2248.52 145.173 2248.35 144.588 Q2248.19 144.002 2247.81 143.182 Q2247.44 142.363 2246.62 141.777 Q2245.82 141.168 2244.75 141.168 Q2243.29 141.168 2241.77 142.409 Q2240.27 143.651 2239.17 145.759 Q2238.33 147.445 2237.42 150.982 Q2236.53 154.519 2236.53 156.276 Q2236.53 157.353 2236.76 158.313 Q2237.02 159.25 2237.74 160.023 Q2238.47 160.773 2239.59 160.773 Q2242.33 160.773 2245.03 157.376 Q2245.54 156.791 2245.66 156.557 Q2245.8 156.299 2245.99 155.596 L2248.38 146.204 Q2248.52 145.501 2248.52 145.384 Z" fill="#000000" fill-rule="nonzero" fill-opacity="1" /><polyline clip-path="url(#clip740)" style="stroke:#000000; stroke-linecap:round; stroke-linejoin:round; stroke-width:8; stroke-opacity:1; fill:none" points="1649.92,196.933 1792.35,196.933 "/>
<path clip-path="url(#clip740)" d="M1721.13 174.954 L1715.97 189.811 L1700.23 190.141 L1712.78 199.658 L1708.21 214.714 L1721.13 205.724 L1734.06 214.714 L1729.49 199.658 L1742.04 190.141 L1726.3 189.811 L1721.13 174.954 Z" fill="#e26f46" fill-rule="evenodd" fill-opacity="1" stroke="#000000" stroke-opacity="1" stroke-width="4.55111"/>
<path clip-path="url(#clip740)" d="M1856.46 180.922 Q1856.46 181.882 1855.64 181.882 Q1853 181.976 1851.92 182.866 Q1850.87 183.733 1850.47 185.419 L1843.77 212.144 Q1843.53 212.987 1843.39 213.081 Q1843.25 213.151 1843 213.151 Q1842.67 213.151 1842.48 212.987 Q1842.32 212.823 1842.08 212.238 L1830.14 183.99 Q1830.04 183.803 1829.93 183.545 Q1829.81 183.288 1829.72 183.124 L1823.37 208.443 Q1823.18 209.17 1823.18 209.544 Q1823.18 210.458 1823.81 211.043 Q1824.47 211.605 1826.34 211.676 Q1827.3 211.676 1827.3 212.191 Q1827.3 213.151 1826.44 213.151 Q1825.64 213.151 1823.98 213.081 Q1822.31 213.011 1821.49 213.011 Q1820.7 213.011 1819.08 213.081 Q1817.47 213.151 1816.69 213.151 Q1816.08 213.151 1816.08 212.613 Q1816.08 212.191 1816.25 211.98 Q1816.41 211.746 1816.55 211.723 Q1816.69 211.676 1816.9 211.676 Q1818.31 211.629 1819.27 211.348 Q1820.23 211.067 1820.77 210.528 Q1821.33 209.989 1821.59 209.451 Q1821.87 208.888 1822.08 208.069 L1828.5 182.304 Q1828.5 181.882 1825.24 181.882 Q1824.68 181.882 1824.45 181.859 Q1824.23 181.836 1824.07 181.718 Q1823.91 181.601 1823.91 181.344 Q1823.91 180.688 1824.19 180.547 Q1824.47 180.383 1825.29 180.383 L1831.73 180.383 Q1832.55 180.383 1832.76 180.524 Q1832.97 180.641 1833.25 181.297 L1843.86 206.335 L1849.23 184.998 Q1849.37 184.576 1849.37 183.99 Q1849.37 183.054 1848.66 182.491 Q1847.98 181.906 1846.11 181.882 Q1845.24 181.882 1845.24 181.344 Q1845.24 180.899 1845.41 180.688 Q1845.6 180.454 1845.74 180.43 Q1845.9 180.383 1846.11 180.383 Q1846.91 180.383 1848.55 180.454 Q1850.19 180.524 1851.01 180.524 Q1851.8 180.524 1853.42 180.454 Q1855.06 180.383 1855.85 180.383 Q1856.14 180.383 1856.28 180.524 Q1856.44 180.641 1856.46 180.782 L1856.46 180.922 Z" fill="#000000" fill-rule="nonzero" fill-opacity="1" /><path clip-path="url(#clip740)" d="M1880.83 180.969 Q1880.83 181.414 1880.65 181.625 Q1880.48 181.812 1880.22 181.859 Q1879.97 181.882 1879.29 181.882 Q1878.14 181.882 1877.41 181.976 Q1876.69 182.046 1876.24 182.163 Q1875.8 182.257 1875.54 182.585 Q1875.31 182.89 1875.19 183.171 Q1875.1 183.452 1874.93 184.084 L1868.51 209.638 Q1868.3 210.388 1868.3 210.762 Q1868.3 211.16 1868.54 211.324 Q1868.77 211.488 1869.52 211.559 Q1870.72 211.676 1871.58 211.676 Q1872.73 211.676 1872.89 211.84 Q1873.01 212.004 1873.01 212.238 Q1873.01 212.659 1872.82 212.894 Q1872.64 213.105 1872.47 213.128 Q1872.33 213.151 1872.05 213.151 L1865.63 213.011 L1859.33 213.151 Q1858.63 213.151 1858.63 212.613 Q1858.63 212.261 1858.68 212.074 Q1858.75 211.863 1858.98 211.793 Q1859.24 211.699 1859.43 211.699 Q1859.61 211.676 1860.15 211.676 Q1861.11 211.676 1861.74 211.652 Q1862.4 211.605 1862.87 211.488 Q1863.36 211.348 1863.59 211.231 Q1863.85 211.09 1864.04 210.786 Q1864.25 210.458 1864.32 210.2 Q1864.41 209.942 1864.53 209.404 L1871 183.545 Q1871.09 183.124 1871.09 182.796 Q1871.09 182.163 1870.34 182.023 Q1869.61 181.882 1867.79 181.882 Q1867.23 181.882 1866.99 181.859 Q1866.78 181.836 1866.59 181.718 Q1866.43 181.601 1866.43 181.344 Q1866.43 181.016 1866.52 180.805 Q1866.62 180.571 1866.78 180.5 Q1866.97 180.43 1867.08 180.407 Q1867.2 180.383 1867.39 180.383 L1873.78 180.524 L1880.11 180.383 Q1880.83 180.383 1880.83 180.969 Z" fill="#000000" fill-rule="nonzero" fill-opacity="1" /><path clip-path="url(#clip740)" d="M1920.21 192.516 Q1920.21 196.381 1918.55 200.175 Q1916.91 203.946 1914.24 206.804 Q1911.6 209.638 1908.01 211.395 Q1904.43 213.151 1900.77 213.151 L1884.89 213.151 Q1884.33 213.151 1884.1 213.128 Q1883.89 213.105 1883.72 212.987 Q1883.56 212.847 1883.56 212.566 Q1883.56 212.121 1883.75 211.933 Q1883.93 211.723 1884.14 211.699 Q1884.35 211.676 1884.89 211.676 Q1886.06 211.676 1886.77 211.605 Q1887.47 211.535 1887.92 211.442 Q1888.38 211.324 1888.62 210.997 Q1888.88 210.669 1888.99 210.388 Q1889.11 210.083 1889.27 209.404 L1895.69 183.639 Q1895.88 182.866 1895.88 182.749 Q1895.88 182.351 1895.64 182.21 Q1895.43 182.046 1894.82 181.976 Q1893.65 181.882 1892.76 181.882 Q1892.18 181.882 1891.94 181.859 Q1891.73 181.836 1891.55 181.718 Q1891.38 181.578 1891.38 181.297 Q1891.38 180.852 1891.57 180.664 Q1891.78 180.454 1892.01 180.43 Q1892.25 180.383 1892.81 180.383 L1908.92 180.383 Q1912.41 180.383 1915.01 182.023 Q1917.61 183.639 1918.9 186.38 Q1920.21 189.097 1920.21 192.516 M1916.02 190.76 Q1916.02 186.286 1913.59 184.084 Q1911.17 181.882 1907.36 181.882 L1902.23 181.882 Q1900.7 181.882 1900.33 182.163 Q1899.95 182.421 1899.63 183.709 L1893.04 210.036 Q1892.81 210.903 1892.81 211.137 Q1892.81 211.395 1892.93 211.488 Q1893.07 211.559 1893.44 211.605 Q1893.86 211.676 1894.5 211.676 L1899.91 211.676 Q1901.99 211.676 1903.89 211.114 Q1905.81 210.528 1907.19 209.615 Q1908.57 208.678 1909.46 207.881 Q1910.35 207.062 1910.99 206.242 Q1912.41 204.391 1913.47 201.979 Q1914.55 199.566 1915.04 197.365 Q1915.55 195.14 1915.79 193.5 Q1916.02 191.837 1916.02 190.76 Z" fill="#000000" fill-rule="nonzero" fill-opacity="1" /><path clip-path="url(#clip740)" d="M1952.48 179.821 L1949.88 190.314 Q1949.74 190.947 1949.62 191.111 Q1949.51 191.275 1949.18 191.275 Q1948.92 191.275 1948.76 191.158 Q1948.62 191.041 1948.62 190.923 L1948.59 190.806 Q1948.59 190.736 1948.64 190.385 Q1948.69 190.01 1948.73 189.401 Q1948.78 188.792 1948.78 188.113 Q1948.78 184.271 1946.91 182.491 Q1945.06 180.688 1941.87 180.688 Q1939.67 180.688 1937.7 181.859 Q1935.73 183.03 1934.61 184.88 Q1933.49 186.707 1933.49 188.628 Q1933.49 190.385 1934.38 191.509 Q1935.27 192.633 1936.41 193.008 L1939.62 193.875 Q1943 194.741 1943.96 195.116 Q1944.92 195.467 1945.71 196.264 Q1948.08 198.465 1948.08 201.885 Q1948.08 204.836 1946.42 207.694 Q1944.75 210.528 1941.89 212.378 Q1939.04 214.205 1935.87 214.205 Q1930.32 214.205 1927.77 210.762 L1925.43 213.479 Q1924.98 213.995 1924.84 214.088 Q1924.73 214.205 1924.56 214.205 Q1924.35 214.205 1924.19 214.065 Q1924.02 213.948 1924.02 213.737 Q1924.02 213.573 1925.41 208.069 Q1926.79 202.564 1926.9 202.447 Q1927.09 202.26 1927.4 202.26 Q1927.96 202.26 1927.96 202.799 Q1927.91 202.939 1927.86 203.127 Q1927.58 204.813 1927.58 205.726 Q1927.58 207.436 1928.17 208.748 Q1928.75 210.036 1929.62 210.786 Q1930.51 211.512 1931.71 211.98 Q1932.9 212.425 1933.91 212.589 Q1934.91 212.73 1935.97 212.73 Q1938.24 212.73 1940.25 211.418 Q1942.29 210.106 1943.44 208.069 Q1944.61 206.031 1944.61 203.9 Q1944.61 202.775 1944.31 201.909 Q1944 201.019 1943.58 200.527 Q1943.18 200.035 1942.5 199.66 Q1941.82 199.285 1941.36 199.145 Q1940.91 198.981 1940.21 198.817 L1935.08 197.458 Q1933.02 196.849 1931.54 195.093 Q1930.09 193.336 1930.09 190.642 Q1930.09 187.808 1931.75 185.185 Q1933.44 182.538 1936.18 180.946 Q1938.94 179.329 1941.92 179.329 Q1944.26 179.329 1946.06 180.243 Q1947.87 181.133 1948.78 182.796 L1951.1 180.055 Q1951.57 179.517 1951.66 179.423 Q1951.78 179.329 1951.94 179.329 Q1952.22 179.329 1952.34 179.493 Q1952.48 179.657 1952.48 179.821 Z" fill="#000000" fill-rule="nonzero" fill-opacity="1" /><path clip-path="url(#clip740)" d="M1998.1 200.48 Q1998.38 200.761 1998.38 201.159 Q1998.38 201.557 1998.1 201.838 Q1997.82 202.119 1997.42 202.119 L1967.4 202.119 Q1967 202.119 1966.72 201.838 Q1966.44 201.557 1966.44 201.159 Q1966.44 200.761 1966.72 200.48 Q1967 200.199 1967.4 200.199 L1997.42 200.199 Q1997.82 200.199 1998.1 200.48 Z" fill="#000000" fill-rule="nonzero" fill-opacity="1" /><path clip-path="url(#clip740)" d="M2028.94 183.171 Q2028.94 184.201 2028.09 184.974 Q2027.27 185.724 2026.38 185.724 Q2025.56 185.724 2025.05 185.232 Q2024.56 184.717 2024.56 183.99 Q2024.56 183.03 2025.38 182.234 Q2026.2 181.437 2027.16 181.437 Q2027.95 181.437 2028.45 181.929 Q2028.94 182.421 2028.94 183.171 M2029.36 206.289 Q2029.36 206.476 2029.15 207.225 Q2028.94 207.952 2028.42 209.076 Q2027.93 210.177 2027.25 211.207 Q2026.57 212.238 2025.45 212.964 Q2024.35 213.69 2023.08 213.69 Q2021.37 213.69 2020.25 212.566 Q2019.15 211.442 2019.15 209.755 Q2019.15 208.842 2020.25 205.914 Q2023.43 197.388 2023.55 197.037 Q2024.09 195.702 2024.09 194.531 Q2024.09 193.992 2023.97 193.664 Q2023.85 193.313 2023.62 193.195 Q2023.39 193.055 2023.25 193.031 Q2023.13 193.008 2022.89 193.008 Q2021.51 193.008 2020.22 194.413 Q2018.94 195.819 2018.05 198.957 Q2017.86 199.543 2017.74 199.683 Q2017.62 199.824 2017.27 199.824 Q2016.69 199.801 2016.69 199.332 Q2016.69 199.192 2016.85 198.653 Q2017.02 198.091 2017.32 197.248 Q2017.62 196.381 2018.16 195.491 Q2018.7 194.577 2019.36 193.781 Q2020.04 192.985 2021 192.469 Q2021.96 191.954 2023.03 191.954 Q2024.79 191.954 2025.87 193.102 Q2026.97 194.226 2026.97 195.889 Q2026.97 196.803 2026.34 198.419 Q2025.56 200.527 2025.28 201.206 L2023.41 206.242 Q2022.73 208.069 2022.52 208.631 Q2022.33 209.17 2022.17 209.825 Q2022.03 210.458 2022.03 211.043 Q2022.03 211.863 2022.29 212.238 Q2022.57 212.613 2023.18 212.613 Q2024.86 212.613 2026.1 210.95 Q2027.34 209.263 2028.07 206.687 Q2028.09 206.617 2028.12 206.499 Q2028.3 205.914 2028.49 205.844 Q2028.59 205.82 2028.77 205.82 Q2029.36 205.82 2029.36 206.289 Z" fill="#000000" fill-rule="nonzero" fill-opacity="1" /><path clip-path="url(#clip740)" d="M2057.24 180.383 L2050.33 208.116 Q2050.05 209.357 2050.05 210.411 Q2050.05 212.613 2051.48 212.613 Q2052.18 212.613 2052.75 212.168 Q2053.31 211.723 2053.75 210.786 Q2054.2 209.849 2054.48 208.982 Q2054.76 208.092 2055.13 206.687 Q2055.25 206.125 2055.35 205.984 Q2055.46 205.82 2055.79 205.82 Q2056.38 205.82 2056.38 206.289 Q2055.74 209.31 2054.92 211.043 Q2053.61 213.69 2051.39 213.69 Q2049.7 213.69 2048.51 212.659 Q2047.31 211.629 2047.03 210.083 Q2043.96 213.69 2040.78 213.69 Q2037.97 213.69 2036.19 211.559 Q2034.41 209.404 2034.41 206.008 Q2034.41 202.588 2036.09 199.309 Q2037.8 196.03 2040.5 193.992 Q2043.19 191.954 2045.95 191.954 Q2048.88 191.954 2050.38 195.022 L2053.26 183.639 L2053.4 182.702 Q2053.4 182.421 2053.28 182.281 Q2053.19 182.117 2052.63 182 Q2052.09 181.882 2051.01 181.882 Q2050.57 181.882 2050.36 181.859 Q2050.17 181.836 2050.01 181.718 Q2049.84 181.578 2049.84 181.297 Q2049.84 180.477 2050.52 180.383 Q2055.02 179.868 2056.61 179.868 Q2056.89 179.868 2057.06 180.009 Q2057.22 180.126 2057.22 180.266 L2057.24 180.383 M2049.79 197.224 Q2049.79 197.013 2049.63 196.428 Q2049.47 195.842 2049.09 195.022 Q2048.72 194.203 2047.9 193.617 Q2047.1 193.008 2046.02 193.008 Q2044.57 193.008 2043.05 194.249 Q2041.55 195.491 2040.45 197.599 Q2039.61 199.285 2038.69 202.822 Q2037.8 206.359 2037.8 208.116 Q2037.8 209.193 2038.04 210.153 Q2038.29 211.09 2039.02 211.863 Q2039.75 212.613 2040.87 212.613 Q2043.61 212.613 2046.3 209.216 Q2046.82 208.631 2046.94 208.397 Q2047.08 208.139 2047.26 207.436 L2049.65 198.044 Q2049.79 197.341 2049.79 197.224 Z" fill="#000000" fill-rule="nonzero" fill-opacity="1" /><path clip-path="url(#clip740)" d="M2077.52 207.6 Q2077.71 207.811 2077.71 208.022 Q2077.71 208.233 2077.24 208.842 Q2076.8 209.451 2075.84 210.27 Q2074.87 211.09 2073.63 211.863 Q2072.39 212.636 2070.57 213.151 Q2068.74 213.69 2066.82 213.69 Q2063.37 213.69 2061.31 211.231 Q2059.28 208.771 2059.28 205 Q2059.28 202.588 2060.07 200.456 Q2060.87 198.302 2062.16 196.779 Q2063.47 195.257 2065.11 194.156 Q2066.77 193.031 2068.5 192.493 Q2070.24 191.954 2071.85 191.954 Q2074.22 191.954 2075.6 193.149 Q2076.98 194.343 2076.98 196.03 Q2076.98 196.428 2076.87 196.92 Q2076.77 197.411 2076.44 198.184 Q2076.14 198.957 2075.34 199.73 Q2074.55 200.48 2073.38 200.972 Q2070.78 202.073 2066.04 202.073 L2063.49 202.073 Q2062.74 205.094 2062.74 207.062 Q2062.74 207.834 2062.88 208.631 Q2063.02 209.404 2063.4 210.388 Q2063.8 211.371 2064.69 212.004 Q2065.6 212.613 2066.91 212.613 Q2067.33 212.613 2067.78 212.589 Q2068.25 212.566 2069.42 212.308 Q2070.61 212.051 2071.67 211.605 Q2072.72 211.16 2074.06 210.2 Q2075.41 209.216 2076.49 207.881 Q2076.87 207.389 2077.12 207.389 Q2077.33 207.389 2077.52 207.6 M2075.39 196.03 Q2075.39 194.741 2074.43 193.875 Q2073.49 193.008 2071.85 193.008 Q2071.34 193.008 2070.71 193.125 Q2070.07 193.242 2069.02 193.734 Q2067.99 194.226 2067.08 195.046 Q2066.16 195.842 2065.25 197.411 Q2064.33 198.957 2063.8 201.019 L2065.76 201.019 Q2066.44 201.019 2066.93 201.019 Q2067.43 200.995 2068.5 200.901 Q2069.6 200.808 2070.4 200.644 Q2071.2 200.456 2072.2 200.082 Q2073.21 199.707 2073.84 199.215 Q2074.5 198.7 2074.95 197.88 Q2075.39 197.06 2075.39 196.03 Z" fill="#000000" fill-rule="nonzero" fill-opacity="1" /><path clip-path="url(#clip740)" d="M2106.44 206.289 Q2106.44 206.476 2106.23 207.202 Q2106.02 207.928 2105.5 209.052 Q2105.01 210.177 2104.33 211.207 Q2103.65 212.214 2102.53 212.964 Q2101.43 213.69 2100.16 213.69 Q2098.48 213.69 2097.35 212.566 Q2096.23 211.442 2096.23 209.755 Q2096.23 208.818 2096.72 207.53 Q2099.84 199.215 2099.84 196.357 Q2099.84 193.008 2097.24 193.008 Q2095.95 193.008 2094.73 193.5 Q2093.54 193.968 2092.72 194.624 Q2091.9 195.28 2091.15 196.194 Q2090.42 197.084 2090.05 197.693 Q2089.69 198.278 2089.41 198.864 L2088.8 201.253 Q2088.66 201.909 2087.98 204.462 L2086.93 208.795 Q2086.18 212.027 2086.02 212.332 Q2085.78 212.987 2085.27 213.339 Q2084.75 213.69 2084.24 213.69 Q2083.65 213.69 2083.25 213.339 Q2082.85 212.987 2082.85 212.378 Q2082.85 212.285 2082.92 211.933 Q2083 211.582 2083.11 211.09 Q2083.23 210.598 2083.28 210.317 L2086.06 199.238 Q2086.58 197.224 2086.7 196.592 Q2086.84 195.936 2086.84 195.21 Q2086.84 193.008 2085.34 193.008 Q2084.12 193.008 2083.32 194.46 Q2082.53 195.912 2081.85 198.723 Q2081.64 199.496 2081.5 199.66 Q2081.38 199.824 2081.03 199.824 Q2080.44 199.801 2080.44 199.332 Q2080.44 199.215 2080.63 198.442 Q2080.82 197.669 2081.17 196.568 Q2081.54 195.444 2081.89 194.694 Q2082.2 194.132 2082.36 193.875 Q2082.55 193.594 2083 193.055 Q2083.46 192.493 2084.07 192.235 Q2084.7 191.954 2085.48 191.954 Q2087.21 191.954 2088.48 193.078 Q2089.74 194.179 2089.9 196.123 Q2093.02 191.954 2097.38 191.954 Q2099.95 191.954 2101.43 193.313 Q2102.9 194.671 2102.9 197.084 Q2102.9 197.646 2102.79 198.372 Q2102.69 199.074 2102.46 199.965 Q2102.25 200.855 2102.06 201.534 Q2101.87 202.213 2101.5 203.314 Q2101.12 204.391 2100.96 204.86 Q2100.8 205.328 2100.4 206.429 Q2100.02 207.507 2099.98 207.624 Q2099.11 209.802 2099.11 211.043 Q2099.11 211.863 2099.37 212.238 Q2099.65 212.613 2100.26 212.613 Q2101.9 212.613 2103.11 210.997 Q2104.36 209.357 2105.15 206.687 Q2105.34 206.101 2105.43 205.961 Q2105.55 205.82 2105.88 205.82 Q2106.44 205.82 2106.44 206.289 Z" fill="#000000" fill-rule="nonzero" fill-opacity="1" /><path clip-path="url(#clip740)" d="M2123.85 193.008 Q2123.85 193.664 2123.54 193.828 Q2123.24 193.968 2122.4 193.968 L2117.9 193.968 L2114.34 208.116 Q2114.06 209.357 2114.06 210.411 Q2114.06 211.582 2114.41 212.097 Q2114.78 212.613 2115.56 212.613 Q2117.08 212.613 2118.72 211.231 Q2120.38 209.849 2121.79 206.476 Q2121.97 206.031 2122.07 205.937 Q2122.19 205.82 2122.49 205.82 Q2123.08 205.82 2123.08 206.289 Q2123.08 206.453 2122.75 207.202 Q2122.44 207.952 2121.76 209.052 Q2121.11 210.153 2120.24 211.184 Q2119.4 212.214 2118.11 212.964 Q2116.82 213.69 2115.44 213.69 Q2113.5 213.69 2112.25 212.449 Q2111.04 211.207 2111.04 209.263 Q2111.04 208.631 2111.53 206.617 Q2112.02 204.579 2114.69 193.968 L2110.45 193.968 Q2109.86 193.968 2109.63 193.945 Q2109.42 193.922 2109.26 193.804 Q2109.12 193.664 2109.12 193.383 Q2109.12 192.938 2109.3 192.75 Q2109.49 192.54 2109.72 192.516 Q2109.98 192.469 2110.57 192.469 L2115.06 192.469 L2116.94 184.857 Q2117.13 184.108 2117.59 183.686 Q2118.09 183.241 2118.37 183.194 Q2118.65 183.124 2118.86 183.124 Q2119.49 183.124 2119.87 183.475 Q2120.24 183.803 2120.24 184.412 Q2120.24 184.74 2118.27 192.469 L2122.49 192.469 Q2123.03 192.469 2123.24 192.493 Q2123.47 192.516 2123.66 192.633 Q2123.85 192.75 2123.85 193.008 Z" fill="#000000" fill-rule="nonzero" fill-opacity="1" /><path clip-path="url(#clip740)" d="M2137.93 183.171 Q2137.93 184.201 2137.09 184.974 Q2136.27 185.724 2135.38 185.724 Q2134.56 185.724 2134.04 185.232 Q2133.55 184.717 2133.55 183.99 Q2133.55 183.03 2134.37 182.234 Q2135.19 181.437 2136.15 181.437 Q2136.95 181.437 2137.44 181.929 Q2137.93 182.421 2137.93 183.171 M2138.35 206.289 Q2138.35 206.476 2138.14 207.225 Q2137.93 207.952 2137.41 209.076 Q2136.92 210.177 2136.24 211.207 Q2135.56 212.238 2134.44 212.964 Q2133.34 213.69 2132.07 213.69 Q2130.36 213.69 2129.24 212.566 Q2128.14 211.442 2128.14 209.755 Q2128.14 208.842 2129.24 205.914 Q2132.43 197.388 2132.54 197.037 Q2133.08 195.702 2133.08 194.531 Q2133.08 193.992 2132.96 193.664 Q2132.85 193.313 2132.61 193.195 Q2132.38 193.055 2132.24 193.031 Q2132.12 193.008 2131.89 193.008 Q2130.5 193.008 2129.22 194.413 Q2127.93 195.819 2127.04 198.957 Q2126.85 199.543 2126.73 199.683 Q2126.62 199.824 2126.26 199.824 Q2125.68 199.801 2125.68 199.332 Q2125.68 199.192 2125.84 198.653 Q2126.01 198.091 2126.31 197.248 Q2126.62 196.381 2127.15 195.491 Q2127.69 194.577 2128.35 193.781 Q2129.03 192.985 2129.99 192.469 Q2130.95 191.954 2132.03 191.954 Q2133.78 191.954 2134.86 193.102 Q2135.96 194.226 2135.96 195.889 Q2135.96 196.803 2135.33 198.419 Q2134.56 200.527 2134.28 201.206 L2132.4 206.242 Q2131.72 208.069 2131.51 208.631 Q2131.32 209.17 2131.16 209.825 Q2131.02 210.458 2131.02 211.043 Q2131.02 211.863 2131.28 212.238 Q2131.56 212.613 2132.17 212.613 Q2133.85 212.613 2135.1 210.95 Q2136.34 209.263 2137.06 206.687 Q2137.09 206.617 2137.11 206.499 Q2137.3 205.914 2137.48 205.844 Q2137.58 205.82 2137.77 205.82 Q2138.35 205.82 2138.35 206.289 Z" fill="#000000" fill-rule="nonzero" fill-opacity="1" /><path clip-path="url(#clip740)" d="M2161.88 207.6 Q2162.07 207.811 2162.07 208.022 Q2162.07 208.233 2161.6 208.842 Q2161.15 209.451 2160.19 210.27 Q2159.23 211.09 2157.99 211.863 Q2156.75 212.636 2154.92 213.151 Q2153.09 213.69 2151.17 213.69 Q2147.59 213.69 2145.48 211.324 Q2143.4 208.959 2143.4 205.562 Q2143.4 202.26 2145.25 199.098 Q2147.1 195.912 2150.1 193.945 Q2153.09 191.954 2156.26 191.954 Q2158.76 191.954 2160.33 193.125 Q2161.9 194.296 2161.9 196.076 Q2161.9 197.458 2161.11 198.302 Q2160.31 199.145 2159.23 199.145 Q2158.48 199.145 2157.97 198.723 Q2157.45 198.278 2157.45 197.458 Q2157.45 196.404 2158.32 195.585 Q2158.65 195.257 2159.02 195.116 Q2159.42 194.952 2159.65 194.952 Q2159.89 194.929 2160.43 194.929 Q2159.93 194.015 2158.76 193.523 Q2157.62 193.008 2156.3 193.008 Q2154.36 193.008 2152.51 194.367 Q2150.66 195.702 2149.53 197.81 Q2148.41 199.871 2147.68 202.799 Q2146.96 205.703 2146.96 207.389 Q2146.96 209.708 2148.04 211.16 Q2149.11 212.613 2151.27 212.613 Q2151.69 212.613 2152.13 212.589 Q2152.6 212.566 2153.77 212.308 Q2154.97 212.051 2156.02 211.605 Q2157.08 211.16 2158.41 210.2 Q2159.77 209.216 2160.85 207.881 Q2161.22 207.389 2161.48 207.389 Q2161.69 207.389 2161.88 207.6 Z" fill="#000000" fill-rule="nonzero" fill-opacity="1" /><path clip-path="url(#clip740)" d="M2185.53 206.289 Q2184.9 209.31 2184.08 211.043 Q2182.77 213.69 2180.54 213.69 Q2178.86 213.69 2177.66 212.659 Q2176.47 211.629 2176.19 210.083 Q2173.12 213.69 2169.93 213.69 Q2167.12 213.69 2165.34 211.559 Q2163.56 209.404 2163.56 206.008 Q2163.56 202.588 2165.25 199.309 Q2166.96 196.03 2169.65 193.992 Q2172.35 191.954 2175.11 191.954 Q2178.04 191.954 2179.54 195.022 Q2179.65 194.179 2180.19 193.547 Q2180.73 192.914 2181.55 192.914 Q2182.18 192.914 2182.56 193.266 Q2182.93 193.594 2182.93 194.203 Q2182.93 194.507 2182.61 195.842 L2180.87 202.541 L2179.82 206.874 Q2179.42 208.467 2179.3 209.052 Q2179.21 209.638 2179.21 210.411 Q2179.21 212.613 2180.64 212.613 Q2181.34 212.613 2181.9 212.168 Q2182.47 211.723 2182.91 210.786 Q2183.36 209.849 2183.64 208.982 Q2183.92 208.092 2184.29 206.687 Q2184.41 206.125 2184.5 205.984 Q2184.62 205.82 2184.95 205.82 Q2185.53 205.82 2185.53 206.289 M2178.95 197.224 Q2178.95 197.013 2178.79 196.428 Q2178.62 195.842 2178.25 195.022 Q2177.87 194.203 2177.05 193.617 Q2176.26 193.008 2175.18 193.008 Q2173.73 193.008 2172.21 194.249 Q2170.71 195.491 2169.61 197.599 Q2168.76 199.285 2167.85 202.822 Q2166.96 206.359 2166.96 208.116 Q2166.96 209.193 2167.19 210.153 Q2167.45 211.09 2168.18 211.863 Q2168.9 212.613 2170.03 212.613 Q2172.77 212.613 2175.46 209.216 Q2175.98 208.631 2176.09 208.397 Q2176.23 208.139 2176.42 207.436 L2178.81 198.044 Q2178.95 197.341 2178.95 197.224 Z" fill="#000000" fill-rule="nonzero" fill-opacity="1" /><path clip-path="url(#clip740)" d="M2198.75 180.383 L2191.84 208.116 Q2191.56 209.216 2191.56 210.411 Q2191.56 212.613 2193.01 212.613 Q2193.69 212.613 2194.25 212.168 Q2194.81 211.699 2195.24 210.786 Q2195.68 209.849 2195.96 208.959 Q2196.27 208.069 2196.64 206.687 Q2196.76 206.148 2196.87 205.984 Q2196.99 205.82 2197.32 205.82 Q2197.91 205.82 2197.91 206.289 Q2197.32 209.17 2196.45 210.997 Q2195.19 213.69 2192.85 213.69 Q2191.09 213.69 2189.78 212.472 Q2188.49 211.231 2188.49 209.263 Q2188.49 208.514 2188.72 207.624 L2194.77 183.639 L2194.93 182.702 Q2194.93 182.445 2194.84 182.304 Q2194.74 182.163 2194.18 182.023 Q2193.64 181.882 2192.57 181.882 Q2192.12 181.882 2191.91 181.859 Q2191.72 181.836 2191.53 181.718 Q2191.37 181.601 2191.37 181.344 Q2191.37 180.922 2191.53 180.688 Q2191.72 180.454 2191.86 180.407 Q2192 180.36 2192.28 180.337 Q2192.68 180.313 2194.02 180.196 Q2195.35 180.055 2196.5 179.962 Q2197.65 179.868 2198.14 179.868 Q2198.42 179.868 2198.56 180.009 Q2198.73 180.126 2198.75 180.266 L2198.75 180.383 Z" fill="#000000" fill-rule="nonzero" fill-opacity="1" /></svg>
