<?xml version="1.0" encoding="utf-8"?>
<svg xmlns="http://www.w3.org/2000/svg" xmlns:xlink="http://www.w3.org/1999/xlink" width="600" height="400" viewBox="0 0 2400 1600">
<defs>
  <clipPath id="clip600">
    <rect x="0" y="0" width="2400" height="1600"/>
  </clipPath>
</defs>
<path clip-path="url(#clip600)" d="M0 1600 L2400 1600 L2400 0 L0 0  Z" fill="#ffffff" fill-rule="evenodd" fill-opacity="1"/>
<defs>
  <clipPath id="clip601">
    <rect x="480" y="0" width="1681" height="1600"/>
  </clipPath>
</defs>
<path clip-path="url(#clip600)" d="M253.785 1427.5 L2352.76 1427.5 L2352.76 47.2441 L253.785 47.2441  Z" fill="#ffffff" fill-rule="evenodd" fill-opacity="1"/>
<defs>
  <clipPath id="clip602">
    <rect x="253" y="47" width="2100" height="1381"/>
  </clipPath>
</defs>
<polyline clip-path="url(#clip602)" style="stroke:#000000; stroke-linecap:round; stroke-linejoin:round; stroke-width:2; stroke-opacity:0.05; fill:none" points="412.198,1427.5 412.198,47.2441 "/>
<polyline clip-path="url(#clip602)" style="stroke:#000000; stroke-linecap:round; stroke-linejoin:round; stroke-width:2; stroke-opacity:0.05; fill:none" points="511.206,1427.5 511.206,47.2441 "/>
<polyline clip-path="url(#clip602)" style="stroke:#000000; stroke-linecap:round; stroke-linejoin:round; stroke-width:2; stroke-opacity:0.05; fill:none" points="610.214,1427.5 610.214,47.2441 "/>
<polyline clip-path="url(#clip602)" style="stroke:#000000; stroke-linecap:round; stroke-linejoin:round; stroke-width:2; stroke-opacity:0.05; fill:none" points="709.222,1427.5 709.222,47.2441 "/>
<polyline clip-path="url(#clip602)" style="stroke:#000000; stroke-linecap:round; stroke-linejoin:round; stroke-width:2; stroke-opacity:0.05; fill:none" points="907.238,1427.5 907.238,47.2441 "/>
<polyline clip-path="url(#clip602)" style="stroke:#000000; stroke-linecap:round; stroke-linejoin:round; stroke-width:2; stroke-opacity:0.05; fill:none" points="1006.25,1427.5 1006.25,47.2441 "/>
<polyline clip-path="url(#clip602)" style="stroke:#000000; stroke-linecap:round; stroke-linejoin:round; stroke-width:2; stroke-opacity:0.05; fill:none" points="1105.25,1427.5 1105.25,47.2441 "/>
<polyline clip-path="url(#clip602)" style="stroke:#000000; stroke-linecap:round; stroke-linejoin:round; stroke-width:2; stroke-opacity:0.05; fill:none" points="1204.26,1427.5 1204.26,47.2441 "/>
<polyline clip-path="url(#clip602)" style="stroke:#000000; stroke-linecap:round; stroke-linejoin:round; stroke-width:2; stroke-opacity:0.05; fill:none" points="1402.28,1427.5 1402.28,47.2441 "/>
<polyline clip-path="url(#clip602)" style="stroke:#000000; stroke-linecap:round; stroke-linejoin:round; stroke-width:2; stroke-opacity:0.05; fill:none" points="1501.29,1427.5 1501.29,47.2441 "/>
<polyline clip-path="url(#clip602)" style="stroke:#000000; stroke-linecap:round; stroke-linejoin:round; stroke-width:2; stroke-opacity:0.05; fill:none" points="1600.29,1427.5 1600.29,47.2441 "/>
<polyline clip-path="url(#clip602)" style="stroke:#000000; stroke-linecap:round; stroke-linejoin:round; stroke-width:2; stroke-opacity:0.05; fill:none" points="1699.3,1427.5 1699.3,47.2441 "/>
<polyline clip-path="url(#clip602)" style="stroke:#000000; stroke-linecap:round; stroke-linejoin:round; stroke-width:2; stroke-opacity:0.05; fill:none" points="1897.32,1427.5 1897.32,47.2441 "/>
<polyline clip-path="url(#clip602)" style="stroke:#000000; stroke-linecap:round; stroke-linejoin:round; stroke-width:2; stroke-opacity:0.05; fill:none" points="1996.33,1427.5 1996.33,47.2441 "/>
<polyline clip-path="url(#clip602)" style="stroke:#000000; stroke-linecap:round; stroke-linejoin:round; stroke-width:2; stroke-opacity:0.05; fill:none" points="2095.33,1427.5 2095.33,47.2441 "/>
<polyline clip-path="url(#clip602)" style="stroke:#000000; stroke-linecap:round; stroke-linejoin:round; stroke-width:2; stroke-opacity:0.05; fill:none" points="2194.34,1427.5 2194.34,47.2441 "/>
<polyline clip-path="url(#clip602)" style="stroke:#000000; stroke-linecap:round; stroke-linejoin:round; stroke-width:2; stroke-opacity:0.1; fill:none" points="313.19,1427.5 313.19,47.2441 "/>
<polyline clip-path="url(#clip602)" style="stroke:#000000; stroke-linecap:round; stroke-linejoin:round; stroke-width:2; stroke-opacity:0.1; fill:none" points="808.23,1427.5 808.23,47.2441 "/>
<polyline clip-path="url(#clip602)" style="stroke:#000000; stroke-linecap:round; stroke-linejoin:round; stroke-width:2; stroke-opacity:0.1; fill:none" points="1303.27,1427.5 1303.27,47.2441 "/>
<polyline clip-path="url(#clip602)" style="stroke:#000000; stroke-linecap:round; stroke-linejoin:round; stroke-width:2; stroke-opacity:0.1; fill:none" points="1798.31,1427.5 1798.31,47.2441 "/>
<polyline clip-path="url(#clip602)" style="stroke:#000000; stroke-linecap:round; stroke-linejoin:round; stroke-width:2; stroke-opacity:0.1; fill:none" points="2293.35,1427.5 2293.35,47.2441 "/>
<polyline clip-path="url(#clip602)" style="stroke:#000000; stroke-linecap:round; stroke-linejoin:round; stroke-width:2; stroke-opacity:0.1; fill:none" points="253.785,1027.27 2352.76,1027.27 "/>
<polyline clip-path="url(#clip602)" style="stroke:#000000; stroke-linecap:round; stroke-linejoin:round; stroke-width:2; stroke-opacity:0.1; fill:none" points="253.785,556.787 2352.76,556.787 "/>
<polyline clip-path="url(#clip602)" style="stroke:#000000; stroke-linecap:round; stroke-linejoin:round; stroke-width:2; stroke-opacity:0.1; fill:none" points="253.785,86.3079 2352.76,86.3079 "/>
<polyline clip-path="url(#clip600)" style="stroke:#000000; stroke-linecap:round; stroke-linejoin:round; stroke-width:4; stroke-opacity:1; fill:none" points="253.785,1427.5 2352.76,1427.5 "/>
<polyline clip-path="url(#clip600)" style="stroke:#000000; stroke-linecap:round; stroke-linejoin:round; stroke-width:4; stroke-opacity:1; fill:none" points="313.19,1427.5 313.19,1408.6 "/>
<polyline clip-path="url(#clip600)" style="stroke:#000000; stroke-linecap:round; stroke-linejoin:round; stroke-width:4; stroke-opacity:1; fill:none" points="808.23,1427.5 808.23,1408.6 "/>
<polyline clip-path="url(#clip600)" style="stroke:#000000; stroke-linecap:round; stroke-linejoin:round; stroke-width:4; stroke-opacity:1; fill:none" points="1303.27,1427.5 1303.27,1408.6 "/>
<polyline clip-path="url(#clip600)" style="stroke:#000000; stroke-linecap:round; stroke-linejoin:round; stroke-width:4; stroke-opacity:1; fill:none" points="1798.31,1427.5 1798.31,1408.6 "/>
<polyline clip-path="url(#clip600)" style="stroke:#000000; stroke-linecap:round; stroke-linejoin:round; stroke-width:4; stroke-opacity:1; fill:none" points="2293.35,1427.5 2293.35,1408.6 "/>
<polyline clip-path="url(#clip600)" style="stroke:#000000; stroke-linecap:round; stroke-linejoin:round; stroke-width:4; stroke-opacity:1; fill:none" points="412.198,1427.5 412.198,1418.05 "/>
<polyline clip-path="url(#clip600)" style="stroke:#000000; stroke-linecap:round; stroke-linejoin:round; stroke-width:4; stroke-opacity:1; fill:none" points="511.206,1427.5 511.206,1418.05 "/>
<polyline clip-path="url(#clip600)" style="stroke:#000000; stroke-linecap:round; stroke-linejoin:round; stroke-width:4; stroke-opacity:1; fill:none" points="610.214,1427.5 610.214,1418.05 "/>
<polyline clip-path="url(#clip600)" style="stroke:#000000; stroke-linecap:round; stroke-linejoin:round; stroke-width:4; stroke-opacity:1; fill:none" points="709.222,1427.5 709.222,1418.05 "/>
<polyline clip-path="url(#clip600)" style="stroke:#000000; stroke-linecap:round; stroke-linejoin:round; stroke-width:4; stroke-opacity:1; fill:none" points="907.238,1427.5 907.238,1418.05 "/>
<polyline clip-path="url(#clip600)" style="stroke:#000000; stroke-linecap:round; stroke-linejoin:round; stroke-width:4; stroke-opacity:1; fill:none" points="1006.25,1427.5 1006.25,1418.05 "/>
<polyline clip-path="url(#clip600)" style="stroke:#000000; stroke-linecap:round; stroke-linejoin:round; stroke-width:4; stroke-opacity:1; fill:none" points="1105.25,1427.5 1105.25,1418.05 "/>
<polyline clip-path="url(#clip600)" style="stroke:#000000; stroke-linecap:round; stroke-linejoin:round; stroke-width:4; stroke-opacity:1; fill:none" points="1204.26,1427.5 1204.26,1418.05 "/>
<polyline clip-path="url(#clip600)" style="stroke:#000000; stroke-linecap:round; stroke-linejoin:round; stroke-width:4; stroke-opacity:1; fill:none" points="1402.28,1427.5 1402.28,1418.05 "/>
<polyline clip-path="url(#clip600)" style="stroke:#000000; stroke-linecap:round; stroke-linejoin:round; stroke-width:4; stroke-opacity:1; fill:none" points="1501.29,1427.5 1501.29,1418.05 "/>
<polyline clip-path="url(#clip600)" style="stroke:#000000; stroke-linecap:round; stroke-linejoin:round; stroke-width:4; stroke-opacity:1; fill:none" points="1600.29,1427.5 1600.29,1418.05 "/>
<polyline clip-path="url(#clip600)" style="stroke:#000000; stroke-linecap:round; stroke-linejoin:round; stroke-width:4; stroke-opacity:1; fill:none" points="1699.3,1427.5 1699.3,1418.05 "/>
<polyline clip-path="url(#clip600)" style="stroke:#000000; stroke-linecap:round; stroke-linejoin:round; stroke-width:4; stroke-opacity:1; fill:none" points="1897.32,1427.5 1897.32,1418.05 "/>
<polyline clip-path="url(#clip600)" style="stroke:#000000; stroke-linecap:round; stroke-linejoin:round; stroke-width:4; stroke-opacity:1; fill:none" points="1996.33,1427.5 1996.33,1418.05 "/>
<polyline clip-path="url(#clip600)" style="stroke:#000000; stroke-linecap:round; stroke-linejoin:round; stroke-width:4; stroke-opacity:1; fill:none" points="2095.33,1427.5 2095.33,1418.05 "/>
<polyline clip-path="url(#clip600)" style="stroke:#000000; stroke-linecap:round; stroke-linejoin:round; stroke-width:4; stroke-opacity:1; fill:none" points="2194.34,1427.5 2194.34,1418.05 "/>
<path clip-path="url(#clip600)" d="M313.19 1458.42 Q309.579 1458.42 307.75 1461.98 Q305.945 1465.52 305.945 1472.65 Q305.945 1479.76 307.75 1483.33 Q309.579 1486.87 313.19 1486.87 Q316.824 1486.87 318.63 1483.33 Q320.459 1479.76 320.459 1472.65 Q320.459 1465.52 318.63 1461.98 Q316.824 1458.42 313.19 1458.42 M313.19 1454.71 Q319 1454.71 322.056 1459.32 Q325.135 1463.9 325.135 1472.65 Q325.135 1481.38 322.056 1485.99 Q319 1490.57 313.19 1490.57 Q307.38 1490.57 304.301 1485.99 Q301.246 1481.38 301.246 1472.65 Q301.246 1463.9 304.301 1459.32 Q307.38 1454.71 313.19 1454.71 Z" fill="#000000" fill-rule="nonzero" fill-opacity="1" /><path clip-path="url(#clip600)" d="M798.508 1455.34 L816.865 1455.34 L816.865 1459.28 L802.791 1459.28 L802.791 1467.75 Q803.809 1467.4 804.828 1467.24 Q805.846 1467.05 806.865 1467.05 Q812.652 1467.05 816.031 1470.22 Q819.411 1473.4 819.411 1478.81 Q819.411 1484.39 815.939 1487.49 Q812.466 1490.57 806.147 1490.57 Q803.971 1490.57 801.703 1490.2 Q799.457 1489.83 797.05 1489.09 L797.05 1484.39 Q799.133 1485.52 801.355 1486.08 Q803.578 1486.64 806.054 1486.64 Q810.059 1486.64 812.397 1484.53 Q814.735 1482.42 814.735 1478.81 Q814.735 1475.2 812.397 1473.09 Q810.059 1470.99 806.054 1470.99 Q804.18 1470.99 802.305 1471.4 Q800.453 1471.82 798.508 1472.7 L798.508 1455.34 Z" fill="#000000" fill-rule="nonzero" fill-opacity="1" /><path clip-path="url(#clip600)" d="M1277.96 1485.96 L1285.6 1485.96 L1285.6 1459.6 L1277.29 1461.27 L1277.29 1457.01 L1285.55 1455.34 L1290.23 1455.34 L1290.23 1485.96 L1297.87 1485.96 L1297.87 1489.9 L1277.96 1489.9 L1277.96 1485.96 Z" fill="#000000" fill-rule="nonzero" fill-opacity="1" /><path clip-path="url(#clip600)" d="M1317.31 1458.42 Q1313.7 1458.42 1311.87 1461.98 Q1310.06 1465.52 1310.06 1472.65 Q1310.06 1479.76 1311.87 1483.33 Q1313.7 1486.87 1317.31 1486.87 Q1320.94 1486.87 1322.75 1483.33 Q1324.58 1479.76 1324.58 1472.65 Q1324.58 1465.52 1322.75 1461.98 Q1320.94 1458.42 1317.31 1458.42 M1317.31 1454.71 Q1323.12 1454.71 1326.18 1459.32 Q1329.25 1463.9 1329.25 1472.65 Q1329.25 1481.38 1326.18 1485.99 Q1323.12 1490.57 1317.31 1490.57 Q1311.5 1490.57 1308.42 1485.99 Q1305.37 1481.38 1305.37 1472.65 Q1305.37 1463.9 1308.42 1459.32 Q1311.5 1454.71 1317.31 1454.71 Z" fill="#000000" fill-rule="nonzero" fill-opacity="1" /><path clip-path="url(#clip600)" d="M1773.5 1485.96 L1781.14 1485.96 L1781.14 1459.6 L1772.82 1461.27 L1772.82 1457.01 L1781.09 1455.34 L1785.76 1455.34 L1785.76 1485.96 L1793.4 1485.96 L1793.4 1489.9 L1773.5 1489.9 L1773.5 1485.96 Z" fill="#000000" fill-rule="nonzero" fill-opacity="1" /><path clip-path="url(#clip600)" d="M1802.89 1455.34 L1821.25 1455.34 L1821.25 1459.28 L1807.18 1459.28 L1807.18 1467.75 Q1808.2 1467.4 1809.21 1467.24 Q1810.23 1467.05 1811.25 1467.05 Q1817.04 1467.05 1820.42 1470.22 Q1823.8 1473.4 1823.8 1478.81 Q1823.8 1484.39 1820.32 1487.49 Q1816.85 1490.57 1810.53 1490.57 Q1808.36 1490.57 1806.09 1490.2 Q1803.84 1489.83 1801.44 1489.09 L1801.44 1484.39 Q1803.52 1485.52 1805.74 1486.08 Q1807.96 1486.64 1810.44 1486.64 Q1814.45 1486.64 1816.78 1484.53 Q1819.12 1482.42 1819.12 1478.81 Q1819.12 1475.2 1816.78 1473.09 Q1814.45 1470.99 1810.44 1470.99 Q1808.57 1470.99 1806.69 1471.4 Q1804.84 1471.82 1802.89 1472.7 L1802.89 1455.34 Z" fill="#000000" fill-rule="nonzero" fill-opacity="1" /><path clip-path="url(#clip600)" d="M2272.12 1485.96 L2288.44 1485.96 L2288.44 1489.9 L2266.5 1489.9 L2266.5 1485.96 Q2269.16 1483.21 2273.74 1478.58 Q2278.35 1473.93 2279.53 1472.59 Q2281.78 1470.06 2282.66 1468.33 Q2283.56 1466.57 2283.56 1464.88 Q2283.56 1462.12 2281.62 1460.39 Q2279.69 1458.65 2276.59 1458.65 Q2274.39 1458.65 2271.94 1459.41 Q2269.51 1460.18 2266.73 1461.73 L2266.73 1457.01 Q2269.55 1455.87 2272.01 1455.29 Q2274.46 1454.71 2276.5 1454.71 Q2281.87 1454.71 2285.06 1457.4 Q2288.26 1460.09 2288.26 1464.58 Q2288.26 1466.71 2287.45 1468.63 Q2286.66 1470.52 2284.55 1473.12 Q2283.98 1473.79 2280.87 1477.01 Q2277.77 1480.2 2272.12 1485.96 Z" fill="#000000" fill-rule="nonzero" fill-opacity="1" /><path clip-path="url(#clip600)" d="M2308.26 1458.42 Q2304.65 1458.42 2302.82 1461.98 Q2301.01 1465.52 2301.01 1472.65 Q2301.01 1479.76 2302.82 1483.33 Q2304.65 1486.87 2308.26 1486.87 Q2311.89 1486.87 2313.7 1483.33 Q2315.53 1479.76 2315.53 1472.65 Q2315.53 1465.52 2313.7 1461.98 Q2311.89 1458.42 2308.26 1458.42 M2308.26 1454.71 Q2314.07 1454.71 2317.12 1459.32 Q2320.2 1463.9 2320.2 1472.65 Q2320.2 1481.38 2317.12 1485.99 Q2314.07 1490.57 2308.26 1490.57 Q2302.45 1490.57 2299.37 1485.99 Q2296.31 1481.38 2296.31 1472.65 Q2296.31 1463.9 2299.37 1459.32 Q2302.45 1454.71 2308.26 1454.71 Z" fill="#000000" fill-rule="nonzero" fill-opacity="1" /><path clip-path="url(#clip600)" d="M1183.02 1523.98 L1188.86 1523.98 L1188.86 1567.18 L1183.02 1567.18 L1183.02 1523.98 Z" fill="#000000" fill-rule="nonzero" fill-opacity="1" /><path clip-path="url(#clip600)" d="M1205.53 1525.57 L1205.53 1534.77 L1216.49 1534.77 L1216.49 1538.91 L1205.53 1538.91 L1205.53 1556.5 Q1205.53 1560.47 1206.6 1561.6 Q1207.7 1562.72 1211.03 1562.72 L1216.49 1562.72 L1216.49 1567.18 L1211.03 1567.18 Q1204.86 1567.18 1202.52 1564.89 Q1200.18 1562.58 1200.18 1556.5 L1200.18 1538.91 L1196.27 1538.91 L1196.27 1534.77 L1200.18 1534.77 L1200.18 1525.57 L1205.53 1525.57 Z" fill="#000000" fill-rule="nonzero" fill-opacity="1" /><path clip-path="url(#clip600)" d="M1251.22 1549.65 L1251.22 1552.25 L1226.74 1552.25 Q1227.08 1557.75 1230.04 1560.64 Q1233.02 1563.51 1238.31 1563.51 Q1241.38 1563.51 1244.24 1562.75 Q1247.14 1562 1249.97 1560.5 L1249.97 1565.53 Q1247.11 1566.75 1244.1 1567.38 Q1241.09 1568.02 1237.99 1568.02 Q1230.24 1568.02 1225.7 1563.51 Q1221.18 1558.99 1221.18 1551.29 Q1221.18 1543.34 1225.46 1538.68 Q1229.78 1533.99 1237.07 1533.99 Q1243.61 1533.99 1247.4 1538.22 Q1251.22 1542.41 1251.22 1549.65 M1245.89 1548.08 Q1245.83 1543.71 1243.43 1541.11 Q1241.06 1538.51 1237.13 1538.51 Q1232.67 1538.51 1229.98 1541.02 Q1227.32 1543.54 1226.91 1548.11 L1245.89 1548.08 Z" fill="#000000" fill-rule="nonzero" fill-opacity="1" /><path clip-path="url(#clip600)" d="M1278.73 1539.75 Q1277.84 1539.23 1276.77 1539 Q1275.72 1538.74 1274.45 1538.74 Q1269.94 1538.74 1267.51 1541.69 Q1265.11 1544.61 1265.11 1550.11 L1265.11 1567.18 L1259.75 1567.18 L1259.75 1534.77 L1265.11 1534.77 L1265.11 1539.81 Q1266.78 1536.86 1269.47 1535.44 Q1272.17 1533.99 1276.01 1533.99 Q1276.56 1533.99 1277.23 1534.08 Q1277.89 1534.14 1278.7 1534.28 L1278.73 1539.75 Z" fill="#000000" fill-rule="nonzero" fill-opacity="1" /><path clip-path="url(#clip600)" d="M1299.05 1550.89 Q1292.59 1550.89 1290.11 1552.37 Q1287.62 1553.84 1287.62 1557.4 Q1287.62 1560.24 1289.47 1561.91 Q1291.35 1563.56 1294.56 1563.56 Q1298.99 1563.56 1301.65 1560.44 Q1304.34 1557.28 1304.34 1552.08 L1304.34 1550.89 L1299.05 1550.89 M1309.67 1548.69 L1309.67 1567.18 L1304.34 1567.18 L1304.34 1562.26 Q1302.52 1565.21 1299.8 1566.63 Q1297.08 1568.02 1293.14 1568.02 Q1288.17 1568.02 1285.22 1565.24 Q1282.29 1562.43 1282.29 1557.75 Q1282.29 1552.28 1285.94 1549.5 Q1289.61 1546.72 1296.88 1546.72 L1304.34 1546.72 L1304.34 1546.2 Q1304.34 1542.53 1301.91 1540.53 Q1299.51 1538.51 1295.14 1538.51 Q1292.36 1538.51 1289.73 1539.17 Q1287.1 1539.84 1284.67 1541.17 L1284.67 1536.25 Q1287.59 1535.12 1290.34 1534.57 Q1293.09 1533.99 1295.69 1533.99 Q1302.72 1533.99 1306.19 1537.64 Q1309.67 1541.28 1309.67 1548.69 Z" fill="#000000" fill-rule="nonzero" fill-opacity="1" /><path clip-path="url(#clip600)" d="M1325.9 1525.57 L1325.9 1534.77 L1336.86 1534.77 L1336.86 1538.91 L1325.9 1538.91 L1325.9 1556.5 Q1325.9 1560.47 1326.97 1561.6 Q1328.07 1562.72 1331.4 1562.72 L1336.86 1562.72 L1336.86 1567.18 L1331.4 1567.18 Q1325.23 1567.18 1322.89 1564.89 Q1320.54 1562.58 1320.54 1556.5 L1320.54 1538.91 L1316.64 1538.91 L1316.64 1534.77 L1320.54 1534.77 L1320.54 1525.57 L1325.9 1525.57 Z" fill="#000000" fill-rule="nonzero" fill-opacity="1" /><path clip-path="url(#clip600)" d="M1343.87 1534.77 L1349.19 1534.77 L1349.19 1567.18 L1343.87 1567.18 L1343.87 1534.77 M1343.87 1522.16 L1349.19 1522.16 L1349.19 1528.9 L1343.87 1528.9 L1343.87 1522.16 Z" fill="#000000" fill-rule="nonzero" fill-opacity="1" /><path clip-path="url(#clip600)" d="M1372.89 1538.51 Q1368.61 1538.51 1366.12 1541.86 Q1363.63 1545.19 1363.63 1551.01 Q1363.63 1556.82 1366.09 1560.18 Q1368.58 1563.51 1372.89 1563.51 Q1377.14 1563.51 1379.63 1560.15 Q1382.12 1556.79 1382.12 1551.01 Q1382.12 1545.25 1379.63 1541.89 Q1377.14 1538.51 1372.89 1538.51 M1372.89 1533.99 Q1379.83 1533.99 1383.8 1538.51 Q1387.76 1543.02 1387.76 1551.01 Q1387.76 1558.96 1383.8 1563.51 Q1379.83 1568.02 1372.89 1568.02 Q1365.91 1568.02 1361.95 1563.51 Q1358.02 1558.96 1358.02 1551.01 Q1358.02 1543.02 1361.95 1538.51 Q1365.91 1533.99 1372.89 1533.99 Z" fill="#000000" fill-rule="nonzero" fill-opacity="1" /><path clip-path="url(#clip600)" d="M1423.52 1547.62 L1423.52 1567.18 L1418.2 1567.18 L1418.2 1547.79 Q1418.2 1543.19 1416.41 1540.91 Q1414.61 1538.62 1411.02 1538.62 Q1406.71 1538.62 1404.22 1541.37 Q1401.74 1544.12 1401.74 1548.86 L1401.74 1567.18 L1396.38 1567.18 L1396.38 1534.77 L1401.74 1534.77 L1401.74 1539.81 Q1403.65 1536.88 1406.22 1535.44 Q1408.83 1533.99 1412.21 1533.99 Q1417.8 1533.99 1420.66 1537.46 Q1423.52 1540.91 1423.52 1547.62 Z" fill="#000000" fill-rule="nonzero" fill-opacity="1" /><polyline clip-path="url(#clip600)" style="stroke:#000000; stroke-linecap:round; stroke-linejoin:round; stroke-width:4; stroke-opacity:1; fill:none" points="253.785,1427.5 253.785,47.2441 "/>
<polyline clip-path="url(#clip600)" style="stroke:#000000; stroke-linecap:round; stroke-linejoin:round; stroke-width:4; stroke-opacity:1; fill:none" points="253.785,1027.27 272.683,1027.27 "/>
<polyline clip-path="url(#clip600)" style="stroke:#000000; stroke-linecap:round; stroke-linejoin:round; stroke-width:4; stroke-opacity:1; fill:none" points="253.785,556.787 272.683,556.787 "/>
<polyline clip-path="url(#clip600)" style="stroke:#000000; stroke-linecap:round; stroke-linejoin:round; stroke-width:4; stroke-opacity:1; fill:none" points="253.785,86.3079 272.683,86.3079 "/>
<path clip-path="url(#clip600)" d="M112.022 1047.06 L119.661 1047.06 L119.661 1020.69 L111.351 1022.36 L111.351 1018.1 L119.615 1016.43 L124.29 1016.43 L124.29 1047.06 L131.929 1047.06 L131.929 1050.99 L112.022 1050.99 L112.022 1047.06 Z" fill="#000000" fill-rule="nonzero" fill-opacity="1" /><path clip-path="url(#clip600)" d="M151.374 1019.51 Q147.763 1019.51 145.934 1023.08 Q144.128 1026.62 144.128 1033.75 Q144.128 1040.85 145.934 1044.42 Q147.763 1047.96 151.374 1047.96 Q155.008 1047.96 156.813 1044.42 Q158.642 1040.85 158.642 1033.75 Q158.642 1026.62 156.813 1023.08 Q155.008 1019.51 151.374 1019.51 M151.374 1015.81 Q157.184 1015.81 160.239 1020.41 Q163.318 1025 163.318 1033.75 Q163.318 1042.47 160.239 1047.08 Q157.184 1051.66 151.374 1051.66 Q145.564 1051.66 142.485 1047.08 Q139.429 1042.47 139.429 1033.75 Q139.429 1025 142.485 1020.41 Q145.564 1015.81 151.374 1015.81 Z" fill="#000000" fill-rule="nonzero" fill-opacity="1" /><path clip-path="url(#clip600)" d="M163.863 1020.39 L170.07 1020.39 L170.07 998.963 L163.318 1000.32 L163.318 996.857 L170.032 995.503 L173.832 995.503 L173.832 1020.39 L180.038 1020.39 L180.038 1023.58 L163.863 1023.58 L163.863 1020.39 Z" fill="#000000" fill-rule="nonzero" fill-opacity="1" /><path clip-path="url(#clip600)" d="M187.712 1018.81 L191.68 1018.81 L191.68 1023.58 L187.712 1023.58 L187.712 1018.81 Z" fill="#000000" fill-rule="nonzero" fill-opacity="1" /><path clip-path="url(#clip600)" d="M208.081 998.004 Q205.147 998.004 203.661 1000.9 Q202.194 1003.78 202.194 1009.57 Q202.194 1015.34 203.661 1018.24 Q205.147 1021.12 208.081 1021.12 Q211.033 1021.12 212.5 1018.24 Q213.986 1015.34 213.986 1009.57 Q213.986 1003.78 212.5 1000.9 Q211.033 998.004 208.081 998.004 M208.081 994.995 Q212.801 994.995 215.284 998.738 Q217.785 1002.46 217.785 1009.57 Q217.785 1016.66 215.284 1020.4 Q212.801 1024.13 208.081 1024.13 Q203.36 1024.13 200.858 1020.4 Q198.376 1016.66 198.376 1009.57 Q198.376 1002.46 200.858 998.738 Q203.36 994.995 208.081 994.995 Z" fill="#000000" fill-rule="nonzero" fill-opacity="1" /><path clip-path="url(#clip600)" d="M112.831 576.579 L120.47 576.579 L120.47 550.214 L112.159 551.88 L112.159 547.621 L120.423 545.954 L125.099 545.954 L125.099 576.579 L132.738 576.579 L132.738 580.514 L112.831 580.514 L112.831 576.579 Z" fill="#000000" fill-rule="nonzero" fill-opacity="1" /><path clip-path="url(#clip600)" d="M152.182 549.033 Q148.571 549.033 146.743 552.598 Q144.937 556.139 144.937 563.269 Q144.937 570.376 146.743 573.94 Q148.571 577.482 152.182 577.482 Q155.817 577.482 157.622 573.94 Q159.451 570.376 159.451 563.269 Q159.451 556.139 157.622 552.598 Q155.817 549.033 152.182 549.033 M152.182 545.329 Q157.993 545.329 161.048 549.936 Q164.127 554.519 164.127 563.269 Q164.127 571.996 161.048 576.602 Q157.993 581.186 152.182 581.186 Q146.372 581.186 143.294 576.602 Q140.238 571.996 140.238 563.269 Q140.238 554.519 143.294 549.936 Q146.372 545.329 152.182 545.329 Z" fill="#000000" fill-rule="nonzero" fill-opacity="1" /><path clip-path="url(#clip600)" d="M164.672 549.907 L170.879 549.907 L170.879 528.485 L164.127 529.839 L164.127 526.378 L170.841 525.024 L174.64 525.024 L174.64 549.907 L180.847 549.907 L180.847 553.104 L164.672 553.104 L164.672 549.907 Z" fill="#000000" fill-rule="nonzero" fill-opacity="1" /><path clip-path="url(#clip600)" d="M188.52 548.327 L192.489 548.327 L192.489 553.104 L188.52 553.104 L188.52 548.327 Z" fill="#000000" fill-rule="nonzero" fill-opacity="1" /><path clip-path="url(#clip600)" d="M200.802 525.024 L215.717 525.024 L215.717 528.221 L204.281 528.221 L204.281 535.105 Q205.109 534.823 205.936 534.691 Q206.764 534.541 207.592 534.541 Q212.293 534.541 215.039 537.117 Q217.785 539.694 217.785 544.095 Q217.785 548.628 214.964 551.148 Q212.143 553.649 207.009 553.649 Q205.241 553.649 203.397 553.348 Q201.573 553.048 199.617 552.446 L199.617 548.628 Q201.31 549.549 203.115 550.001 Q204.921 550.452 206.933 550.452 Q210.187 550.452 212.087 548.741 Q213.986 547.029 213.986 544.095 Q213.986 541.161 212.087 539.45 Q210.187 537.738 206.933 537.738 Q205.41 537.738 203.886 538.077 Q202.382 538.415 200.802 539.13 L200.802 525.024 Z" fill="#000000" fill-rule="nonzero" fill-opacity="1" /><path clip-path="url(#clip600)" d="M110.611 106.1 L118.25 106.1 L118.25 79.7348 L109.94 81.4014 L109.94 77.1422 L118.204 75.4755 L122.88 75.4755 L122.88 106.1 L130.519 106.1 L130.519 110.036 L110.611 110.036 L110.611 106.1 Z" fill="#000000" fill-rule="nonzero" fill-opacity="1" /><path clip-path="url(#clip600)" d="M149.963 78.5542 Q146.352 78.5542 144.523 82.119 Q142.718 85.6607 142.718 92.7903 Q142.718 99.8967 144.523 103.461 Q146.352 107.003 149.963 107.003 Q153.597 107.003 155.403 103.461 Q157.232 99.8967 157.232 92.7903 Q157.232 85.6607 155.403 82.119 Q153.597 78.5542 149.963 78.5542 M149.963 74.8505 Q155.773 74.8505 158.829 79.457 Q161.907 84.0403 161.907 92.7903 Q161.907 101.517 158.829 106.124 Q155.773 110.707 149.963 110.707 Q144.153 110.707 141.074 106.124 Q138.019 101.517 138.019 92.7903 Q138.019 84.0403 141.074 79.457 Q144.153 74.8505 149.963 74.8505 Z" fill="#000000" fill-rule="nonzero" fill-opacity="1" /><path clip-path="url(#clip600)" d="M166.478 79.4278 L179.737 79.4278 L179.737 82.6251 L161.907 82.6251 L161.907 79.4278 Q164.07 77.1897 167.794 73.4281 Q171.537 69.6478 172.496 68.5569 Q174.321 66.5069 175.035 65.0963 Q175.769 63.6669 175.769 62.2939 Q175.769 60.0558 174.189 58.6452 Q172.628 57.2346 170.108 57.2346 Q168.321 57.2346 166.327 57.8553 Q164.352 58.476 162.096 59.7361 L162.096 55.8993 Q164.39 54.9777 166.384 54.5075 Q168.377 54.0373 170.032 54.0373 Q174.396 54.0373 176.991 56.219 Q179.587 58.4007 179.587 62.0494 Q179.587 63.7798 178.929 65.3408 Q178.289 66.883 176.578 68.9895 Q176.107 69.5349 173.587 72.1492 Q171.067 74.7447 166.478 79.4278 Z" fill="#000000" fill-rule="nonzero" fill-opacity="1" /><path clip-path="url(#clip600)" d="M187.712 77.848 L191.68 77.848 L191.68 82.6251 L187.712 82.6251 L187.712 77.848 Z" fill="#000000" fill-rule="nonzero" fill-opacity="1" /><path clip-path="url(#clip600)" d="M208.081 57.0466 Q205.147 57.0466 203.661 59.943 Q202.194 62.8206 202.194 68.6133 Q202.194 74.3873 203.661 77.2837 Q205.147 80.1613 208.081 80.1613 Q211.033 80.1613 212.5 77.2837 Q213.986 74.3873 213.986 68.6133 Q213.986 62.8206 212.5 59.943 Q211.033 57.0466 208.081 57.0466 M208.081 54.0373 Q212.801 54.0373 215.284 57.7801 Q217.785 61.504 217.785 68.6133 Q217.785 75.7039 215.284 79.4466 Q212.801 83.1706 208.081 83.1706 Q203.36 83.1706 200.858 79.4466 Q198.376 75.7039 198.376 68.6133 Q198.376 61.504 200.858 57.7801 Q203.36 54.0373 208.081 54.0373 Z" fill="#000000" fill-rule="nonzero" fill-opacity="1" /><path clip-path="url(#clip600)" d="M29.5278 786.214 L34.5625 786.214 Q33.4051 788.471 32.8264 790.902 Q32.2477 793.332 32.2477 795.936 Q32.2477 799.901 33.4629 801.897 Q34.6782 803.865 37.1088 803.865 Q38.9606 803.865 40.0312 802.447 Q41.0729 801.029 42.0277 796.747 L42.4328 794.924 Q43.6481 789.252 45.8761 786.88 Q48.0751 784.478 52.0392 784.478 Q56.5531 784.478 59.1862 788.066 Q61.8193 791.625 61.8193 797.875 Q61.8193 800.479 61.2984 803.315 Q60.8065 806.122 59.7938 809.247 L54.2962 809.247 Q55.8297 806.295 56.611 803.431 Q57.3633 800.566 57.3633 797.759 Q57.3633 793.998 56.0901 791.972 Q54.7881 789.947 52.4443 789.947 Q50.2742 789.947 49.1168 791.423 Q47.9594 792.869 46.8888 797.817 L46.4548 799.669 Q45.4131 804.617 43.2719 806.816 Q41.1018 809.015 37.3402 809.015 Q32.7685 809.015 30.2801 805.774 Q27.7917 802.534 27.7917 796.573 Q27.7917 793.622 28.2257 791.018 Q28.6597 788.413 29.5278 786.214 Z" fill="#000000" fill-rule="nonzero" fill-opacity="1" /><path clip-path="url(#clip600)" d="M19.3716 770.734 L28.5729 770.734 L28.5729 759.768 L32.7106 759.768 L32.7106 770.734 L50.3031 770.734 Q54.2672 770.734 55.3957 769.663 Q56.5242 768.564 56.5242 765.236 L56.5242 759.768 L60.9802 759.768 L60.9802 765.236 Q60.9802 771.4 58.6943 773.743 Q56.3795 776.087 50.3031 776.087 L32.7106 776.087 L32.7106 779.993 L28.5729 779.993 L28.5729 776.087 L19.3716 776.087 L19.3716 770.734 Z" fill="#000000" fill-rule="nonzero" fill-opacity="1" /><path clip-path="url(#clip600)" d="M44.6897 738.037 Q44.6897 744.49 46.1654 746.978 Q47.6411 749.467 51.2001 749.467 Q54.0358 749.467 55.714 747.615 Q57.3633 745.734 57.3633 742.522 Q57.3633 738.095 54.2383 735.433 Q51.0844 732.742 45.8761 732.742 L44.6897 732.742 L44.6897 738.037 M42.4907 727.418 L60.9802 727.418 L60.9802 732.742 L56.0612 732.742 Q59.0126 734.565 60.4304 737.285 Q61.8193 740.005 61.8193 743.94 Q61.8193 748.917 59.0415 751.868 Q56.2348 754.791 51.5473 754.791 Q46.0786 754.791 43.3009 751.145 Q40.5231 747.47 40.5231 740.208 L40.5231 732.742 L40.0023 732.742 Q36.3275 732.742 34.331 735.173 Q32.3055 737.575 32.3055 741.944 Q32.3055 744.721 32.971 747.355 Q33.6366 749.988 34.9676 752.418 L30.0486 752.418 Q28.9201 749.496 28.3704 746.747 Q27.7917 743.998 27.7917 741.394 Q27.7917 734.363 31.4375 730.891 Q35.0833 727.418 42.4907 727.418 Z" fill="#000000" fill-rule="nonzero" fill-opacity="1" /><path clip-path="url(#clip600)" d="M19.3716 711.186 L28.5729 711.186 L28.5729 700.219 L32.7106 700.219 L32.7106 711.186 L50.3031 711.186 Q54.2672 711.186 55.3957 710.115 Q56.5242 709.016 56.5242 705.688 L56.5242 700.219 L60.9802 700.219 L60.9802 705.688 Q60.9802 711.851 58.6943 714.195 Q56.3795 716.539 50.3031 716.539 L32.7106 716.539 L32.7106 720.445 L28.5729 720.445 L28.5729 716.539 L19.3716 716.539 L19.3716 711.186 Z" fill="#000000" fill-rule="nonzero" fill-opacity="1" /><path clip-path="url(#clip600)" d="M43.4455 665.497 L46.0497 665.497 L46.0497 689.976 Q51.5473 689.629 54.4408 686.678 Q57.3054 683.697 57.3054 678.402 Q57.3054 675.335 56.5531 672.471 Q55.8008 669.577 54.2962 666.742 L59.3309 666.742 Q60.5461 669.606 61.1827 672.615 Q61.8193 675.625 61.8193 678.721 Q61.8193 686.475 57.3054 691.018 Q52.7915 695.532 45.0948 695.532 Q37.1377 695.532 32.4792 691.25 Q27.7917 686.938 27.7917 679.647 Q27.7917 673.107 32.0162 669.317 Q36.2118 665.497 43.4455 665.497 M41.883 670.821 Q37.5138 670.879 34.9097 673.281 Q32.3055 675.654 32.3055 679.589 Q32.3055 684.045 34.8229 686.736 Q37.3402 689.398 41.912 689.803 L41.883 670.821 Z" fill="#000000" fill-rule="nonzero" fill-opacity="1" /><polyline clip-path="url(#clip602)" style="stroke:#0000ff; stroke-linecap:round; stroke-linejoin:round; stroke-width:8; stroke-opacity:1; fill:none" stroke-dasharray="32, 16, 4, 16" points="313.19,86.3079 412.198,136.875 511.206,187.441 610.214,238.011 709.222,288.58 808.23,339.135 907.238,389.714 1006.25,440.277 1105.25,490.837 1204.26,541.387 1303.27,591.934 1402.28,642.532 1501.29,693.073 1600.29,743.639 1699.3,794.206 1798.31,844.771 1897.32,895.307 1996.33,945.873 2095.33,996.451 2194.34,1046.97 2293.35,1097.62 "/>
<path clip-path="url(#clip602)" d="M313.19 70.3079 L309.43 81.1239 L297.974 81.3639 L307.11 88.2919 L303.782 99.2519 L313.19 92.7079 L322.598 99.2519 L319.27 88.2919 L328.406 81.3639 L316.95 81.1239 L313.19 70.3079 Z" fill="#009af9" fill-rule="evenodd" fill-opacity="1" stroke="#000000" stroke-opacity="1" stroke-width="3.2"/>
<path clip-path="url(#clip602)" d="M412.198 120.875 L408.438 131.691 L396.982 131.931 L406.118 138.859 L402.79 149.819 L412.198 143.275 L421.606 149.819 L418.278 138.859 L427.414 131.931 L415.958 131.691 L412.198 120.875 Z" fill="#009af9" fill-rule="evenodd" fill-opacity="1" stroke="#000000" stroke-opacity="1" stroke-width="3.2"/>
<path clip-path="url(#clip602)" d="M511.206 171.441 L507.446 182.257 L495.99 182.497 L505.126 189.425 L501.798 200.385 L511.206 193.841 L520.614 200.385 L517.286 189.425 L526.422 182.497 L514.966 182.257 L511.206 171.441 Z" fill="#009af9" fill-rule="evenodd" fill-opacity="1" stroke="#000000" stroke-opacity="1" stroke-width="3.2"/>
<path clip-path="url(#clip602)" d="M610.214 222.011 L606.454 232.827 L594.998 233.067 L604.134 239.995 L600.806 250.955 L610.214 244.411 L619.622 250.955 L616.294 239.995 L625.43 233.067 L613.974 232.827 L610.214 222.011 Z" fill="#009af9" fill-rule="evenodd" fill-opacity="1" stroke="#000000" stroke-opacity="1" stroke-width="3.2"/>
<path clip-path="url(#clip602)" d="M709.222 272.58 L705.462 283.396 L694.006 283.636 L703.142 290.564 L699.814 301.524 L709.222 294.98 L718.63 301.524 L715.302 290.564 L724.438 283.636 L712.982 283.396 L709.222 272.58 Z" fill="#009af9" fill-rule="evenodd" fill-opacity="1" stroke="#000000" stroke-opacity="1" stroke-width="3.2"/>
<path clip-path="url(#clip602)" d="M808.23 323.135 L804.47 333.951 L793.014 334.191 L802.15 341.119 L798.822 352.079 L808.23 345.535 L817.638 352.079 L814.31 341.119 L823.446 334.191 L811.99 333.951 L808.23 323.135 Z" fill="#009af9" fill-rule="evenodd" fill-opacity="1" stroke="#000000" stroke-opacity="1" stroke-width="3.2"/>
<path clip-path="url(#clip602)" d="M907.238 373.714 L903.478 384.53 L892.022 384.77 L901.158 391.698 L897.83 402.658 L907.238 396.114 L916.646 402.658 L913.318 391.698 L922.454 384.77 L910.998 384.53 L907.238 373.714 Z" fill="#009af9" fill-rule="evenodd" fill-opacity="1" stroke="#000000" stroke-opacity="1" stroke-width="3.2"/>
<path clip-path="url(#clip602)" d="M1006.25 424.277 L1002.49 435.093 L991.03 435.333 L1000.17 442.261 L996.838 453.221 L1006.25 446.677 L1015.65 453.221 L1012.33 442.261 L1021.46 435.333 L1010.01 435.093 L1006.25 424.277 Z" fill="#009af9" fill-rule="evenodd" fill-opacity="1" stroke="#000000" stroke-opacity="1" stroke-width="3.2"/>
<path clip-path="url(#clip602)" d="M1105.25 474.837 L1101.49 485.653 L1090.04 485.893 L1099.17 492.821 L1095.85 503.781 L1105.25 497.237 L1114.66 503.781 L1111.33 492.821 L1120.47 485.893 L1109.01 485.653 L1105.25 474.837 Z" fill="#009af9" fill-rule="evenodd" fill-opacity="1" stroke="#000000" stroke-opacity="1" stroke-width="3.2"/>
<path clip-path="url(#clip602)" d="M1204.26 525.387 L1200.5 536.203 L1189.05 536.443 L1198.18 543.371 L1194.85 554.331 L1204.26 547.787 L1213.67 554.331 L1210.34 543.371 L1219.48 536.443 L1208.02 536.203 L1204.26 525.387 Z" fill="#009af9" fill-rule="evenodd" fill-opacity="1" stroke="#000000" stroke-opacity="1" stroke-width="3.2"/>
<path clip-path="url(#clip602)" d="M1303.27 575.934 L1299.51 586.75 L1288.05 586.99 L1297.19 593.918 L1293.86 604.878 L1303.27 598.334 L1312.68 604.878 L1309.35 593.918 L1318.49 586.99 L1307.03 586.75 L1303.27 575.934 Z" fill="#009af9" fill-rule="evenodd" fill-opacity="1" stroke="#000000" stroke-opacity="1" stroke-width="3.2"/>
<path clip-path="url(#clip602)" d="M1402.28 626.532 L1398.52 637.348 L1387.06 637.588 L1396.2 644.516 L1392.87 655.476 L1402.28 648.932 L1411.69 655.476 L1408.36 644.516 L1417.49 637.588 L1406.04 637.348 L1402.28 626.532 Z" fill="#009af9" fill-rule="evenodd" fill-opacity="1" stroke="#000000" stroke-opacity="1" stroke-width="3.2"/>
<path clip-path="url(#clip602)" d="M1501.29 677.073 L1497.53 687.889 L1486.07 688.129 L1495.21 695.057 L1491.88 706.017 L1501.29 699.473 L1510.69 706.017 L1507.37 695.057 L1516.5 688.129 L1505.05 687.889 L1501.29 677.073 Z" fill="#009af9" fill-rule="evenodd" fill-opacity="1" stroke="#000000" stroke-opacity="1" stroke-width="3.2"/>
<path clip-path="url(#clip602)" d="M1600.29 727.639 L1596.53 738.455 L1585.08 738.695 L1594.21 745.623 L1590.89 756.583 L1600.29 750.039 L1609.7 756.583 L1606.37 745.623 L1615.51 738.695 L1604.05 738.455 L1600.29 727.639 Z" fill="#009af9" fill-rule="evenodd" fill-opacity="1" stroke="#000000" stroke-opacity="1" stroke-width="3.2"/>
<path clip-path="url(#clip602)" d="M1699.3 778.206 L1695.54 789.022 L1684.09 789.262 L1693.22 796.19 L1689.89 807.15 L1699.3 800.606 L1708.71 807.15 L1705.38 796.19 L1714.52 789.262 L1703.06 789.022 L1699.3 778.206 Z" fill="#009af9" fill-rule="evenodd" fill-opacity="1" stroke="#000000" stroke-opacity="1" stroke-width="3.2"/>
<path clip-path="url(#clip602)" d="M1798.31 828.771 L1794.55 839.587 L1783.09 839.827 L1792.23 846.755 L1788.9 857.715 L1798.31 851.171 L1807.72 857.715 L1804.39 846.755 L1813.53 839.827 L1802.07 839.587 L1798.31 828.771 Z" fill="#009af9" fill-rule="evenodd" fill-opacity="1" stroke="#000000" stroke-opacity="1" stroke-width="3.2"/>
<path clip-path="url(#clip602)" d="M1897.32 879.307 L1893.56 890.123 L1882.1 890.363 L1891.24 897.291 L1887.91 908.251 L1897.32 901.707 L1906.73 908.251 L1903.4 897.291 L1912.53 890.363 L1901.08 890.123 L1897.32 879.307 Z" fill="#009af9" fill-rule="evenodd" fill-opacity="1" stroke="#000000" stroke-opacity="1" stroke-width="3.2"/>
<path clip-path="url(#clip602)" d="M1996.33 929.873 L1992.57 940.689 L1981.11 940.929 L1990.25 947.857 L1986.92 958.817 L1996.33 952.273 L2005.73 958.817 L2002.41 947.857 L2011.54 940.929 L2000.09 940.689 L1996.33 929.873 Z" fill="#009af9" fill-rule="evenodd" fill-opacity="1" stroke="#000000" stroke-opacity="1" stroke-width="3.2"/>
<path clip-path="url(#clip602)" d="M2095.33 980.451 L2091.57 991.267 L2080.12 991.507 L2089.25 998.435 L2085.93 1009.4 L2095.33 1002.85 L2104.74 1009.4 L2101.41 998.435 L2110.55 991.507 L2099.09 991.267 L2095.33 980.451 Z" fill="#009af9" fill-rule="evenodd" fill-opacity="1" stroke="#000000" stroke-opacity="1" stroke-width="3.2"/>
<path clip-path="url(#clip602)" d="M2194.34 1030.97 L2190.58 1041.79 L2179.13 1042.03 L2188.26 1048.95 L2184.94 1059.91 L2194.34 1053.37 L2203.75 1059.91 L2200.42 1048.95 L2209.56 1042.03 L2198.1 1041.79 L2194.34 1030.97 Z" fill="#009af9" fill-rule="evenodd" fill-opacity="1" stroke="#000000" stroke-opacity="1" stroke-width="3.2"/>
<path clip-path="url(#clip602)" d="M2293.35 1081.62 L2289.59 1092.43 L2278.14 1092.67 L2287.27 1099.6 L2283.94 1110.56 L2293.35 1104.02 L2302.76 1110.56 L2299.43 1099.6 L2308.57 1092.67 L2297.11 1092.43 L2293.35 1081.62 Z" fill="#009af9" fill-rule="evenodd" fill-opacity="1" stroke="#000000" stroke-opacity="1" stroke-width="3.2"/>
<polyline clip-path="url(#clip602)" style="stroke:#000000; stroke-linecap:round; stroke-linejoin:round; stroke-width:8; stroke-opacity:1; fill:none" stroke-dasharray="32, 16, 4, 16" points="313.19,86.3079 412.198,194.959 511.206,286.726 610.214,374.257 709.222,462.952 808.23,551.545 907.238,636.133 1006.25,711.712 1105.25,776.871 1204.26,834.384 1303.27,883.726 1402.28,924.689 1501.29,957.781 1600.29,983.868 1699.3,1003.9 1798.31,1018.89 1897.32,1029.99 1996.33,1038.15 2095.33,1044.22 2194.34,1048.62 2293.35,1051.79 "/>
<circle clip-path="url(#clip602)" cx="313.19" cy="86.3079" r="14.4" fill="#e26f46" fill-rule="evenodd" fill-opacity="1" stroke="#000000" stroke-opacity="1" stroke-width="3.2"/>
<circle clip-path="url(#clip602)" cx="412.198" cy="194.959" r="14.4" fill="#e26f46" fill-rule="evenodd" fill-opacity="1" stroke="#000000" stroke-opacity="1" stroke-width="3.2"/>
<circle clip-path="url(#clip602)" cx="511.206" cy="286.726" r="14.4" fill="#e26f46" fill-rule="evenodd" fill-opacity="1" stroke="#000000" stroke-opacity="1" stroke-width="3.2"/>
<circle clip-path="url(#clip602)" cx="610.214" cy="374.257" r="14.4" fill="#e26f46" fill-rule="evenodd" fill-opacity="1" stroke="#000000" stroke-opacity="1" stroke-width="3.2"/>
<circle clip-path="url(#clip602)" cx="709.222" cy="462.952" r="14.4" fill="#e26f46" fill-rule="evenodd" fill-opacity="1" stroke="#000000" stroke-opacity="1" stroke-width="3.2"/>
<circle clip-path="url(#clip602)" cx="808.23" cy="551.545" r="14.4" fill="#e26f46" fill-rule="evenodd" fill-opacity="1" stroke="#000000" stroke-opacity="1" stroke-width="3.2"/>
<circle clip-path="url(#clip602)" cx="907.238" cy="636.133" r="14.4" fill="#e26f46" fill-rule="evenodd" fill-opacity="1" stroke="#000000" stroke-opacity="1" stroke-width="3.2"/>
<circle clip-path="url(#clip602)" cx="1006.25" cy="711.712" r="14.4" fill="#e26f46" fill-rule="evenodd" fill-opacity="1" stroke="#000000" stroke-opacity="1" stroke-width="3.2"/>
<circle clip-path="url(#clip602)" cx="1105.25" cy="776.871" r="14.4" fill="#e26f46" fill-rule="evenodd" fill-opacity="1" stroke="#000000" stroke-opacity="1" stroke-width="3.2"/>
<circle clip-path="url(#clip602)" cx="1204.26" cy="834.384" r="14.4" fill="#e26f46" fill-rule="evenodd" fill-opacity="1" stroke="#000000" stroke-opacity="1" stroke-width="3.2"/>
<circle clip-path="url(#clip602)" cx="1303.27" cy="883.726" r="14.4" fill="#e26f46" fill-rule="evenodd" fill-opacity="1" stroke="#000000" stroke-opacity="1" stroke-width="3.2"/>
<circle clip-path="url(#clip602)" cx="1402.28" cy="924.689" r="14.4" fill="#e26f46" fill-rule="evenodd" fill-opacity="1" stroke="#000000" stroke-opacity="1" stroke-width="3.2"/>
<circle clip-path="url(#clip602)" cx="1501.29" cy="957.781" r="14.4" fill="#e26f46" fill-rule="evenodd" fill-opacity="1" stroke="#000000" stroke-opacity="1" stroke-width="3.2"/>
<circle clip-path="url(#clip602)" cx="1600.29" cy="983.868" r="14.4" fill="#e26f46" fill-rule="evenodd" fill-opacity="1" stroke="#000000" stroke-opacity="1" stroke-width="3.2"/>
<circle clip-path="url(#clip602)" cx="1699.3" cy="1003.9" r="14.4" fill="#e26f46" fill-rule="evenodd" fill-opacity="1" stroke="#000000" stroke-opacity="1" stroke-width="3.2"/>
<circle clip-path="url(#clip602)" cx="1798.31" cy="1018.89" r="14.4" fill="#e26f46" fill-rule="evenodd" fill-opacity="1" stroke="#000000" stroke-opacity="1" stroke-width="3.2"/>
<circle clip-path="url(#clip602)" cx="1897.32" cy="1029.99" r="14.4" fill="#e26f46" fill-rule="evenodd" fill-opacity="1" stroke="#000000" stroke-opacity="1" stroke-width="3.2"/>
<circle clip-path="url(#clip602)" cx="1996.33" cy="1038.15" r="14.4" fill="#e26f46" fill-rule="evenodd" fill-opacity="1" stroke="#000000" stroke-opacity="1" stroke-width="3.2"/>
<circle clip-path="url(#clip602)" cx="2095.33" cy="1044.22" r="14.4" fill="#e26f46" fill-rule="evenodd" fill-opacity="1" stroke="#000000" stroke-opacity="1" stroke-width="3.2"/>
<circle clip-path="url(#clip602)" cx="2194.34" cy="1048.62" r="14.4" fill="#e26f46" fill-rule="evenodd" fill-opacity="1" stroke="#000000" stroke-opacity="1" stroke-width="3.2"/>
<circle clip-path="url(#clip602)" cx="2293.35" cy="1051.79" r="14.4" fill="#e26f46" fill-rule="evenodd" fill-opacity="1" stroke="#000000" stroke-opacity="1" stroke-width="3.2"/>
<polyline clip-path="url(#clip602)" style="stroke:#0000ff; stroke-linecap:round; stroke-linejoin:round; stroke-width:8; stroke-opacity:1; fill:none" stroke-dasharray="32, 16, 4, 16" points="313.19,86.3079 412.198,194.959 511.206,286.726 610.214,374.257 709.222,462.952 808.23,551.545 907.238,636.133 1006.25,711.712 1105.25,776.889 1204.26,834.952 1303.27,883.156 1402.28,929.578 1501.29,978.674 1600.29,1030.57 1699.3,1082.64 1798.31,1134.12 1897.32,1185.23 1996.33,1236.02 2095.33,1286.84 2194.34,1337.54 2293.35,1388.44 "/>
<path clip-path="url(#clip602)" d="M313.19 70.3079 L309.43 81.1239 L297.974 81.3639 L307.11 88.2919 L303.782 99.2519 L313.19 92.7079 L322.598 99.2519 L319.27 88.2919 L328.406 81.3639 L316.95 81.1239 L313.19 70.3079 Z" fill="#3da44d" fill-rule="evenodd" fill-opacity="1" stroke="#000000" stroke-opacity="1" stroke-width="3.2"/>
<path clip-path="url(#clip602)" d="M412.198 178.959 L408.438 189.775 L396.982 190.015 L406.118 196.943 L402.79 207.903 L412.198 201.359 L421.606 207.903 L418.278 196.943 L427.414 190.015 L415.958 189.775 L412.198 178.959 Z" fill="#3da44d" fill-rule="evenodd" fill-opacity="1" stroke="#000000" stroke-opacity="1" stroke-width="3.2"/>
<path clip-path="url(#clip602)" d="M511.206 270.726 L507.446 281.542 L495.99 281.782 L505.126 288.71 L501.798 299.67 L511.206 293.126 L520.614 299.67 L517.286 288.71 L526.422 281.782 L514.966 281.542 L511.206 270.726 Z" fill="#3da44d" fill-rule="evenodd" fill-opacity="1" stroke="#000000" stroke-opacity="1" stroke-width="3.2"/>
<path clip-path="url(#clip602)" d="M610.214 358.257 L606.454 369.073 L594.998 369.313 L604.134 376.241 L600.806 387.201 L610.214 380.657 L619.622 387.201 L616.294 376.241 L625.43 369.313 L613.974 369.073 L610.214 358.257 Z" fill="#3da44d" fill-rule="evenodd" fill-opacity="1" stroke="#000000" stroke-opacity="1" stroke-width="3.2"/>
<path clip-path="url(#clip602)" d="M709.222 446.952 L705.462 457.768 L694.006 458.008 L703.142 464.936 L699.814 475.896 L709.222 469.352 L718.63 475.896 L715.302 464.936 L724.438 458.008 L712.982 457.768 L709.222 446.952 Z" fill="#3da44d" fill-rule="evenodd" fill-opacity="1" stroke="#000000" stroke-opacity="1" stroke-width="3.2"/>
<path clip-path="url(#clip602)" d="M808.23 535.545 L804.47 546.361 L793.014 546.601 L802.15 553.529 L798.822 564.489 L808.23 557.945 L817.638 564.489 L814.31 553.529 L823.446 546.601 L811.99 546.361 L808.23 535.545 Z" fill="#3da44d" fill-rule="evenodd" fill-opacity="1" stroke="#000000" stroke-opacity="1" stroke-width="3.2"/>
<path clip-path="url(#clip602)" d="M907.238 620.133 L903.478 630.949 L892.022 631.189 L901.158 638.117 L897.83 649.077 L907.238 642.533 L916.646 649.077 L913.318 638.117 L922.454 631.189 L910.998 630.949 L907.238 620.133 Z" fill="#3da44d" fill-rule="evenodd" fill-opacity="1" stroke="#000000" stroke-opacity="1" stroke-width="3.2"/>
<path clip-path="url(#clip602)" d="M1006.25 695.712 L1002.49 706.528 L991.03 706.768 L1000.17 713.696 L996.838 724.656 L1006.25 718.112 L1015.65 724.656 L1012.33 713.696 L1021.46 706.768 L1010.01 706.528 L1006.25 695.712 Z" fill="#3da44d" fill-rule="evenodd" fill-opacity="1" stroke="#000000" stroke-opacity="1" stroke-width="3.2"/>
<path clip-path="url(#clip602)" d="M1105.25 760.889 L1101.49 771.705 L1090.04 771.945 L1099.17 778.873 L1095.85 789.833 L1105.25 783.289 L1114.66 789.833 L1111.33 778.873 L1120.47 771.945 L1109.01 771.705 L1105.25 760.889 Z" fill="#3da44d" fill-rule="evenodd" fill-opacity="1" stroke="#000000" stroke-opacity="1" stroke-width="3.2"/>
<path clip-path="url(#clip602)" d="M1204.26 818.952 L1200.5 829.768 L1189.05 830.008 L1198.18 836.936 L1194.85 847.896 L1204.26 841.352 L1213.67 847.896 L1210.34 836.936 L1219.48 830.008 L1208.02 829.768 L1204.26 818.952 Z" fill="#3da44d" fill-rule="evenodd" fill-opacity="1" stroke="#000000" stroke-opacity="1" stroke-width="3.2"/>
<path clip-path="url(#clip602)" d="M1303.27 867.156 L1299.51 877.972 L1288.05 878.212 L1297.19 885.14 L1293.86 896.1 L1303.27 889.556 L1312.68 896.1 L1309.35 885.14 L1318.49 878.212 L1307.03 877.972 L1303.27 867.156 Z" fill="#3da44d" fill-rule="evenodd" fill-opacity="1" stroke="#000000" stroke-opacity="1" stroke-width="3.2"/>
<path clip-path="url(#clip602)" d="M1402.28 913.578 L1398.52 924.394 L1387.06 924.634 L1396.2 931.562 L1392.87 942.522 L1402.28 935.978 L1411.69 942.522 L1408.36 931.562 L1417.49 924.634 L1406.04 924.394 L1402.28 913.578 Z" fill="#3da44d" fill-rule="evenodd" fill-opacity="1" stroke="#000000" stroke-opacity="1" stroke-width="3.2"/>
<path clip-path="url(#clip602)" d="M1501.29 962.674 L1497.53 973.49 L1486.07 973.73 L1495.21 980.658 L1491.88 991.618 L1501.29 985.074 L1510.69 991.618 L1507.37 980.658 L1516.5 973.73 L1505.05 973.49 L1501.29 962.674 Z" fill="#3da44d" fill-rule="evenodd" fill-opacity="1" stroke="#000000" stroke-opacity="1" stroke-width="3.2"/>
<path clip-path="url(#clip602)" d="M1600.29 1014.57 L1596.53 1025.39 L1585.08 1025.63 L1594.21 1032.55 L1590.89 1043.51 L1600.29 1036.97 L1609.7 1043.51 L1606.37 1032.55 L1615.51 1025.63 L1604.05 1025.39 L1600.29 1014.57 Z" fill="#3da44d" fill-rule="evenodd" fill-opacity="1" stroke="#000000" stroke-opacity="1" stroke-width="3.2"/>
<path clip-path="url(#clip602)" d="M1699.3 1066.64 L1695.54 1077.46 L1684.09 1077.7 L1693.22 1084.63 L1689.89 1095.59 L1699.3 1089.04 L1708.71 1095.59 L1705.38 1084.63 L1714.52 1077.7 L1703.06 1077.46 L1699.3 1066.64 Z" fill="#3da44d" fill-rule="evenodd" fill-opacity="1" stroke="#000000" stroke-opacity="1" stroke-width="3.2"/>
<path clip-path="url(#clip602)" d="M1798.31 1118.12 L1794.55 1128.93 L1783.09 1129.17 L1792.23 1136.1 L1788.9 1147.06 L1798.31 1140.52 L1807.72 1147.06 L1804.39 1136.1 L1813.53 1129.17 L1802.07 1128.93 L1798.31 1118.12 Z" fill="#3da44d" fill-rule="evenodd" fill-opacity="1" stroke="#000000" stroke-opacity="1" stroke-width="3.2"/>
<path clip-path="url(#clip602)" d="M1897.32 1169.23 L1893.56 1180.04 L1882.1 1180.28 L1891.24 1187.21 L1887.91 1198.17 L1897.32 1191.63 L1906.73 1198.17 L1903.4 1187.21 L1912.53 1180.28 L1901.08 1180.04 L1897.32 1169.23 Z" fill="#3da44d" fill-rule="evenodd" fill-opacity="1" stroke="#000000" stroke-opacity="1" stroke-width="3.2"/>
<path clip-path="url(#clip602)" d="M1996.33 1220.02 L1992.57 1230.83 L1981.11 1231.07 L1990.25 1238 L1986.92 1248.96 L1996.33 1242.42 L2005.73 1248.96 L2002.41 1238 L2011.54 1231.07 L2000.09 1230.83 L1996.33 1220.02 Z" fill="#3da44d" fill-rule="evenodd" fill-opacity="1" stroke="#000000" stroke-opacity="1" stroke-width="3.2"/>
<path clip-path="url(#clip602)" d="M2095.33 1270.84 L2091.57 1281.65 L2080.12 1281.89 L2089.25 1288.82 L2085.93 1299.78 L2095.33 1293.24 L2104.74 1299.78 L2101.41 1288.82 L2110.55 1281.89 L2099.09 1281.65 L2095.33 1270.84 Z" fill="#3da44d" fill-rule="evenodd" fill-opacity="1" stroke="#000000" stroke-opacity="1" stroke-width="3.2"/>
<path clip-path="url(#clip602)" d="M2194.34 1321.54 L2190.58 1332.36 L2179.13 1332.6 L2188.26 1339.52 L2184.94 1350.48 L2194.34 1343.94 L2203.75 1350.48 L2200.42 1339.52 L2209.56 1332.6 L2198.1 1332.36 L2194.34 1321.54 Z" fill="#3da44d" fill-rule="evenodd" fill-opacity="1" stroke="#000000" stroke-opacity="1" stroke-width="3.2"/>
<path clip-path="url(#clip602)" d="M2293.35 1372.44 L2289.59 1383.25 L2278.14 1383.49 L2287.27 1390.42 L2283.94 1401.38 L2293.35 1394.84 L2302.76 1401.38 L2299.43 1390.42 L2308.57 1383.49 L2297.11 1383.25 L2293.35 1372.44 Z" fill="#3da44d" fill-rule="evenodd" fill-opacity="1" stroke="#000000" stroke-opacity="1" stroke-width="3.2"/>
<path clip-path="url(#clip600)" d="M1804.1 496.038 L2282.79 496.038 L2282.79 93.2526 L1804.1 93.2526  Z" fill="#ffffff" fill-rule="evenodd" fill-opacity="1"/>
<polyline clip-path="url(#clip600)" style="stroke:#000000; stroke-linecap:round; stroke-linejoin:round; stroke-width:4; stroke-opacity:1; fill:none" points="1804.1,496.038 2282.79,496.038 2282.79,93.2526 1804.1,93.2526 1804.1,496.038 "/>
<polyline clip-path="url(#clip600)" style="stroke:#0000ff; stroke-linecap:round; stroke-linejoin:round; stroke-width:8; stroke-opacity:1; fill:none" stroke-dasharray="32, 16, 4, 16" points="1827.42,193.949 1967.35,193.949 "/>
<path clip-path="url(#clip600)" d="M1897.39 182.832 L1894.77 190.347 L1886.81 190.514 L1893.16 195.327 L1890.85 202.943 L1897.39 198.396 L1903.92 202.943 L1901.61 195.327 L1907.96 190.514 L1900 190.347 L1897.39 182.832 Z" fill="#009af9" fill-rule="evenodd" fill-opacity="1" stroke="#000000" stroke-opacity="1" stroke-width="4.55111"/>
<path clip-path="url(#clip600)" d="M2031.05 170.117 Q2031.05 171.077 2030.23 171.077 Q2027.59 171.171 2026.51 172.061 Q2025.46 172.927 2025.06 174.614 L2018.36 201.339 Q2018.13 202.182 2017.98 202.276 Q2017.84 202.346 2017.59 202.346 Q2017.26 202.346 2017.07 202.182 Q2016.91 202.018 2016.67 201.432 L2004.73 173.185 Q2004.63 172.998 2004.52 172.74 Q2004.4 172.482 2004.31 172.318 L1997.96 197.638 Q1997.77 198.364 1997.77 198.739 Q1997.77 199.652 1998.4 200.238 Q1999.06 200.8 2000.93 200.87 Q2001.89 200.87 2001.89 201.386 Q2001.89 202.346 2001.03 202.346 Q2000.23 202.346 1998.57 202.276 Q1996.9 202.205 1996.08 202.205 Q1995.29 202.205 1993.67 202.276 Q1992.06 202.346 1991.28 202.346 Q1990.67 202.346 1990.67 201.807 Q1990.67 201.386 1990.84 201.175 Q1991 200.941 1991.14 200.917 Q1991.28 200.87 1991.49 200.87 Q1992.9 200.823 1993.86 200.542 Q1994.82 200.261 1995.36 199.723 Q1995.92 199.184 1996.18 198.645 Q1996.46 198.083 1996.67 197.263 L2003.09 171.499 Q2003.09 171.077 1999.83 171.077 Q1999.27 171.077 1999.04 171.054 Q1998.83 171.03 1998.66 170.913 Q1998.5 170.796 1998.5 170.538 Q1998.5 169.882 1998.78 169.742 Q1999.06 169.578 1999.88 169.578 L2006.32 169.578 Q2007.14 169.578 2007.35 169.718 Q2007.56 169.836 2007.84 170.491 L2018.45 195.53 L2023.82 174.192 Q2023.96 173.771 2023.96 173.185 Q2023.96 172.248 2023.25 171.686 Q2022.58 171.1 2020.7 171.077 Q2019.84 171.077 2019.84 170.538 Q2019.84 170.093 2020 169.882 Q2020.19 169.648 2020.33 169.625 Q2020.49 169.578 2020.7 169.578 Q2021.5 169.578 2023.14 169.648 Q2024.78 169.718 2025.6 169.718 Q2026.39 169.718 2028.01 169.648 Q2029.65 169.578 2030.45 169.578 Q2030.73 169.578 2030.87 169.718 Q2031.03 169.836 2031.05 169.976 L2031.05 170.117 Z" fill="#000000" fill-rule="nonzero" fill-opacity="1" /><path clip-path="url(#clip600)" d="M2055.42 170.163 Q2055.42 170.608 2055.24 170.819 Q2055.07 171.007 2054.82 171.054 Q2054.56 171.077 2053.88 171.077 Q2052.73 171.077 2052 171.171 Q2051.28 171.241 2050.83 171.358 Q2050.39 171.452 2050.13 171.78 Q2049.9 172.084 2049.78 172.365 Q2049.69 172.646 2049.52 173.279 L2043.1 198.833 Q2042.89 199.582 2042.89 199.957 Q2042.89 200.355 2043.13 200.519 Q2043.36 200.683 2044.11 200.753 Q2045.31 200.87 2046.17 200.87 Q2047.32 200.87 2047.48 201.034 Q2047.6 201.198 2047.6 201.432 Q2047.6 201.854 2047.41 202.088 Q2047.23 202.299 2047.06 202.322 Q2046.92 202.346 2046.64 202.346 L2040.22 202.205 L2033.92 202.346 Q2033.22 202.346 2033.22 201.807 Q2033.22 201.456 2033.27 201.268 Q2033.34 201.058 2033.57 200.987 Q2033.83 200.894 2034.02 200.894 Q2034.2 200.87 2034.74 200.87 Q2035.7 200.87 2036.34 200.847 Q2036.99 200.8 2037.46 200.683 Q2037.95 200.542 2038.19 200.425 Q2038.44 200.285 2038.63 199.98 Q2038.84 199.652 2038.91 199.395 Q2039.01 199.137 2039.12 198.598 L2045.59 172.74 Q2045.68 172.318 2045.68 171.99 Q2045.68 171.358 2044.93 171.217 Q2044.21 171.077 2042.38 171.077 Q2041.82 171.077 2041.58 171.054 Q2041.37 171.03 2041.18 170.913 Q2041.02 170.796 2041.02 170.538 Q2041.02 170.21 2041.11 170 Q2041.21 169.765 2041.37 169.695 Q2041.56 169.625 2041.68 169.601 Q2041.79 169.578 2041.98 169.578 L2048.37 169.718 L2054.7 169.578 Q2055.42 169.578 2055.42 170.163 Z" fill="#000000" fill-rule="nonzero" fill-opacity="1" /><path clip-path="url(#clip600)" d="M2094.81 181.711 Q2094.81 185.575 2093.14 189.37 Q2091.5 193.141 2088.83 195.998 Q2086.19 198.833 2082.6 200.589 Q2079.02 202.346 2075.36 202.346 L2059.48 202.346 Q2058.92 202.346 2058.69 202.322 Q2058.48 202.299 2058.31 202.182 Q2058.15 202.041 2058.15 201.76 Q2058.15 201.315 2058.34 201.128 Q2058.52 200.917 2058.73 200.894 Q2058.95 200.87 2059.48 200.87 Q2060.66 200.87 2061.36 200.8 Q2062.06 200.73 2062.51 200.636 Q2062.97 200.519 2063.21 200.191 Q2063.47 199.863 2063.58 199.582 Q2063.7 199.278 2063.86 198.598 L2070.28 172.834 Q2070.47 172.061 2070.47 171.944 Q2070.47 171.545 2070.24 171.405 Q2070.02 171.241 2069.42 171.171 Q2068.24 171.077 2067.35 171.077 Q2066.77 171.077 2066.53 171.054 Q2066.32 171.03 2066.14 170.913 Q2065.97 170.772 2065.97 170.491 Q2065.97 170.046 2066.16 169.859 Q2066.37 169.648 2066.6 169.625 Q2066.84 169.578 2067.4 169.578 L2083.52 169.578 Q2087.01 169.578 2089.61 171.217 Q2092.21 172.834 2093.49 175.574 Q2094.81 178.291 2094.81 181.711 M2090.61 179.954 Q2090.61 175.48 2088.18 173.279 Q2085.76 171.077 2081.95 171.077 L2076.82 171.077 Q2075.29 171.077 2074.92 171.358 Q2074.54 171.616 2074.22 172.904 L2067.64 199.231 Q2067.4 200.097 2067.4 200.332 Q2067.4 200.589 2067.52 200.683 Q2067.66 200.753 2068.03 200.8 Q2068.46 200.87 2069.09 200.87 L2074.5 200.87 Q2076.58 200.87 2078.48 200.308 Q2080.4 199.723 2081.78 198.809 Q2083.16 197.872 2084.05 197.076 Q2084.94 196.256 2085.58 195.436 Q2087.01 193.586 2088.06 191.173 Q2089.14 188.761 2089.63 186.559 Q2090.14 184.334 2090.38 182.694 Q2090.61 181.031 2090.61 179.954 Z" fill="#000000" fill-rule="nonzero" fill-opacity="1" /><path clip-path="url(#clip600)" d="M2127.07 169.016 L2124.47 179.509 Q2124.33 180.141 2124.21 180.305 Q2124.1 180.469 2123.77 180.469 Q2123.51 180.469 2123.35 180.352 Q2123.21 180.235 2123.21 180.118 L2123.18 180.001 Q2123.18 179.931 2123.23 179.579 Q2123.28 179.205 2123.32 178.596 Q2123.37 177.987 2123.37 177.307 Q2123.37 173.466 2121.5 171.686 Q2119.65 169.882 2116.46 169.882 Q2114.26 169.882 2112.29 171.054 Q2110.33 172.225 2109.2 174.075 Q2108.08 175.902 2108.08 177.823 Q2108.08 179.579 2108.97 180.704 Q2109.86 181.828 2111 182.203 L2114.21 183.069 Q2117.59 183.936 2118.55 184.311 Q2119.51 184.662 2120.3 185.458 Q2122.67 187.66 2122.67 191.08 Q2122.67 194.031 2121.01 196.888 Q2119.34 199.723 2116.49 201.573 Q2113.63 203.4 2110.47 203.4 Q2104.91 203.4 2102.36 199.957 L2100.02 202.674 Q2099.57 203.189 2099.43 203.283 Q2099.32 203.4 2099.15 203.4 Q2098.94 203.4 2098.78 203.259 Q2098.61 203.142 2098.61 202.931 Q2098.61 202.768 2100 197.263 Q2101.38 191.759 2101.49 191.642 Q2101.68 191.454 2101.99 191.454 Q2102.55 191.454 2102.55 191.993 Q2102.5 192.134 2102.46 192.321 Q2102.17 194.008 2102.17 194.921 Q2102.17 196.631 2102.76 197.942 Q2103.35 199.231 2104.21 199.98 Q2105.1 200.706 2106.3 201.175 Q2107.49 201.62 2108.5 201.784 Q2109.51 201.924 2110.56 201.924 Q2112.83 201.924 2114.85 200.613 Q2116.88 199.301 2118.03 197.263 Q2119.2 195.225 2119.2 193.094 Q2119.2 191.97 2118.9 191.103 Q2118.59 190.213 2118.17 189.721 Q2117.77 189.229 2117.09 188.855 Q2116.41 188.48 2115.95 188.339 Q2115.5 188.175 2114.8 188.011 L2109.67 186.653 Q2107.61 186.044 2106.13 184.287 Q2104.68 182.531 2104.68 179.837 Q2104.68 177.003 2106.34 174.38 Q2108.03 171.733 2110.77 170.14 Q2113.53 168.524 2116.51 168.524 Q2118.85 168.524 2120.65 169.437 Q2122.46 170.327 2123.37 171.99 L2125.69 169.25 Q2126.16 168.711 2126.25 168.618 Q2126.37 168.524 2126.53 168.524 Q2126.81 168.524 2126.93 168.688 Q2127.07 168.852 2127.07 169.016 Z" fill="#000000" fill-rule="nonzero" fill-opacity="1" /><path clip-path="url(#clip600)" d="M2172.69 189.674 Q2172.97 189.955 2172.97 190.354 Q2172.97 190.752 2172.69 191.033 Q2172.41 191.314 2172.01 191.314 L2141.99 191.314 Q2141.59 191.314 2141.31 191.033 Q2141.03 190.752 2141.03 190.354 Q2141.03 189.955 2141.31 189.674 Q2141.59 189.393 2141.99 189.393 L2172.01 189.393 Q2172.41 189.393 2172.69 189.674 Z" fill="#000000" fill-rule="nonzero" fill-opacity="1" /><path clip-path="url(#clip600)" d="M2208.52 151.562 L2208.52 150.063 Q2214.28 150.063 2217.25 146.995 Q2218.07 146.995 2218.21 147.182 Q2218.36 147.37 2218.36 148.236 L2218.36 175.149 Q2218.36 176.577 2219.06 177.022 Q2219.76 177.467 2222.83 177.467 L2224.35 177.467 L2224.35 178.943 Q2222.67 178.803 2216.58 178.803 Q2210.49 178.803 2208.82 178.943 L2208.82 177.467 L2210.34 177.467 Q2213.37 177.467 2214.09 177.046 Q2214.82 176.601 2214.82 175.149 L2214.82 150.297 Q2212.31 151.562 2208.52 151.562 Z" fill="#000000" fill-rule="nonzero" fill-opacity="1" /><path clip-path="url(#clip600)" d="M2201.52 191.743 L2235.33 191.743 L2235.33 189.183 L2201.52 189.183  Z" fill="#000000" fill-rule="evenodd" fill-opacity="1"/>
<path clip-path="url(#clip600)" d="M2224.87 202.822 L2212.76 202.822 L2212.76 201.773 L2224.87 201.773 L2224.87 202.822 Z" fill="#000000" fill-rule="nonzero" fill-opacity="1" /><path clip-path="url(#clip600)" d="M2230.49 228.744 Q2230.49 228.884 2230.3 229.423 L2226.51 239.775 Q2226.3 240.384 2226.09 240.502 Q2225.88 240.595 2225.01 240.595 L2202.81 240.595 Q2202.27 240.595 2202.06 240.572 Q2201.85 240.548 2201.68 240.431 Q2201.52 240.314 2201.52 240.057 Q2201.52 239.588 2201.68 239.377 Q2201.87 239.167 2202.08 239.143 Q2202.29 239.12 2202.81 239.12 Q2203.98 239.12 2204.68 239.049 Q2205.38 238.979 2205.83 238.885 Q2206.3 238.768 2206.53 238.44 Q2206.79 238.112 2206.91 237.831 Q2207.02 237.527 2207.19 236.848 L2213.6 211.083 Q2213.79 210.31 2213.79 210.193 Q2213.79 209.748 2213.51 209.631 Q2213.25 209.49 2212.5 209.42 L2210.68 209.326 Q2210.11 209.326 2209.88 209.303 Q2209.67 209.279 2209.51 209.162 Q2209.34 209.045 2209.34 208.788 Q2209.34 208.343 2209.51 208.132 Q2209.69 207.898 2209.83 207.874 Q2210 207.827 2210.25 207.827 L2216.63 207.968 L2223.72 207.827 Q2224.5 207.827 2224.5 208.413 Q2224.5 209.069 2224.17 209.209 Q2223.84 209.326 2222.67 209.326 Q2220.42 209.326 2219.39 209.561 Q2218.38 209.795 2218.1 210.193 Q2217.84 210.568 2217.59 211.575 L2211.1 237.48 Q2210.86 238.347 2210.86 238.581 Q2210.86 238.839 2210.98 238.932 Q2211.12 239.003 2211.5 239.049 Q2211.92 239.12 2212.55 239.12 L2217.05 239.12 Q2218.41 239.12 2219.6 238.909 Q2220.79 238.698 2221.71 238.394 Q2222.65 238.089 2223.49 237.527 Q2224.33 236.965 2224.92 236.473 Q2225.53 235.958 2226.11 235.161 Q2226.72 234.341 2227.07 233.779 Q2227.45 233.194 2227.87 232.257 Q2228.29 231.297 2228.5 230.758 Q2228.73 230.196 2229.09 229.235 Q2229.3 228.744 2229.37 228.603 Q2229.44 228.462 2229.55 228.345 Q2229.7 228.228 2229.91 228.228 Q2230.19 228.228 2230.33 228.392 Q2230.49 228.556 2230.49 228.744 Z" fill="#000000" fill-rule="nonzero" fill-opacity="1" /><polyline clip-path="url(#clip600)" style="stroke:#000000; stroke-linecap:round; stroke-linejoin:round; stroke-width:8; stroke-opacity:1; fill:none" stroke-dasharray="32, 16, 4, 16" points="1827.42,294.645 1967.35,294.645 "/>
<circle clip-path="url(#clip600)" cx="1897.39" cy="294.645" r="10.0054" fill="#e26f46" fill-rule="evenodd" fill-opacity="1" stroke="#000000" stroke-opacity="1" stroke-width="4.55111"/>
<path clip-path="url(#clip600)" d="M2031.05 267.111 Q2031.05 268.071 2030.23 268.071 Q2027.59 268.165 2026.51 269.055 Q2025.46 269.922 2025.06 271.608 L2018.36 298.333 Q2018.13 299.176 2017.98 299.27 Q2017.84 299.34 2017.59 299.34 Q2017.26 299.34 2017.07 299.176 Q2016.91 299.013 2016.67 298.427 L2004.73 270.179 Q2004.63 269.992 2004.52 269.734 Q2004.4 269.477 2004.31 269.313 L1997.96 294.633 Q1997.77 295.359 1997.77 295.733 Q1997.77 296.647 1998.4 297.232 Q1999.06 297.795 2000.93 297.865 Q2001.89 297.865 2001.89 298.38 Q2001.89 299.34 2001.03 299.34 Q2000.23 299.34 1998.57 299.27 Q1996.9 299.2 1996.08 299.2 Q1995.29 299.2 1993.67 299.27 Q1992.06 299.34 1991.28 299.34 Q1990.67 299.34 1990.67 298.802 Q1990.67 298.38 1990.84 298.169 Q1991 297.935 1991.14 297.912 Q1991.28 297.865 1991.49 297.865 Q1992.9 297.818 1993.86 297.537 Q1994.82 297.256 1995.36 296.717 Q1995.92 296.178 1996.18 295.64 Q1996.46 295.078 1996.67 294.258 L2003.09 268.493 Q2003.09 268.071 1999.83 268.071 Q1999.27 268.071 1999.04 268.048 Q1998.83 268.025 1998.66 267.908 Q1998.5 267.79 1998.5 267.533 Q1998.5 266.877 1998.78 266.736 Q1999.06 266.572 1999.88 266.572 L2006.32 266.572 Q2007.14 266.572 2007.35 266.713 Q2007.56 266.83 2007.84 267.486 L2018.45 292.525 L2023.82 271.187 Q2023.96 270.765 2023.96 270.179 Q2023.96 269.243 2023.25 268.68 Q2022.58 268.095 2020.7 268.071 Q2019.84 268.071 2019.84 267.533 Q2019.84 267.088 2020 266.877 Q2020.19 266.643 2020.33 266.619 Q2020.49 266.572 2020.7 266.572 Q2021.5 266.572 2023.14 266.643 Q2024.78 266.713 2025.6 266.713 Q2026.39 266.713 2028.01 266.643 Q2029.65 266.572 2030.45 266.572 Q2030.73 266.572 2030.87 266.713 Q2031.03 266.83 2031.05 266.971 L2031.05 267.111 Z" fill="#000000" fill-rule="nonzero" fill-opacity="1" /><path clip-path="url(#clip600)" d="M2055.42 267.158 Q2055.42 267.603 2055.24 267.814 Q2055.07 268.001 2054.82 268.048 Q2054.56 268.071 2053.88 268.071 Q2052.73 268.071 2052 268.165 Q2051.28 268.235 2050.83 268.353 Q2050.39 268.446 2050.13 268.774 Q2049.9 269.079 2049.78 269.36 Q2049.69 269.641 2049.52 270.273 L2043.1 295.827 Q2042.89 296.577 2042.89 296.951 Q2042.89 297.35 2043.13 297.513 Q2043.36 297.677 2044.11 297.748 Q2045.31 297.865 2046.17 297.865 Q2047.32 297.865 2047.48 298.029 Q2047.6 298.193 2047.6 298.427 Q2047.6 298.849 2047.41 299.083 Q2047.23 299.294 2047.06 299.317 Q2046.92 299.34 2046.64 299.34 L2040.22 299.2 L2033.92 299.34 Q2033.22 299.34 2033.22 298.802 Q2033.22 298.45 2033.27 298.263 Q2033.34 298.052 2033.57 297.982 Q2033.83 297.888 2034.02 297.888 Q2034.2 297.865 2034.74 297.865 Q2035.7 297.865 2036.34 297.841 Q2036.99 297.795 2037.46 297.677 Q2037.95 297.537 2038.19 297.42 Q2038.44 297.279 2038.63 296.975 Q2038.84 296.647 2038.91 296.389 Q2039.01 296.132 2039.12 295.593 L2045.59 269.734 Q2045.68 269.313 2045.68 268.985 Q2045.68 268.353 2044.93 268.212 Q2044.21 268.071 2042.38 268.071 Q2041.82 268.071 2041.58 268.048 Q2041.37 268.025 2041.18 267.908 Q2041.02 267.79 2041.02 267.533 Q2041.02 267.205 2041.11 266.994 Q2041.21 266.76 2041.37 266.69 Q2041.56 266.619 2041.68 266.596 Q2041.79 266.572 2041.98 266.572 L2048.37 266.713 L2054.7 266.572 Q2055.42 266.572 2055.42 267.158 Z" fill="#000000" fill-rule="nonzero" fill-opacity="1" /><path clip-path="url(#clip600)" d="M2094.81 278.705 Q2094.81 282.57 2093.14 286.364 Q2091.5 290.135 2088.83 292.993 Q2086.19 295.827 2082.6 297.584 Q2079.02 299.34 2075.36 299.34 L2059.48 299.34 Q2058.92 299.34 2058.69 299.317 Q2058.48 299.294 2058.31 299.176 Q2058.15 299.036 2058.15 298.755 Q2058.15 298.31 2058.34 298.122 Q2058.52 297.912 2058.73 297.888 Q2058.95 297.865 2059.48 297.865 Q2060.66 297.865 2061.36 297.795 Q2062.06 297.724 2062.51 297.631 Q2062.97 297.513 2063.21 297.186 Q2063.47 296.858 2063.58 296.577 Q2063.7 296.272 2063.86 295.593 L2070.28 269.828 Q2070.47 269.055 2070.47 268.938 Q2070.47 268.54 2070.24 268.399 Q2070.02 268.235 2069.42 268.165 Q2068.24 268.071 2067.35 268.071 Q2066.77 268.071 2066.53 268.048 Q2066.32 268.025 2066.14 267.908 Q2065.97 267.767 2065.97 267.486 Q2065.97 267.041 2066.16 266.854 Q2066.37 266.643 2066.6 266.619 Q2066.84 266.572 2067.4 266.572 L2083.52 266.572 Q2087.01 266.572 2089.61 268.212 Q2092.21 269.828 2093.49 272.569 Q2094.81 275.286 2094.81 278.705 M2090.61 276.949 Q2090.61 272.475 2088.18 270.273 Q2085.76 268.071 2081.95 268.071 L2076.82 268.071 Q2075.29 268.071 2074.92 268.353 Q2074.54 268.61 2074.22 269.898 L2067.64 296.225 Q2067.4 297.092 2067.4 297.326 Q2067.4 297.584 2067.52 297.677 Q2067.66 297.748 2068.03 297.795 Q2068.46 297.865 2069.09 297.865 L2074.5 297.865 Q2076.58 297.865 2078.48 297.303 Q2080.4 296.717 2081.78 295.804 Q2083.16 294.867 2084.05 294.07 Q2084.94 293.251 2085.58 292.431 Q2087.01 290.58 2088.06 288.168 Q2089.14 285.755 2089.63 283.554 Q2090.14 281.329 2090.38 279.689 Q2090.61 278.026 2090.61 276.949 Z" fill="#000000" fill-rule="nonzero" fill-opacity="1" /><path clip-path="url(#clip600)" d="M2127.07 266.01 L2124.47 276.504 Q2124.33 277.136 2124.21 277.3 Q2124.1 277.464 2123.77 277.464 Q2123.51 277.464 2123.35 277.347 Q2123.21 277.23 2123.21 277.113 L2123.18 276.995 Q2123.18 276.925 2123.23 276.574 Q2123.28 276.199 2123.32 275.59 Q2123.37 274.981 2123.37 274.302 Q2123.37 270.461 2121.5 268.68 Q2119.65 266.877 2116.46 266.877 Q2114.26 266.877 2112.29 268.048 Q2110.33 269.219 2109.2 271.07 Q2108.08 272.896 2108.08 274.817 Q2108.08 276.574 2108.97 277.698 Q2109.86 278.822 2111 279.197 L2114.21 280.064 Q2117.59 280.93 2118.55 281.305 Q2119.51 281.656 2120.3 282.453 Q2122.67 284.655 2122.67 288.074 Q2122.67 291.025 2121.01 293.883 Q2119.34 296.717 2116.49 298.567 Q2113.63 300.394 2110.47 300.394 Q2104.91 300.394 2102.36 296.951 L2100.02 299.668 Q2099.57 300.184 2099.43 300.277 Q2099.32 300.394 2099.15 300.394 Q2098.94 300.394 2098.78 300.254 Q2098.61 300.137 2098.61 299.926 Q2098.61 299.762 2100 294.258 Q2101.38 288.753 2101.49 288.636 Q2101.68 288.449 2101.99 288.449 Q2102.55 288.449 2102.55 288.988 Q2102.5 289.128 2102.46 289.316 Q2102.17 291.002 2102.17 291.916 Q2102.17 293.625 2102.76 294.937 Q2103.35 296.225 2104.21 296.975 Q2105.1 297.701 2106.3 298.169 Q2107.49 298.614 2108.5 298.778 Q2109.51 298.919 2110.56 298.919 Q2112.83 298.919 2114.85 297.607 Q2116.88 296.296 2118.03 294.258 Q2119.2 292.22 2119.2 290.089 Q2119.2 288.964 2118.9 288.098 Q2118.59 287.208 2118.17 286.716 Q2117.77 286.224 2117.09 285.849 Q2116.41 285.474 2115.95 285.334 Q2115.5 285.17 2114.8 285.006 L2109.67 283.647 Q2107.61 283.038 2106.13 281.282 Q2104.68 279.525 2104.68 276.831 Q2104.68 273.997 2106.34 271.374 Q2108.03 268.727 2110.77 267.135 Q2113.53 265.518 2116.51 265.518 Q2118.85 265.518 2120.65 266.432 Q2122.46 267.322 2123.37 268.985 L2125.69 266.245 Q2126.16 265.706 2126.25 265.612 Q2126.37 265.518 2126.53 265.518 Q2126.81 265.518 2126.93 265.682 Q2127.07 265.846 2127.07 266.01 Z" fill="#000000" fill-rule="nonzero" fill-opacity="1" /><path clip-path="url(#clip600)" d="M2172.69 286.669 Q2172.97 286.95 2172.97 287.348 Q2172.97 287.746 2172.69 288.027 Q2172.41 288.308 2172.01 288.308 L2141.99 288.308 Q2141.59 288.308 2141.31 288.027 Q2141.03 287.746 2141.03 287.348 Q2141.03 286.95 2141.31 286.669 Q2141.59 286.388 2141.99 286.388 L2172.01 286.388 Q2172.41 286.388 2172.69 286.669 Z" fill="#000000" fill-rule="nonzero" fill-opacity="1" /><path clip-path="url(#clip600)" d="M2217.52 248.557 L2217.52 247.058 Q2223.28 247.058 2226.25 243.989 Q2227.07 243.989 2227.21 244.177 Q2227.36 244.364 2227.36 245.231 L2227.36 272.143 Q2227.36 273.572 2228.06 274.017 Q2228.76 274.462 2231.83 274.462 L2233.35 274.462 L2233.35 275.938 Q2231.67 275.797 2225.58 275.797 Q2219.49 275.797 2217.82 275.938 L2217.82 274.462 L2219.34 274.462 Q2222.37 274.462 2223.09 274.04 Q2223.82 273.595 2223.82 272.143 L2223.82 247.292 Q2221.31 248.557 2217.52 248.557 Z" fill="#000000" fill-rule="nonzero" fill-opacity="1" /><path clip-path="url(#clip600)" d="M2201.52 288.738 L2254.35 288.738 L2254.35 286.178 L2201.52 286.178  Z" fill="#000000" fill-rule="evenodd" fill-opacity="1"/>
<path clip-path="url(#clip600)" d="M2230.49 319.579 Q2230.49 319.72 2230.3 320.258 L2226.51 330.611 Q2226.3 331.22 2226.09 331.337 Q2225.88 331.431 2225.01 331.431 L2202.81 331.431 Q2202.27 331.431 2202.06 331.407 Q2201.85 331.384 2201.68 331.267 Q2201.52 331.15 2201.52 330.892 Q2201.52 330.424 2201.68 330.213 Q2201.87 330.002 2202.08 329.979 Q2202.29 329.955 2202.81 329.955 Q2203.98 329.955 2204.68 329.885 Q2205.38 329.815 2205.83 329.721 Q2206.3 329.604 2206.53 329.276 Q2206.79 328.948 2206.91 328.667 Q2207.02 328.362 2207.19 327.683 L2213.6 301.918 Q2213.79 301.146 2213.79 301.028 Q2213.79 300.583 2213.51 300.466 Q2213.25 300.326 2212.5 300.255 L2210.68 300.162 Q2210.11 300.162 2209.88 300.138 Q2209.67 300.115 2209.51 299.998 Q2209.34 299.881 2209.34 299.623 Q2209.34 299.178 2209.51 298.967 Q2209.69 298.733 2209.83 298.71 Q2210 298.663 2210.25 298.663 L2216.63 298.803 L2223.72 298.663 Q2224.5 298.663 2224.5 299.248 Q2224.5 299.904 2224.17 300.045 Q2223.84 300.162 2222.67 300.162 Q2220.42 300.162 2219.39 300.396 Q2218.38 300.63 2218.1 301.028 Q2217.84 301.403 2217.59 302.41 L2211.1 328.316 Q2210.86 329.182 2210.86 329.416 Q2210.86 329.674 2210.98 329.768 Q2211.12 329.838 2211.5 329.885 Q2211.92 329.955 2212.55 329.955 L2217.05 329.955 Q2218.41 329.955 2219.6 329.744 Q2220.79 329.534 2221.71 329.229 Q2222.65 328.925 2223.49 328.362 Q2224.33 327.8 2224.92 327.308 Q2225.53 326.793 2226.11 325.997 Q2226.72 325.177 2227.07 324.615 Q2227.45 324.029 2227.87 323.092 Q2228.29 322.132 2228.5 321.593 Q2228.73 321.031 2229.09 320.071 Q2229.3 319.579 2229.37 319.438 Q2229.44 319.298 2229.55 319.181 Q2229.7 319.064 2229.91 319.064 Q2230.19 319.064 2230.33 319.228 Q2230.49 319.392 2230.49 319.579 Z" fill="#000000" fill-rule="nonzero" fill-opacity="1" /><path clip-path="url(#clip600)" d="M2243.9 323.635 Q2243.9 324.356 2243.31 324.897 Q2242.74 325.422 2242.11 325.422 Q2241.54 325.422 2241.18 325.078 Q2240.83 324.717 2240.83 324.209 Q2240.83 323.536 2241.41 322.979 Q2241.98 322.422 2242.65 322.422 Q2243.21 322.422 2243.56 322.766 Q2243.9 323.11 2243.9 323.635 M2244.2 339.817 Q2244.2 339.949 2244.05 340.473 Q2243.9 340.982 2243.54 341.769 Q2243.2 342.539 2242.72 343.261 Q2242.24 343.982 2241.46 344.49 Q2240.69 344.998 2239.8 344.998 Q2238.6 344.998 2237.82 344.211 Q2237.05 343.424 2237.05 342.244 Q2237.05 341.605 2237.82 339.555 Q2240.05 333.587 2240.13 333.341 Q2240.51 332.407 2240.51 331.587 Q2240.51 331.21 2240.42 330.98 Q2240.34 330.734 2240.18 330.652 Q2240.01 330.554 2239.92 330.537 Q2239.83 330.521 2239.67 330.521 Q2238.7 330.521 2237.8 331.505 Q2236.9 332.489 2236.28 334.686 Q2236.15 335.095 2236.06 335.194 Q2235.98 335.292 2235.74 335.292 Q2235.33 335.276 2235.33 334.948 Q2235.33 334.85 2235.44 334.472 Q2235.56 334.079 2235.77 333.489 Q2235.98 332.882 2236.36 332.259 Q2236.74 331.62 2237.19 331.062 Q2237.67 330.505 2238.34 330.144 Q2239.01 329.783 2239.77 329.783 Q2241 329.783 2241.75 330.587 Q2242.52 331.374 2242.52 332.538 Q2242.52 333.177 2242.08 334.308 Q2241.54 335.784 2241.34 336.26 L2240.03 339.785 Q2239.56 341.064 2239.41 341.457 Q2239.28 341.834 2239.16 342.293 Q2239.06 342.736 2239.06 343.146 Q2239.06 343.72 2239.24 343.982 Q2239.44 344.244 2239.87 344.244 Q2241.05 344.244 2241.92 343.08 Q2242.79 341.9 2243.29 340.096 Q2243.31 340.047 2243.33 339.965 Q2243.46 339.555 2243.59 339.506 Q2243.65 339.49 2243.79 339.49 Q2244.2 339.49 2244.2 339.817 Z" fill="#000000" fill-rule="nonzero" fill-opacity="1" /><polyline clip-path="url(#clip600)" style="stroke:#0000ff; stroke-linecap:round; stroke-linejoin:round; stroke-width:8; stroke-opacity:1; fill:none" stroke-dasharray="32, 16, 4, 16" points="1827.42,395.341 1967.35,395.341 "/>
<path clip-path="url(#clip600)" d="M1897.39 384.224 L1894.77 391.739 L1886.81 391.906 L1893.16 396.72 L1890.85 404.335 L1897.39 399.788 L1903.92 404.335 L1901.61 396.72 L1907.96 391.906 L1900 391.739 L1897.39 384.224 Z" fill="#3da44d" fill-rule="evenodd" fill-opacity="1" stroke="#000000" stroke-opacity="1" stroke-width="4.55111"/>
<path clip-path="url(#clip600)" d="M2024.73 378.23 L2021.71 390.456 Q2021.5 391.229 2021.36 391.323 Q2021.24 391.417 2020.87 391.417 Q2020.14 391.417 2020.14 390.925 Q2020.14 390.878 2020.21 390.269 Q2020.28 389.637 2020.28 388.489 Q2020.28 384.25 2018.22 381.743 Q2016.18 379.237 2012.55 379.237 Q2009.41 379.237 2006.25 380.83 Q2003.11 382.423 2000.86 385.022 Q1999.18 386.99 1997.94 389.473 Q1996.72 391.956 1996.13 394.228 Q1995.57 396.499 1995.31 398.209 Q1995.05 399.919 1995.05 401.161 Q1995.05 402.964 1995.43 404.487 Q1995.83 406.009 1996.53 407.086 Q1997.23 408.14 1998.12 408.96 Q1999.04 409.757 2000.09 410.225 Q2001.17 410.693 2002.24 410.928 Q2003.32 411.139 2004.45 411.139 Q2008.97 411.139 2013.28 407.625 Q2016.7 404.744 2018.13 400.036 Q2018.24 399.568 2018.73 399.568 Q2019.32 399.568 2019.32 400.036 Q2019.32 400.13 2019.2 400.598 Q2019.09 401.043 2018.73 401.957 Q2018.38 402.847 2017.84 403.854 Q2017.31 404.861 2016.3 406.126 Q2015.29 407.391 2014.05 408.492 Q2011.94 410.319 2009.27 411.466 Q2006.6 412.614 2003.67 412.614 Q2000.02 412.614 1997.07 410.998 Q1994.12 409.382 1992.38 406.36 Q1990.67 403.339 1990.67 399.474 Q1990.67 395.399 1992.55 391.393 Q1994.42 387.388 1997.4 384.414 Q2000.37 381.439 2004.31 379.588 Q2008.24 377.738 2012.18 377.738 Q2013.67 377.738 2015.01 378.136 Q2016.35 378.534 2017.14 379.026 Q2017.96 379.518 2018.69 380.244 Q2019.41 380.947 2019.65 381.275 Q2019.91 381.603 2020.14 382.001 L2023.49 378.324 Q2024.07 377.738 2024.22 377.738 Q2024.5 377.738 2024.61 377.902 Q2024.73 378.066 2024.73 378.23 Z" fill="#000000" fill-rule="nonzero" fill-opacity="1" /><path clip-path="url(#clip600)" d="M2049.01 398.467 Q2049.01 401.02 2047.89 403.55 Q2046.76 406.056 2044.96 407.93 Q2043.18 409.78 2040.84 410.951 Q2038.49 412.099 2036.15 412.099 Q2032.8 412.099 2030.62 409.827 Q2028.47 407.531 2028.47 403.971 Q2028.47 400.645 2030.32 397.483 Q2032.19 394.298 2035.19 392.33 Q2038.19 390.363 2041.33 390.363 Q2044.63 390.363 2046.81 392.588 Q2049.01 394.813 2049.01 398.467 M2045.5 396.593 Q2045.5 394.321 2044.4 392.869 Q2043.3 391.417 2041.28 391.417 Q2040.7 391.417 2040.02 391.604 Q2039.34 391.768 2038.45 392.213 Q2037.58 392.658 2036.6 393.595 Q2035.64 394.509 2034.79 395.82 Q2033.69 397.553 2032.85 400.739 Q2032.03 403.901 2032.03 405.798 Q2032.03 408.422 2033.25 409.733 Q2034.47 411.021 2036.2 411.021 Q2037.88 411.021 2039.67 409.85 Q2041.47 408.656 2042.71 406.618 Q2043.95 404.51 2044.72 401.418 Q2045.5 398.303 2045.5 396.593 Z" fill="#000000" fill-rule="nonzero" fill-opacity="1" /><path clip-path="url(#clip600)" d="M2089.84 404.697 Q2089.84 404.885 2089.63 405.611 Q2089.42 406.337 2088.91 407.461 Q2088.41 408.585 2087.71 409.616 Q2087.03 410.623 2085.91 411.373 Q2084.81 412.099 2083.54 412.099 Q2081.86 412.099 2080.73 410.975 Q2079.61 409.85 2079.61 408.164 Q2079.61 407.25 2080.24 405.517 Q2083.21 397.6 2083.21 394.766 Q2083.21 391.417 2080.61 391.417 Q2079.14 391.417 2077.8 392.026 Q2076.47 392.635 2075.6 393.478 Q2074.74 394.321 2074.06 395.282 Q2073.38 396.242 2073.07 396.874 Q2072.79 397.507 2072.72 397.788 L2069.84 409.358 Q2069.61 410.342 2069.44 410.811 Q2069.28 411.279 2068.83 411.677 Q2068.39 412.099 2067.69 412.099 Q2067.1 412.099 2066.68 411.747 Q2066.28 411.396 2066.28 410.787 Q2066.28 410.693 2066.4 410.202 Q2066.51 409.71 2066.68 409.03 Q2066.84 408.351 2066.91 407.953 Q2067.76 404.768 2067.87 404.323 L2069.21 398.748 Q2069.93 395.984 2069.93 394.766 Q2069.93 391.417 2067.33 391.417 Q2066.05 391.417 2064.83 391.909 Q2063.63 392.377 2062.81 393.033 Q2061.99 393.689 2061.24 394.602 Q2060.52 395.492 2060.14 396.101 Q2059.79 396.687 2059.51 397.272 L2058.9 399.662 Q2058.76 400.317 2058.08 402.87 L2057.03 407.204 Q2056.28 410.436 2056.11 410.74 Q2055.88 411.396 2055.37 411.747 Q2054.85 412.099 2054.33 412.099 Q2053.75 412.099 2053.35 411.747 Q2052.95 411.396 2052.95 410.787 Q2052.95 410.693 2053.02 410.342 Q2053.09 409.991 2053.21 409.499 Q2053.33 409.007 2053.37 408.726 L2056.16 397.647 Q2056.68 395.633 2056.79 395 Q2056.93 394.345 2056.93 393.619 Q2056.93 391.417 2055.44 391.417 Q2054.22 391.417 2053.42 392.869 Q2052.62 394.321 2051.95 397.132 Q2051.73 397.905 2051.59 398.069 Q2051.48 398.233 2051.13 398.233 Q2050.54 398.209 2050.54 397.741 Q2050.54 397.624 2050.73 396.874 Q2050.91 396.125 2051.27 395 Q2051.64 393.853 2052.04 393.103 Q2052.27 392.611 2052.48 392.283 Q2052.7 391.956 2053.12 391.44 Q2053.54 390.925 2054.17 390.644 Q2054.8 390.363 2055.58 390.363 Q2057.29 390.363 2058.55 391.464 Q2059.84 392.565 2060 394.532 Q2063.12 390.363 2067.47 390.363 Q2069.93 390.363 2071.41 391.604 Q2072.79 392.799 2072.96 395 Q2076.19 390.363 2080.78 390.363 Q2083.43 390.363 2084.85 391.745 Q2086.28 393.103 2086.28 395.492 Q2086.28 396.734 2085.65 399.099 Q2085.02 401.442 2084.6 402.613 Q2084.17 403.784 2083.36 406.032 Q2082.49 408.187 2082.49 409.452 Q2082.49 410.272 2082.77 410.647 Q2083.05 411.021 2083.66 411.021 Q2084.6 411.021 2085.42 410.483 Q2086.24 409.921 2086.82 409.007 Q2087.43 408.07 2087.83 407.133 Q2088.23 406.173 2088.53 405.096 Q2088.72 404.51 2088.81 404.369 Q2088.93 404.229 2089.26 404.229 Q2089.84 404.229 2089.84 404.697 Z" fill="#000000" fill-rule="nonzero" fill-opacity="1" /><path clip-path="url(#clip600)" d="M2110.67 398.022 Q2110.67 401.395 2108.96 404.697 Q2107.27 407.976 2104.56 410.038 Q2101.86 412.099 2099.1 412.099 Q2096.41 412.099 2094.7 410.038 Q2093.01 407.953 2093.01 404.557 Q2093.01 403.362 2093.15 402.519 Q2093.29 401.676 2093.78 399.708 L2097.72 384.062 Q2098.4 381.134 2098.4 381.111 Q2098.4 380.83 2098.28 380.689 Q2098.19 380.525 2097.62 380.408 Q2097.06 380.291 2095.98 380.291 Q2095.54 380.291 2095.33 380.268 Q2095.14 380.244 2094.98 380.127 Q2094.84 379.987 2094.84 379.706 Q2094.84 379.307 2095 379.097 Q2095.19 378.862 2095.33 378.816 Q2095.47 378.769 2095.75 378.745 Q2096.15 378.722 2097.48 378.605 Q2098.82 378.464 2099.97 378.371 Q2101.11 378.277 2101.61 378.277 Q2101.89 378.277 2102.03 378.417 Q2102.19 378.534 2102.19 378.675 L2102.21 378.792 L2098.68 393.244 Q2101.47 390.363 2104.3 390.363 Q2107.13 390.363 2108.89 392.541 Q2110.67 394.719 2110.67 398.022 M2107.2 395.914 Q2107.2 393.689 2106.36 392.565 Q2105.54 391.417 2104.18 391.417 Q2103.03 391.417 2101.54 392.283 Q2100.04 393.15 2098.44 395.258 Q2098.14 395.656 2098.02 395.891 Q2097.93 396.125 2097.72 396.921 L2096.66 401.348 Q2095.89 404.369 2095.89 406.196 Q2095.89 408.679 2096.8 409.85 Q2097.72 411.021 2099.1 411.021 Q2100.55 411.021 2102.07 409.733 Q2103.6 408.445 2104.77 406.103 Q2105.49 404.557 2106.34 401.231 Q2107.2 397.881 2107.2 395.914 Z" fill="#000000" fill-rule="nonzero" fill-opacity="1" /><path clip-path="url(#clip600)" d="M2124.47 381.579 Q2124.47 382.61 2123.63 383.383 Q2122.81 384.132 2121.92 384.132 Q2121.1 384.132 2120.58 383.641 Q2120.09 383.125 2120.09 382.399 Q2120.09 381.439 2120.91 380.642 Q2121.73 379.846 2122.69 379.846 Q2123.49 379.846 2123.98 380.338 Q2124.47 380.83 2124.47 381.579 M2124.89 404.697 Q2124.89 404.885 2124.68 405.634 Q2124.47 406.36 2123.96 407.485 Q2123.46 408.585 2122.79 409.616 Q2122.11 410.647 2120.98 411.373 Q2119.88 412.099 2118.62 412.099 Q2116.91 412.099 2115.78 410.975 Q2114.68 409.85 2114.68 408.164 Q2114.68 407.25 2115.78 404.323 Q2118.97 395.797 2119.08 395.445 Q2119.62 394.11 2119.62 392.939 Q2119.62 392.401 2119.51 392.073 Q2119.39 391.721 2119.15 391.604 Q2118.92 391.464 2118.78 391.44 Q2118.66 391.417 2118.43 391.417 Q2117.05 391.417 2115.76 392.822 Q2114.47 394.228 2113.58 397.366 Q2113.39 397.952 2113.28 398.092 Q2113.16 398.233 2112.81 398.233 Q2112.22 398.209 2112.22 397.741 Q2112.22 397.6 2112.39 397.062 Q2112.55 396.499 2112.85 395.656 Q2113.16 394.79 2113.7 393.9 Q2114.24 392.986 2114.89 392.19 Q2115.57 391.393 2116.53 390.878 Q2117.49 390.363 2118.57 390.363 Q2120.33 390.363 2121.4 391.511 Q2122.5 392.635 2122.5 394.298 Q2122.5 395.211 2121.87 396.827 Q2121.1 398.935 2120.82 399.615 L2118.94 404.65 Q2118.26 406.477 2118.05 407.04 Q2117.87 407.578 2117.7 408.234 Q2117.56 408.867 2117.56 409.452 Q2117.56 410.272 2117.82 410.647 Q2118.1 411.021 2118.71 411.021 Q2120.4 411.021 2121.64 409.358 Q2122.88 407.672 2123.6 405.096 Q2123.63 405.025 2123.65 404.908 Q2123.84 404.323 2124.03 404.252 Q2124.12 404.229 2124.31 404.229 Q2124.89 404.229 2124.89 404.697 Z" fill="#000000" fill-rule="nonzero" fill-opacity="1" /><path clip-path="url(#clip600)" d="M2154.98 404.697 Q2154.98 404.885 2154.77 405.611 Q2154.56 406.337 2154.04 407.461 Q2153.55 408.585 2152.87 409.616 Q2152.19 410.623 2151.07 411.373 Q2149.97 412.099 2148.7 412.099 Q2147.02 412.099 2145.89 410.975 Q2144.77 409.85 2144.77 408.164 Q2144.77 407.227 2145.26 405.939 Q2148.37 397.624 2148.37 394.766 Q2148.37 391.417 2145.77 391.417 Q2144.49 391.417 2143.27 391.909 Q2142.07 392.377 2141.25 393.033 Q2140.43 393.689 2139.68 394.602 Q2138.96 395.492 2138.58 396.101 Q2138.23 396.687 2137.95 397.272 L2137.34 399.662 Q2137.2 400.317 2136.52 402.87 L2135.47 407.204 Q2134.72 410.436 2134.55 410.74 Q2134.32 411.396 2133.81 411.747 Q2133.29 412.099 2132.77 412.099 Q2132.19 412.099 2131.79 411.747 Q2131.39 411.396 2131.39 410.787 Q2131.39 410.693 2131.46 410.342 Q2131.53 409.991 2131.65 409.499 Q2131.77 409.007 2131.81 408.726 L2134.6 397.647 Q2135.12 395.633 2135.23 395 Q2135.37 394.345 2135.37 393.619 Q2135.37 391.417 2133.88 391.417 Q2132.66 391.417 2131.86 392.869 Q2131.06 394.321 2130.39 397.132 Q2130.17 397.905 2130.03 398.069 Q2129.92 398.233 2129.57 398.233 Q2128.98 398.209 2128.98 397.741 Q2128.98 397.624 2129.17 396.851 Q2129.35 396.078 2129.71 394.977 Q2130.08 393.853 2130.43 393.103 Q2130.74 392.541 2130.9 392.283 Q2131.09 392.002 2131.53 391.464 Q2132 390.902 2132.61 390.644 Q2133.24 390.363 2134.02 390.363 Q2135.75 390.363 2137.01 391.487 Q2138.28 392.588 2138.44 394.532 Q2141.56 390.363 2145.91 390.363 Q2148.49 390.363 2149.97 391.721 Q2151.44 393.08 2151.44 395.492 Q2151.44 396.054 2151.33 396.781 Q2151.23 397.483 2151 398.373 Q2150.79 399.263 2150.6 399.943 Q2150.41 400.622 2150.04 401.723 Q2149.66 402.8 2149.5 403.269 Q2149.33 403.737 2148.94 404.838 Q2148.56 405.915 2148.51 406.032 Q2147.65 408.211 2147.65 409.452 Q2147.65 410.272 2147.91 410.647 Q2148.19 411.021 2148.8 411.021 Q2150.44 411.021 2151.65 409.405 Q2152.89 407.766 2153.69 405.096 Q2153.88 404.51 2153.97 404.369 Q2154.09 404.229 2154.42 404.229 Q2154.98 404.229 2154.98 404.697 Z" fill="#000000" fill-rule="nonzero" fill-opacity="1" /><path clip-path="url(#clip600)" d="M2177.05 406.009 Q2177.24 406.22 2177.24 406.431 Q2177.24 406.641 2176.77 407.25 Q2176.33 407.859 2175.37 408.679 Q2174.4 409.499 2173.16 410.272 Q2171.92 411.045 2170.1 411.56 Q2168.27 412.099 2166.35 412.099 Q2162.9 412.099 2160.84 409.639 Q2158.81 407.18 2158.81 403.409 Q2158.81 400.997 2159.6 398.865 Q2160.4 396.71 2161.69 395.188 Q2163 393.665 2164.64 392.565 Q2166.3 391.44 2168.03 390.902 Q2169.77 390.363 2171.38 390.363 Q2173.75 390.363 2175.13 391.557 Q2176.51 392.752 2176.51 394.438 Q2176.51 394.836 2176.4 395.328 Q2176.3 395.82 2175.97 396.593 Q2175.67 397.366 2174.87 398.139 Q2174.08 398.889 2172.91 399.38 Q2170.31 400.481 2165.57 400.481 L2163.02 400.481 Q2162.27 403.503 2162.27 405.47 Q2162.27 406.243 2162.41 407.04 Q2162.55 407.813 2162.93 408.796 Q2163.33 409.78 2164.22 410.412 Q2165.13 411.021 2166.44 411.021 Q2166.86 411.021 2167.31 410.998 Q2167.78 410.975 2168.95 410.717 Q2170.14 410.459 2171.2 410.014 Q2172.25 409.569 2173.59 408.609 Q2174.94 407.625 2176.02 406.29 Q2176.4 405.798 2176.65 405.798 Q2176.86 405.798 2177.05 406.009 M2174.92 394.438 Q2174.92 393.15 2173.96 392.283 Q2173.02 391.417 2171.38 391.417 Q2170.87 391.417 2170.24 391.534 Q2169.6 391.651 2168.55 392.143 Q2167.52 392.635 2166.61 393.455 Q2165.69 394.251 2164.78 395.82 Q2163.86 397.366 2163.33 399.427 L2165.29 399.427 Q2165.97 399.427 2166.46 399.427 Q2166.96 399.404 2168.03 399.31 Q2169.13 399.216 2169.93 399.053 Q2170.73 398.865 2171.73 398.49 Q2172.74 398.116 2173.37 397.624 Q2174.03 397.108 2174.48 396.289 Q2174.92 395.469 2174.92 394.438 Z" fill="#000000" fill-rule="nonzero" fill-opacity="1" /><path clip-path="url(#clip600)" d="M2203.77 378.792 L2196.86 406.524 Q2196.58 407.766 2196.58 408.82 Q2196.58 411.021 2198.01 411.021 Q2198.71 411.021 2199.27 410.576 Q2199.83 410.131 2200.28 409.194 Q2200.72 408.258 2201.01 407.391 Q2201.29 406.501 2201.66 405.096 Q2201.78 404.533 2201.87 404.393 Q2201.99 404.229 2202.32 404.229 Q2202.9 404.229 2202.9 404.697 Q2202.27 407.719 2201.45 409.452 Q2200.14 412.099 2197.91 412.099 Q2196.23 412.099 2195.03 411.068 Q2193.84 410.038 2193.56 408.492 Q2190.49 412.099 2187.3 412.099 Q2184.49 412.099 2182.71 409.967 Q2180.93 407.813 2180.93 404.416 Q2180.93 400.997 2182.62 397.717 Q2184.33 394.438 2187.02 392.401 Q2189.72 390.363 2192.48 390.363 Q2195.41 390.363 2196.91 393.431 L2199.79 382.048 L2199.93 381.111 Q2199.93 380.83 2199.81 380.689 Q2199.72 380.525 2199.15 380.408 Q2198.62 380.291 2197.54 380.291 Q2197.09 380.291 2196.88 380.268 Q2196.7 380.244 2196.53 380.127 Q2196.37 379.987 2196.37 379.706 Q2196.37 378.886 2197.05 378.792 Q2201.54 378.277 2203.14 378.277 Q2203.42 378.277 2203.58 378.417 Q2203.75 378.534 2203.75 378.675 L2203.77 378.792 M2196.32 395.633 Q2196.32 395.422 2196.16 394.836 Q2195.99 394.251 2195.62 393.431 Q2195.24 392.611 2194.42 392.026 Q2193.63 391.417 2192.55 391.417 Q2191.1 391.417 2189.57 392.658 Q2188.08 393.9 2186.98 396.008 Q2186.13 397.694 2185.22 401.231 Q2184.33 404.768 2184.33 406.524 Q2184.33 407.602 2184.56 408.562 Q2184.82 409.499 2185.55 410.272 Q2186.27 411.021 2187.4 411.021 Q2190.14 411.021 2192.83 407.625 Q2193.35 407.04 2193.46 406.805 Q2193.6 406.548 2193.79 405.845 L2196.18 396.453 Q2196.32 395.75 2196.32 395.633 Z" fill="#000000" fill-rule="nonzero" fill-opacity="1" /></svg>
