<?xml version="1.0" encoding="utf-8"?>
<svg xmlns="http://www.w3.org/2000/svg" xmlns:xlink="http://www.w3.org/1999/xlink" width="600" height="400" viewBox="0 0 2400 1600">
<defs>
  <clipPath id="clip210">
    <rect x="0" y="0" width="2400" height="1600"/>
  </clipPath>
</defs>
<path clip-path="url(#clip210)" d="M0 1600 L2400 1600 L2400 0 L0 0  Z" fill="#ffffff" fill-rule="evenodd" fill-opacity="1"/>
<defs>
  <clipPath id="clip211">
    <rect x="480" y="0" width="1681" height="1600"/>
  </clipPath>
</defs>
<path clip-path="url(#clip210)" d="M215.737 1427.5 L2352.76 1427.5 L2352.76 47.2441 L215.737 47.2441  Z" fill="#ffffff" fill-rule="evenodd" fill-opacity="1"/>
<defs>
  <clipPath id="clip212">
    <rect x="215" y="47" width="2138" height="1381"/>
  </clipPath>
</defs>
<polyline clip-path="url(#clip212)" style="stroke:#000000; stroke-linecap:round; stroke-linejoin:round; stroke-width:2; stroke-opacity:0.05; fill:none" points="377.022,1427.5 377.022,47.2441 "/>
<polyline clip-path="url(#clip212)" style="stroke:#000000; stroke-linecap:round; stroke-linejoin:round; stroke-width:2; stroke-opacity:0.05; fill:none" points="477.824,1427.5 477.824,47.2441 "/>
<polyline clip-path="url(#clip212)" style="stroke:#000000; stroke-linecap:round; stroke-linejoin:round; stroke-width:2; stroke-opacity:0.05; fill:none" points="578.627,1427.5 578.627,47.2441 "/>
<polyline clip-path="url(#clip212)" style="stroke:#000000; stroke-linecap:round; stroke-linejoin:round; stroke-width:2; stroke-opacity:0.05; fill:none" points="679.43,1427.5 679.43,47.2441 "/>
<polyline clip-path="url(#clip212)" style="stroke:#000000; stroke-linecap:round; stroke-linejoin:round; stroke-width:2; stroke-opacity:0.05; fill:none" points="881.036,1427.5 881.036,47.2441 "/>
<polyline clip-path="url(#clip212)" style="stroke:#000000; stroke-linecap:round; stroke-linejoin:round; stroke-width:2; stroke-opacity:0.05; fill:none" points="981.838,1427.5 981.838,47.2441 "/>
<polyline clip-path="url(#clip212)" style="stroke:#000000; stroke-linecap:round; stroke-linejoin:round; stroke-width:2; stroke-opacity:0.05; fill:none" points="1082.64,1427.5 1082.64,47.2441 "/>
<polyline clip-path="url(#clip212)" style="stroke:#000000; stroke-linecap:round; stroke-linejoin:round; stroke-width:2; stroke-opacity:0.05; fill:none" points="1183.44,1427.5 1183.44,47.2441 "/>
<polyline clip-path="url(#clip212)" style="stroke:#000000; stroke-linecap:round; stroke-linejoin:round; stroke-width:2; stroke-opacity:0.05; fill:none" points="1385.05,1427.5 1385.05,47.2441 "/>
<polyline clip-path="url(#clip212)" style="stroke:#000000; stroke-linecap:round; stroke-linejoin:round; stroke-width:2; stroke-opacity:0.05; fill:none" points="1485.85,1427.5 1485.85,47.2441 "/>
<polyline clip-path="url(#clip212)" style="stroke:#000000; stroke-linecap:round; stroke-linejoin:round; stroke-width:2; stroke-opacity:0.05; fill:none" points="1586.65,1427.5 1586.65,47.2441 "/>
<polyline clip-path="url(#clip212)" style="stroke:#000000; stroke-linecap:round; stroke-linejoin:round; stroke-width:2; stroke-opacity:0.05; fill:none" points="1687.46,1427.5 1687.46,47.2441 "/>
<polyline clip-path="url(#clip212)" style="stroke:#000000; stroke-linecap:round; stroke-linejoin:round; stroke-width:2; stroke-opacity:0.05; fill:none" points="1889.06,1427.5 1889.06,47.2441 "/>
<polyline clip-path="url(#clip212)" style="stroke:#000000; stroke-linecap:round; stroke-linejoin:round; stroke-width:2; stroke-opacity:0.05; fill:none" points="1989.87,1427.5 1989.87,47.2441 "/>
<polyline clip-path="url(#clip212)" style="stroke:#000000; stroke-linecap:round; stroke-linejoin:round; stroke-width:2; stroke-opacity:0.05; fill:none" points="2090.67,1427.5 2090.67,47.2441 "/>
<polyline clip-path="url(#clip212)" style="stroke:#000000; stroke-linecap:round; stroke-linejoin:round; stroke-width:2; stroke-opacity:0.05; fill:none" points="2191.47,1427.5 2191.47,47.2441 "/>
<polyline clip-path="url(#clip212)" style="stroke:#000000; stroke-linecap:round; stroke-linejoin:round; stroke-width:2; stroke-opacity:0.05; fill:none" points="215.737,1351.34 2352.76,1351.34 "/>
<polyline clip-path="url(#clip212)" style="stroke:#000000; stroke-linecap:round; stroke-linejoin:round; stroke-width:2; stroke-opacity:0.05; fill:none" points="215.737,1232.54 2352.76,1232.54 "/>
<polyline clip-path="url(#clip212)" style="stroke:#000000; stroke-linecap:round; stroke-linejoin:round; stroke-width:2; stroke-opacity:0.05; fill:none" points="215.737,1148.25 2352.76,1148.25 "/>
<polyline clip-path="url(#clip212)" style="stroke:#000000; stroke-linecap:round; stroke-linejoin:round; stroke-width:2; stroke-opacity:0.05; fill:none" points="215.737,1082.87 2352.76,1082.87 "/>
<polyline clip-path="url(#clip212)" style="stroke:#000000; stroke-linecap:round; stroke-linejoin:round; stroke-width:2; stroke-opacity:0.05; fill:none" points="215.737,1029.45 2352.76,1029.45 "/>
<polyline clip-path="url(#clip212)" style="stroke:#000000; stroke-linecap:round; stroke-linejoin:round; stroke-width:2; stroke-opacity:0.05; fill:none" points="215.737,984.282 2352.76,984.282 "/>
<polyline clip-path="url(#clip212)" style="stroke:#000000; stroke-linecap:round; stroke-linejoin:round; stroke-width:2; stroke-opacity:0.05; fill:none" points="215.737,945.157 2352.76,945.157 "/>
<polyline clip-path="url(#clip212)" style="stroke:#000000; stroke-linecap:round; stroke-linejoin:round; stroke-width:2; stroke-opacity:0.05; fill:none" points="215.737,910.646 2352.76,910.646 "/>
<polyline clip-path="url(#clip212)" style="stroke:#000000; stroke-linecap:round; stroke-linejoin:round; stroke-width:2; stroke-opacity:0.05; fill:none" points="215.737,676.681 2352.76,676.681 "/>
<polyline clip-path="url(#clip212)" style="stroke:#000000; stroke-linecap:round; stroke-linejoin:round; stroke-width:2; stroke-opacity:0.05; fill:none" points="215.737,557.879 2352.76,557.879 "/>
<polyline clip-path="url(#clip212)" style="stroke:#000000; stroke-linecap:round; stroke-linejoin:round; stroke-width:2; stroke-opacity:0.05; fill:none" points="215.737,473.587 2352.76,473.587 "/>
<polyline clip-path="url(#clip212)" style="stroke:#000000; stroke-linecap:round; stroke-linejoin:round; stroke-width:2; stroke-opacity:0.05; fill:none" points="215.737,408.205 2352.76,408.205 "/>
<polyline clip-path="url(#clip212)" style="stroke:#000000; stroke-linecap:round; stroke-linejoin:round; stroke-width:2; stroke-opacity:0.05; fill:none" points="215.737,354.785 2352.76,354.785 "/>
<polyline clip-path="url(#clip212)" style="stroke:#000000; stroke-linecap:round; stroke-linejoin:round; stroke-width:2; stroke-opacity:0.05; fill:none" points="215.737,309.618 2352.76,309.618 "/>
<polyline clip-path="url(#clip212)" style="stroke:#000000; stroke-linecap:round; stroke-linejoin:round; stroke-width:2; stroke-opacity:0.05; fill:none" points="215.737,270.493 2352.76,270.493 "/>
<polyline clip-path="url(#clip212)" style="stroke:#000000; stroke-linecap:round; stroke-linejoin:round; stroke-width:2; stroke-opacity:0.05; fill:none" points="215.737,235.982 2352.76,235.982 "/>
<polyline clip-path="url(#clip212)" style="stroke:#000000; stroke-linecap:round; stroke-linejoin:round; stroke-width:2; stroke-opacity:0.1; fill:none" points="276.219,1427.5 276.219,47.2441 "/>
<polyline clip-path="url(#clip212)" style="stroke:#000000; stroke-linecap:round; stroke-linejoin:round; stroke-width:2; stroke-opacity:0.1; fill:none" points="780.233,1427.5 780.233,47.2441 "/>
<polyline clip-path="url(#clip212)" style="stroke:#000000; stroke-linecap:round; stroke-linejoin:round; stroke-width:2; stroke-opacity:0.1; fill:none" points="1284.25,1427.5 1284.25,47.2441 "/>
<polyline clip-path="url(#clip212)" style="stroke:#000000; stroke-linecap:round; stroke-linejoin:round; stroke-width:2; stroke-opacity:0.1; fill:none" points="1788.26,1427.5 1788.26,47.2441 "/>
<polyline clip-path="url(#clip212)" style="stroke:#000000; stroke-linecap:round; stroke-linejoin:round; stroke-width:2; stroke-opacity:0.1; fill:none" points="2292.27,1427.5 2292.27,47.2441 "/>
<polyline clip-path="url(#clip212)" style="stroke:#000000; stroke-linecap:round; stroke-linejoin:round; stroke-width:2; stroke-opacity:0.1; fill:none" points="215.737,879.775 2352.76,879.775 "/>
<polyline clip-path="url(#clip212)" style="stroke:#000000; stroke-linecap:round; stroke-linejoin:round; stroke-width:2; stroke-opacity:0.1; fill:none" points="215.737,205.112 2352.76,205.112 "/>
<polyline clip-path="url(#clip210)" style="stroke:#000000; stroke-linecap:round; stroke-linejoin:round; stroke-width:4; stroke-opacity:1; fill:none" points="215.737,1427.5 2352.76,1427.5 "/>
<polyline clip-path="url(#clip210)" style="stroke:#000000; stroke-linecap:round; stroke-linejoin:round; stroke-width:4; stroke-opacity:1; fill:none" points="276.219,1427.5 276.219,1408.6 "/>
<polyline clip-path="url(#clip210)" style="stroke:#000000; stroke-linecap:round; stroke-linejoin:round; stroke-width:4; stroke-opacity:1; fill:none" points="780.233,1427.5 780.233,1408.6 "/>
<polyline clip-path="url(#clip210)" style="stroke:#000000; stroke-linecap:round; stroke-linejoin:round; stroke-width:4; stroke-opacity:1; fill:none" points="1284.25,1427.5 1284.25,1408.6 "/>
<polyline clip-path="url(#clip210)" style="stroke:#000000; stroke-linecap:round; stroke-linejoin:round; stroke-width:4; stroke-opacity:1; fill:none" points="1788.26,1427.5 1788.26,1408.6 "/>
<polyline clip-path="url(#clip210)" style="stroke:#000000; stroke-linecap:round; stroke-linejoin:round; stroke-width:4; stroke-opacity:1; fill:none" points="2292.27,1427.5 2292.27,1408.6 "/>
<polyline clip-path="url(#clip210)" style="stroke:#000000; stroke-linecap:round; stroke-linejoin:round; stroke-width:4; stroke-opacity:1; fill:none" points="377.022,1427.5 377.022,1418.05 "/>
<polyline clip-path="url(#clip210)" style="stroke:#000000; stroke-linecap:round; stroke-linejoin:round; stroke-width:4; stroke-opacity:1; fill:none" points="477.824,1427.5 477.824,1418.05 "/>
<polyline clip-path="url(#clip210)" style="stroke:#000000; stroke-linecap:round; stroke-linejoin:round; stroke-width:4; stroke-opacity:1; fill:none" points="578.627,1427.5 578.627,1418.05 "/>
<polyline clip-path="url(#clip210)" style="stroke:#000000; stroke-linecap:round; stroke-linejoin:round; stroke-width:4; stroke-opacity:1; fill:none" points="679.43,1427.5 679.43,1418.05 "/>
<polyline clip-path="url(#clip210)" style="stroke:#000000; stroke-linecap:round; stroke-linejoin:round; stroke-width:4; stroke-opacity:1; fill:none" points="881.036,1427.5 881.036,1418.05 "/>
<polyline clip-path="url(#clip210)" style="stroke:#000000; stroke-linecap:round; stroke-linejoin:round; stroke-width:4; stroke-opacity:1; fill:none" points="981.838,1427.5 981.838,1418.05 "/>
<polyline clip-path="url(#clip210)" style="stroke:#000000; stroke-linecap:round; stroke-linejoin:round; stroke-width:4; stroke-opacity:1; fill:none" points="1082.64,1427.5 1082.64,1418.05 "/>
<polyline clip-path="url(#clip210)" style="stroke:#000000; stroke-linecap:round; stroke-linejoin:round; stroke-width:4; stroke-opacity:1; fill:none" points="1183.44,1427.5 1183.44,1418.05 "/>
<polyline clip-path="url(#clip210)" style="stroke:#000000; stroke-linecap:round; stroke-linejoin:round; stroke-width:4; stroke-opacity:1; fill:none" points="1385.05,1427.5 1385.05,1418.05 "/>
<polyline clip-path="url(#clip210)" style="stroke:#000000; stroke-linecap:round; stroke-linejoin:round; stroke-width:4; stroke-opacity:1; fill:none" points="1485.85,1427.5 1485.85,1418.05 "/>
<polyline clip-path="url(#clip210)" style="stroke:#000000; stroke-linecap:round; stroke-linejoin:round; stroke-width:4; stroke-opacity:1; fill:none" points="1586.65,1427.5 1586.65,1418.05 "/>
<polyline clip-path="url(#clip210)" style="stroke:#000000; stroke-linecap:round; stroke-linejoin:round; stroke-width:4; stroke-opacity:1; fill:none" points="1687.46,1427.5 1687.46,1418.05 "/>
<polyline clip-path="url(#clip210)" style="stroke:#000000; stroke-linecap:round; stroke-linejoin:round; stroke-width:4; stroke-opacity:1; fill:none" points="1889.06,1427.5 1889.06,1418.05 "/>
<polyline clip-path="url(#clip210)" style="stroke:#000000; stroke-linecap:round; stroke-linejoin:round; stroke-width:4; stroke-opacity:1; fill:none" points="1989.87,1427.5 1989.87,1418.05 "/>
<polyline clip-path="url(#clip210)" style="stroke:#000000; stroke-linecap:round; stroke-linejoin:round; stroke-width:4; stroke-opacity:1; fill:none" points="2090.67,1427.5 2090.67,1418.05 "/>
<polyline clip-path="url(#clip210)" style="stroke:#000000; stroke-linecap:round; stroke-linejoin:round; stroke-width:4; stroke-opacity:1; fill:none" points="2191.47,1427.5 2191.47,1418.05 "/>
<path clip-path="url(#clip210)" d="M276.219 1458.42 Q272.608 1458.42 270.779 1461.98 Q268.974 1465.52 268.974 1472.65 Q268.974 1479.76 270.779 1483.33 Q272.608 1486.87 276.219 1486.87 Q279.853 1486.87 281.659 1483.33 Q283.487 1479.76 283.487 1472.65 Q283.487 1465.52 281.659 1461.98 Q279.853 1458.42 276.219 1458.42 M276.219 1454.71 Q282.029 1454.71 285.085 1459.32 Q288.163 1463.9 288.163 1472.65 Q288.163 1481.38 285.085 1485.99 Q282.029 1490.57 276.219 1490.57 Q270.409 1490.57 267.33 1485.99 Q264.275 1481.38 264.275 1472.65 Q264.275 1463.9 267.33 1459.32 Q270.409 1454.71 276.219 1454.71 Z" fill="#000000" fill-rule="nonzero" fill-opacity="1" /><path clip-path="url(#clip210)" d="M770.511 1455.34 L788.867 1455.34 L788.867 1459.28 L774.793 1459.28 L774.793 1467.75 Q775.811 1467.4 776.83 1467.24 Q777.848 1467.05 778.867 1467.05 Q784.654 1467.05 788.034 1470.22 Q791.413 1473.4 791.413 1478.81 Q791.413 1484.39 787.941 1487.49 Q784.469 1490.57 778.149 1490.57 Q775.973 1490.57 773.705 1490.2 Q771.46 1489.83 769.052 1489.09 L769.052 1484.39 Q771.136 1485.52 773.358 1486.08 Q775.58 1486.64 778.057 1486.64 Q782.061 1486.64 784.399 1484.53 Q786.737 1482.42 786.737 1478.81 Q786.737 1475.2 784.399 1473.09 Q782.061 1470.99 778.057 1470.99 Q776.182 1470.99 774.307 1471.4 Q772.455 1471.82 770.511 1472.7 L770.511 1455.34 Z" fill="#000000" fill-rule="nonzero" fill-opacity="1" /><path clip-path="url(#clip210)" d="M1258.93 1485.96 L1266.57 1485.96 L1266.57 1459.6 L1258.26 1461.27 L1258.26 1457.01 L1266.53 1455.34 L1271.2 1455.34 L1271.2 1485.96 L1278.84 1485.96 L1278.84 1489.9 L1258.93 1489.9 L1258.93 1485.96 Z" fill="#000000" fill-rule="nonzero" fill-opacity="1" /><path clip-path="url(#clip210)" d="M1298.29 1458.42 Q1294.67 1458.42 1292.85 1461.98 Q1291.04 1465.52 1291.04 1472.65 Q1291.04 1479.76 1292.85 1483.33 Q1294.67 1486.87 1298.29 1486.87 Q1301.92 1486.87 1303.73 1483.33 Q1305.55 1479.76 1305.55 1472.65 Q1305.55 1465.52 1303.73 1461.98 Q1301.92 1458.42 1298.29 1458.42 M1298.29 1454.71 Q1304.1 1454.71 1307.15 1459.32 Q1310.23 1463.9 1310.23 1472.65 Q1310.23 1481.38 1307.15 1485.99 Q1304.1 1490.57 1298.29 1490.57 Q1292.48 1490.57 1289.4 1485.99 Q1286.34 1481.38 1286.34 1472.65 Q1286.34 1463.9 1289.4 1459.32 Q1292.48 1454.71 1298.29 1454.71 Z" fill="#000000" fill-rule="nonzero" fill-opacity="1" /><path clip-path="url(#clip210)" d="M1763.45 1485.96 L1771.08 1485.96 L1771.08 1459.6 L1762.77 1461.27 L1762.77 1457.01 L1771.04 1455.34 L1775.71 1455.34 L1775.71 1485.96 L1783.35 1485.96 L1783.35 1489.9 L1763.45 1489.9 L1763.45 1485.96 Z" fill="#000000" fill-rule="nonzero" fill-opacity="1" /><path clip-path="url(#clip210)" d="M1792.84 1455.34 L1811.2 1455.34 L1811.2 1459.28 L1797.13 1459.28 L1797.13 1467.75 Q1798.14 1467.4 1799.16 1467.24 Q1800.18 1467.05 1801.2 1467.05 Q1806.99 1467.05 1810.37 1470.22 Q1813.75 1473.4 1813.75 1478.81 Q1813.75 1484.39 1810.27 1487.49 Q1806.8 1490.57 1800.48 1490.57 Q1798.31 1490.57 1796.04 1490.2 Q1793.79 1489.83 1791.39 1489.09 L1791.39 1484.39 Q1793.47 1485.52 1795.69 1486.08 Q1797.91 1486.64 1800.39 1486.64 Q1804.39 1486.64 1806.73 1484.53 Q1809.07 1482.42 1809.07 1478.81 Q1809.07 1475.2 1806.73 1473.09 Q1804.39 1470.99 1800.39 1470.99 Q1798.51 1470.99 1796.64 1471.4 Q1794.79 1471.82 1792.84 1472.7 L1792.84 1455.34 Z" fill="#000000" fill-rule="nonzero" fill-opacity="1" /><path clip-path="url(#clip210)" d="M2271.05 1485.96 L2287.37 1485.96 L2287.37 1489.9 L2265.42 1489.9 L2265.42 1485.96 Q2268.08 1483.21 2272.67 1478.58 Q2277.27 1473.93 2278.45 1472.59 Q2280.7 1470.06 2281.58 1468.33 Q2282.48 1466.57 2282.48 1464.88 Q2282.48 1462.12 2280.54 1460.39 Q2278.62 1458.65 2275.52 1458.65 Q2273.32 1458.65 2270.86 1459.41 Q2268.43 1460.18 2265.65 1461.73 L2265.65 1457.01 Q2268.48 1455.87 2270.93 1455.29 Q2273.39 1454.71 2275.42 1454.71 Q2280.79 1454.71 2283.99 1457.4 Q2287.18 1460.09 2287.18 1464.58 Q2287.18 1466.71 2286.37 1468.63 Q2285.58 1470.52 2283.48 1473.12 Q2282.9 1473.79 2279.8 1477.01 Q2276.7 1480.2 2271.05 1485.96 Z" fill="#000000" fill-rule="nonzero" fill-opacity="1" /><path clip-path="url(#clip210)" d="M2307.18 1458.42 Q2303.57 1458.42 2301.74 1461.98 Q2299.94 1465.52 2299.94 1472.65 Q2299.94 1479.76 2301.74 1483.33 Q2303.57 1486.87 2307.18 1486.87 Q2310.82 1486.87 2312.62 1483.33 Q2314.45 1479.76 2314.45 1472.65 Q2314.45 1465.52 2312.62 1461.98 Q2310.82 1458.42 2307.18 1458.42 M2307.18 1454.71 Q2312.99 1454.71 2316.05 1459.32 Q2319.13 1463.9 2319.13 1472.65 Q2319.13 1481.38 2316.05 1485.99 Q2312.99 1490.57 2307.18 1490.57 Q2301.37 1490.57 2298.29 1485.99 Q2295.24 1481.38 2295.24 1472.65 Q2295.24 1463.9 2298.29 1459.32 Q2301.37 1454.71 2307.18 1454.71 Z" fill="#000000" fill-rule="nonzero" fill-opacity="1" /><path clip-path="url(#clip210)" d="M1163.99 1523.98 L1169.84 1523.98 L1169.84 1567.18 L1163.99 1567.18 L1163.99 1523.98 Z" fill="#000000" fill-rule="nonzero" fill-opacity="1" /><path clip-path="url(#clip210)" d="M1186.5 1525.57 L1186.5 1534.77 L1197.47 1534.77 L1197.47 1538.91 L1186.5 1538.91 L1186.5 1556.5 Q1186.5 1560.47 1187.57 1561.6 Q1188.67 1562.72 1192 1562.72 L1197.47 1562.72 L1197.47 1567.18 L1192 1567.18 Q1185.84 1567.18 1183.49 1564.89 Q1181.15 1562.58 1181.15 1556.5 L1181.15 1538.91 L1177.24 1538.91 L1177.24 1534.77 L1181.15 1534.77 L1181.15 1525.57 L1186.5 1525.57 Z" fill="#000000" fill-rule="nonzero" fill-opacity="1" /><path clip-path="url(#clip210)" d="M1232.19 1549.65 L1232.19 1552.25 L1207.71 1552.25 Q1208.06 1557.75 1211.01 1560.64 Q1213.99 1563.51 1219.29 1563.51 Q1222.35 1563.51 1225.22 1562.75 Q1228.11 1562 1230.95 1560.5 L1230.95 1565.53 Q1228.08 1566.75 1225.07 1567.38 Q1222.07 1568.02 1218.97 1568.02 Q1211.21 1568.02 1206.67 1563.51 Q1202.16 1558.99 1202.16 1551.29 Q1202.16 1543.34 1206.44 1538.68 Q1210.75 1533.99 1218.04 1533.99 Q1224.58 1533.99 1228.37 1538.22 Q1232.19 1542.41 1232.19 1549.65 M1226.87 1548.08 Q1226.81 1543.71 1224.41 1541.11 Q1222.04 1538.51 1218.1 1538.51 Q1213.65 1538.51 1210.95 1541.02 Q1208.29 1543.54 1207.89 1548.11 L1226.87 1548.08 Z" fill="#000000" fill-rule="nonzero" fill-opacity="1" /><path clip-path="url(#clip210)" d="M1259.71 1539.75 Q1258.81 1539.23 1257.74 1539 Q1256.7 1538.74 1255.43 1538.74 Q1250.91 1538.74 1248.48 1541.69 Q1246.08 1544.61 1246.08 1550.11 L1246.08 1567.18 L1240.73 1567.18 L1240.73 1534.77 L1246.08 1534.77 L1246.08 1539.81 Q1247.76 1536.86 1250.45 1535.44 Q1253.14 1533.99 1256.99 1533.99 Q1257.54 1533.99 1258.21 1534.08 Q1258.87 1534.14 1259.68 1534.28 L1259.71 1539.75 Z" fill="#000000" fill-rule="nonzero" fill-opacity="1" /><path clip-path="url(#clip210)" d="M1280.02 1550.89 Q1273.57 1550.89 1271.08 1552.37 Q1268.59 1553.84 1268.59 1557.4 Q1268.59 1560.24 1270.44 1561.91 Q1272.33 1563.56 1275.54 1563.56 Q1279.96 1563.56 1282.63 1560.44 Q1285.32 1557.28 1285.32 1552.08 L1285.32 1550.89 L1280.02 1550.89 M1290.64 1548.69 L1290.64 1567.18 L1285.32 1567.18 L1285.32 1562.26 Q1283.49 1565.21 1280.77 1566.63 Q1278.05 1568.02 1274.12 1568.02 Q1269.14 1568.02 1266.19 1565.24 Q1263.27 1562.43 1263.27 1557.75 Q1263.27 1552.28 1266.91 1549.5 Q1270.59 1546.72 1277.85 1546.72 L1285.32 1546.72 L1285.32 1546.2 Q1285.32 1542.53 1282.89 1540.53 Q1280.49 1538.51 1276.12 1538.51 Q1273.34 1538.51 1270.7 1539.17 Q1268.07 1539.84 1265.64 1541.17 L1265.64 1536.25 Q1268.56 1535.12 1271.31 1534.57 Q1274.06 1533.99 1276.67 1533.99 Q1283.7 1533.99 1287.17 1537.64 Q1290.64 1541.28 1290.64 1548.69 Z" fill="#000000" fill-rule="nonzero" fill-opacity="1" /><path clip-path="url(#clip210)" d="M1306.87 1525.57 L1306.87 1534.77 L1317.84 1534.77 L1317.84 1538.91 L1306.87 1538.91 L1306.87 1556.5 Q1306.87 1560.47 1307.94 1561.6 Q1309.04 1562.72 1312.37 1562.72 L1317.84 1562.72 L1317.84 1567.18 L1312.37 1567.18 Q1306.21 1567.18 1303.86 1564.89 Q1301.52 1562.58 1301.52 1556.5 L1301.52 1538.91 L1297.61 1538.91 L1297.61 1534.77 L1301.52 1534.77 L1301.52 1525.57 L1306.87 1525.57 Z" fill="#000000" fill-rule="nonzero" fill-opacity="1" /><path clip-path="url(#clip210)" d="M1324.84 1534.77 L1330.17 1534.77 L1330.17 1567.18 L1324.84 1567.18 L1324.84 1534.77 M1324.84 1522.16 L1330.17 1522.16 L1330.17 1528.9 L1324.84 1528.9 L1324.84 1522.16 Z" fill="#000000" fill-rule="nonzero" fill-opacity="1" /><path clip-path="url(#clip210)" d="M1353.86 1538.51 Q1349.58 1538.51 1347.09 1541.86 Q1344.61 1545.19 1344.61 1551.01 Q1344.61 1556.82 1347.06 1560.18 Q1349.55 1563.51 1353.86 1563.51 Q1358.12 1563.51 1360.61 1560.15 Q1363.09 1556.79 1363.09 1551.01 Q1363.09 1545.25 1360.61 1541.89 Q1358.12 1538.51 1353.86 1538.51 M1353.86 1533.99 Q1360.81 1533.99 1364.77 1538.51 Q1368.74 1543.02 1368.74 1551.01 Q1368.74 1558.96 1364.77 1563.51 Q1360.81 1568.02 1353.86 1568.02 Q1346.89 1568.02 1342.93 1563.51 Q1338.99 1558.96 1338.99 1551.01 Q1338.99 1543.02 1342.93 1538.51 Q1346.89 1533.99 1353.86 1533.99 Z" fill="#000000" fill-rule="nonzero" fill-opacity="1" /><path clip-path="url(#clip210)" d="M1404.5 1547.62 L1404.5 1567.18 L1399.18 1567.18 L1399.18 1547.79 Q1399.18 1543.19 1397.38 1540.91 Q1395.59 1538.62 1392 1538.62 Q1387.69 1538.62 1385.2 1541.37 Q1382.71 1544.12 1382.71 1548.86 L1382.71 1567.18 L1377.36 1567.18 L1377.36 1534.77 L1382.71 1534.77 L1382.71 1539.81 Q1384.62 1536.88 1387.2 1535.44 Q1389.8 1533.99 1393.19 1533.99 Q1398.77 1533.99 1401.64 1537.46 Q1404.5 1540.91 1404.5 1547.62 Z" fill="#000000" fill-rule="nonzero" fill-opacity="1" /><polyline clip-path="url(#clip210)" style="stroke:#000000; stroke-linecap:round; stroke-linejoin:round; stroke-width:4; stroke-opacity:1; fill:none" points="215.737,1427.5 215.737,47.2441 "/>
<polyline clip-path="url(#clip210)" style="stroke:#000000; stroke-linecap:round; stroke-linejoin:round; stroke-width:4; stroke-opacity:1; fill:none" points="215.737,879.775 234.635,879.775 "/>
<polyline clip-path="url(#clip210)" style="stroke:#000000; stroke-linecap:round; stroke-linejoin:round; stroke-width:4; stroke-opacity:1; fill:none" points="215.737,205.112 234.635,205.112 "/>
<polyline clip-path="url(#clip210)" style="stroke:#000000; stroke-linecap:round; stroke-linejoin:round; stroke-width:4; stroke-opacity:1; fill:none" points="215.737,1351.34 225.186,1351.34 "/>
<polyline clip-path="url(#clip210)" style="stroke:#000000; stroke-linecap:round; stroke-linejoin:round; stroke-width:4; stroke-opacity:1; fill:none" points="215.737,1232.54 225.186,1232.54 "/>
<polyline clip-path="url(#clip210)" style="stroke:#000000; stroke-linecap:round; stroke-linejoin:round; stroke-width:4; stroke-opacity:1; fill:none" points="215.737,1148.25 225.186,1148.25 "/>
<polyline clip-path="url(#clip210)" style="stroke:#000000; stroke-linecap:round; stroke-linejoin:round; stroke-width:4; stroke-opacity:1; fill:none" points="215.737,1082.87 225.186,1082.87 "/>
<polyline clip-path="url(#clip210)" style="stroke:#000000; stroke-linecap:round; stroke-linejoin:round; stroke-width:4; stroke-opacity:1; fill:none" points="215.737,1029.45 225.186,1029.45 "/>
<polyline clip-path="url(#clip210)" style="stroke:#000000; stroke-linecap:round; stroke-linejoin:round; stroke-width:4; stroke-opacity:1; fill:none" points="215.737,984.282 225.186,984.282 "/>
<polyline clip-path="url(#clip210)" style="stroke:#000000; stroke-linecap:round; stroke-linejoin:round; stroke-width:4; stroke-opacity:1; fill:none" points="215.737,945.157 225.186,945.157 "/>
<polyline clip-path="url(#clip210)" style="stroke:#000000; stroke-linecap:round; stroke-linejoin:round; stroke-width:4; stroke-opacity:1; fill:none" points="215.737,910.646 225.186,910.646 "/>
<polyline clip-path="url(#clip210)" style="stroke:#000000; stroke-linecap:round; stroke-linejoin:round; stroke-width:4; stroke-opacity:1; fill:none" points="215.737,676.681 225.186,676.681 "/>
<polyline clip-path="url(#clip210)" style="stroke:#000000; stroke-linecap:round; stroke-linejoin:round; stroke-width:4; stroke-opacity:1; fill:none" points="215.737,557.879 225.186,557.879 "/>
<polyline clip-path="url(#clip210)" style="stroke:#000000; stroke-linecap:round; stroke-linejoin:round; stroke-width:4; stroke-opacity:1; fill:none" points="215.737,473.587 225.186,473.587 "/>
<polyline clip-path="url(#clip210)" style="stroke:#000000; stroke-linecap:round; stroke-linejoin:round; stroke-width:4; stroke-opacity:1; fill:none" points="215.737,408.205 225.186,408.205 "/>
<polyline clip-path="url(#clip210)" style="stroke:#000000; stroke-linecap:round; stroke-linejoin:round; stroke-width:4; stroke-opacity:1; fill:none" points="215.737,354.785 225.186,354.785 "/>
<polyline clip-path="url(#clip210)" style="stroke:#000000; stroke-linecap:round; stroke-linejoin:round; stroke-width:4; stroke-opacity:1; fill:none" points="215.737,309.618 225.186,309.618 "/>
<polyline clip-path="url(#clip210)" style="stroke:#000000; stroke-linecap:round; stroke-linejoin:round; stroke-width:4; stroke-opacity:1; fill:none" points="215.737,270.493 225.186,270.493 "/>
<polyline clip-path="url(#clip210)" style="stroke:#000000; stroke-linecap:round; stroke-linejoin:round; stroke-width:4; stroke-opacity:1; fill:none" points="215.737,235.982 225.186,235.982 "/>
<path clip-path="url(#clip210)" d="M111.721 899.567 L119.36 899.567 L119.36 873.202 L111.05 874.868 L111.05 870.609 L119.314 868.943 L123.99 868.943 L123.99 899.567 L131.628 899.567 L131.628 903.503 L111.721 903.503 L111.721 899.567 Z" fill="#000000" fill-rule="nonzero" fill-opacity="1" /><path clip-path="url(#clip210)" d="M151.073 872.021 Q147.462 872.021 145.633 875.586 Q143.827 879.128 143.827 886.257 Q143.827 893.364 145.633 896.928 Q147.462 900.47 151.073 900.47 Q154.707 900.47 156.513 896.928 Q158.341 893.364 158.341 886.257 Q158.341 879.128 156.513 875.586 Q154.707 872.021 151.073 872.021 M151.073 868.318 Q156.883 868.318 159.938 872.924 Q163.017 877.507 163.017 886.257 Q163.017 894.984 159.938 899.59 Q156.883 904.174 151.073 904.174 Q145.263 904.174 142.184 899.59 Q139.128 894.984 139.128 886.257 Q139.128 877.507 142.184 872.924 Q145.263 868.318 151.073 868.318 Z" fill="#000000" fill-rule="nonzero" fill-opacity="1" /><path clip-path="url(#clip210)" d="M163.563 872.895 L169.769 872.895 L169.769 851.473 L163.017 852.827 L163.017 849.366 L169.732 848.012 L173.531 848.012 L173.531 872.895 L179.737 872.895 L179.737 876.092 L163.563 876.092 L163.563 872.895 Z" fill="#000000" fill-rule="nonzero" fill-opacity="1" /><path clip-path="url(#clip210)" d="M110.611 224.904 L118.25 224.904 L118.25 198.538 L109.94 200.205 L109.94 195.946 L118.204 194.279 L122.88 194.279 L122.88 224.904 L130.519 224.904 L130.519 228.839 L110.611 228.839 L110.611 224.904 Z" fill="#000000" fill-rule="nonzero" fill-opacity="1" /><path clip-path="url(#clip210)" d="M149.963 197.358 Q146.352 197.358 144.523 200.923 Q142.718 204.464 142.718 211.594 Q142.718 218.7 144.523 222.265 Q146.352 225.807 149.963 225.807 Q153.597 225.807 155.403 222.265 Q157.232 218.7 157.232 211.594 Q157.232 204.464 155.403 200.923 Q153.597 197.358 149.963 197.358 M149.963 193.654 Q155.773 193.654 158.829 198.261 Q161.907 202.844 161.907 211.594 Q161.907 220.321 158.829 224.927 Q155.773 229.51 149.963 229.51 Q144.153 229.51 141.074 224.927 Q138.019 220.321 138.019 211.594 Q138.019 202.844 141.074 198.261 Q144.153 193.654 149.963 193.654 Z" fill="#000000" fill-rule="nonzero" fill-opacity="1" /><path clip-path="url(#clip210)" d="M166.478 198.231 L179.737 198.231 L179.737 201.429 L161.907 201.429 L161.907 198.231 Q164.07 195.993 167.794 192.232 Q171.537 188.451 172.496 187.36 Q174.321 185.31 175.035 183.9 Q175.769 182.47 175.769 181.098 Q175.769 178.859 174.189 177.449 Q172.628 176.038 170.108 176.038 Q168.321 176.038 166.327 176.659 Q164.352 177.28 162.096 178.54 L162.096 174.703 Q164.39 173.781 166.384 173.311 Q168.377 172.841 170.032 172.841 Q174.396 172.841 176.991 175.023 Q179.587 177.204 179.587 180.853 Q179.587 182.583 178.929 184.144 Q178.289 185.687 176.578 187.793 Q176.107 188.339 173.587 190.953 Q171.067 193.548 166.478 198.231 Z" fill="#000000" fill-rule="nonzero" fill-opacity="1" /><path clip-path="url(#clip210)" d="M15.9573 860.129 L20.3843 860.129 L20.3843 865.221 Q20.3843 868.086 21.5417 869.214 Q22.6991 870.314 25.7084 870.314 L28.5729 870.314 L28.5729 861.547 L32.7106 861.547 L32.7106 870.314 L60.9802 870.314 L60.9802 875.667 L32.7106 875.667 L32.7106 880.76 L28.5729 880.76 L28.5729 875.667 L26.316 875.667 Q20.9051 875.667 18.4457 873.15 Q15.9573 870.632 15.9573 865.164 L15.9573 860.129 Z" fill="#000000" fill-rule="nonzero" fill-opacity="1" /><path clip-path="url(#clip210)" d="M48.1909 856.223 L28.5729 856.223 L28.5729 850.899 L47.9883 850.899 Q52.589 850.899 54.9038 849.105 Q57.1897 847.311 57.1897 843.723 Q57.1897 839.411 54.4408 836.923 Q51.692 834.406 46.9467 834.406 L28.5729 834.406 L28.5729 829.082 L60.9802 829.082 L60.9802 834.406 L56.0033 834.406 Q58.9547 836.344 60.4015 838.919 Q61.8193 841.466 61.8193 844.851 Q61.8193 850.436 58.3471 853.329 Q54.8749 856.223 48.1909 856.223 M27.7917 842.826 L27.7917 842.826 Z" fill="#000000" fill-rule="nonzero" fill-opacity="1" /><path clip-path="url(#clip210)" d="M41.4201 791.177 L60.9802 791.177 L60.9802 796.501 L41.5937 796.501 Q36.993 796.501 34.7072 798.295 Q32.4213 800.089 32.4213 803.677 Q32.4213 807.988 35.1701 810.476 Q37.9189 812.965 42.6643 812.965 L60.9802 812.965 L60.9802 818.318 L28.5729 818.318 L28.5729 812.965 L33.6076 812.965 Q30.6852 811.055 29.2384 808.48 Q27.7917 805.876 27.7917 802.49 Q27.7917 796.906 31.2639 794.041 Q34.7072 791.177 41.4201 791.177 Z" fill="#000000" fill-rule="nonzero" fill-opacity="1" /><path clip-path="url(#clip210)" d="M29.8171 757.236 L34.794 757.236 Q33.5497 759.493 32.9421 761.779 Q32.3055 764.036 32.3055 766.35 Q32.3055 771.53 35.6041 774.394 Q38.8738 777.259 44.8055 777.259 Q50.7372 777.259 54.0358 774.394 Q57.3054 771.53 57.3054 766.35 Q57.3054 764.036 56.6978 761.779 Q56.0612 759.493 54.817 757.236 L59.736 757.236 Q60.7776 759.464 61.2984 761.865 Q61.8193 764.238 61.8193 766.929 Q61.8193 774.25 57.2186 778.561 Q52.6179 782.872 44.8055 782.872 Q36.8773 782.872 32.3345 778.532 Q27.7917 774.163 27.7917 766.582 Q27.7917 764.122 28.3125 761.779 Q28.8044 759.435 29.8171 757.236 Z" fill="#000000" fill-rule="nonzero" fill-opacity="1" /><path clip-path="url(#clip210)" d="M60.9802 736.605 L17.7802 753.098 L17.7802 746.993 L54.1515 733.307 L17.7802 719.591 L17.7802 713.515 L60.9802 729.979 L60.9802 736.605 Z" fill="#000000" fill-rule="nonzero" fill-opacity="1" /><path clip-path="url(#clip210)" d="M44.6897 697.311 Q44.6897 703.764 46.1654 706.252 Q47.6411 708.741 51.2001 708.741 Q54.0358 708.741 55.714 706.889 Q57.3633 705.008 57.3633 701.796 Q57.3633 697.369 54.2383 694.707 Q51.0844 692.016 45.8761 692.016 L44.6897 692.016 L44.6897 697.311 M42.4907 686.692 L60.9802 686.692 L60.9802 692.016 L56.0612 692.016 Q59.0126 693.839 60.4304 696.559 Q61.8193 699.279 61.8193 703.214 Q61.8193 708.191 59.0415 711.142 Q56.2348 714.065 51.5473 714.065 Q46.0786 714.065 43.3009 710.419 Q40.5231 706.744 40.5231 699.482 L40.5231 692.016 L40.0023 692.016 Q36.3275 692.016 34.331 694.447 Q32.3055 696.848 32.3055 701.218 Q32.3055 703.995 32.971 706.628 Q33.6366 709.262 34.9676 711.692 L30.0486 711.692 Q28.9201 708.77 28.3704 706.021 Q27.7917 703.272 27.7917 700.668 Q27.7917 693.637 31.4375 690.164 Q35.0833 686.692 42.4907 686.692 Z" fill="#000000" fill-rule="nonzero" fill-opacity="1" /><path clip-path="url(#clip210)" d="M15.9573 675.726 L15.9573 670.402 L60.9802 670.402 L60.9802 675.726 L15.9573 675.726 Z" fill="#000000" fill-rule="nonzero" fill-opacity="1" /><path clip-path="url(#clip210)" d="M48.1909 659.812 L28.5729 659.812 L28.5729 654.488 L47.9883 654.488 Q52.589 654.488 54.9038 652.694 Q57.1897 650.9 57.1897 647.312 Q57.1897 643 54.4408 640.512 Q51.692 637.995 46.9467 637.995 L28.5729 637.995 L28.5729 632.671 L60.9802 632.671 L60.9802 637.995 L56.0033 637.995 Q58.9547 639.933 60.4015 642.508 Q61.8193 645.055 61.8193 648.44 Q61.8193 654.025 58.3471 656.918 Q54.8749 659.812 48.1909 659.812 M27.7917 646.415 L27.7917 646.415 Z" fill="#000000" fill-rule="nonzero" fill-opacity="1" /><path clip-path="url(#clip210)" d="M43.4455 593.984 L46.0497 593.984 L46.0497 618.463 Q51.5473 618.116 54.4408 615.165 Q57.3054 612.185 57.3054 606.889 Q57.3054 603.822 56.5531 600.958 Q55.8008 598.064 54.2962 595.229 L59.3309 595.229 Q60.5461 598.093 61.1827 601.102 Q61.8193 604.112 61.8193 607.208 Q61.8193 614.962 57.3054 619.505 Q52.7915 624.019 45.0948 624.019 Q37.1377 624.019 32.4792 619.737 Q27.7917 615.425 27.7917 608.134 Q27.7917 601.594 32.0162 597.804 Q36.2118 593.984 43.4455 593.984 M41.883 599.308 Q37.5138 599.366 34.9097 601.768 Q32.3055 604.141 32.3055 608.076 Q32.3055 612.532 34.8229 615.223 Q37.3402 617.885 41.912 618.29 L41.883 599.308 Z" fill="#000000" fill-rule="nonzero" fill-opacity="1" /><polyline clip-path="url(#clip212)" style="stroke:#0000ff; stroke-linecap:round; stroke-linejoin:round; stroke-width:8; stroke-opacity:1; fill:none" points="276.219,86.3079 377.022,418.25 477.824,569.138 578.627,682.871 679.43,749.193 780.233,793.298 881.036,859.715 981.838,930.245 1082.64,984.999 1183.44,1032.27 1284.25,1074.81 1385.05,1113.91 1485.85,1150.13 1586.65,1183.85 1687.46,1215.65 1788.26,1246.64 1889.06,1276.82 1989.87,1306.03 2090.67,1334.29 2191.47,1361.73 2292.27,1388.44 "/>
<path clip-path="url(#clip212)" d="M276.219 70.3079 L272.459 81.1239 L261.003 81.3639 L270.139 88.2919 L266.811 99.2519 L276.219 92.7079 L285.627 99.2519 L282.299 88.2919 L291.435 81.3639 L279.979 81.1239 L276.219 70.3079 Z" fill="#009af9" fill-rule="evenodd" fill-opacity="1" stroke="#000000" stroke-opacity="1" stroke-width="3.2"/>
<path clip-path="url(#clip212)" d="M377.022 402.25 L373.262 413.066 L361.806 413.306 L370.942 420.234 L367.614 431.194 L377.022 424.65 L386.43 431.194 L383.102 420.234 L392.238 413.306 L380.782 413.066 L377.022 402.25 Z" fill="#009af9" fill-rule="evenodd" fill-opacity="1" stroke="#000000" stroke-opacity="1" stroke-width="3.2"/>
<path clip-path="url(#clip212)" d="M477.824 553.138 L474.064 563.954 L462.608 564.194 L471.744 571.122 L468.416 582.082 L477.824 575.538 L487.232 582.082 L483.904 571.122 L493.04 564.194 L481.584 563.954 L477.824 553.138 Z" fill="#009af9" fill-rule="evenodd" fill-opacity="1" stroke="#000000" stroke-opacity="1" stroke-width="3.2"/>
<path clip-path="url(#clip212)" d="M578.627 666.871 L574.867 677.687 L563.411 677.927 L572.547 684.855 L569.219 695.815 L578.627 689.271 L588.035 695.815 L584.707 684.855 L593.843 677.927 L582.387 677.687 L578.627 666.871 Z" fill="#009af9" fill-rule="evenodd" fill-opacity="1" stroke="#000000" stroke-opacity="1" stroke-width="3.2"/>
<path clip-path="url(#clip212)" d="M679.43 733.193 L675.67 744.009 L664.214 744.249 L673.35 751.177 L670.022 762.137 L679.43 755.593 L688.838 762.137 L685.51 751.177 L694.646 744.249 L683.19 744.009 L679.43 733.193 Z" fill="#009af9" fill-rule="evenodd" fill-opacity="1" stroke="#000000" stroke-opacity="1" stroke-width="3.2"/>
<path clip-path="url(#clip212)" d="M780.233 777.298 L776.473 788.114 L765.017 788.354 L774.153 795.282 L770.825 806.242 L780.233 799.698 L789.641 806.242 L786.313 795.282 L795.449 788.354 L783.993 788.114 L780.233 777.298 Z" fill="#009af9" fill-rule="evenodd" fill-opacity="1" stroke="#000000" stroke-opacity="1" stroke-width="3.2"/>
<path clip-path="url(#clip212)" d="M881.036 843.715 L877.276 854.531 L865.82 854.771 L874.956 861.699 L871.628 872.659 L881.036 866.115 L890.444 872.659 L887.116 861.699 L896.252 854.771 L884.796 854.531 L881.036 843.715 Z" fill="#009af9" fill-rule="evenodd" fill-opacity="1" stroke="#000000" stroke-opacity="1" stroke-width="3.2"/>
<path clip-path="url(#clip212)" d="M981.838 914.245 L978.078 925.061 L966.622 925.301 L975.758 932.229 L972.43 943.189 L981.838 936.645 L991.246 943.189 L987.918 932.229 L997.054 925.301 L985.598 925.061 L981.838 914.245 Z" fill="#009af9" fill-rule="evenodd" fill-opacity="1" stroke="#000000" stroke-opacity="1" stroke-width="3.2"/>
<path clip-path="url(#clip212)" d="M1082.64 968.999 L1078.88 979.815 L1067.43 980.055 L1076.56 986.983 L1073.23 997.943 L1082.64 991.399 L1092.05 997.943 L1088.72 986.983 L1097.86 980.055 L1086.4 979.815 L1082.64 968.999 Z" fill="#009af9" fill-rule="evenodd" fill-opacity="1" stroke="#000000" stroke-opacity="1" stroke-width="3.2"/>
<path clip-path="url(#clip212)" d="M1183.44 1016.27 L1179.68 1027.08 L1168.23 1027.32 L1177.36 1034.25 L1174.04 1045.21 L1183.44 1038.67 L1192.85 1045.21 L1189.52 1034.25 L1198.66 1027.32 L1187.2 1027.08 L1183.44 1016.27 Z" fill="#009af9" fill-rule="evenodd" fill-opacity="1" stroke="#000000" stroke-opacity="1" stroke-width="3.2"/>
<path clip-path="url(#clip212)" d="M1284.25 1058.81 L1280.49 1069.63 L1269.03 1069.87 L1278.17 1076.8 L1274.84 1087.76 L1284.25 1081.21 L1293.65 1087.76 L1290.33 1076.8 L1299.46 1069.87 L1288.01 1069.63 L1284.25 1058.81 Z" fill="#009af9" fill-rule="evenodd" fill-opacity="1" stroke="#000000" stroke-opacity="1" stroke-width="3.2"/>
<path clip-path="url(#clip212)" d="M1385.05 1097.91 L1381.29 1108.73 L1369.83 1108.97 L1378.97 1115.89 L1375.64 1126.85 L1385.05 1120.31 L1394.46 1126.85 L1391.13 1115.89 L1400.27 1108.97 L1388.81 1108.73 L1385.05 1097.91 Z" fill="#009af9" fill-rule="evenodd" fill-opacity="1" stroke="#000000" stroke-opacity="1" stroke-width="3.2"/>
<path clip-path="url(#clip212)" d="M1485.85 1134.13 L1482.09 1144.94 L1470.64 1145.18 L1479.77 1152.11 L1476.44 1163.07 L1485.85 1156.53 L1495.26 1163.07 L1491.93 1152.11 L1501.07 1145.18 L1489.61 1144.94 L1485.85 1134.13 Z" fill="#009af9" fill-rule="evenodd" fill-opacity="1" stroke="#000000" stroke-opacity="1" stroke-width="3.2"/>
<path clip-path="url(#clip212)" d="M1586.65 1167.85 L1582.89 1178.66 L1571.44 1178.9 L1580.57 1185.83 L1577.25 1196.79 L1586.65 1190.25 L1596.06 1196.79 L1592.73 1185.83 L1601.87 1178.9 L1590.41 1178.66 L1586.65 1167.85 Z" fill="#009af9" fill-rule="evenodd" fill-opacity="1" stroke="#000000" stroke-opacity="1" stroke-width="3.2"/>
<path clip-path="url(#clip212)" d="M1687.46 1199.65 L1683.7 1210.46 L1672.24 1210.7 L1681.38 1217.63 L1678.05 1228.59 L1687.46 1222.05 L1696.87 1228.59 L1693.54 1217.63 L1702.67 1210.7 L1691.22 1210.46 L1687.46 1199.65 Z" fill="#009af9" fill-rule="evenodd" fill-opacity="1" stroke="#000000" stroke-opacity="1" stroke-width="3.2"/>
<path clip-path="url(#clip212)" d="M1788.26 1230.64 L1784.5 1241.46 L1773.04 1241.7 L1782.18 1248.62 L1778.85 1259.58 L1788.26 1253.04 L1797.67 1259.58 L1794.34 1248.62 L1803.48 1241.7 L1792.02 1241.46 L1788.26 1230.64 Z" fill="#009af9" fill-rule="evenodd" fill-opacity="1" stroke="#000000" stroke-opacity="1" stroke-width="3.2"/>
<path clip-path="url(#clip212)" d="M1889.06 1260.82 L1885.3 1271.63 L1873.85 1271.87 L1882.98 1278.8 L1879.66 1289.76 L1889.06 1283.22 L1898.47 1289.76 L1895.14 1278.8 L1904.28 1271.87 L1892.82 1271.63 L1889.06 1260.82 Z" fill="#009af9" fill-rule="evenodd" fill-opacity="1" stroke="#000000" stroke-opacity="1" stroke-width="3.2"/>
<path clip-path="url(#clip212)" d="M1989.87 1290.03 L1986.11 1300.85 L1974.65 1301.09 L1983.79 1308.02 L1980.46 1318.98 L1989.87 1312.43 L1999.27 1318.98 L1995.95 1308.02 L2005.08 1301.09 L1993.63 1300.85 L1989.87 1290.03 Z" fill="#009af9" fill-rule="evenodd" fill-opacity="1" stroke="#000000" stroke-opacity="1" stroke-width="3.2"/>
<path clip-path="url(#clip212)" d="M2090.67 1318.29 L2086.91 1329.11 L2075.45 1329.35 L2084.59 1336.28 L2081.26 1347.24 L2090.67 1340.69 L2100.08 1347.24 L2096.75 1336.28 L2105.88 1329.35 L2094.43 1329.11 L2090.67 1318.29 Z" fill="#009af9" fill-rule="evenodd" fill-opacity="1" stroke="#000000" stroke-opacity="1" stroke-width="3.2"/>
<path clip-path="url(#clip212)" d="M2191.47 1345.73 L2187.71 1356.54 L2176.26 1356.78 L2185.39 1363.71 L2182.06 1374.67 L2191.47 1368.13 L2200.88 1374.67 L2197.55 1363.71 L2206.69 1356.78 L2195.23 1356.54 L2191.47 1345.73 Z" fill="#009af9" fill-rule="evenodd" fill-opacity="1" stroke="#000000" stroke-opacity="1" stroke-width="3.2"/>
<path clip-path="url(#clip212)" d="M2292.27 1372.44 L2288.51 1383.25 L2277.06 1383.49 L2286.19 1390.42 L2282.87 1401.38 L2292.27 1394.84 L2301.68 1401.38 L2298.35 1390.42 L2307.49 1383.49 L2296.03 1383.25 L2292.27 1372.44 Z" fill="#009af9" fill-rule="evenodd" fill-opacity="1" stroke="#000000" stroke-opacity="1" stroke-width="3.2"/>
<polyline clip-path="url(#clip212)" style="stroke:#0000ff; stroke-linecap:round; stroke-linejoin:round; stroke-width:8; stroke-opacity:1; fill:none" stroke-dasharray="32, 16, 4, 16" points="276.219,86.3079 377.022,418.25 477.824,578.081 578.627,681.895 679.43,752.53 780.233,800.007 881.036,819.223 981.838,860.608 1082.64,919.244 1183.44,980.418 1284.25,1083.84 1385.05,1100.62 1485.85,1147.7 1586.65,1153.22 1687.46,1153.78 1788.26,1187.45 1889.06,1231.5 1989.87,1274.16 2090.67,1312.08 2191.47,1346.03 2292.27,1376.72 "/>
<circle clip-path="url(#clip212)" cx="276.219" cy="86.3079" r="14.4" fill="#e26f46" fill-rule="evenodd" fill-opacity="1" stroke="#000000" stroke-opacity="1" stroke-width="3.2"/>
<circle clip-path="url(#clip212)" cx="377.022" cy="418.25" r="14.4" fill="#e26f46" fill-rule="evenodd" fill-opacity="1" stroke="#000000" stroke-opacity="1" stroke-width="3.2"/>
<circle clip-path="url(#clip212)" cx="477.824" cy="578.081" r="14.4" fill="#e26f46" fill-rule="evenodd" fill-opacity="1" stroke="#000000" stroke-opacity="1" stroke-width="3.2"/>
<circle clip-path="url(#clip212)" cx="578.627" cy="681.895" r="14.4" fill="#e26f46" fill-rule="evenodd" fill-opacity="1" stroke="#000000" stroke-opacity="1" stroke-width="3.2"/>
<circle clip-path="url(#clip212)" cx="679.43" cy="752.53" r="14.4" fill="#e26f46" fill-rule="evenodd" fill-opacity="1" stroke="#000000" stroke-opacity="1" stroke-width="3.2"/>
<circle clip-path="url(#clip212)" cx="780.233" cy="800.007" r="14.4" fill="#e26f46" fill-rule="evenodd" fill-opacity="1" stroke="#000000" stroke-opacity="1" stroke-width="3.2"/>
<circle clip-path="url(#clip212)" cx="881.036" cy="819.223" r="14.4" fill="#e26f46" fill-rule="evenodd" fill-opacity="1" stroke="#000000" stroke-opacity="1" stroke-width="3.2"/>
<circle clip-path="url(#clip212)" cx="981.838" cy="860.608" r="14.4" fill="#e26f46" fill-rule="evenodd" fill-opacity="1" stroke="#000000" stroke-opacity="1" stroke-width="3.2"/>
<circle clip-path="url(#clip212)" cx="1082.64" cy="919.244" r="14.4" fill="#e26f46" fill-rule="evenodd" fill-opacity="1" stroke="#000000" stroke-opacity="1" stroke-width="3.2"/>
<circle clip-path="url(#clip212)" cx="1183.44" cy="980.418" r="14.4" fill="#e26f46" fill-rule="evenodd" fill-opacity="1" stroke="#000000" stroke-opacity="1" stroke-width="3.2"/>
<circle clip-path="url(#clip212)" cx="1284.25" cy="1083.84" r="14.4" fill="#e26f46" fill-rule="evenodd" fill-opacity="1" stroke="#000000" stroke-opacity="1" stroke-width="3.2"/>
<circle clip-path="url(#clip212)" cx="1385.05" cy="1100.62" r="14.4" fill="#e26f46" fill-rule="evenodd" fill-opacity="1" stroke="#000000" stroke-opacity="1" stroke-width="3.2"/>
<circle clip-path="url(#clip212)" cx="1485.85" cy="1147.7" r="14.4" fill="#e26f46" fill-rule="evenodd" fill-opacity="1" stroke="#000000" stroke-opacity="1" stroke-width="3.2"/>
<circle clip-path="url(#clip212)" cx="1586.65" cy="1153.22" r="14.4" fill="#e26f46" fill-rule="evenodd" fill-opacity="1" stroke="#000000" stroke-opacity="1" stroke-width="3.2"/>
<circle clip-path="url(#clip212)" cx="1687.46" cy="1153.78" r="14.4" fill="#e26f46" fill-rule="evenodd" fill-opacity="1" stroke="#000000" stroke-opacity="1" stroke-width="3.2"/>
<circle clip-path="url(#clip212)" cx="1788.26" cy="1187.45" r="14.4" fill="#e26f46" fill-rule="evenodd" fill-opacity="1" stroke="#000000" stroke-opacity="1" stroke-width="3.2"/>
<circle clip-path="url(#clip212)" cx="1889.06" cy="1231.5" r="14.4" fill="#e26f46" fill-rule="evenodd" fill-opacity="1" stroke="#000000" stroke-opacity="1" stroke-width="3.2"/>
<circle clip-path="url(#clip212)" cx="1989.87" cy="1274.16" r="14.4" fill="#e26f46" fill-rule="evenodd" fill-opacity="1" stroke="#000000" stroke-opacity="1" stroke-width="3.2"/>
<circle clip-path="url(#clip212)" cx="2090.67" cy="1312.08" r="14.4" fill="#e26f46" fill-rule="evenodd" fill-opacity="1" stroke="#000000" stroke-opacity="1" stroke-width="3.2"/>
<circle clip-path="url(#clip212)" cx="2191.47" cy="1346.03" r="14.4" fill="#e26f46" fill-rule="evenodd" fill-opacity="1" stroke="#000000" stroke-opacity="1" stroke-width="3.2"/>
<circle clip-path="url(#clip212)" cx="2292.27" cy="1376.72" r="14.4" fill="#e26f46" fill-rule="evenodd" fill-opacity="1" stroke="#000000" stroke-opacity="1" stroke-width="3.2"/>
<polyline clip-path="url(#clip212)" style="stroke:#000000; stroke-linecap:round; stroke-linejoin:round; stroke-width:8; stroke-opacity:1; fill:none" points="276.219,86.3079 377.022,418.25 477.824,578.081 578.627,681.895 679.43,752.53 780.233,800.007 881.036,819.223 981.838,860.608 1082.64,919.244 1183.44,980.418 1284.25,1035.11 1385.05,1083.93 1485.85,1127.08 1586.65,1165.65 1687.46,1200.99 1788.26,1234.17 1889.06,1265.59 1989.87,1292.3 2090.67,1317.87 2191.47,1344.69 2292.27,1371.86 "/>
<path clip-path="url(#clip212)" d="M276.219 70.3079 L272.459 81.1239 L261.003 81.3639 L270.139 88.2919 L266.811 99.2519 L276.219 92.7079 L285.627 99.2519 L282.299 88.2919 L291.435 81.3639 L279.979 81.1239 L276.219 70.3079 Z" fill="#3da44d" fill-rule="evenodd" fill-opacity="1" stroke="#000000" stroke-opacity="1" stroke-width="3.2"/>
<path clip-path="url(#clip212)" d="M377.022 402.25 L373.262 413.066 L361.806 413.306 L370.942 420.234 L367.614 431.194 L377.022 424.65 L386.43 431.194 L383.102 420.234 L392.238 413.306 L380.782 413.066 L377.022 402.25 Z" fill="#3da44d" fill-rule="evenodd" fill-opacity="1" stroke="#000000" stroke-opacity="1" stroke-width="3.2"/>
<path clip-path="url(#clip212)" d="M477.824 562.081 L474.064 572.897 L462.608 573.137 L471.744 580.065 L468.416 591.025 L477.824 584.481 L487.232 591.025 L483.904 580.065 L493.04 573.137 L481.584 572.897 L477.824 562.081 Z" fill="#3da44d" fill-rule="evenodd" fill-opacity="1" stroke="#000000" stroke-opacity="1" stroke-width="3.2"/>
<path clip-path="url(#clip212)" d="M578.627 665.895 L574.867 676.711 L563.411 676.951 L572.547 683.879 L569.219 694.839 L578.627 688.295 L588.035 694.839 L584.707 683.879 L593.843 676.951 L582.387 676.711 L578.627 665.895 Z" fill="#3da44d" fill-rule="evenodd" fill-opacity="1" stroke="#000000" stroke-opacity="1" stroke-width="3.2"/>
<path clip-path="url(#clip212)" d="M679.43 736.53 L675.67 747.346 L664.214 747.586 L673.35 754.514 L670.022 765.474 L679.43 758.93 L688.838 765.474 L685.51 754.514 L694.646 747.586 L683.19 747.346 L679.43 736.53 Z" fill="#3da44d" fill-rule="evenodd" fill-opacity="1" stroke="#000000" stroke-opacity="1" stroke-width="3.2"/>
<path clip-path="url(#clip212)" d="M780.233 784.007 L776.473 794.823 L765.017 795.063 L774.153 801.991 L770.825 812.951 L780.233 806.407 L789.641 812.951 L786.313 801.991 L795.449 795.063 L783.993 794.823 L780.233 784.007 Z" fill="#3da44d" fill-rule="evenodd" fill-opacity="1" stroke="#000000" stroke-opacity="1" stroke-width="3.2"/>
<path clip-path="url(#clip212)" d="M881.036 803.223 L877.276 814.039 L865.82 814.279 L874.956 821.207 L871.628 832.167 L881.036 825.623 L890.444 832.167 L887.116 821.207 L896.252 814.279 L884.796 814.039 L881.036 803.223 Z" fill="#3da44d" fill-rule="evenodd" fill-opacity="1" stroke="#000000" stroke-opacity="1" stroke-width="3.2"/>
<path clip-path="url(#clip212)" d="M981.838 844.608 L978.078 855.424 L966.622 855.664 L975.758 862.592 L972.43 873.552 L981.838 867.008 L991.246 873.552 L987.918 862.592 L997.054 855.664 L985.598 855.424 L981.838 844.608 Z" fill="#3da44d" fill-rule="evenodd" fill-opacity="1" stroke="#000000" stroke-opacity="1" stroke-width="3.2"/>
<path clip-path="url(#clip212)" d="M1082.64 903.244 L1078.88 914.06 L1067.43 914.3 L1076.56 921.228 L1073.23 932.188 L1082.64 925.644 L1092.05 932.188 L1088.72 921.228 L1097.86 914.3 L1086.4 914.06 L1082.64 903.244 Z" fill="#3da44d" fill-rule="evenodd" fill-opacity="1" stroke="#000000" stroke-opacity="1" stroke-width="3.2"/>
<path clip-path="url(#clip212)" d="M1183.44 964.418 L1179.68 975.234 L1168.23 975.474 L1177.36 982.402 L1174.04 993.362 L1183.44 986.818 L1192.85 993.362 L1189.52 982.402 L1198.66 975.474 L1187.2 975.234 L1183.44 964.418 Z" fill="#3da44d" fill-rule="evenodd" fill-opacity="1" stroke="#000000" stroke-opacity="1" stroke-width="3.2"/>
<path clip-path="url(#clip212)" d="M1284.25 1019.11 L1280.49 1029.92 L1269.03 1030.16 L1278.17 1037.09 L1274.84 1048.05 L1284.25 1041.51 L1293.65 1048.05 L1290.33 1037.09 L1299.46 1030.16 L1288.01 1029.92 L1284.25 1019.11 Z" fill="#3da44d" fill-rule="evenodd" fill-opacity="1" stroke="#000000" stroke-opacity="1" stroke-width="3.2"/>
<path clip-path="url(#clip212)" d="M1385.05 1067.93 L1381.29 1078.75 L1369.83 1078.99 L1378.97 1085.92 L1375.64 1096.88 L1385.05 1090.33 L1394.46 1096.88 L1391.13 1085.92 L1400.27 1078.99 L1388.81 1078.75 L1385.05 1067.93 Z" fill="#3da44d" fill-rule="evenodd" fill-opacity="1" stroke="#000000" stroke-opacity="1" stroke-width="3.2"/>
<path clip-path="url(#clip212)" d="M1485.85 1111.08 L1482.09 1121.9 L1470.64 1122.14 L1479.77 1129.07 L1476.44 1140.03 L1485.85 1133.48 L1495.26 1140.03 L1491.93 1129.07 L1501.07 1122.14 L1489.61 1121.9 L1485.85 1111.08 Z" fill="#3da44d" fill-rule="evenodd" fill-opacity="1" stroke="#000000" stroke-opacity="1" stroke-width="3.2"/>
<path clip-path="url(#clip212)" d="M1586.65 1149.65 L1582.89 1160.46 L1571.44 1160.7 L1580.57 1167.63 L1577.25 1178.59 L1586.65 1172.05 L1596.06 1178.59 L1592.73 1167.63 L1601.87 1160.7 L1590.41 1160.46 L1586.65 1149.65 Z" fill="#3da44d" fill-rule="evenodd" fill-opacity="1" stroke="#000000" stroke-opacity="1" stroke-width="3.2"/>
<path clip-path="url(#clip212)" d="M1687.46 1184.99 L1683.7 1195.8 L1672.24 1196.04 L1681.38 1202.97 L1678.05 1213.93 L1687.46 1207.39 L1696.87 1213.93 L1693.54 1202.97 L1702.67 1196.04 L1691.22 1195.8 L1687.46 1184.99 Z" fill="#3da44d" fill-rule="evenodd" fill-opacity="1" stroke="#000000" stroke-opacity="1" stroke-width="3.2"/>
<path clip-path="url(#clip212)" d="M1788.26 1218.17 L1784.5 1228.98 L1773.04 1229.22 L1782.18 1236.15 L1778.85 1247.11 L1788.26 1240.57 L1797.67 1247.11 L1794.34 1236.15 L1803.48 1229.22 L1792.02 1228.98 L1788.26 1218.17 Z" fill="#3da44d" fill-rule="evenodd" fill-opacity="1" stroke="#000000" stroke-opacity="1" stroke-width="3.2"/>
<path clip-path="url(#clip212)" d="M1889.06 1249.59 L1885.3 1260.4 L1873.85 1260.64 L1882.98 1267.57 L1879.66 1278.53 L1889.06 1271.99 L1898.47 1278.53 L1895.14 1267.57 L1904.28 1260.64 L1892.82 1260.4 L1889.06 1249.59 Z" fill="#3da44d" fill-rule="evenodd" fill-opacity="1" stroke="#000000" stroke-opacity="1" stroke-width="3.2"/>
<path clip-path="url(#clip212)" d="M1989.87 1276.3 L1986.11 1287.12 L1974.65 1287.36 L1983.79 1294.29 L1980.46 1305.25 L1989.87 1298.7 L1999.27 1305.25 L1995.95 1294.29 L2005.08 1287.36 L1993.63 1287.12 L1989.87 1276.3 Z" fill="#3da44d" fill-rule="evenodd" fill-opacity="1" stroke="#000000" stroke-opacity="1" stroke-width="3.2"/>
<path clip-path="url(#clip212)" d="M2090.67 1301.87 L2086.91 1312.68 L2075.45 1312.92 L2084.59 1319.85 L2081.26 1330.81 L2090.67 1324.27 L2100.08 1330.81 L2096.75 1319.85 L2105.88 1312.92 L2094.43 1312.68 L2090.67 1301.87 Z" fill="#3da44d" fill-rule="evenodd" fill-opacity="1" stroke="#000000" stroke-opacity="1" stroke-width="3.2"/>
<path clip-path="url(#clip212)" d="M2191.47 1328.69 L2187.71 1339.51 L2176.26 1339.75 L2185.39 1346.68 L2182.06 1357.64 L2191.47 1351.09 L2200.88 1357.64 L2197.55 1346.68 L2206.69 1339.75 L2195.23 1339.51 L2191.47 1328.69 Z" fill="#3da44d" fill-rule="evenodd" fill-opacity="1" stroke="#000000" stroke-opacity="1" stroke-width="3.2"/>
<path clip-path="url(#clip212)" d="M2292.27 1355.86 L2288.51 1366.68 L2277.06 1366.92 L2286.19 1373.85 L2282.87 1384.81 L2292.27 1378.26 L2301.68 1384.81 L2298.35 1373.85 L2307.49 1366.92 L2296.03 1366.68 L2292.27 1355.86 Z" fill="#3da44d" fill-rule="evenodd" fill-opacity="1" stroke="#000000" stroke-opacity="1" stroke-width="3.2"/>
<path clip-path="url(#clip210)" d="M1649.76 466.424 L2281.52 466.424 L2281.52 93.2526 L1649.76 93.2526  Z" fill="#ffffff" fill-rule="evenodd" fill-opacity="1"/>
<polyline clip-path="url(#clip210)" style="stroke:#000000; stroke-linecap:round; stroke-linejoin:round; stroke-width:4; stroke-opacity:1; fill:none" points="1649.76,466.424 2281.52,466.424 2281.52,93.2526 1649.76,93.2526 1649.76,466.424 "/>
<polyline clip-path="url(#clip210)" style="stroke:#0000ff; stroke-linecap:round; stroke-linejoin:round; stroke-width:8; stroke-opacity:1; fill:none" points="1673.5,186.545 1815.97,186.545 "/>
<path clip-path="url(#clip210)" d="M1744.74 174.329 L1741.87 182.587 L1733.12 182.77 L1740.09 188.06 L1737.55 196.429 L1744.74 191.432 L1751.92 196.429 L1749.38 188.06 L1756.36 182.77 L1747.61 182.587 L1744.74 174.329 Z" fill="#009af9" fill-rule="evenodd" fill-opacity="1" stroke="#000000" stroke-opacity="1" stroke-width="4.55111"/>
<path clip-path="url(#clip210)" d="M1880.1 162.713 Q1880.1 163.673 1879.28 163.673 Q1876.63 163.767 1875.55 164.657 Q1874.5 165.524 1874.1 167.21 L1867.4 193.935 Q1867.17 194.779 1867.03 194.872 Q1866.89 194.942 1866.63 194.942 Q1866.3 194.942 1866.11 194.779 Q1865.95 194.615 1865.71 194.029 L1853.77 165.782 Q1853.68 165.594 1853.56 165.336 Q1853.44 165.079 1853.35 164.915 L1847 190.235 Q1846.81 190.961 1846.81 191.335 Q1846.81 192.249 1847.45 192.834 Q1848.1 193.397 1849.97 193.467 Q1850.94 193.467 1850.94 193.982 Q1850.94 194.942 1850.07 194.942 Q1849.27 194.942 1847.61 194.872 Q1845.95 194.802 1845.13 194.802 Q1844.33 194.802 1842.71 194.872 Q1841.1 194.942 1840.32 194.942 Q1839.72 194.942 1839.72 194.404 Q1839.72 193.982 1839.88 193.771 Q1840.04 193.537 1840.18 193.514 Q1840.32 193.467 1840.54 193.467 Q1841.94 193.42 1842.9 193.139 Q1843.86 192.858 1844.4 192.319 Q1844.96 191.78 1845.22 191.242 Q1845.5 190.68 1845.71 189.86 L1852.13 164.095 Q1852.13 163.673 1848.87 163.673 Q1848.31 163.673 1848.08 163.65 Q1847.87 163.627 1847.7 163.51 Q1847.54 163.392 1847.54 163.135 Q1847.54 162.479 1847.82 162.338 Q1848.1 162.174 1848.92 162.174 L1855.36 162.174 Q1856.18 162.174 1856.39 162.315 Q1856.6 162.432 1856.88 163.088 L1867.49 188.127 L1872.86 166.789 Q1873 166.367 1873 165.782 Q1873 164.845 1872.3 164.282 Q1871.62 163.697 1869.74 163.673 Q1868.88 163.673 1868.88 163.135 Q1868.88 162.69 1869.04 162.479 Q1869.23 162.245 1869.37 162.221 Q1869.53 162.174 1869.74 162.174 Q1870.54 162.174 1872.18 162.245 Q1873.82 162.315 1874.64 162.315 Q1875.44 162.315 1877.05 162.245 Q1878.69 162.174 1879.49 162.174 Q1879.77 162.174 1879.91 162.315 Q1880.07 162.432 1880.1 162.573 L1880.1 162.713 Z" fill="#000000" fill-rule="nonzero" fill-opacity="1" /><path clip-path="url(#clip210)" d="M1904.47 162.76 Q1904.47 163.205 1904.28 163.416 Q1904.11 163.603 1903.86 163.65 Q1903.6 163.673 1902.92 163.673 Q1901.77 163.673 1901.05 163.767 Q1900.32 163.837 1899.88 163.955 Q1899.43 164.048 1899.17 164.376 Q1898.94 164.681 1898.82 164.962 Q1898.73 165.243 1898.56 165.875 L1892.15 191.429 Q1891.94 192.179 1891.94 192.553 Q1891.94 192.952 1892.17 193.116 Q1892.4 193.279 1893.15 193.35 Q1894.35 193.467 1895.21 193.467 Q1896.36 193.467 1896.53 193.631 Q1896.64 193.795 1896.64 194.029 Q1896.64 194.451 1896.46 194.685 Q1896.27 194.896 1896.1 194.919 Q1895.96 194.942 1895.68 194.942 L1889.27 194.802 L1882.96 194.942 Q1882.26 194.942 1882.26 194.404 Q1882.26 194.052 1882.31 193.865 Q1882.38 193.654 1882.61 193.584 Q1882.87 193.49 1883.06 193.49 Q1883.25 193.467 1883.78 193.467 Q1884.74 193.467 1885.38 193.443 Q1886.03 193.397 1886.5 193.279 Q1886.99 193.139 1887.23 193.022 Q1887.48 192.881 1887.67 192.577 Q1887.88 192.249 1887.95 191.991 Q1888.05 191.734 1888.16 191.195 L1894.63 165.336 Q1894.72 164.915 1894.72 164.587 Q1894.72 163.955 1893.97 163.814 Q1893.25 163.673 1891.42 163.673 Q1890.86 163.673 1890.62 163.65 Q1890.41 163.627 1890.23 163.51 Q1890.06 163.392 1890.06 163.135 Q1890.06 162.807 1890.16 162.596 Q1890.25 162.362 1890.41 162.292 Q1890.6 162.221 1890.72 162.198 Q1890.83 162.174 1891.02 162.174 L1897.42 162.315 L1903.74 162.174 Q1904.47 162.174 1904.47 162.76 Z" fill="#000000" fill-rule="nonzero" fill-opacity="1" /><path clip-path="url(#clip210)" d="M1943.85 174.307 Q1943.85 178.172 1942.18 181.966 Q1940.54 185.737 1937.87 188.595 Q1935.23 191.429 1931.64 193.186 Q1928.06 194.942 1924.41 194.942 L1908.53 194.942 Q1907.96 194.942 1907.73 194.919 Q1907.52 194.896 1907.35 194.779 Q1907.19 194.638 1907.19 194.357 Q1907.19 193.912 1907.38 193.724 Q1907.57 193.514 1907.78 193.49 Q1907.99 193.467 1908.53 193.467 Q1909.7 193.467 1910.4 193.397 Q1911.1 193.326 1911.55 193.233 Q1912.02 193.116 1912.25 192.788 Q1912.51 192.46 1912.63 192.179 Q1912.74 191.874 1912.91 191.195 L1919.32 165.43 Q1919.51 164.657 1919.51 164.54 Q1919.51 164.142 1919.28 164.001 Q1919.07 163.837 1918.46 163.767 Q1917.29 163.673 1916.4 163.673 Q1915.81 163.673 1915.58 163.65 Q1915.37 163.627 1915.18 163.51 Q1915.01 163.369 1915.01 163.088 Q1915.01 162.643 1915.2 162.456 Q1915.41 162.245 1915.65 162.221 Q1915.88 162.174 1916.44 162.174 L1932.56 162.174 Q1936.05 162.174 1938.65 163.814 Q1941.25 165.43 1942.54 168.171 Q1943.85 170.888 1943.85 174.307 M1939.65 172.551 Q1939.65 168.077 1937.22 165.875 Q1934.81 163.673 1930.99 163.673 L1925.86 163.673 Q1924.34 163.673 1923.96 163.955 Q1923.59 164.212 1923.26 165.5 L1916.68 191.827 Q1916.44 192.694 1916.44 192.928 Q1916.44 193.186 1916.56 193.279 Q1916.7 193.35 1917.08 193.397 Q1917.5 193.467 1918.13 193.467 L1923.54 193.467 Q1925.62 193.467 1927.52 192.905 Q1929.44 192.319 1930.82 191.406 Q1932.21 190.469 1933.1 189.672 Q1933.99 188.853 1934.62 188.033 Q1936.05 186.182 1937.1 183.77 Q1938.18 181.357 1938.67 179.156 Q1939.19 176.931 1939.42 175.291 Q1939.65 173.628 1939.65 172.551 Z" fill="#000000" fill-rule="nonzero" fill-opacity="1" /><path clip-path="url(#clip210)" d="M1976.11 161.612 L1973.51 172.106 Q1973.37 172.738 1973.26 172.902 Q1973.14 173.066 1972.81 173.066 Q1972.55 173.066 1972.39 172.949 Q1972.25 172.832 1972.25 172.715 L1972.23 172.597 Q1972.23 172.527 1972.27 172.176 Q1972.32 171.801 1972.37 171.192 Q1972.41 170.583 1972.41 169.904 Q1972.41 166.063 1970.54 164.282 Q1968.69 162.479 1965.5 162.479 Q1963.3 162.479 1961.33 163.65 Q1959.37 164.821 1958.24 166.672 Q1957.12 168.499 1957.12 170.419 Q1957.12 172.176 1958.01 173.3 Q1958.9 174.424 1960.05 174.799 L1963.26 175.666 Q1966.63 176.532 1967.59 176.907 Q1968.55 177.259 1969.34 178.055 Q1971.71 180.257 1971.71 183.676 Q1971.71 186.627 1970.05 189.485 Q1968.38 192.319 1965.53 194.17 Q1962.67 195.996 1959.51 195.996 Q1953.96 195.996 1951.4 192.553 L1949.06 195.27 Q1948.62 195.786 1948.48 195.879 Q1948.36 195.996 1948.19 195.996 Q1947.98 195.996 1947.82 195.856 Q1947.66 195.739 1947.66 195.528 Q1947.66 195.364 1949.04 189.86 Q1950.42 184.356 1950.54 184.238 Q1950.72 184.051 1951.03 184.051 Q1951.59 184.051 1951.59 184.59 Q1951.54 184.73 1951.5 184.918 Q1951.22 186.604 1951.22 187.518 Q1951.22 189.227 1951.8 190.539 Q1952.39 191.827 1953.25 192.577 Q1954.14 193.303 1955.34 193.771 Q1956.53 194.216 1957.54 194.38 Q1958.55 194.521 1959.6 194.521 Q1961.87 194.521 1963.89 193.209 Q1965.93 191.898 1967.07 189.86 Q1968.24 187.822 1968.24 185.691 Q1968.24 184.566 1967.94 183.7 Q1967.64 182.81 1967.21 182.318 Q1966.82 181.826 1966.14 181.451 Q1965.46 181.076 1964.99 180.936 Q1964.54 180.772 1963.84 180.608 L1958.71 179.249 Q1956.65 178.64 1955.17 176.884 Q1953.72 175.127 1953.72 172.433 Q1953.72 169.599 1955.39 166.976 Q1957.07 164.329 1959.81 162.737 Q1962.58 161.12 1965.55 161.12 Q1967.89 161.12 1969.7 162.034 Q1971.5 162.924 1972.41 164.587 L1974.73 161.847 Q1975.2 161.308 1975.29 161.214 Q1975.41 161.12 1975.58 161.12 Q1975.86 161.12 1975.97 161.284 Q1976.11 161.448 1976.11 161.612 Z" fill="#000000" fill-rule="nonzero" fill-opacity="1" /><path clip-path="url(#clip210)" d="M2021.74 182.271 Q2022.02 182.552 2022.02 182.95 Q2022.02 183.348 2021.74 183.629 Q2021.45 183.91 2021.06 183.91 L1991.03 183.91 Q1990.63 183.91 1990.35 183.629 Q1990.07 183.348 1990.07 182.95 Q1990.07 182.552 1990.35 182.271 Q1990.63 181.99 1991.03 181.99 L2021.06 181.99 Q2021.45 181.99 2021.74 182.271 Z" fill="#000000" fill-rule="nonzero" fill-opacity="1" /><path clip-path="url(#clip210)" d="M2057.56 144.159 L2057.56 142.66 Q2063.32 142.66 2066.3 139.591 Q2067.12 139.591 2067.26 139.779 Q2067.4 139.966 2067.4 140.833 L2067.4 167.745 Q2067.4 169.174 2068.1 169.619 Q2068.8 170.064 2071.87 170.064 L2073.39 170.064 L2073.39 171.54 Q2071.71 171.399 2065.62 171.399 Q2059.53 171.399 2057.86 171.54 L2057.86 170.064 L2059.39 170.064 Q2062.41 170.064 2063.13 169.642 Q2063.86 169.197 2063.86 167.745 L2063.86 142.894 Q2061.35 144.159 2057.56 144.159 Z" fill="#000000" fill-rule="nonzero" fill-opacity="1" /><path clip-path="url(#clip210)" d="M2050.56 184.34 L2084.37 184.34 L2084.37 181.78 L2050.56 181.78  Z" fill="#000000" fill-rule="evenodd" fill-opacity="1"/>
<path clip-path="url(#clip210)" d="M2073.92 195.419 L2061.8 195.419 L2061.8 194.369 L2073.92 194.369 L2073.92 195.419 Z" fill="#000000" fill-rule="nonzero" fill-opacity="1" /><path clip-path="url(#clip210)" d="M2079.53 221.34 Q2079.53 221.481 2079.35 222.019 L2075.55 232.372 Q2075.34 232.981 2075.13 233.098 Q2074.92 233.192 2074.05 233.192 L2051.85 233.192 Q2051.31 233.192 2051.1 233.168 Q2050.89 233.145 2050.72 233.028 Q2050.56 232.911 2050.56 232.653 Q2050.56 232.185 2050.72 231.974 Q2050.91 231.763 2051.12 231.74 Q2051.33 231.716 2051.85 231.716 Q2053.02 231.716 2053.72 231.646 Q2054.42 231.576 2054.87 231.482 Q2055.34 231.365 2055.57 231.037 Q2055.83 230.709 2055.95 230.428 Q2056.06 230.123 2056.23 229.444 L2062.65 203.68 Q2062.83 202.907 2062.83 202.79 Q2062.83 202.344 2062.55 202.227 Q2062.29 202.087 2061.54 202.017 L2059.72 201.923 Q2059.16 201.923 2058.92 201.899 Q2058.71 201.876 2058.55 201.759 Q2058.38 201.642 2058.38 201.384 Q2058.38 200.939 2058.55 200.728 Q2058.73 200.494 2058.87 200.471 Q2059.04 200.424 2059.3 200.424 L2065.67 200.564 L2072.76 200.424 Q2073.54 200.424 2073.54 201.009 Q2073.54 201.665 2073.21 201.806 Q2072.88 201.923 2071.71 201.923 Q2069.46 201.923 2068.43 202.157 Q2067.42 202.391 2067.14 202.79 Q2066.89 203.164 2066.63 204.171 L2060.14 230.077 Q2059.91 230.943 2059.91 231.178 Q2059.91 231.435 2060.02 231.529 Q2060.16 231.599 2060.54 231.646 Q2060.96 231.716 2061.59 231.716 L2066.09 231.716 Q2067.45 231.716 2068.64 231.505 Q2069.84 231.295 2070.75 230.99 Q2071.69 230.686 2072.53 230.123 Q2073.37 229.561 2073.96 229.069 Q2074.57 228.554 2075.15 227.758 Q2075.76 226.938 2076.11 226.376 Q2076.49 225.79 2076.91 224.853 Q2077.33 223.893 2077.54 223.354 Q2077.78 222.792 2078.13 221.832 Q2078.34 221.34 2078.41 221.2 Q2078.48 221.059 2078.6 220.942 Q2078.74 220.825 2078.95 220.825 Q2079.23 220.825 2079.37 220.989 Q2079.53 221.153 2079.53 221.34 Z" fill="#000000" fill-rule="nonzero" fill-opacity="1" /><polyline clip-path="url(#clip210)" style="stroke:#0000ff; stroke-linecap:round; stroke-linejoin:round; stroke-width:8; stroke-opacity:1; fill:none" stroke-dasharray="32, 16, 4, 16" points="1673.5,279.838 1815.97,279.838 "/>
<circle clip-path="url(#clip210)" cx="1744.74" cy="279.838" r="10.9952" fill="#e26f46" fill-rule="evenodd" fill-opacity="1" stroke="#000000" stroke-opacity="1" stroke-width="4.55111"/>
<path clip-path="url(#clip210)" d="M1872.62 291.011 Q1872.62 291.456 1872.44 291.69 Q1872.27 291.901 1872.11 291.948 Q1871.97 291.971 1871.76 291.971 Q1871.15 291.971 1869.04 291.901 Q1866.93 291.831 1866.32 291.831 Q1865.34 291.831 1863.33 291.901 Q1861.31 291.971 1860.33 291.971 Q1859.67 291.971 1859.67 291.432 Q1859.67 291.081 1859.74 290.894 Q1859.81 290.683 1860 290.613 Q1860.21 290.519 1860.33 290.519 Q1860.47 290.495 1860.82 290.495 Q1861.29 290.495 1861.78 290.449 Q1862.27 290.378 1862.88 290.238 Q1863.49 290.097 1863.86 289.746 Q1864.26 289.395 1864.26 288.903 Q1864.26 288.692 1864.1 286.959 Q1863.93 285.225 1863.72 283.211 Q1863.51 281.173 1863.49 280.892 L1851.45 280.892 Q1850.35 282.789 1849.58 284.101 Q1848.8 285.413 1848.52 285.858 Q1848.24 286.303 1848.08 286.584 Q1847.91 286.865 1847.82 287.029 Q1847.14 288.27 1847.14 288.809 Q1847.14 290.308 1849.39 290.495 Q1850.16 290.495 1850.16 291.058 Q1850.16 291.479 1849.97 291.713 Q1849.79 291.924 1849.62 291.948 Q1849.48 291.971 1849.25 291.971 Q1848.48 291.971 1846.86 291.901 Q1845.24 291.831 1844.45 291.831 Q1843.77 291.831 1842.36 291.901 Q1840.96 291.971 1840.32 291.971 Q1840.04 291.971 1839.88 291.807 Q1839.72 291.643 1839.72 291.432 Q1839.72 291.104 1839.76 290.917 Q1839.83 290.73 1840.02 290.636 Q1840.21 290.542 1840.3 290.542 Q1840.4 290.519 1840.72 290.495 Q1842.5 290.378 1843.89 289.535 Q1845.29 288.668 1846.63 286.443 L1863.3 258.43 Q1863.47 258.149 1863.58 258.009 Q1863.7 257.868 1863.93 257.751 Q1864.19 257.634 1864.57 257.634 Q1865.15 257.634 1865.27 257.821 Q1865.39 257.985 1865.46 258.781 L1868.38 288.762 Q1868.46 289.395 1868.5 289.652 Q1868.57 289.886 1868.88 290.144 Q1869.2 290.378 1869.79 290.449 Q1870.4 290.495 1871.52 290.495 Q1871.95 290.495 1872.11 290.519 Q1872.27 290.519 1872.44 290.636 Q1872.62 290.753 1872.62 291.011 M1863.35 279.393 L1861.83 263.583 L1852.36 279.393 L1863.35 279.393 Z" fill="#000000" fill-rule="nonzero" fill-opacity="1" /><path clip-path="url(#clip210)" d="M1885.79 259.203 L1878.88 286.935 Q1878.6 288.036 1878.6 289.231 Q1878.6 291.432 1880.05 291.432 Q1880.73 291.432 1881.29 290.987 Q1881.86 290.519 1882.28 289.605 Q1882.72 288.668 1883 287.778 Q1883.31 286.888 1883.68 285.506 Q1883.8 284.968 1883.92 284.804 Q1884.04 284.64 1884.36 284.64 Q1884.95 284.64 1884.95 285.108 Q1884.36 287.989 1883.5 289.816 Q1882.23 292.51 1879.89 292.51 Q1878.13 292.51 1876.82 291.292 Q1875.53 290.05 1875.53 288.083 Q1875.53 287.333 1875.77 286.443 L1881.81 262.459 L1881.97 261.522 Q1881.97 261.264 1881.88 261.124 Q1881.79 260.983 1881.22 260.843 Q1880.69 260.702 1879.61 260.702 Q1879.16 260.702 1878.95 260.679 Q1878.77 260.655 1878.58 260.538 Q1878.41 260.421 1878.41 260.163 Q1878.41 259.742 1878.58 259.508 Q1878.77 259.273 1878.91 259.226 Q1879.05 259.18 1879.33 259.156 Q1879.73 259.133 1881.06 259.016 Q1882.4 258.875 1883.54 258.781 Q1884.69 258.688 1885.18 258.688 Q1885.46 258.688 1885.6 258.828 Q1885.77 258.945 1885.79 259.086 L1885.79 259.203 Z" fill="#000000" fill-rule="nonzero" fill-opacity="1" /><path clip-path="url(#clip210)" d="M1910.55 273.022 Q1910.55 273.046 1910.41 273.889 L1905.07 295.18 Q1904.78 296.304 1903.99 297.428 Q1903.21 298.576 1901.97 299.56 Q1900.76 300.567 1898.88 301.176 Q1897.03 301.808 1894.9 301.808 Q1891.5 301.808 1890 301.082 Q1888.53 300.38 1888.53 298.881 Q1888.53 297.569 1889.35 296.82 Q1890.17 296.093 1891.11 296.093 Q1892 296.093 1892.46 296.609 Q1892.93 297.124 1892.93 297.78 Q1892.93 298.506 1892.44 299.232 Q1891.95 299.982 1890.96 300.263 Q1892.53 300.754 1894.81 300.754 Q1899.61 300.754 1901.67 295.672 Q1901.72 295.602 1901.72 295.578 L1903.31 289.231 L1903.24 289.184 Q1902.84 289.652 1902.21 290.191 Q1901.6 290.706 1900.29 291.339 Q1898.98 291.971 1897.69 291.971 Q1894.99 291.971 1893.14 289.91 Q1891.32 287.825 1891.32 284.382 Q1891.32 281.876 1892.32 279.37 Q1893.35 276.84 1894.95 274.99 Q1896.56 273.116 1898.62 271.945 Q1900.71 270.774 1902.72 270.774 Q1904.13 270.774 1905.32 271.617 Q1906.52 272.437 1907.17 273.795 Q1907.29 272.671 1907.92 272.203 Q1908.58 271.734 1909.14 271.734 Q1909.77 271.734 1910.15 272.085 Q1910.55 272.413 1910.55 273.022 M1906.61 275.95 Q1906.61 275.81 1906.52 275.435 Q1906.42 275.037 1906.14 274.404 Q1905.88 273.772 1905.49 273.21 Q1905.09 272.648 1904.36 272.249 Q1903.66 271.828 1902.77 271.828 Q1901.32 271.828 1899.87 273.046 Q1898.41 274.24 1897.41 276.091 Q1896.47 277.871 1895.58 281.314 Q1894.71 284.757 1894.71 286.514 Q1894.71 288.247 1895.46 289.582 Q1896.21 290.917 1897.83 290.917 Q1899.7 290.917 1901.72 289.184 Q1903.8 287.38 1904.15 285.834 L1906.47 276.676 Q1906.61 276.114 1906.61 275.95 Z" fill="#000000" fill-rule="nonzero" fill-opacity="1" /><path clip-path="url(#clip210)" d="M1935.74 278.878 Q1935.74 281.431 1934.61 283.961 Q1933.49 286.467 1931.69 288.341 Q1929.91 290.191 1927.56 291.362 Q1925.22 292.51 1922.88 292.51 Q1919.53 292.51 1917.35 290.238 Q1915.2 287.942 1915.2 284.382 Q1915.2 281.056 1917.05 277.894 Q1918.92 274.709 1921.92 272.741 Q1924.92 270.774 1928.06 270.774 Q1931.36 270.774 1933.54 272.999 Q1935.74 275.224 1935.74 278.878 M1932.23 277.004 Q1932.23 274.732 1931.12 273.28 Q1930.02 271.828 1928.01 271.828 Q1927.42 271.828 1926.74 272.015 Q1926.07 272.179 1925.18 272.624 Q1924.31 273.069 1923.33 274.006 Q1922.36 274.92 1921.52 276.231 Q1920.42 277.964 1919.58 281.15 Q1918.76 284.312 1918.76 286.209 Q1918.76 288.832 1919.98 290.144 Q1921.19 291.432 1922.93 291.432 Q1924.61 291.432 1926.39 290.261 Q1928.2 289.067 1929.44 287.029 Q1930.68 284.921 1931.45 281.829 Q1932.23 278.714 1932.23 277.004 Z" fill="#000000" fill-rule="nonzero" fill-opacity="1" /><path clip-path="url(#clip210)" d="M1956.8 273.889 Q1956.8 275.13 1955.98 275.927 Q1955.19 276.723 1954.16 276.723 Q1953.27 276.723 1952.8 276.208 Q1952.33 275.692 1952.33 275.037 Q1952.33 274.1 1953.06 273.327 Q1953.78 272.554 1954.84 272.39 Q1954.06 271.828 1952.82 271.828 Q1950.78 271.828 1948.98 273.397 Q1948.18 274.123 1947.32 275.458 Q1946.45 276.77 1946.29 277.332 L1944.76 283.586 Q1944.62 284.288 1943.76 287.661 Q1942.91 291.011 1942.84 291.151 Q1942.61 291.807 1942.09 292.158 Q1941.58 292.51 1941.06 292.51 Q1940.48 292.51 1940.08 292.158 Q1939.68 291.807 1939.68 291.198 Q1939.68 291.104 1939.75 290.753 Q1939.82 290.402 1939.94 289.91 Q1940.06 289.418 1940.1 289.137 L1942.89 278.058 Q1943.41 276.044 1943.52 275.411 Q1943.66 274.756 1943.66 274.029 Q1943.66 272.765 1943.26 272.296 Q1942.87 271.828 1942.16 271.828 Q1940.95 271.828 1940.15 273.28 Q1939.35 274.732 1938.67 277.543 Q1938.46 278.316 1938.32 278.48 Q1938.21 278.644 1937.85 278.644 Q1937.27 278.62 1937.27 278.152 Q1937.27 278.035 1937.46 277.285 Q1937.64 276.512 1937.99 275.388 Q1938.37 274.24 1938.77 273.514 Q1939 273.022 1939.21 272.694 Q1939.42 272.366 1939.85 271.851 Q1940.27 271.336 1940.9 271.055 Q1941.53 270.774 1942.3 270.774 Q1943.99 270.774 1945.19 271.804 Q1946.4 272.835 1946.68 274.451 Q1947.27 273.608 1948 272.882 Q1948.72 272.132 1950.06 271.453 Q1951.39 270.774 1952.82 270.774 Q1954.6 270.774 1955.7 271.687 Q1956.8 272.577 1956.8 273.889 Z" fill="#000000" fill-rule="nonzero" fill-opacity="1" /><path clip-path="url(#clip210)" d="M1970.38 261.99 Q1970.38 263.021 1969.53 263.794 Q1968.71 264.543 1967.82 264.543 Q1967 264.543 1966.49 264.052 Q1966 263.536 1966 262.81 Q1966 261.85 1966.82 261.053 Q1967.64 260.257 1968.6 260.257 Q1969.39 260.257 1969.89 260.749 Q1970.38 261.241 1970.38 261.99 M1970.8 285.108 Q1970.8 285.296 1970.59 286.045 Q1970.38 286.771 1969.86 287.896 Q1969.37 288.996 1968.69 290.027 Q1968.01 291.058 1966.89 291.784 Q1965.79 292.51 1964.52 292.51 Q1962.81 292.51 1961.69 291.385 Q1960.59 290.261 1960.59 288.575 Q1960.59 287.661 1961.69 284.734 Q1964.87 276.208 1964.99 275.856 Q1965.53 274.521 1965.53 273.35 Q1965.53 272.811 1965.41 272.484 Q1965.29 272.132 1965.06 272.015 Q1964.83 271.875 1964.69 271.851 Q1964.57 271.828 1964.33 271.828 Q1962.95 271.828 1961.66 273.233 Q1960.38 274.638 1959.49 277.777 Q1959.3 278.363 1959.18 278.503 Q1959.06 278.644 1958.71 278.644 Q1958.13 278.62 1958.13 278.152 Q1958.13 278.011 1958.29 277.473 Q1958.45 276.91 1958.76 276.067 Q1959.06 275.201 1959.6 274.311 Q1960.14 273.397 1960.8 272.601 Q1961.48 271.804 1962.44 271.289 Q1963.4 270.774 1964.47 270.774 Q1966.23 270.774 1967.31 271.921 Q1968.41 273.046 1968.41 274.709 Q1968.41 275.622 1967.78 277.238 Q1967 279.346 1966.72 280.026 L1964.85 285.061 Q1964.17 286.888 1963.96 287.451 Q1963.77 287.989 1963.61 288.645 Q1963.47 289.277 1963.47 289.863 Q1963.47 290.683 1963.73 291.058 Q1964.01 291.432 1964.62 291.432 Q1966.3 291.432 1967.54 289.769 Q1968.78 288.083 1969.51 285.506 Q1969.53 285.436 1969.56 285.319 Q1969.74 284.734 1969.93 284.663 Q1970.03 284.64 1970.21 284.64 Q1970.8 284.64 1970.8 285.108 Z" fill="#000000" fill-rule="nonzero" fill-opacity="1" /><path clip-path="url(#clip210)" d="M1989.62 271.828 Q1989.62 272.484 1989.31 272.648 Q1989.01 272.788 1988.17 272.788 L1983.67 272.788 L1980.11 286.935 Q1979.83 288.177 1979.83 289.231 Q1979.83 290.402 1980.18 290.917 Q1980.55 291.432 1981.33 291.432 Q1982.85 291.432 1984.49 290.05 Q1986.15 288.668 1987.56 285.296 Q1987.74 284.851 1987.84 284.757 Q1987.96 284.64 1988.26 284.64 Q1988.85 284.64 1988.85 285.108 Q1988.85 285.272 1988.52 286.022 Q1988.21 286.771 1987.53 287.872 Q1986.88 288.973 1986.01 290.004 Q1985.17 291.034 1983.88 291.784 Q1982.59 292.51 1981.21 292.51 Q1979.27 292.51 1978.02 291.268 Q1976.81 290.027 1976.81 288.083 Q1976.81 287.451 1977.3 285.436 Q1977.79 283.398 1980.46 272.788 L1976.22 272.788 Q1975.64 272.788 1975.4 272.765 Q1975.19 272.741 1975.03 272.624 Q1974.89 272.484 1974.89 272.203 Q1974.89 271.757 1975.07 271.57 Q1975.26 271.359 1975.49 271.336 Q1975.75 271.289 1976.34 271.289 L1980.83 271.289 L1982.71 263.677 Q1982.9 262.927 1983.36 262.506 Q1983.86 262.061 1984.14 262.014 Q1984.42 261.943 1984.63 261.943 Q1985.26 261.943 1985.64 262.295 Q1986.01 262.623 1986.01 263.232 Q1986.01 263.56 1984.04 271.289 L1988.26 271.289 Q1988.8 271.289 1989.01 271.312 Q1989.24 271.336 1989.43 271.453 Q1989.62 271.57 1989.62 271.828 Z" fill="#000000" fill-rule="nonzero" fill-opacity="1" /><path clip-path="url(#clip210)" d="M2015.7 285.108 Q2015.7 285.296 2015.49 286.022 Q2015.28 286.748 2014.76 287.872 Q2014.27 288.996 2013.59 290.027 Q2012.91 291.034 2011.79 291.784 Q2010.69 292.51 2009.42 292.51 Q2007.74 292.51 2006.61 291.385 Q2005.49 290.261 2005.49 288.575 Q2005.49 288.341 2005.51 288.106 Q2005.53 287.872 2005.56 287.732 Q2005.58 287.568 2005.65 287.31 Q2005.74 287.029 2005.77 286.912 Q2005.81 286.795 2005.93 286.443 Q2006.07 286.069 2006.12 285.928 Q2009.09 278.339 2009.09 275.177 Q2009.09 271.828 2006.49 271.828 Q2004.18 271.828 2001.88 273.514 Q2000.83 274.357 1999.82 275.856 Q1998.81 277.355 1998.62 277.918 Q1998.41 279.136 1998.11 280.072 Q1997.97 280.728 1997.29 283.281 L1996.23 287.614 L1995.32 291.245 Q1995.13 291.76 1994.62 292.135 Q1994.1 292.51 1993.54 292.51 Q1993.07 292.51 1992.6 292.182 Q1992.16 291.877 1992.16 291.151 Q1992.16 290.777 1992.35 290.097 L1999.3 262.459 L1999.44 261.522 Q1999.44 261.241 1999.33 261.1 Q1999.23 260.936 1998.67 260.819 Q1998.13 260.702 1997.05 260.702 Q1996.61 260.702 1996.4 260.679 Q1996.21 260.655 1996.05 260.538 Q1995.88 260.398 1995.88 260.117 Q1995.88 259.718 1996.05 259.508 Q1996.23 259.273 1996.38 259.226 Q1996.52 259.18 1996.8 259.156 Q1997.2 259.133 1998.53 259.016 Q1999.87 258.875 2001.01 258.781 Q2002.16 258.688 2002.65 258.688 Q2002.93 258.688 2003.07 258.828 Q2003.24 258.945 2003.26 259.086 L2003.29 259.203 L1999.54 274.451 Q2002.51 270.774 2006.63 270.774 Q2009.3 270.774 2010.73 272.156 Q2012.16 273.514 2012.16 275.903 Q2012.16 278.644 2009.23 286.443 Q2008.37 288.622 2008.37 289.863 Q2008.37 290.683 2008.63 291.058 Q2008.91 291.432 2009.52 291.432 Q2010.45 291.432 2011.27 290.894 Q2012.12 290.331 2012.7 289.418 Q2013.29 288.481 2013.68 287.544 Q2014.11 286.584 2014.41 285.506 Q2014.6 284.921 2014.69 284.78 Q2014.81 284.64 2015.14 284.64 Q2015.7 284.64 2015.7 285.108 Z" fill="#000000" fill-rule="nonzero" fill-opacity="1" /><path clip-path="url(#clip210)" d="M2057.27 285.108 Q2057.27 285.296 2057.06 286.022 Q2056.85 286.748 2056.33 287.872 Q2055.84 288.996 2055.14 290.027 Q2054.46 291.034 2053.34 291.784 Q2052.24 292.51 2050.97 292.51 Q2049.28 292.51 2048.16 291.385 Q2047.04 290.261 2047.04 288.575 Q2047.04 287.661 2047.67 285.928 Q2050.64 278.011 2050.64 275.177 Q2050.64 271.828 2048.04 271.828 Q2046.57 271.828 2045.23 272.437 Q2043.9 273.046 2043.03 273.889 Q2042.16 274.732 2041.48 275.692 Q2040.81 276.653 2040.5 277.285 Q2040.22 277.918 2040.15 278.199 L2037.27 289.769 Q2037.03 290.753 2036.87 291.222 Q2036.71 291.69 2036.26 292.088 Q2035.82 292.51 2035.11 292.51 Q2034.53 292.51 2034.11 292.158 Q2033.71 291.807 2033.71 291.198 Q2033.71 291.104 2033.83 290.613 Q2033.94 290.121 2034.11 289.441 Q2034.27 288.762 2034.34 288.364 Q2035.18 285.179 2035.3 284.734 L2036.64 279.159 Q2037.36 276.395 2037.36 275.177 Q2037.36 271.828 2034.76 271.828 Q2033.47 271.828 2032.26 272.32 Q2031.06 272.788 2030.24 273.444 Q2029.42 274.1 2028.67 275.013 Q2027.95 275.903 2027.57 276.512 Q2027.22 277.098 2026.94 277.683 L2026.33 280.072 Q2026.19 280.728 2025.51 283.281 L2024.46 287.614 Q2023.71 290.847 2023.54 291.151 Q2023.31 291.807 2022.79 292.158 Q2022.28 292.51 2021.76 292.51 Q2021.18 292.51 2020.78 292.158 Q2020.38 291.807 2020.38 291.198 Q2020.38 291.104 2020.45 290.753 Q2020.52 290.402 2020.64 289.91 Q2020.76 289.418 2020.8 289.137 L2023.59 278.058 Q2024.11 276.044 2024.22 275.411 Q2024.36 274.756 2024.36 274.029 Q2024.36 271.828 2022.86 271.828 Q2021.65 271.828 2020.85 273.28 Q2020.05 274.732 2019.37 277.543 Q2019.16 278.316 2019.02 278.48 Q2018.91 278.644 2018.55 278.644 Q2017.97 278.62 2017.97 278.152 Q2017.97 278.035 2018.16 277.285 Q2018.34 276.536 2018.69 275.411 Q2019.07 274.264 2019.47 273.514 Q2019.7 273.022 2019.91 272.694 Q2020.12 272.366 2020.54 271.851 Q2020.97 271.336 2021.6 271.055 Q2022.23 270.774 2023 270.774 Q2024.71 270.774 2025.98 271.875 Q2027.27 272.975 2027.43 274.943 Q2030.55 270.774 2034.9 270.774 Q2037.36 270.774 2038.84 272.015 Q2040.22 273.21 2040.38 275.411 Q2043.62 270.774 2048.21 270.774 Q2050.85 270.774 2052.28 272.156 Q2053.71 273.514 2053.71 275.903 Q2053.71 277.145 2053.08 279.51 Q2052.45 281.853 2052.02 283.024 Q2051.6 284.195 2050.78 286.443 Q2049.92 288.598 2049.92 289.863 Q2049.92 290.683 2050.2 291.058 Q2050.48 291.432 2051.09 291.432 Q2052.02 291.432 2052.84 290.894 Q2053.66 290.331 2054.25 289.418 Q2054.86 288.481 2055.26 287.544 Q2055.66 286.584 2055.96 285.506 Q2056.15 284.921 2056.24 284.78 Q2056.36 284.64 2056.69 284.64 Q2057.27 284.64 2057.27 285.108 Z" fill="#000000" fill-rule="nonzero" fill-opacity="1" /><path clip-path="url(#clip210)" d="M2062.17 264.59 L2062.17 263.091 Q2067.93 263.091 2070.9 260.023 Q2071.72 260.023 2071.86 260.21 Q2072 260.398 2072 261.264 L2072 288.177 Q2072 289.605 2072.71 290.05 Q2073.41 290.495 2076.48 290.495 L2078 290.495 L2078 291.971 Q2076.31 291.831 2070.22 291.831 Q2064.13 291.831 2062.47 291.971 L2062.47 290.495 L2063.99 290.495 Q2067.01 290.495 2067.74 290.074 Q2068.47 289.629 2068.47 288.177 L2068.47 263.325 Q2065.96 264.59 2062.17 264.59 Z" fill="#000000" fill-rule="nonzero" fill-opacity="1" /><polyline clip-path="url(#clip210)" style="stroke:#000000; stroke-linecap:round; stroke-linejoin:round; stroke-width:8; stroke-opacity:1; fill:none" points="1673.5,373.131 1815.97,373.131 "/>
<path clip-path="url(#clip210)" d="M1744.74 360.914 L1741.87 369.173 L1733.12 369.356 L1740.09 374.646 L1737.55 383.014 L1744.74 378.018 L1751.92 383.014 L1749.38 374.646 L1756.36 369.356 L1747.61 369.173 L1744.74 360.914 Z" fill="#3da44d" fill-rule="evenodd" fill-opacity="1" stroke="#000000" stroke-opacity="1" stroke-width="4.55111"/>
<path clip-path="url(#clip210)" d="M1880.1 352.777 Q1880.1 353.737 1879.28 353.737 Q1876.63 353.831 1875.55 354.721 Q1874.5 355.587 1874.1 357.274 L1867.4 383.999 Q1867.17 384.842 1867.03 384.936 Q1866.89 385.006 1866.63 385.006 Q1866.3 385.006 1866.11 384.842 Q1865.95 384.678 1865.71 384.093 L1853.77 355.845 Q1853.68 355.658 1853.56 355.4 Q1853.44 355.142 1853.35 354.978 L1847 380.298 Q1846.81 381.024 1846.81 381.399 Q1846.81 382.312 1847.45 382.898 Q1848.1 383.46 1849.97 383.53 Q1850.94 383.53 1850.94 384.046 Q1850.94 385.006 1850.07 385.006 Q1849.27 385.006 1847.61 384.936 Q1845.95 384.866 1845.13 384.866 Q1844.33 384.866 1842.71 384.936 Q1841.1 385.006 1840.32 385.006 Q1839.72 385.006 1839.72 384.467 Q1839.72 384.046 1839.88 383.835 Q1840.04 383.601 1840.18 383.577 Q1840.32 383.53 1840.54 383.53 Q1841.94 383.484 1842.9 383.203 Q1843.86 382.921 1844.4 382.383 Q1844.96 381.844 1845.22 381.305 Q1845.5 380.743 1845.71 379.923 L1852.13 354.159 Q1852.13 353.737 1848.87 353.737 Q1848.31 353.737 1848.08 353.714 Q1847.87 353.69 1847.7 353.573 Q1847.54 353.456 1847.54 353.198 Q1847.54 352.543 1847.82 352.402 Q1848.1 352.238 1848.92 352.238 L1855.36 352.238 Q1856.18 352.238 1856.39 352.379 Q1856.6 352.496 1856.88 353.152 L1867.49 378.19 L1872.86 356.852 Q1873 356.431 1873 355.845 Q1873 354.908 1872.3 354.346 Q1871.62 353.761 1869.74 353.737 Q1868.88 353.737 1868.88 353.198 Q1868.88 352.753 1869.04 352.543 Q1869.23 352.308 1869.37 352.285 Q1869.53 352.238 1869.74 352.238 Q1870.54 352.238 1872.18 352.308 Q1873.82 352.379 1874.64 352.379 Q1875.44 352.379 1877.05 352.308 Q1878.69 352.238 1879.49 352.238 Q1879.77 352.238 1879.91 352.379 Q1880.07 352.496 1880.1 352.636 L1880.1 352.777 Z" fill="#000000" fill-rule="nonzero" fill-opacity="1" /><path clip-path="url(#clip210)" d="M1904.47 352.824 Q1904.47 353.269 1904.28 353.479 Q1904.11 353.667 1903.86 353.714 Q1903.6 353.737 1902.92 353.737 Q1901.77 353.737 1901.05 353.831 Q1900.32 353.901 1899.88 354.018 Q1899.43 354.112 1899.17 354.44 Q1898.94 354.744 1898.82 355.025 Q1898.73 355.306 1898.56 355.939 L1892.15 381.493 Q1891.94 382.242 1891.94 382.617 Q1891.94 383.015 1892.17 383.179 Q1892.4 383.343 1893.15 383.413 Q1894.35 383.53 1895.21 383.53 Q1896.36 383.53 1896.53 383.694 Q1896.64 383.858 1896.64 384.093 Q1896.64 384.514 1896.46 384.748 Q1896.27 384.959 1896.1 384.983 Q1895.96 385.006 1895.68 385.006 L1889.27 384.866 L1882.96 385.006 Q1882.26 385.006 1882.26 384.467 Q1882.26 384.116 1882.31 383.929 Q1882.38 383.718 1882.61 383.648 Q1882.87 383.554 1883.06 383.554 Q1883.25 383.53 1883.78 383.53 Q1884.74 383.53 1885.38 383.507 Q1886.03 383.46 1886.5 383.343 Q1886.99 383.203 1887.23 383.085 Q1887.48 382.945 1887.67 382.64 Q1887.88 382.312 1887.95 382.055 Q1888.05 381.797 1888.16 381.258 L1894.63 355.4 Q1894.72 354.978 1894.72 354.651 Q1894.72 354.018 1893.97 353.878 Q1893.25 353.737 1891.42 353.737 Q1890.86 353.737 1890.62 353.714 Q1890.41 353.69 1890.23 353.573 Q1890.06 353.456 1890.06 353.198 Q1890.06 352.87 1890.16 352.66 Q1890.25 352.425 1890.41 352.355 Q1890.6 352.285 1890.72 352.261 Q1890.83 352.238 1891.02 352.238 L1897.42 352.379 L1903.74 352.238 Q1904.47 352.238 1904.47 352.824 Z" fill="#000000" fill-rule="nonzero" fill-opacity="1" /><path clip-path="url(#clip210)" d="M1943.85 364.371 Q1943.85 368.236 1942.18 372.03 Q1940.54 375.801 1937.87 378.659 Q1935.23 381.493 1931.64 383.249 Q1928.06 385.006 1924.41 385.006 L1908.53 385.006 Q1907.96 385.006 1907.73 384.983 Q1907.52 384.959 1907.35 384.842 Q1907.19 384.702 1907.19 384.42 Q1907.19 383.975 1907.38 383.788 Q1907.57 383.577 1907.78 383.554 Q1907.99 383.53 1908.53 383.53 Q1909.7 383.53 1910.4 383.46 Q1911.1 383.39 1911.55 383.296 Q1912.02 383.179 1912.25 382.851 Q1912.51 382.523 1912.63 382.242 Q1912.74 381.938 1912.91 381.258 L1919.32 355.494 Q1919.51 354.721 1919.51 354.604 Q1919.51 354.206 1919.28 354.065 Q1919.07 353.901 1918.46 353.831 Q1917.29 353.737 1916.4 353.737 Q1915.81 353.737 1915.58 353.714 Q1915.37 353.69 1915.18 353.573 Q1915.01 353.433 1915.01 353.152 Q1915.01 352.707 1915.2 352.519 Q1915.41 352.308 1915.65 352.285 Q1915.88 352.238 1916.44 352.238 L1932.56 352.238 Q1936.05 352.238 1938.65 353.878 Q1941.25 355.494 1942.54 358.234 Q1943.85 360.951 1943.85 364.371 M1939.65 362.614 Q1939.65 358.141 1937.22 355.939 Q1934.81 353.737 1930.99 353.737 L1925.86 353.737 Q1924.34 353.737 1923.96 354.018 Q1923.59 354.276 1923.26 355.564 L1916.68 381.891 Q1916.44 382.758 1916.44 382.992 Q1916.44 383.249 1916.56 383.343 Q1916.7 383.413 1917.08 383.46 Q1917.5 383.53 1918.13 383.53 L1923.54 383.53 Q1925.62 383.53 1927.52 382.968 Q1929.44 382.383 1930.82 381.469 Q1932.21 380.532 1933.1 379.736 Q1933.99 378.916 1934.62 378.096 Q1936.05 376.246 1937.1 373.834 Q1938.18 371.421 1938.67 369.219 Q1939.19 366.994 1939.42 365.355 Q1939.65 363.692 1939.65 362.614 Z" fill="#000000" fill-rule="nonzero" fill-opacity="1" /><path clip-path="url(#clip210)" d="M1976.11 351.676 L1973.51 362.169 Q1973.37 362.802 1973.26 362.966 Q1973.14 363.129 1972.81 363.129 Q1972.55 363.129 1972.39 363.012 Q1972.25 362.895 1972.25 362.778 L1972.23 362.661 Q1972.23 362.591 1972.27 362.239 Q1972.32 361.865 1972.37 361.256 Q1972.41 360.647 1972.41 359.967 Q1972.41 356.126 1970.54 354.346 Q1968.69 352.543 1965.5 352.543 Q1963.3 352.543 1961.33 353.714 Q1959.37 354.885 1958.24 356.735 Q1957.12 358.562 1957.12 360.483 Q1957.12 362.239 1958.01 363.364 Q1958.9 364.488 1960.05 364.863 L1963.26 365.729 Q1966.63 366.596 1967.59 366.971 Q1968.55 367.322 1969.34 368.118 Q1971.71 370.32 1971.71 373.74 Q1971.71 376.691 1970.05 379.549 Q1968.38 382.383 1965.53 384.233 Q1962.67 386.06 1959.51 386.06 Q1953.96 386.06 1951.4 382.617 L1949.06 385.334 Q1948.62 385.849 1948.48 385.943 Q1948.36 386.06 1948.19 386.06 Q1947.98 386.06 1947.82 385.92 Q1947.66 385.802 1947.66 385.592 Q1947.66 385.428 1949.04 379.923 Q1950.42 374.419 1950.54 374.302 Q1950.72 374.115 1951.03 374.115 Q1951.59 374.115 1951.59 374.653 Q1951.54 374.794 1951.5 374.981 Q1951.22 376.668 1951.22 377.581 Q1951.22 379.291 1951.8 380.603 Q1952.39 381.891 1953.25 382.64 Q1954.14 383.366 1955.34 383.835 Q1956.53 384.28 1957.54 384.444 Q1958.55 384.584 1959.6 384.584 Q1961.87 384.584 1963.89 383.273 Q1965.93 381.961 1967.07 379.923 Q1968.24 377.886 1968.24 375.754 Q1968.24 374.63 1967.94 373.763 Q1967.64 372.873 1967.21 372.381 Q1966.82 371.889 1966.14 371.515 Q1965.46 371.14 1964.99 370.999 Q1964.54 370.835 1963.84 370.672 L1958.71 369.313 Q1956.65 368.704 1955.17 366.947 Q1953.72 365.191 1953.72 362.497 Q1953.72 359.663 1955.39 357.04 Q1957.07 354.393 1959.81 352.8 Q1962.58 351.184 1965.55 351.184 Q1967.89 351.184 1969.7 352.098 Q1971.5 352.988 1972.41 354.651 L1974.73 351.91 Q1975.2 351.371 1975.29 351.278 Q1975.41 351.184 1975.58 351.184 Q1975.86 351.184 1975.97 351.348 Q1976.11 351.512 1976.11 351.676 Z" fill="#000000" fill-rule="nonzero" fill-opacity="1" /><path clip-path="url(#clip210)" d="M2021.74 372.335 Q2022.02 372.616 2022.02 373.014 Q2022.02 373.412 2021.74 373.693 Q2021.45 373.974 2021.06 373.974 L1991.03 373.974 Q1990.63 373.974 1990.35 373.693 Q1990.07 373.412 1990.07 373.014 Q1990.07 372.616 1990.35 372.335 Q1990.63 372.053 1991.03 372.053 L2021.06 372.053 Q2021.45 372.053 2021.74 372.335 Z" fill="#000000" fill-rule="nonzero" fill-opacity="1" /><path clip-path="url(#clip210)" d="M2040.32 373.014 Q2040.32 364.91 2043.34 358.375 Q2044.63 355.634 2046.43 353.339 Q2048.24 351.044 2049.43 350.036 Q2050.63 349.029 2050.95 349.029 Q2051.42 349.029 2051.45 349.498 Q2051.45 349.732 2050.81 350.317 Q2043.08 358.187 2043.11 373.014 Q2043.11 387.887 2050.63 395.452 Q2051.45 396.272 2051.45 396.53 Q2051.45 396.998 2050.95 396.998 Q2050.63 396.998 2049.48 396.038 Q2048.33 395.078 2046.55 392.876 Q2044.77 390.674 2043.48 387.981 Q2040.32 381.446 2040.32 373.014 Z" fill="#000000" fill-rule="nonzero" fill-opacity="1" /><path clip-path="url(#clip210)" d="M2077.29 352.824 Q2077.29 353.269 2077.1 353.479 Q2076.94 353.667 2076.68 353.714 Q2076.43 353.737 2075.75 353.737 Q2074.6 353.737 2073.87 353.831 Q2073.15 353.901 2072.7 354.018 Q2072.26 354.112 2072 354.44 Q2071.76 354.744 2071.65 355.025 Q2071.55 355.306 2071.39 355.939 L2064.97 381.493 Q2064.76 382.242 2064.76 382.617 Q2064.76 383.015 2065 383.179 Q2065.23 383.343 2065.98 383.413 Q2067.17 383.53 2068.04 383.53 Q2069.19 383.53 2069.35 383.694 Q2069.47 383.858 2069.47 384.093 Q2069.47 384.514 2069.28 384.748 Q2069.09 384.959 2068.93 384.983 Q2068.79 385.006 2068.51 385.006 L2062.09 384.866 L2055.79 385.006 Q2055.09 385.006 2055.09 384.467 Q2055.09 384.116 2055.13 383.929 Q2055.2 383.718 2055.44 383.648 Q2055.7 383.554 2055.88 383.554 Q2056.07 383.53 2056.61 383.53 Q2057.57 383.53 2058.2 383.507 Q2058.86 383.46 2059.33 383.343 Q2059.82 383.203 2060.05 383.085 Q2060.31 382.945 2060.5 382.64 Q2060.71 382.312 2060.78 382.055 Q2060.87 381.797 2060.99 381.258 L2067.45 355.4 Q2067.55 354.978 2067.55 354.651 Q2067.55 354.018 2066.8 353.878 Q2066.07 353.737 2064.25 353.737 Q2063.68 353.737 2063.45 353.714 Q2063.24 353.69 2063.05 353.573 Q2062.89 353.456 2062.89 353.198 Q2062.89 352.87 2062.98 352.66 Q2063.07 352.425 2063.24 352.355 Q2063.43 352.285 2063.54 352.261 Q2063.66 352.238 2063.85 352.238 L2070.24 352.379 L2076.57 352.238 Q2077.29 352.238 2077.29 352.824 Z" fill="#000000" fill-rule="nonzero" fill-opacity="1" /><path clip-path="url(#clip210)" d="M2090.39 373.599 Q2089.29 373.599 2089.29 373.014 Q2089.29 372.428 2090.44 372.428 Q2090.58 372.428 2090.81 372.452 Q2091.07 372.475 2091.12 372.475 L2104.63 372.475 L2104.63 358.913 Q2104.63 358.867 2104.61 358.656 Q2104.58 358.422 2104.58 358.281 Q2104.58 357.133 2105.15 357.133 Q2105.73 357.133 2105.73 358.281 L2105.73 372.475 L2119.27 372.475 Q2119.32 372.475 2119.55 372.452 Q2119.79 372.428 2119.93 372.428 Q2121.03 372.428 2121.03 373.014 Q2121.05 373.599 2119.88 373.599 Q2119.74 373.599 2119.53 373.576 Q2119.32 373.552 2119.27 373.552 L2105.73 373.552 L2105.73 387.793 Q2105.73 388.894 2105.15 388.894 Q2104.58 388.894 2104.58 387.746 Q2104.58 387.606 2104.61 387.372 Q2104.63 387.161 2104.63 387.114 L2104.63 373.552 L2091.12 373.552 Q2091.07 373.552 2090.79 373.576 Q2090.53 373.599 2090.39 373.599 Z" fill="#000000" fill-rule="nonzero" fill-opacity="1" /><path clip-path="url(#clip210)" d="M2187.16 352.777 Q2187.16 353.198 2186.99 353.433 Q2186.83 353.643 2186.69 353.667 Q2186.57 353.69 2186.25 353.737 Q2185.17 353.831 2184.32 354.159 Q2183.48 354.487 2182.85 355.119 Q2182.22 355.728 2181.82 356.29 Q2181.42 356.852 2180.88 357.813 L2165.14 385.147 Q2164.98 385.428 2164.86 385.568 Q2164.77 385.732 2164.53 385.896 Q2164.3 386.06 2163.99 386.06 Q2163.57 386.06 2163.43 385.826 Q2163.29 385.592 2163.22 384.819 L2161.46 360.6 L2147.34 385.053 Q2147.08 385.498 2146.97 385.638 Q2146.87 385.802 2146.66 385.92 Q2146.47 386.06 2146.19 386.06 Q2145.87 386.06 2145.7 385.896 Q2145.54 385.756 2145.49 385.545 Q2145.47 385.334 2145.44 384.819 L2143.27 355.494 Q2143.19 354.393 2142.8 354.065 Q2142.42 353.737 2140.74 353.737 Q2140.27 353.737 2140.06 353.714 Q2139.87 353.69 2139.7 353.573 Q2139.54 353.433 2139.54 353.152 Q2139.54 352.238 2140.41 352.238 Q2141.23 352.238 2142.91 352.308 Q2144.6 352.379 2145.44 352.379 Q2146.43 352.379 2148.39 352.308 Q2150.36 352.238 2151.32 352.238 Q2152 352.238 2152 352.777 Q2152 353.222 2151.81 353.456 Q2151.65 353.667 2151.49 353.714 Q2151.32 353.737 2150.99 353.737 Q2149.71 353.761 2148.89 353.924 Q2148.09 354.088 2147.79 354.416 Q2147.48 354.721 2147.41 354.932 Q2147.34 355.119 2147.34 355.447 L2149.17 379.783 L2161.3 358.632 L2161.02 354.932 Q2160.95 354.206 2160.48 353.971 Q2160.01 353.737 2158.49 353.737 Q2158.07 353.737 2157.86 353.714 Q2157.67 353.69 2157.48 353.573 Q2157.32 353.456 2157.32 353.198 Q2157.32 352.753 2157.51 352.543 Q2157.69 352.308 2157.83 352.285 Q2158 352.238 2158.23 352.238 Q2158.77 352.238 2160.74 352.308 Q2162.71 352.379 2163.27 352.379 Q2164.23 352.379 2166.2 352.308 Q2168.16 352.238 2169.12 352.238 Q2169.85 352.238 2169.85 352.777 Q2169.85 353.433 2169.57 353.597 Q2169.29 353.737 2168.56 353.737 Q2167.32 353.761 2166.55 353.948 Q2165.8 354.135 2165.52 354.557 Q2165.26 354.955 2165.21 355.213 Q2165.17 355.47 2165.19 355.986 L2166.97 379.783 L2179.92 357.18 Q2179.97 357.087 2180.11 356.829 Q2180.27 356.548 2180.3 356.478 Q2180.34 356.407 2180.41 356.22 Q2180.51 356.032 2180.53 355.915 Q2180.55 355.775 2180.55 355.611 Q2180.55 354.651 2179.69 354.229 Q2178.82 353.784 2177.72 353.737 Q2176.99 353.737 2176.99 353.152 Q2176.99 352.73 2177.18 352.519 Q2177.37 352.285 2177.51 352.261 Q2177.67 352.238 2177.91 352.238 Q2178.7 352.238 2180.39 352.308 Q2182.08 352.379 2182.9 352.379 Q2183.5 352.379 2184.77 352.308 Q2186.03 352.238 2186.6 352.238 Q2186.85 352.238 2186.99 352.425 Q2187.16 352.613 2187.16 352.777 Z" fill="#000000" fill-rule="nonzero" fill-opacity="1" /><path clip-path="url(#clip210)" d="M2191.86 396.53 Q2191.86 396.296 2192.47 395.71 Q2200.2 387.84 2200.2 373.014 Q2200.2 358.141 2192.78 350.622 Q2191.86 349.755 2191.86 349.498 Q2191.86 349.029 2192.33 349.029 Q2192.66 349.029 2193.81 349.99 Q2194.98 350.95 2196.73 353.152 Q2198.51 355.353 2199.83 358.047 Q2202.99 364.582 2202.99 373.014 Q2202.99 381.118 2199.97 387.653 Q2198.68 390.393 2196.87 392.689 Q2195.07 394.984 2193.88 395.991 Q2192.68 396.998 2192.33 396.998 Q2191.86 396.998 2191.86 396.53 Z" fill="#000000" fill-rule="nonzero" fill-opacity="1" /><path clip-path="url(#clip210)" d="M2210.28 396.319 Q2210.28 396.085 2210.46 395.57 L2227.4 350.317 Q2227.4 350.271 2227.52 350.013 Q2227.63 349.755 2227.7 349.591 Q2227.77 349.404 2227.91 349.263 Q2228.08 349.123 2228.27 349.123 Q2228.73 349.123 2228.73 349.708 Q2228.73 349.755 2228.59 350.317 L2211.61 395.616 Q2211.33 396.436 2211.14 396.67 Q2210.98 396.905 2210.7 396.905 Q2210.28 396.905 2210.28 396.319 Z" fill="#000000" fill-rule="nonzero" fill-opacity="1" /><path clip-path="url(#clip210)" d="M2234.03 385.006 Q2234.03 384.139 2234.1 383.882 Q2234.19 383.624 2234.57 383.226 L2243.77 372.967 Q2248.81 367.299 2248.81 362.357 Q2248.81 359.148 2247.12 356.852 Q2245.46 354.557 2242.39 354.557 Q2240.28 354.557 2238.5 355.845 Q2236.72 357.133 2235.9 359.429 Q2236.04 359.382 2236.53 359.382 Q2237.73 359.382 2238.38 360.131 Q2239.06 360.881 2239.06 361.888 Q2239.06 363.176 2238.22 363.809 Q2237.4 364.418 2236.58 364.418 Q2236.25 364.418 2235.81 364.347 Q2235.39 364.277 2234.71 363.621 Q2234.03 362.942 2234.03 361.748 Q2234.03 358.398 2236.56 355.728 Q2239.11 353.058 2243 353.058 Q2247.4 353.058 2250.28 355.681 Q2253.19 358.281 2253.19 362.357 Q2253.19 363.785 2252.74 365.097 Q2252.32 366.385 2251.73 367.392 Q2251.17 368.4 2249.63 370.016 Q2248.08 371.632 2246.84 372.78 Q2245.6 373.927 2242.81 376.363 L2237.73 381.305 L2246.37 381.305 Q2250.59 381.305 2250.91 380.931 Q2251.38 380.251 2251.97 376.668 L2253.19 376.668 L2251.83 385.006 L2234.03 385.006 Z" fill="#000000" fill-rule="nonzero" fill-opacity="1" /></svg>
