<?xml version="1.0" encoding="utf-8"?>
<svg xmlns="http://www.w3.org/2000/svg" xmlns:xlink="http://www.w3.org/1999/xlink" width="600" height="400" viewBox="0 0 2400 1600">
<defs>
  <clipPath id="clip280">
    <rect x="0" y="0" width="2400" height="1600"/>
  </clipPath>
</defs>
<path clip-path="url(#clip280)" d="M0 1600 L2400 1600 L2400 0 L0 0  Z" fill="#ffffff" fill-rule="evenodd" fill-opacity="1"/>
<defs>
  <clipPath id="clip281">
    <rect x="480" y="0" width="1681" height="1600"/>
  </clipPath>
</defs>
<path clip-path="url(#clip280)" d="M247.052 1427.5 L2352.76 1427.5 L2352.76 47.2441 L247.052 47.2441  Z" fill="#ffffff" fill-rule="evenodd" fill-opacity="1"/>
<defs>
  <clipPath id="clip282">
    <rect x="247" y="47" width="2107" height="1381"/>
  </clipPath>
</defs>
<polyline clip-path="url(#clip282)" style="stroke:#000000; stroke-linecap:round; stroke-linejoin:round; stroke-width:2; stroke-opacity:0.05; fill:none" points="405.973,1427.5 405.973,47.2441 "/>
<polyline clip-path="url(#clip282)" style="stroke:#000000; stroke-linecap:round; stroke-linejoin:round; stroke-width:2; stroke-opacity:0.05; fill:none" points="505.299,1427.5 505.299,47.2441 "/>
<polyline clip-path="url(#clip282)" style="stroke:#000000; stroke-linecap:round; stroke-linejoin:round; stroke-width:2; stroke-opacity:0.05; fill:none" points="604.625,1427.5 604.625,47.2441 "/>
<polyline clip-path="url(#clip282)" style="stroke:#000000; stroke-linecap:round; stroke-linejoin:round; stroke-width:2; stroke-opacity:0.05; fill:none" points="703.95,1427.5 703.95,47.2441 "/>
<polyline clip-path="url(#clip282)" style="stroke:#000000; stroke-linecap:round; stroke-linejoin:round; stroke-width:2; stroke-opacity:0.05; fill:none" points="902.601,1427.5 902.601,47.2441 "/>
<polyline clip-path="url(#clip282)" style="stroke:#000000; stroke-linecap:round; stroke-linejoin:round; stroke-width:2; stroke-opacity:0.05; fill:none" points="1001.93,1427.5 1001.93,47.2441 "/>
<polyline clip-path="url(#clip282)" style="stroke:#000000; stroke-linecap:round; stroke-linejoin:round; stroke-width:2; stroke-opacity:0.05; fill:none" points="1101.25,1427.5 1101.25,47.2441 "/>
<polyline clip-path="url(#clip282)" style="stroke:#000000; stroke-linecap:round; stroke-linejoin:round; stroke-width:2; stroke-opacity:0.05; fill:none" points="1200.58,1427.5 1200.58,47.2441 "/>
<polyline clip-path="url(#clip282)" style="stroke:#000000; stroke-linecap:round; stroke-linejoin:round; stroke-width:2; stroke-opacity:0.05; fill:none" points="1399.23,1427.5 1399.23,47.2441 "/>
<polyline clip-path="url(#clip282)" style="stroke:#000000; stroke-linecap:round; stroke-linejoin:round; stroke-width:2; stroke-opacity:0.05; fill:none" points="1498.56,1427.5 1498.56,47.2441 "/>
<polyline clip-path="url(#clip282)" style="stroke:#000000; stroke-linecap:round; stroke-linejoin:round; stroke-width:2; stroke-opacity:0.05; fill:none" points="1597.88,1427.5 1597.88,47.2441 "/>
<polyline clip-path="url(#clip282)" style="stroke:#000000; stroke-linecap:round; stroke-linejoin:round; stroke-width:2; stroke-opacity:0.05; fill:none" points="1697.21,1427.5 1697.21,47.2441 "/>
<polyline clip-path="url(#clip282)" style="stroke:#000000; stroke-linecap:round; stroke-linejoin:round; stroke-width:2; stroke-opacity:0.05; fill:none" points="1895.86,1427.5 1895.86,47.2441 "/>
<polyline clip-path="url(#clip282)" style="stroke:#000000; stroke-linecap:round; stroke-linejoin:round; stroke-width:2; stroke-opacity:0.05; fill:none" points="1995.18,1427.5 1995.18,47.2441 "/>
<polyline clip-path="url(#clip282)" style="stroke:#000000; stroke-linecap:round; stroke-linejoin:round; stroke-width:2; stroke-opacity:0.05; fill:none" points="2094.51,1427.5 2094.51,47.2441 "/>
<polyline clip-path="url(#clip282)" style="stroke:#000000; stroke-linecap:round; stroke-linejoin:round; stroke-width:2; stroke-opacity:0.05; fill:none" points="2193.83,1427.5 2193.83,47.2441 "/>
<polyline clip-path="url(#clip282)" style="stroke:#000000; stroke-linecap:round; stroke-linejoin:round; stroke-width:2; stroke-opacity:0.05; fill:none" points="247.052,1404.26 2352.76,1404.26 "/>
<polyline clip-path="url(#clip282)" style="stroke:#000000; stroke-linecap:round; stroke-linejoin:round; stroke-width:2; stroke-opacity:0.05; fill:none" points="247.052,1243.42 2352.76,1243.42 "/>
<polyline clip-path="url(#clip282)" style="stroke:#000000; stroke-linecap:round; stroke-linejoin:round; stroke-width:2; stroke-opacity:0.05; fill:none" points="247.052,1161.75 2352.76,1161.75 "/>
<polyline clip-path="url(#clip282)" style="stroke:#000000; stroke-linecap:round; stroke-linejoin:round; stroke-width:2; stroke-opacity:0.05; fill:none" points="247.052,1103.81 2352.76,1103.81 "/>
<polyline clip-path="url(#clip282)" style="stroke:#000000; stroke-linecap:round; stroke-linejoin:round; stroke-width:2; stroke-opacity:0.05; fill:none" points="247.052,1058.86 2352.76,1058.86 "/>
<polyline clip-path="url(#clip282)" style="stroke:#000000; stroke-linecap:round; stroke-linejoin:round; stroke-width:2; stroke-opacity:0.05; fill:none" points="247.052,1022.13 2352.76,1022.13 "/>
<polyline clip-path="url(#clip282)" style="stroke:#000000; stroke-linecap:round; stroke-linejoin:round; stroke-width:2; stroke-opacity:0.05; fill:none" points="247.052,991.084 2352.76,991.084 "/>
<polyline clip-path="url(#clip282)" style="stroke:#000000; stroke-linecap:round; stroke-linejoin:round; stroke-width:2; stroke-opacity:0.05; fill:none" points="247.052,964.187 2352.76,964.187 "/>
<polyline clip-path="url(#clip282)" style="stroke:#000000; stroke-linecap:round; stroke-linejoin:round; stroke-width:2; stroke-opacity:0.05; fill:none" points="247.052,940.463 2352.76,940.463 "/>
<polyline clip-path="url(#clip282)" style="stroke:#000000; stroke-linecap:round; stroke-linejoin:round; stroke-width:2; stroke-opacity:0.05; fill:none" points="247.052,779.623 2352.76,779.623 "/>
<polyline clip-path="url(#clip282)" style="stroke:#000000; stroke-linecap:round; stroke-linejoin:round; stroke-width:2; stroke-opacity:0.05; fill:none" points="247.052,697.951 2352.76,697.951 "/>
<polyline clip-path="url(#clip282)" style="stroke:#000000; stroke-linecap:round; stroke-linejoin:round; stroke-width:2; stroke-opacity:0.05; fill:none" points="247.052,640.005 2352.76,640.005 "/>
<polyline clip-path="url(#clip282)" style="stroke:#000000; stroke-linecap:round; stroke-linejoin:round; stroke-width:2; stroke-opacity:0.05; fill:none" points="247.052,595.058 2352.76,595.058 "/>
<polyline clip-path="url(#clip282)" style="stroke:#000000; stroke-linecap:round; stroke-linejoin:round; stroke-width:2; stroke-opacity:0.05; fill:none" points="247.052,558.334 2352.76,558.334 "/>
<polyline clip-path="url(#clip282)" style="stroke:#000000; stroke-linecap:round; stroke-linejoin:round; stroke-width:2; stroke-opacity:0.05; fill:none" points="247.052,527.284 2352.76,527.284 "/>
<polyline clip-path="url(#clip282)" style="stroke:#000000; stroke-linecap:round; stroke-linejoin:round; stroke-width:2; stroke-opacity:0.05; fill:none" points="247.052,500.387 2352.76,500.387 "/>
<polyline clip-path="url(#clip282)" style="stroke:#000000; stroke-linecap:round; stroke-linejoin:round; stroke-width:2; stroke-opacity:0.05; fill:none" points="247.052,476.662 2352.76,476.662 "/>
<polyline clip-path="url(#clip282)" style="stroke:#000000; stroke-linecap:round; stroke-linejoin:round; stroke-width:2; stroke-opacity:0.05; fill:none" points="247.052,315.822 2352.76,315.822 "/>
<polyline clip-path="url(#clip282)" style="stroke:#000000; stroke-linecap:round; stroke-linejoin:round; stroke-width:2; stroke-opacity:0.05; fill:none" points="247.052,234.151 2352.76,234.151 "/>
<polyline clip-path="url(#clip282)" style="stroke:#000000; stroke-linecap:round; stroke-linejoin:round; stroke-width:2; stroke-opacity:0.05; fill:none" points="247.052,176.204 2352.76,176.204 "/>
<polyline clip-path="url(#clip282)" style="stroke:#000000; stroke-linecap:round; stroke-linejoin:round; stroke-width:2; stroke-opacity:0.05; fill:none" points="247.052,131.257 2352.76,131.257 "/>
<polyline clip-path="url(#clip282)" style="stroke:#000000; stroke-linecap:round; stroke-linejoin:round; stroke-width:2; stroke-opacity:0.05; fill:none" points="247.052,94.5332 2352.76,94.5332 "/>
<polyline clip-path="url(#clip282)" style="stroke:#000000; stroke-linecap:round; stroke-linejoin:round; stroke-width:2; stroke-opacity:0.05; fill:none" points="247.052,63.4833 2352.76,63.4833 "/>
<polyline clip-path="url(#clip282)" style="stroke:#000000; stroke-linecap:round; stroke-linejoin:round; stroke-width:2; stroke-opacity:0.1; fill:none" points="306.648,1427.5 306.648,47.2441 "/>
<polyline clip-path="url(#clip282)" style="stroke:#000000; stroke-linecap:round; stroke-linejoin:round; stroke-width:2; stroke-opacity:0.1; fill:none" points="803.276,1427.5 803.276,47.2441 "/>
<polyline clip-path="url(#clip282)" style="stroke:#000000; stroke-linecap:round; stroke-linejoin:round; stroke-width:2; stroke-opacity:0.1; fill:none" points="1299.9,1427.5 1299.9,47.2441 "/>
<polyline clip-path="url(#clip282)" style="stroke:#000000; stroke-linecap:round; stroke-linejoin:round; stroke-width:2; stroke-opacity:0.1; fill:none" points="1796.53,1427.5 1796.53,47.2441 "/>
<polyline clip-path="url(#clip282)" style="stroke:#000000; stroke-linecap:round; stroke-linejoin:round; stroke-width:2; stroke-opacity:0.1; fill:none" points="2293.16,1427.5 2293.16,47.2441 "/>
<polyline clip-path="url(#clip282)" style="stroke:#000000; stroke-linecap:round; stroke-linejoin:round; stroke-width:2; stroke-opacity:0.1; fill:none" points="247.052,1383.04 2352.76,1383.04 "/>
<polyline clip-path="url(#clip282)" style="stroke:#000000; stroke-linecap:round; stroke-linejoin:round; stroke-width:2; stroke-opacity:0.1; fill:none" points="247.052,919.24 2352.76,919.24 "/>
<polyline clip-path="url(#clip282)" style="stroke:#000000; stroke-linecap:round; stroke-linejoin:round; stroke-width:2; stroke-opacity:0.1; fill:none" points="247.052,455.44 2352.76,455.44 "/>
<polyline clip-path="url(#clip280)" style="stroke:#000000; stroke-linecap:round; stroke-linejoin:round; stroke-width:4; stroke-opacity:1; fill:none" points="247.052,1427.5 2352.76,1427.5 "/>
<polyline clip-path="url(#clip280)" style="stroke:#000000; stroke-linecap:round; stroke-linejoin:round; stroke-width:4; stroke-opacity:1; fill:none" points="306.648,1427.5 306.648,1408.6 "/>
<polyline clip-path="url(#clip280)" style="stroke:#000000; stroke-linecap:round; stroke-linejoin:round; stroke-width:4; stroke-opacity:1; fill:none" points="803.276,1427.5 803.276,1408.6 "/>
<polyline clip-path="url(#clip280)" style="stroke:#000000; stroke-linecap:round; stroke-linejoin:round; stroke-width:4; stroke-opacity:1; fill:none" points="1299.9,1427.5 1299.9,1408.6 "/>
<polyline clip-path="url(#clip280)" style="stroke:#000000; stroke-linecap:round; stroke-linejoin:round; stroke-width:4; stroke-opacity:1; fill:none" points="1796.53,1427.5 1796.53,1408.6 "/>
<polyline clip-path="url(#clip280)" style="stroke:#000000; stroke-linecap:round; stroke-linejoin:round; stroke-width:4; stroke-opacity:1; fill:none" points="2293.16,1427.5 2293.16,1408.6 "/>
<polyline clip-path="url(#clip280)" style="stroke:#000000; stroke-linecap:round; stroke-linejoin:round; stroke-width:4; stroke-opacity:1; fill:none" points="405.973,1427.5 405.973,1418.05 "/>
<polyline clip-path="url(#clip280)" style="stroke:#000000; stroke-linecap:round; stroke-linejoin:round; stroke-width:4; stroke-opacity:1; fill:none" points="505.299,1427.5 505.299,1418.05 "/>
<polyline clip-path="url(#clip280)" style="stroke:#000000; stroke-linecap:round; stroke-linejoin:round; stroke-width:4; stroke-opacity:1; fill:none" points="604.625,1427.5 604.625,1418.05 "/>
<polyline clip-path="url(#clip280)" style="stroke:#000000; stroke-linecap:round; stroke-linejoin:round; stroke-width:4; stroke-opacity:1; fill:none" points="703.95,1427.5 703.95,1418.05 "/>
<polyline clip-path="url(#clip280)" style="stroke:#000000; stroke-linecap:round; stroke-linejoin:round; stroke-width:4; stroke-opacity:1; fill:none" points="902.601,1427.5 902.601,1418.05 "/>
<polyline clip-path="url(#clip280)" style="stroke:#000000; stroke-linecap:round; stroke-linejoin:round; stroke-width:4; stroke-opacity:1; fill:none" points="1001.93,1427.5 1001.93,1418.05 "/>
<polyline clip-path="url(#clip280)" style="stroke:#000000; stroke-linecap:round; stroke-linejoin:round; stroke-width:4; stroke-opacity:1; fill:none" points="1101.25,1427.5 1101.25,1418.05 "/>
<polyline clip-path="url(#clip280)" style="stroke:#000000; stroke-linecap:round; stroke-linejoin:round; stroke-width:4; stroke-opacity:1; fill:none" points="1200.58,1427.5 1200.58,1418.05 "/>
<polyline clip-path="url(#clip280)" style="stroke:#000000; stroke-linecap:round; stroke-linejoin:round; stroke-width:4; stroke-opacity:1; fill:none" points="1399.23,1427.5 1399.23,1418.05 "/>
<polyline clip-path="url(#clip280)" style="stroke:#000000; stroke-linecap:round; stroke-linejoin:round; stroke-width:4; stroke-opacity:1; fill:none" points="1498.56,1427.5 1498.56,1418.05 "/>
<polyline clip-path="url(#clip280)" style="stroke:#000000; stroke-linecap:round; stroke-linejoin:round; stroke-width:4; stroke-opacity:1; fill:none" points="1597.88,1427.5 1597.88,1418.05 "/>
<polyline clip-path="url(#clip280)" style="stroke:#000000; stroke-linecap:round; stroke-linejoin:round; stroke-width:4; stroke-opacity:1; fill:none" points="1697.21,1427.5 1697.21,1418.05 "/>
<polyline clip-path="url(#clip280)" style="stroke:#000000; stroke-linecap:round; stroke-linejoin:round; stroke-width:4; stroke-opacity:1; fill:none" points="1895.86,1427.5 1895.86,1418.05 "/>
<polyline clip-path="url(#clip280)" style="stroke:#000000; stroke-linecap:round; stroke-linejoin:round; stroke-width:4; stroke-opacity:1; fill:none" points="1995.18,1427.5 1995.18,1418.05 "/>
<polyline clip-path="url(#clip280)" style="stroke:#000000; stroke-linecap:round; stroke-linejoin:round; stroke-width:4; stroke-opacity:1; fill:none" points="2094.51,1427.5 2094.51,1418.05 "/>
<polyline clip-path="url(#clip280)" style="stroke:#000000; stroke-linecap:round; stroke-linejoin:round; stroke-width:4; stroke-opacity:1; fill:none" points="2193.83,1427.5 2193.83,1418.05 "/>
<path clip-path="url(#clip280)" d="M306.648 1458.42 Q303.036 1458.42 301.208 1461.98 Q299.402 1465.52 299.402 1472.65 Q299.402 1479.76 301.208 1483.33 Q303.036 1486.87 306.648 1486.87 Q310.282 1486.87 312.087 1483.33 Q313.916 1479.76 313.916 1472.65 Q313.916 1465.52 312.087 1461.98 Q310.282 1458.42 306.648 1458.42 M306.648 1454.71 Q312.458 1454.71 315.513 1459.32 Q318.592 1463.9 318.592 1472.65 Q318.592 1481.38 315.513 1485.99 Q312.458 1490.57 306.648 1490.57 Q300.837 1490.57 297.759 1485.99 Q294.703 1481.38 294.703 1472.65 Q294.703 1463.9 297.759 1459.32 Q300.837 1454.71 306.648 1454.71 Z" fill="#000000" fill-rule="nonzero" fill-opacity="1" /><path clip-path="url(#clip280)" d="M793.554 1455.34 L811.91 1455.34 L811.91 1459.28 L797.836 1459.28 L797.836 1467.75 Q798.855 1467.4 799.873 1467.24 Q800.892 1467.05 801.91 1467.05 Q807.697 1467.05 811.077 1470.22 Q814.456 1473.4 814.456 1478.81 Q814.456 1484.39 810.984 1487.49 Q807.512 1490.57 801.192 1490.57 Q799.017 1490.57 796.748 1490.2 Q794.503 1489.83 792.095 1489.09 L792.095 1484.39 Q794.179 1485.52 796.401 1486.08 Q798.623 1486.64 801.1 1486.64 Q805.104 1486.64 807.442 1484.53 Q809.78 1482.42 809.78 1478.81 Q809.78 1475.2 807.442 1473.09 Q805.104 1470.99 801.1 1470.99 Q799.225 1470.99 797.35 1471.4 Q795.498 1471.82 793.554 1472.7 L793.554 1455.34 Z" fill="#000000" fill-rule="nonzero" fill-opacity="1" /><path clip-path="url(#clip280)" d="M1274.59 1485.96 L1282.23 1485.96 L1282.23 1459.6 L1273.92 1461.27 L1273.92 1457.01 L1282.18 1455.34 L1286.86 1455.34 L1286.86 1485.96 L1294.5 1485.96 L1294.5 1489.9 L1274.59 1489.9 L1274.59 1485.96 Z" fill="#000000" fill-rule="nonzero" fill-opacity="1" /><path clip-path="url(#clip280)" d="M1313.94 1458.42 Q1310.33 1458.42 1308.5 1461.98 Q1306.7 1465.52 1306.7 1472.65 Q1306.7 1479.76 1308.5 1483.33 Q1310.33 1486.87 1313.94 1486.87 Q1317.58 1486.87 1319.38 1483.33 Q1321.21 1479.76 1321.21 1472.65 Q1321.21 1465.52 1319.38 1461.98 Q1317.58 1458.42 1313.94 1458.42 M1313.94 1454.71 Q1319.75 1454.71 1322.81 1459.32 Q1325.89 1463.9 1325.89 1472.65 Q1325.89 1481.38 1322.81 1485.99 Q1319.75 1490.57 1313.94 1490.57 Q1308.13 1490.57 1305.05 1485.99 Q1302 1481.38 1302 1472.65 Q1302 1463.9 1305.05 1459.32 Q1308.13 1454.71 1313.94 1454.71 Z" fill="#000000" fill-rule="nonzero" fill-opacity="1" /><path clip-path="url(#clip280)" d="M1771.72 1485.96 L1779.36 1485.96 L1779.36 1459.6 L1771.05 1461.27 L1771.05 1457.01 L1779.31 1455.34 L1783.99 1455.34 L1783.99 1485.96 L1791.62 1485.96 L1791.62 1489.9 L1771.72 1489.9 L1771.72 1485.96 Z" fill="#000000" fill-rule="nonzero" fill-opacity="1" /><path clip-path="url(#clip280)" d="M1801.12 1455.34 L1819.47 1455.34 L1819.47 1459.28 L1805.4 1459.28 L1805.4 1467.75 Q1806.42 1467.4 1807.43 1467.24 Q1808.45 1467.05 1809.47 1467.05 Q1815.26 1467.05 1818.64 1470.22 Q1822.02 1473.4 1822.02 1478.81 Q1822.02 1484.39 1818.55 1487.49 Q1815.07 1490.57 1808.75 1490.57 Q1806.58 1490.57 1804.31 1490.2 Q1802.06 1489.83 1799.66 1489.09 L1799.66 1484.39 Q1801.74 1485.52 1803.96 1486.08 Q1806.19 1486.64 1808.66 1486.64 Q1812.67 1486.64 1815 1484.53 Q1817.34 1482.42 1817.34 1478.81 Q1817.34 1475.2 1815 1473.09 Q1812.67 1470.99 1808.66 1470.99 Q1806.79 1470.99 1804.91 1471.4 Q1803.06 1471.82 1801.12 1472.7 L1801.12 1455.34 Z" fill="#000000" fill-rule="nonzero" fill-opacity="1" /><path clip-path="url(#clip280)" d="M2271.93 1485.96 L2288.25 1485.96 L2288.25 1489.9 L2266.31 1489.9 L2266.31 1485.96 Q2268.97 1483.21 2273.55 1478.58 Q2278.16 1473.93 2279.34 1472.59 Q2281.59 1470.06 2282.47 1468.33 Q2283.37 1466.57 2283.37 1464.88 Q2283.37 1462.12 2281.42 1460.39 Q2279.5 1458.65 2276.4 1458.65 Q2274.2 1458.65 2271.75 1459.41 Q2269.32 1460.18 2266.54 1461.73 L2266.54 1457.01 Q2269.36 1455.87 2271.82 1455.29 Q2274.27 1454.71 2276.31 1454.71 Q2281.68 1454.71 2284.87 1457.4 Q2288.07 1460.09 2288.07 1464.58 Q2288.07 1466.71 2287.26 1468.63 Q2286.47 1470.52 2284.36 1473.12 Q2283.79 1473.79 2280.68 1477.01 Q2277.58 1480.2 2271.93 1485.96 Z" fill="#000000" fill-rule="nonzero" fill-opacity="1" /><path clip-path="url(#clip280)" d="M2308.07 1458.42 Q2304.46 1458.42 2302.63 1461.98 Q2300.82 1465.52 2300.82 1472.65 Q2300.82 1479.76 2302.63 1483.33 Q2304.46 1486.87 2308.07 1486.87 Q2311.7 1486.87 2313.51 1483.33 Q2315.34 1479.76 2315.34 1472.65 Q2315.34 1465.52 2313.51 1461.98 Q2311.7 1458.42 2308.07 1458.42 M2308.07 1454.71 Q2313.88 1454.71 2316.93 1459.32 Q2320.01 1463.9 2320.01 1472.65 Q2320.01 1481.38 2316.93 1485.99 Q2313.88 1490.57 2308.07 1490.57 Q2302.26 1490.57 2299.18 1485.99 Q2296.12 1481.38 2296.12 1472.65 Q2296.12 1463.9 2299.18 1459.32 Q2302.26 1454.71 2308.07 1454.71 Z" fill="#000000" fill-rule="nonzero" fill-opacity="1" /><path clip-path="url(#clip280)" d="M1179.65 1523.98 L1185.49 1523.98 L1185.49 1567.18 L1179.65 1567.18 L1179.65 1523.98 Z" fill="#000000" fill-rule="nonzero" fill-opacity="1" /><path clip-path="url(#clip280)" d="M1202.16 1525.57 L1202.16 1534.77 L1213.13 1534.77 L1213.13 1538.91 L1202.16 1538.91 L1202.16 1556.5 Q1202.16 1560.47 1203.23 1561.6 Q1204.33 1562.72 1207.66 1562.72 L1213.13 1562.72 L1213.13 1567.18 L1207.66 1567.18 Q1201.5 1567.18 1199.15 1564.89 Q1196.81 1562.58 1196.81 1556.5 L1196.81 1538.91 L1192.9 1538.91 L1192.9 1534.77 L1196.81 1534.77 L1196.81 1525.57 L1202.16 1525.57 Z" fill="#000000" fill-rule="nonzero" fill-opacity="1" /><path clip-path="url(#clip280)" d="M1247.85 1549.65 L1247.85 1552.25 L1223.37 1552.25 Q1223.72 1557.75 1226.67 1560.64 Q1229.65 1563.51 1234.94 1563.51 Q1238.01 1563.51 1240.88 1562.75 Q1243.77 1562 1246.61 1560.5 L1246.61 1565.53 Q1243.74 1566.75 1240.73 1567.38 Q1237.72 1568.02 1234.63 1568.02 Q1226.87 1568.02 1222.33 1563.51 Q1217.82 1558.99 1217.82 1551.29 Q1217.82 1543.34 1222.1 1538.68 Q1226.41 1533.99 1233.7 1533.99 Q1240.24 1533.99 1244.03 1538.22 Q1247.85 1542.41 1247.85 1549.65 M1242.53 1548.08 Q1242.47 1543.71 1240.07 1541.11 Q1237.69 1538.51 1233.76 1538.51 Q1229.3 1538.51 1226.61 1541.02 Q1223.95 1543.54 1223.54 1548.11 L1242.53 1548.08 Z" fill="#000000" fill-rule="nonzero" fill-opacity="1" /><path clip-path="url(#clip280)" d="M1275.37 1539.75 Q1274.47 1539.23 1273.4 1539 Q1272.36 1538.74 1271.08 1538.74 Q1266.57 1538.74 1264.14 1541.69 Q1261.74 1544.61 1261.74 1550.11 L1261.74 1567.18 L1256.39 1567.18 L1256.39 1534.77 L1261.74 1534.77 L1261.74 1539.81 Q1263.42 1536.86 1266.11 1535.44 Q1268.8 1533.99 1272.65 1533.99 Q1273.2 1533.99 1273.86 1534.08 Q1274.53 1534.14 1275.34 1534.28 L1275.37 1539.75 Z" fill="#000000" fill-rule="nonzero" fill-opacity="1" /><path clip-path="url(#clip280)" d="M1295.68 1550.89 Q1289.23 1550.89 1286.74 1552.37 Q1284.25 1553.84 1284.25 1557.4 Q1284.25 1560.24 1286.1 1561.91 Q1287.98 1563.56 1291.19 1563.56 Q1295.62 1563.56 1298.28 1560.44 Q1300.97 1557.28 1300.97 1552.08 L1300.97 1550.89 L1295.68 1550.89 M1306.3 1548.69 L1306.3 1567.18 L1300.97 1567.18 L1300.97 1562.26 Q1299.15 1565.21 1296.43 1566.63 Q1293.71 1568.02 1289.78 1568.02 Q1284.8 1568.02 1281.85 1565.24 Q1278.93 1562.43 1278.93 1557.75 Q1278.93 1552.28 1282.57 1549.5 Q1286.25 1546.72 1293.51 1546.72 L1300.97 1546.72 L1300.97 1546.2 Q1300.97 1542.53 1298.54 1540.53 Q1296.14 1538.51 1291.77 1538.51 Q1289 1538.51 1286.36 1539.17 Q1283.73 1539.84 1281.3 1541.17 L1281.3 1536.25 Q1284.22 1535.12 1286.97 1534.57 Q1289.72 1533.99 1292.32 1533.99 Q1299.35 1533.99 1302.83 1537.64 Q1306.3 1541.28 1306.3 1548.69 Z" fill="#000000" fill-rule="nonzero" fill-opacity="1" /><path clip-path="url(#clip280)" d="M1322.53 1525.57 L1322.53 1534.77 L1333.5 1534.77 L1333.5 1538.91 L1322.53 1538.91 L1322.53 1556.5 Q1322.53 1560.47 1323.6 1561.6 Q1324.7 1562.72 1328.03 1562.72 L1333.5 1562.72 L1333.5 1567.18 L1328.03 1567.18 Q1321.87 1567.18 1319.52 1564.89 Q1317.18 1562.58 1317.18 1556.5 L1317.18 1538.91 L1313.27 1538.91 L1313.27 1534.77 L1317.18 1534.77 L1317.18 1525.57 L1322.53 1525.57 Z" fill="#000000" fill-rule="nonzero" fill-opacity="1" /><path clip-path="url(#clip280)" d="M1340.5 1534.77 L1345.82 1534.77 L1345.82 1567.18 L1340.5 1567.18 L1340.5 1534.77 M1340.5 1522.16 L1345.82 1522.16 L1345.82 1528.9 L1340.5 1528.9 L1340.5 1522.16 Z" fill="#000000" fill-rule="nonzero" fill-opacity="1" /><path clip-path="url(#clip280)" d="M1369.52 1538.51 Q1365.24 1538.51 1362.75 1541.86 Q1360.26 1545.19 1360.26 1551.01 Q1360.26 1556.82 1362.72 1560.18 Q1365.21 1563.51 1369.52 1563.51 Q1373.78 1563.51 1376.26 1560.15 Q1378.75 1556.79 1378.75 1551.01 Q1378.75 1545.25 1376.26 1541.89 Q1373.78 1538.51 1369.52 1538.51 M1369.52 1533.99 Q1376.47 1533.99 1380.43 1538.51 Q1384.39 1543.02 1384.39 1551.01 Q1384.39 1558.96 1380.43 1563.51 Q1376.47 1568.02 1369.52 1568.02 Q1362.55 1568.02 1358.58 1563.51 Q1354.65 1558.96 1354.65 1551.01 Q1354.65 1543.02 1358.58 1538.51 Q1362.55 1533.99 1369.52 1533.99 Z" fill="#000000" fill-rule="nonzero" fill-opacity="1" /><path clip-path="url(#clip280)" d="M1420.16 1547.62 L1420.16 1567.18 L1414.83 1567.18 L1414.83 1547.79 Q1414.83 1543.19 1413.04 1540.91 Q1411.25 1538.62 1407.66 1538.62 Q1403.35 1538.62 1400.86 1541.37 Q1398.37 1544.12 1398.37 1548.86 L1398.37 1567.18 L1393.02 1567.18 L1393.02 1534.77 L1398.37 1534.77 L1398.37 1539.81 Q1400.28 1536.88 1402.85 1535.44 Q1405.46 1533.99 1408.84 1533.99 Q1414.43 1533.99 1417.29 1537.46 Q1420.16 1540.91 1420.16 1547.62 Z" fill="#000000" fill-rule="nonzero" fill-opacity="1" /><polyline clip-path="url(#clip280)" style="stroke:#000000; stroke-linecap:round; stroke-linejoin:round; stroke-width:4; stroke-opacity:1; fill:none" points="247.052,1427.5 247.052,47.2441 "/>
<polyline clip-path="url(#clip280)" style="stroke:#000000; stroke-linecap:round; stroke-linejoin:round; stroke-width:4; stroke-opacity:1; fill:none" points="247.052,1383.04 265.95,1383.04 "/>
<polyline clip-path="url(#clip280)" style="stroke:#000000; stroke-linecap:round; stroke-linejoin:round; stroke-width:4; stroke-opacity:1; fill:none" points="247.052,919.24 265.95,919.24 "/>
<polyline clip-path="url(#clip280)" style="stroke:#000000; stroke-linecap:round; stroke-linejoin:round; stroke-width:4; stroke-opacity:1; fill:none" points="247.052,455.44 265.95,455.44 "/>
<polyline clip-path="url(#clip280)" style="stroke:#000000; stroke-linecap:round; stroke-linejoin:round; stroke-width:4; stroke-opacity:1; fill:none" points="247.052,1404.26 256.501,1404.26 "/>
<polyline clip-path="url(#clip280)" style="stroke:#000000; stroke-linecap:round; stroke-linejoin:round; stroke-width:4; stroke-opacity:1; fill:none" points="247.052,1243.42 256.501,1243.42 "/>
<polyline clip-path="url(#clip280)" style="stroke:#000000; stroke-linecap:round; stroke-linejoin:round; stroke-width:4; stroke-opacity:1; fill:none" points="247.052,1161.75 256.501,1161.75 "/>
<polyline clip-path="url(#clip280)" style="stroke:#000000; stroke-linecap:round; stroke-linejoin:round; stroke-width:4; stroke-opacity:1; fill:none" points="247.052,1103.81 256.501,1103.81 "/>
<polyline clip-path="url(#clip280)" style="stroke:#000000; stroke-linecap:round; stroke-linejoin:round; stroke-width:4; stroke-opacity:1; fill:none" points="247.052,1058.86 256.501,1058.86 "/>
<polyline clip-path="url(#clip280)" style="stroke:#000000; stroke-linecap:round; stroke-linejoin:round; stroke-width:4; stroke-opacity:1; fill:none" points="247.052,1022.13 256.501,1022.13 "/>
<polyline clip-path="url(#clip280)" style="stroke:#000000; stroke-linecap:round; stroke-linejoin:round; stroke-width:4; stroke-opacity:1; fill:none" points="247.052,991.084 256.501,991.084 "/>
<polyline clip-path="url(#clip280)" style="stroke:#000000; stroke-linecap:round; stroke-linejoin:round; stroke-width:4; stroke-opacity:1; fill:none" points="247.052,964.187 256.501,964.187 "/>
<polyline clip-path="url(#clip280)" style="stroke:#000000; stroke-linecap:round; stroke-linejoin:round; stroke-width:4; stroke-opacity:1; fill:none" points="247.052,940.463 256.501,940.463 "/>
<polyline clip-path="url(#clip280)" style="stroke:#000000; stroke-linecap:round; stroke-linejoin:round; stroke-width:4; stroke-opacity:1; fill:none" points="247.052,779.623 256.501,779.623 "/>
<polyline clip-path="url(#clip280)" style="stroke:#000000; stroke-linecap:round; stroke-linejoin:round; stroke-width:4; stroke-opacity:1; fill:none" points="247.052,697.951 256.501,697.951 "/>
<polyline clip-path="url(#clip280)" style="stroke:#000000; stroke-linecap:round; stroke-linejoin:round; stroke-width:4; stroke-opacity:1; fill:none" points="247.052,640.005 256.501,640.005 "/>
<polyline clip-path="url(#clip280)" style="stroke:#000000; stroke-linecap:round; stroke-linejoin:round; stroke-width:4; stroke-opacity:1; fill:none" points="247.052,595.058 256.501,595.058 "/>
<polyline clip-path="url(#clip280)" style="stroke:#000000; stroke-linecap:round; stroke-linejoin:round; stroke-width:4; stroke-opacity:1; fill:none" points="247.052,558.334 256.501,558.334 "/>
<polyline clip-path="url(#clip280)" style="stroke:#000000; stroke-linecap:round; stroke-linejoin:round; stroke-width:4; stroke-opacity:1; fill:none" points="247.052,527.284 256.501,527.284 "/>
<polyline clip-path="url(#clip280)" style="stroke:#000000; stroke-linecap:round; stroke-linejoin:round; stroke-width:4; stroke-opacity:1; fill:none" points="247.052,500.387 256.501,500.387 "/>
<polyline clip-path="url(#clip280)" style="stroke:#000000; stroke-linecap:round; stroke-linejoin:round; stroke-width:4; stroke-opacity:1; fill:none" points="247.052,476.662 256.501,476.662 "/>
<polyline clip-path="url(#clip280)" style="stroke:#000000; stroke-linecap:round; stroke-linejoin:round; stroke-width:4; stroke-opacity:1; fill:none" points="247.052,315.822 256.501,315.822 "/>
<polyline clip-path="url(#clip280)" style="stroke:#000000; stroke-linecap:round; stroke-linejoin:round; stroke-width:4; stroke-opacity:1; fill:none" points="247.052,234.151 256.501,234.151 "/>
<polyline clip-path="url(#clip280)" style="stroke:#000000; stroke-linecap:round; stroke-linejoin:round; stroke-width:4; stroke-opacity:1; fill:none" points="247.052,176.204 256.501,176.204 "/>
<polyline clip-path="url(#clip280)" style="stroke:#000000; stroke-linecap:round; stroke-linejoin:round; stroke-width:4; stroke-opacity:1; fill:none" points="247.052,131.257 256.501,131.257 "/>
<polyline clip-path="url(#clip280)" style="stroke:#000000; stroke-linecap:round; stroke-linejoin:round; stroke-width:4; stroke-opacity:1; fill:none" points="247.052,94.5332 256.501,94.5332 "/>
<polyline clip-path="url(#clip280)" style="stroke:#000000; stroke-linecap:round; stroke-linejoin:round; stroke-width:4; stroke-opacity:1; fill:none" points="247.052,63.4833 256.501,63.4833 "/>
<path clip-path="url(#clip280)" d="M110.611 1402.83 L118.25 1402.83 L118.25 1376.47 L109.94 1378.13 L109.94 1373.87 L118.204 1372.21 L122.88 1372.21 L122.88 1402.83 L130.519 1402.83 L130.519 1406.77 L110.611 1406.77 L110.611 1402.83 Z" fill="#000000" fill-rule="nonzero" fill-opacity="1" /><path clip-path="url(#clip280)" d="M149.963 1375.29 Q146.352 1375.29 144.523 1378.85 Q142.718 1382.39 142.718 1389.52 Q142.718 1396.63 144.523 1400.19 Q146.352 1403.74 149.963 1403.74 Q153.597 1403.74 155.403 1400.19 Q157.232 1396.63 157.232 1389.52 Q157.232 1382.39 155.403 1378.85 Q153.597 1375.29 149.963 1375.29 M149.963 1371.58 Q155.773 1371.58 158.829 1376.19 Q161.907 1380.77 161.907 1389.52 Q161.907 1398.25 158.829 1402.86 Q155.773 1407.44 149.963 1407.44 Q144.153 1407.44 141.074 1402.86 Q138.019 1398.25 138.019 1389.52 Q138.019 1380.77 141.074 1376.19 Q144.153 1371.58 149.963 1371.58 Z" fill="#000000" fill-rule="nonzero" fill-opacity="1" /><path clip-path="url(#clip280)" d="M161.907 1365.68 L186.019 1365.68 L186.019 1368.88 L161.907 1368.88 L161.907 1365.68 Z" fill="#000000" fill-rule="nonzero" fill-opacity="1" /><path clip-path="url(#clip280)" d="M194.877 1376.16 L201.084 1376.16 L201.084 1354.74 L194.332 1356.09 L194.332 1352.63 L201.046 1351.28 L204.846 1351.28 L204.846 1376.16 L211.052 1376.16 L211.052 1379.36 L194.877 1379.36 L194.877 1376.16 Z" fill="#000000" fill-rule="nonzero" fill-opacity="1" /><path clip-path="url(#clip280)" d="M140.347 939.033 L147.985 939.033 L147.985 912.667 L139.675 914.334 L139.675 910.075 L147.939 908.408 L152.615 908.408 L152.615 939.033 L160.254 939.033 L160.254 942.968 L140.347 942.968 L140.347 939.033 Z" fill="#000000" fill-rule="nonzero" fill-opacity="1" /><path clip-path="url(#clip280)" d="M179.698 911.487 Q176.087 911.487 174.258 915.051 Q172.453 918.593 172.453 925.723 Q172.453 932.829 174.258 936.394 Q176.087 939.936 179.698 939.936 Q183.332 939.936 185.138 936.394 Q186.967 932.829 186.967 925.723 Q186.967 918.593 185.138 915.051 Q183.332 911.487 179.698 911.487 M179.698 907.783 Q185.508 907.783 188.564 912.389 Q191.643 916.973 191.643 925.723 Q191.643 934.45 188.564 939.056 Q185.508 943.639 179.698 943.639 Q173.888 943.639 170.809 939.056 Q167.754 934.45 167.754 925.723 Q167.754 916.973 170.809 912.389 Q173.888 907.783 179.698 907.783 Z" fill="#000000" fill-rule="nonzero" fill-opacity="1" /><path clip-path="url(#clip280)" d="M201.347 889.979 Q198.413 889.979 196.928 892.875 Q195.461 895.753 195.461 901.546 Q195.461 907.32 196.928 910.216 Q198.413 913.094 201.347 913.094 Q204.3 913.094 205.767 910.216 Q207.253 907.32 207.253 901.546 Q207.253 895.753 205.767 892.875 Q204.3 889.979 201.347 889.979 M201.347 886.97 Q206.068 886.97 208.551 890.713 Q211.052 894.436 211.052 901.546 Q211.052 908.636 208.551 912.379 Q206.068 916.103 201.347 916.103 Q196.627 916.103 194.125 912.379 Q191.643 908.636 191.643 901.546 Q191.643 894.436 194.125 890.713 Q196.627 886.97 201.347 886.97 Z" fill="#000000" fill-rule="nonzero" fill-opacity="1" /><path clip-path="url(#clip280)" d="M143.036 475.232 L150.675 475.232 L150.675 448.867 L142.365 450.534 L142.365 446.274 L150.629 444.608 L155.304 444.608 L155.304 475.232 L162.943 475.232 L162.943 479.168 L143.036 479.168 L143.036 475.232 Z" fill="#000000" fill-rule="nonzero" fill-opacity="1" /><path clip-path="url(#clip280)" d="M182.388 447.686 Q178.777 447.686 176.948 451.251 Q175.142 454.793 175.142 461.922 Q175.142 469.029 176.948 472.594 Q178.777 476.135 182.388 476.135 Q186.022 476.135 187.827 472.594 Q189.656 469.029 189.656 461.922 Q189.656 454.793 187.827 451.251 Q186.022 447.686 182.388 447.686 M182.388 443.983 Q188.198 443.983 191.253 448.589 Q194.332 453.172 194.332 461.922 Q194.332 470.649 191.253 475.256 Q188.198 479.839 182.388 479.839 Q176.578 479.839 173.499 475.256 Q170.443 470.649 170.443 461.922 Q170.443 453.172 173.499 448.589 Q176.578 443.983 182.388 443.983 Z" fill="#000000" fill-rule="nonzero" fill-opacity="1" /><path clip-path="url(#clip280)" d="M194.877 448.56 L201.084 448.56 L201.084 427.138 L194.332 428.492 L194.332 425.031 L201.046 423.677 L204.846 423.677 L204.846 448.56 L211.052 448.56 L211.052 451.757 L194.877 451.757 L194.877 448.56 Z" fill="#000000" fill-rule="nonzero" fill-opacity="1" /><path clip-path="url(#clip280)" d="M15.9573 860.129 L20.3843 860.129 L20.3843 865.221 Q20.3843 868.086 21.5417 869.214 Q22.6991 870.314 25.7084 870.314 L28.5729 870.314 L28.5729 861.547 L32.7106 861.547 L32.7106 870.314 L60.9802 870.314 L60.9802 875.667 L32.7106 875.667 L32.7106 880.76 L28.5729 880.76 L28.5729 875.667 L26.316 875.667 Q20.9051 875.667 18.4457 873.15 Q15.9573 870.632 15.9573 865.164 L15.9573 860.129 Z" fill="#000000" fill-rule="nonzero" fill-opacity="1" /><path clip-path="url(#clip280)" d="M48.1909 856.223 L28.5729 856.223 L28.5729 850.899 L47.9883 850.899 Q52.589 850.899 54.9038 849.105 Q57.1897 847.311 57.1897 843.723 Q57.1897 839.411 54.4408 836.923 Q51.692 834.406 46.9467 834.406 L28.5729 834.406 L28.5729 829.082 L60.9802 829.082 L60.9802 834.406 L56.0033 834.406 Q58.9547 836.344 60.4015 838.919 Q61.8193 841.466 61.8193 844.851 Q61.8193 850.436 58.3471 853.329 Q54.8749 856.223 48.1909 856.223 M27.7917 842.826 L27.7917 842.826 Z" fill="#000000" fill-rule="nonzero" fill-opacity="1" /><path clip-path="url(#clip280)" d="M41.4201 791.177 L60.9802 791.177 L60.9802 796.501 L41.5937 796.501 Q36.993 796.501 34.7072 798.295 Q32.4213 800.089 32.4213 803.677 Q32.4213 807.988 35.1701 810.476 Q37.9189 812.965 42.6643 812.965 L60.9802 812.965 L60.9802 818.318 L28.5729 818.318 L28.5729 812.965 L33.6076 812.965 Q30.6852 811.055 29.2384 808.48 Q27.7917 805.876 27.7917 802.49 Q27.7917 796.906 31.2639 794.041 Q34.7072 791.177 41.4201 791.177 Z" fill="#000000" fill-rule="nonzero" fill-opacity="1" /><path clip-path="url(#clip280)" d="M29.8171 757.236 L34.794 757.236 Q33.5497 759.493 32.9421 761.779 Q32.3055 764.036 32.3055 766.35 Q32.3055 771.53 35.6041 774.394 Q38.8738 777.259 44.8055 777.259 Q50.7372 777.259 54.0358 774.394 Q57.3054 771.53 57.3054 766.35 Q57.3054 764.036 56.6978 761.779 Q56.0612 759.493 54.817 757.236 L59.736 757.236 Q60.7776 759.464 61.2984 761.865 Q61.8193 764.238 61.8193 766.929 Q61.8193 774.25 57.2186 778.561 Q52.6179 782.872 44.8055 782.872 Q36.8773 782.872 32.3345 778.532 Q27.7917 774.163 27.7917 766.582 Q27.7917 764.122 28.3125 761.779 Q28.8044 759.435 29.8171 757.236 Z" fill="#000000" fill-rule="nonzero" fill-opacity="1" /><path clip-path="url(#clip280)" d="M60.9802 736.605 L17.7802 753.098 L17.7802 746.993 L54.1515 733.307 L17.7802 719.591 L17.7802 713.515 L60.9802 729.979 L60.9802 736.605 Z" fill="#000000" fill-rule="nonzero" fill-opacity="1" /><path clip-path="url(#clip280)" d="M44.6897 697.311 Q44.6897 703.764 46.1654 706.252 Q47.6411 708.741 51.2001 708.741 Q54.0358 708.741 55.714 706.889 Q57.3633 705.008 57.3633 701.796 Q57.3633 697.369 54.2383 694.707 Q51.0844 692.016 45.8761 692.016 L44.6897 692.016 L44.6897 697.311 M42.4907 686.692 L60.9802 686.692 L60.9802 692.016 L56.0612 692.016 Q59.0126 693.839 60.4304 696.559 Q61.8193 699.279 61.8193 703.214 Q61.8193 708.191 59.0415 711.142 Q56.2348 714.065 51.5473 714.065 Q46.0786 714.065 43.3009 710.419 Q40.5231 706.744 40.5231 699.482 L40.5231 692.016 L40.0023 692.016 Q36.3275 692.016 34.331 694.447 Q32.3055 696.848 32.3055 701.218 Q32.3055 703.995 32.971 706.628 Q33.6366 709.262 34.9676 711.692 L30.0486 711.692 Q28.9201 708.77 28.3704 706.021 Q27.7917 703.272 27.7917 700.668 Q27.7917 693.637 31.4375 690.164 Q35.0833 686.692 42.4907 686.692 Z" fill="#000000" fill-rule="nonzero" fill-opacity="1" /><path clip-path="url(#clip280)" d="M15.9573 675.726 L15.9573 670.402 L60.9802 670.402 L60.9802 675.726 L15.9573 675.726 Z" fill="#000000" fill-rule="nonzero" fill-opacity="1" /><path clip-path="url(#clip280)" d="M48.1909 659.812 L28.5729 659.812 L28.5729 654.488 L47.9883 654.488 Q52.589 654.488 54.9038 652.694 Q57.1897 650.9 57.1897 647.312 Q57.1897 643 54.4408 640.512 Q51.692 637.995 46.9467 637.995 L28.5729 637.995 L28.5729 632.671 L60.9802 632.671 L60.9802 637.995 L56.0033 637.995 Q58.9547 639.933 60.4015 642.508 Q61.8193 645.055 61.8193 648.44 Q61.8193 654.025 58.3471 656.918 Q54.8749 659.812 48.1909 659.812 M27.7917 646.415 L27.7917 646.415 Z" fill="#000000" fill-rule="nonzero" fill-opacity="1" /><path clip-path="url(#clip280)" d="M43.4455 593.984 L46.0497 593.984 L46.0497 618.463 Q51.5473 618.116 54.4408 615.165 Q57.3054 612.185 57.3054 606.889 Q57.3054 603.822 56.5531 600.958 Q55.8008 598.064 54.2962 595.229 L59.3309 595.229 Q60.5461 598.093 61.1827 601.102 Q61.8193 604.112 61.8193 607.208 Q61.8193 614.962 57.3054 619.505 Q52.7915 624.019 45.0948 624.019 Q37.1377 624.019 32.4792 619.737 Q27.7917 615.425 27.7917 608.134 Q27.7917 601.594 32.0162 597.804 Q36.2118 593.984 43.4455 593.984 M41.883 599.308 Q37.5138 599.366 34.9097 601.768 Q32.3055 604.141 32.3055 608.076 Q32.3055 612.532 34.8229 615.223 Q37.3402 617.885 41.912 618.29 L41.883 599.308 Z" fill="#000000" fill-rule="nonzero" fill-opacity="1" /><polyline clip-path="url(#clip282)" style="stroke:#0000ff; stroke-linecap:round; stroke-linejoin:round; stroke-width:8; stroke-opacity:1; fill:none" points="306.648,86.3079 405.973,324.86 505.299,445.48 604.625,531.445 703.95,600.714 803.276,660.237 902.601,713.436 1001.93,762.251 1101.25,807.885 1200.58,851.135 1299.9,892.554 1399.23,932.541 1498.56,971.392 1597.88,1009.33 1697.21,1046.53 1796.53,1083.12 1895.86,1119.22 1995.18,1154.91 2094.51,1190.26 2193.83,1225.32 2293.16,1260.16 "/>
<path clip-path="url(#clip282)" d="M306.648 70.3079 L302.888 81.1239 L291.432 81.3639 L300.568 88.2919 L297.24 99.2519 L306.648 92.7079 L316.056 99.2519 L312.728 88.2919 L321.864 81.3639 L310.408 81.1239 L306.648 70.3079 Z" fill="#009af9" fill-rule="evenodd" fill-opacity="1" stroke="#000000" stroke-opacity="1" stroke-width="3.2"/>
<path clip-path="url(#clip282)" d="M405.973 308.86 L402.213 319.676 L390.757 319.916 L399.893 326.844 L396.565 337.804 L405.973 331.26 L415.381 337.804 L412.053 326.844 L421.189 319.916 L409.733 319.676 L405.973 308.86 Z" fill="#009af9" fill-rule="evenodd" fill-opacity="1" stroke="#000000" stroke-opacity="1" stroke-width="3.2"/>
<path clip-path="url(#clip282)" d="M505.299 429.48 L501.539 440.296 L490.083 440.536 L499.219 447.464 L495.891 458.424 L505.299 451.88 L514.707 458.424 L511.379 447.464 L520.515 440.536 L509.059 440.296 L505.299 429.48 Z" fill="#009af9" fill-rule="evenodd" fill-opacity="1" stroke="#000000" stroke-opacity="1" stroke-width="3.2"/>
<path clip-path="url(#clip282)" d="M604.625 515.445 L600.865 526.261 L589.409 526.501 L598.545 533.429 L595.217 544.389 L604.625 537.845 L614.033 544.389 L610.705 533.429 L619.841 526.501 L608.385 526.261 L604.625 515.445 Z" fill="#009af9" fill-rule="evenodd" fill-opacity="1" stroke="#000000" stroke-opacity="1" stroke-width="3.2"/>
<path clip-path="url(#clip282)" d="M703.95 584.714 L700.19 595.53 L688.734 595.77 L697.87 602.698 L694.542 613.658 L703.95 607.114 L713.358 613.658 L710.03 602.698 L719.166 595.77 L707.71 595.53 L703.95 584.714 Z" fill="#009af9" fill-rule="evenodd" fill-opacity="1" stroke="#000000" stroke-opacity="1" stroke-width="3.2"/>
<path clip-path="url(#clip282)" d="M803.276 644.237 L799.516 655.053 L788.06 655.293 L797.196 662.221 L793.868 673.181 L803.276 666.637 L812.684 673.181 L809.356 662.221 L818.492 655.293 L807.036 655.053 L803.276 644.237 Z" fill="#009af9" fill-rule="evenodd" fill-opacity="1" stroke="#000000" stroke-opacity="1" stroke-width="3.2"/>
<path clip-path="url(#clip282)" d="M902.601 697.436 L898.841 708.252 L887.385 708.492 L896.521 715.42 L893.193 726.38 L902.601 719.836 L912.009 726.38 L908.681 715.42 L917.817 708.492 L906.361 708.252 L902.601 697.436 Z" fill="#009af9" fill-rule="evenodd" fill-opacity="1" stroke="#000000" stroke-opacity="1" stroke-width="3.2"/>
<path clip-path="url(#clip282)" d="M1001.93 746.251 L998.167 757.067 L986.711 757.307 L995.847 764.235 L992.519 775.195 L1001.93 768.651 L1011.34 775.195 L1008.01 764.235 L1017.14 757.307 L1005.69 757.067 L1001.93 746.251 Z" fill="#009af9" fill-rule="evenodd" fill-opacity="1" stroke="#000000" stroke-opacity="1" stroke-width="3.2"/>
<path clip-path="url(#clip282)" d="M1101.25 791.885 L1097.49 802.701 L1086.04 802.941 L1095.17 809.869 L1091.84 820.829 L1101.25 814.285 L1110.66 820.829 L1107.33 809.869 L1116.47 802.941 L1105.01 802.701 L1101.25 791.885 Z" fill="#009af9" fill-rule="evenodd" fill-opacity="1" stroke="#000000" stroke-opacity="1" stroke-width="3.2"/>
<path clip-path="url(#clip282)" d="M1200.58 835.135 L1196.82 845.951 L1185.36 846.191 L1194.5 853.119 L1191.17 864.079 L1200.58 857.535 L1209.99 864.079 L1206.66 853.119 L1215.79 846.191 L1204.34 845.951 L1200.58 835.135 Z" fill="#009af9" fill-rule="evenodd" fill-opacity="1" stroke="#000000" stroke-opacity="1" stroke-width="3.2"/>
<path clip-path="url(#clip282)" d="M1299.9 876.554 L1296.14 887.37 L1284.69 887.61 L1293.82 894.538 L1290.5 905.498 L1299.9 898.954 L1309.31 905.498 L1305.98 894.538 L1315.12 887.61 L1303.66 887.37 L1299.9 876.554 Z" fill="#009af9" fill-rule="evenodd" fill-opacity="1" stroke="#000000" stroke-opacity="1" stroke-width="3.2"/>
<path clip-path="url(#clip282)" d="M1399.23 916.541 L1395.47 927.357 L1384.01 927.597 L1393.15 934.525 L1389.82 945.485 L1399.23 938.941 L1408.64 945.485 L1405.31 934.525 L1414.45 927.597 L1402.99 927.357 L1399.23 916.541 Z" fill="#009af9" fill-rule="evenodd" fill-opacity="1" stroke="#000000" stroke-opacity="1" stroke-width="3.2"/>
<path clip-path="url(#clip282)" d="M1498.56 955.392 L1494.8 966.208 L1483.34 966.448 L1492.48 973.376 L1489.15 984.336 L1498.56 977.792 L1507.96 984.336 L1504.64 973.376 L1513.77 966.448 L1502.32 966.208 L1498.56 955.392 Z" fill="#009af9" fill-rule="evenodd" fill-opacity="1" stroke="#000000" stroke-opacity="1" stroke-width="3.2"/>
<path clip-path="url(#clip282)" d="M1597.88 993.329 L1594.12 1004.14 L1582.66 1004.38 L1591.8 1011.31 L1588.47 1022.27 L1597.88 1015.73 L1607.29 1022.27 L1603.96 1011.31 L1613.1 1004.38 L1601.64 1004.14 L1597.88 993.329 Z" fill="#009af9" fill-rule="evenodd" fill-opacity="1" stroke="#000000" stroke-opacity="1" stroke-width="3.2"/>
<path clip-path="url(#clip282)" d="M1697.21 1030.53 L1693.45 1041.34 L1681.99 1041.58 L1691.13 1048.51 L1687.8 1059.47 L1697.21 1052.93 L1706.61 1059.47 L1703.29 1048.51 L1712.42 1041.58 L1700.97 1041.34 L1697.21 1030.53 Z" fill="#009af9" fill-rule="evenodd" fill-opacity="1" stroke="#000000" stroke-opacity="1" stroke-width="3.2"/>
<path clip-path="url(#clip282)" d="M1796.53 1067.12 L1792.77 1077.94 L1781.32 1078.18 L1790.45 1085.11 L1787.12 1096.07 L1796.53 1089.52 L1805.94 1096.07 L1802.61 1085.11 L1811.75 1078.18 L1800.29 1077.94 L1796.53 1067.12 Z" fill="#009af9" fill-rule="evenodd" fill-opacity="1" stroke="#000000" stroke-opacity="1" stroke-width="3.2"/>
<path clip-path="url(#clip282)" d="M1895.86 1103.22 L1892.1 1114.04 L1880.64 1114.28 L1889.78 1121.2 L1886.45 1132.16 L1895.86 1125.62 L1905.27 1132.16 L1901.94 1121.2 L1911.07 1114.28 L1899.62 1114.04 L1895.86 1103.22 Z" fill="#009af9" fill-rule="evenodd" fill-opacity="1" stroke="#000000" stroke-opacity="1" stroke-width="3.2"/>
<path clip-path="url(#clip282)" d="M1995.18 1138.91 L1991.42 1149.72 L1979.97 1149.96 L1989.1 1156.89 L1985.78 1167.85 L1995.18 1161.31 L2004.59 1167.85 L2001.26 1156.89 L2010.4 1149.96 L1998.94 1149.72 L1995.18 1138.91 Z" fill="#009af9" fill-rule="evenodd" fill-opacity="1" stroke="#000000" stroke-opacity="1" stroke-width="3.2"/>
<path clip-path="url(#clip282)" d="M2094.51 1174.26 L2090.75 1185.07 L2079.29 1185.31 L2088.43 1192.24 L2085.1 1203.2 L2094.51 1196.66 L2103.92 1203.2 L2100.59 1192.24 L2109.73 1185.31 L2098.27 1185.07 L2094.51 1174.26 Z" fill="#009af9" fill-rule="evenodd" fill-opacity="1" stroke="#000000" stroke-opacity="1" stroke-width="3.2"/>
<path clip-path="url(#clip282)" d="M2193.83 1209.32 L2190.07 1220.14 L2178.62 1220.38 L2187.75 1227.31 L2184.43 1238.27 L2193.83 1231.72 L2203.24 1238.27 L2199.91 1227.31 L2209.05 1220.38 L2197.59 1220.14 L2193.83 1209.32 Z" fill="#009af9" fill-rule="evenodd" fill-opacity="1" stroke="#000000" stroke-opacity="1" stroke-width="3.2"/>
<path clip-path="url(#clip282)" d="M2293.16 1244.16 L2289.4 1254.97 L2277.94 1255.21 L2287.08 1262.14 L2283.75 1273.1 L2293.16 1266.56 L2302.57 1273.1 L2299.24 1262.14 L2308.38 1255.21 L2296.92 1254.97 L2293.16 1244.16 Z" fill="#009af9" fill-rule="evenodd" fill-opacity="1" stroke="#000000" stroke-opacity="1" stroke-width="3.2"/>
<polyline clip-path="url(#clip282)" style="stroke:#0000ff; stroke-linecap:round; stroke-linejoin:round; stroke-width:8; stroke-opacity:1; fill:none" stroke-dasharray="32, 16, 4, 16" points="306.648,86.3079 405.973,324.69 505.299,439.58 604.625,520.013 703.95,595.72 803.276,667.308 902.601,731.083 1001.93,788.451 1101.25,843.17 1200.58,896.573 1299.9,947.832 1399.23,1009.23 1498.56,1060.13 1597.88,1107.18 1697.21,1151.87 1796.53,1194.54 1895.86,1235.46 1995.18,1275 2094.51,1313.52 2193.83,1351.29 2293.16,1388.44 "/>
<path clip-path="url(#clip282)" d="M306.648 70.3079 L302.888 81.1239 L291.432 81.3639 L300.568 88.2919 L297.24 99.2519 L306.648 92.7079 L316.056 99.2519 L312.728 88.2919 L321.864 81.3639 L310.408 81.1239 L306.648 70.3079 Z" fill="#e26f46" fill-rule="evenodd" fill-opacity="1" stroke="#000000" stroke-opacity="1" stroke-width="3.2"/>
<path clip-path="url(#clip282)" d="M405.973 308.69 L402.213 319.506 L390.757 319.746 L399.893 326.674 L396.565 337.634 L405.973 331.09 L415.381 337.634 L412.053 326.674 L421.189 319.746 L409.733 319.506 L405.973 308.69 Z" fill="#e26f46" fill-rule="evenodd" fill-opacity="1" stroke="#000000" stroke-opacity="1" stroke-width="3.2"/>
<path clip-path="url(#clip282)" d="M505.299 423.58 L501.539 434.396 L490.083 434.636 L499.219 441.564 L495.891 452.524 L505.299 445.98 L514.707 452.524 L511.379 441.564 L520.515 434.636 L509.059 434.396 L505.299 423.58 Z" fill="#e26f46" fill-rule="evenodd" fill-opacity="1" stroke="#000000" stroke-opacity="1" stroke-width="3.2"/>
<path clip-path="url(#clip282)" d="M604.625 504.013 L600.865 514.829 L589.409 515.069 L598.545 521.997 L595.217 532.957 L604.625 526.413 L614.033 532.957 L610.705 521.997 L619.841 515.069 L608.385 514.829 L604.625 504.013 Z" fill="#e26f46" fill-rule="evenodd" fill-opacity="1" stroke="#000000" stroke-opacity="1" stroke-width="3.2"/>
<path clip-path="url(#clip282)" d="M703.95 579.72 L700.19 590.536 L688.734 590.776 L697.87 597.704 L694.542 608.664 L703.95 602.12 L713.358 608.664 L710.03 597.704 L719.166 590.776 L707.71 590.536 L703.95 579.72 Z" fill="#e26f46" fill-rule="evenodd" fill-opacity="1" stroke="#000000" stroke-opacity="1" stroke-width="3.2"/>
<path clip-path="url(#clip282)" d="M803.276 651.308 L799.516 662.124 L788.06 662.364 L797.196 669.292 L793.868 680.252 L803.276 673.708 L812.684 680.252 L809.356 669.292 L818.492 662.364 L807.036 662.124 L803.276 651.308 Z" fill="#e26f46" fill-rule="evenodd" fill-opacity="1" stroke="#000000" stroke-opacity="1" stroke-width="3.2"/>
<path clip-path="url(#clip282)" d="M902.601 715.083 L898.841 725.899 L887.385 726.139 L896.521 733.067 L893.193 744.027 L902.601 737.483 L912.009 744.027 L908.681 733.067 L917.817 726.139 L906.361 725.899 L902.601 715.083 Z" fill="#e26f46" fill-rule="evenodd" fill-opacity="1" stroke="#000000" stroke-opacity="1" stroke-width="3.2"/>
<path clip-path="url(#clip282)" d="M1001.93 772.451 L998.167 783.267 L986.711 783.507 L995.847 790.435 L992.519 801.395 L1001.93 794.851 L1011.34 801.395 L1008.01 790.435 L1017.14 783.507 L1005.69 783.267 L1001.93 772.451 Z" fill="#e26f46" fill-rule="evenodd" fill-opacity="1" stroke="#000000" stroke-opacity="1" stroke-width="3.2"/>
<path clip-path="url(#clip282)" d="M1101.25 827.17 L1097.49 837.986 L1086.04 838.226 L1095.17 845.154 L1091.84 856.114 L1101.25 849.57 L1110.66 856.114 L1107.33 845.154 L1116.47 838.226 L1105.01 837.986 L1101.25 827.17 Z" fill="#e26f46" fill-rule="evenodd" fill-opacity="1" stroke="#000000" stroke-opacity="1" stroke-width="3.2"/>
<path clip-path="url(#clip282)" d="M1200.58 880.573 L1196.82 891.389 L1185.36 891.629 L1194.5 898.557 L1191.17 909.517 L1200.58 902.973 L1209.99 909.517 L1206.66 898.557 L1215.79 891.629 L1204.34 891.389 L1200.58 880.573 Z" fill="#e26f46" fill-rule="evenodd" fill-opacity="1" stroke="#000000" stroke-opacity="1" stroke-width="3.2"/>
<path clip-path="url(#clip282)" d="M1299.9 931.832 L1296.14 942.648 L1284.69 942.888 L1293.82 949.816 L1290.5 960.776 L1299.9 954.232 L1309.31 960.776 L1305.98 949.816 L1315.12 942.888 L1303.66 942.648 L1299.9 931.832 Z" fill="#e26f46" fill-rule="evenodd" fill-opacity="1" stroke="#000000" stroke-opacity="1" stroke-width="3.2"/>
<path clip-path="url(#clip282)" d="M1399.23 993.229 L1395.47 1004.05 L1384.01 1004.29 L1393.15 1011.21 L1389.82 1022.17 L1399.23 1015.63 L1408.64 1022.17 L1405.31 1011.21 L1414.45 1004.29 L1402.99 1004.05 L1399.23 993.229 Z" fill="#e26f46" fill-rule="evenodd" fill-opacity="1" stroke="#000000" stroke-opacity="1" stroke-width="3.2"/>
<path clip-path="url(#clip282)" d="M1498.56 1044.13 L1494.8 1054.94 L1483.34 1055.18 L1492.48 1062.11 L1489.15 1073.07 L1498.56 1066.53 L1507.96 1073.07 L1504.64 1062.11 L1513.77 1055.18 L1502.32 1054.94 L1498.56 1044.13 Z" fill="#e26f46" fill-rule="evenodd" fill-opacity="1" stroke="#000000" stroke-opacity="1" stroke-width="3.2"/>
<path clip-path="url(#clip282)" d="M1597.88 1091.18 L1594.12 1102 L1582.66 1102.24 L1591.8 1109.16 L1588.47 1120.12 L1597.88 1113.58 L1607.29 1120.12 L1603.96 1109.16 L1613.1 1102.24 L1601.64 1102 L1597.88 1091.18 Z" fill="#e26f46" fill-rule="evenodd" fill-opacity="1" stroke="#000000" stroke-opacity="1" stroke-width="3.2"/>
<path clip-path="url(#clip282)" d="M1697.21 1135.87 L1693.45 1146.69 L1681.99 1146.93 L1691.13 1153.86 L1687.8 1164.82 L1697.21 1158.27 L1706.61 1164.82 L1703.29 1153.86 L1712.42 1146.93 L1700.97 1146.69 L1697.21 1135.87 Z" fill="#e26f46" fill-rule="evenodd" fill-opacity="1" stroke="#000000" stroke-opacity="1" stroke-width="3.2"/>
<path clip-path="url(#clip282)" d="M1796.53 1178.54 L1792.77 1189.36 L1781.32 1189.6 L1790.45 1196.53 L1787.12 1207.49 L1796.53 1200.94 L1805.94 1207.49 L1802.61 1196.53 L1811.75 1189.6 L1800.29 1189.36 L1796.53 1178.54 Z" fill="#e26f46" fill-rule="evenodd" fill-opacity="1" stroke="#000000" stroke-opacity="1" stroke-width="3.2"/>
<path clip-path="url(#clip282)" d="M1895.86 1219.46 L1892.1 1230.27 L1880.64 1230.51 L1889.78 1237.44 L1886.45 1248.4 L1895.86 1241.86 L1905.27 1248.4 L1901.94 1237.44 L1911.07 1230.51 L1899.62 1230.27 L1895.86 1219.46 Z" fill="#e26f46" fill-rule="evenodd" fill-opacity="1" stroke="#000000" stroke-opacity="1" stroke-width="3.2"/>
<path clip-path="url(#clip282)" d="M1995.18 1259 L1991.42 1269.81 L1979.97 1270.05 L1989.1 1276.98 L1985.78 1287.94 L1995.18 1281.4 L2004.59 1287.94 L2001.26 1276.98 L2010.4 1270.05 L1998.94 1269.81 L1995.18 1259 Z" fill="#e26f46" fill-rule="evenodd" fill-opacity="1" stroke="#000000" stroke-opacity="1" stroke-width="3.2"/>
<path clip-path="url(#clip282)" d="M2094.51 1297.52 L2090.75 1308.34 L2079.29 1308.58 L2088.43 1315.5 L2085.1 1326.46 L2094.51 1319.92 L2103.92 1326.46 L2100.59 1315.5 L2109.73 1308.58 L2098.27 1308.34 L2094.51 1297.52 Z" fill="#e26f46" fill-rule="evenodd" fill-opacity="1" stroke="#000000" stroke-opacity="1" stroke-width="3.2"/>
<path clip-path="url(#clip282)" d="M2193.83 1335.29 L2190.07 1346.1 L2178.62 1346.34 L2187.75 1353.27 L2184.43 1364.23 L2193.83 1357.69 L2203.24 1364.23 L2199.91 1353.27 L2209.05 1346.34 L2197.59 1346.1 L2193.83 1335.29 Z" fill="#e26f46" fill-rule="evenodd" fill-opacity="1" stroke="#000000" stroke-opacity="1" stroke-width="3.2"/>
<path clip-path="url(#clip282)" d="M2293.16 1372.44 L2289.4 1383.25 L2277.94 1383.49 L2287.08 1390.42 L2283.75 1401.38 L2293.16 1394.84 L2302.57 1401.38 L2299.24 1390.42 L2308.38 1383.49 L2296.92 1383.25 L2293.16 1372.44 Z" fill="#e26f46" fill-rule="evenodd" fill-opacity="1" stroke="#000000" stroke-opacity="1" stroke-width="3.2"/>
<polyline clip-path="url(#clip282)" style="stroke:#000000; stroke-linecap:round; stroke-linejoin:round; stroke-width:8; stroke-opacity:1; fill:none" points="306.648,86.3079 405.973,324.69 505.299,439.58 604.625,520.013 703.95,595.72 803.276,667.308 902.601,731.083 1001.93,788.451 1101.25,843.17 1200.58,896.573 1299.9,947.832 1399.23,996.295 1498.56,1041.43 1597.88,1082.29 1697.21,1118.72 1796.53,1151.27 1895.86,1180.13 1995.18,1205.26 2094.51,1226.8 2193.83,1244.86 2293.16,1259.75 "/>
<circle clip-path="url(#clip282)" cx="306.648" cy="86.3079" r="14.4" fill="#3da44d" fill-rule="evenodd" fill-opacity="1" stroke="#000000" stroke-opacity="1" stroke-width="3.2"/>
<circle clip-path="url(#clip282)" cx="405.973" cy="324.69" r="14.4" fill="#3da44d" fill-rule="evenodd" fill-opacity="1" stroke="#000000" stroke-opacity="1" stroke-width="3.2"/>
<circle clip-path="url(#clip282)" cx="505.299" cy="439.58" r="14.4" fill="#3da44d" fill-rule="evenodd" fill-opacity="1" stroke="#000000" stroke-opacity="1" stroke-width="3.2"/>
<circle clip-path="url(#clip282)" cx="604.625" cy="520.013" r="14.4" fill="#3da44d" fill-rule="evenodd" fill-opacity="1" stroke="#000000" stroke-opacity="1" stroke-width="3.2"/>
<circle clip-path="url(#clip282)" cx="703.95" cy="595.72" r="14.4" fill="#3da44d" fill-rule="evenodd" fill-opacity="1" stroke="#000000" stroke-opacity="1" stroke-width="3.2"/>
<circle clip-path="url(#clip282)" cx="803.276" cy="667.308" r="14.4" fill="#3da44d" fill-rule="evenodd" fill-opacity="1" stroke="#000000" stroke-opacity="1" stroke-width="3.2"/>
<circle clip-path="url(#clip282)" cx="902.601" cy="731.083" r="14.4" fill="#3da44d" fill-rule="evenodd" fill-opacity="1" stroke="#000000" stroke-opacity="1" stroke-width="3.2"/>
<circle clip-path="url(#clip282)" cx="1001.93" cy="788.451" r="14.4" fill="#3da44d" fill-rule="evenodd" fill-opacity="1" stroke="#000000" stroke-opacity="1" stroke-width="3.2"/>
<circle clip-path="url(#clip282)" cx="1101.25" cy="843.17" r="14.4" fill="#3da44d" fill-rule="evenodd" fill-opacity="1" stroke="#000000" stroke-opacity="1" stroke-width="3.2"/>
<circle clip-path="url(#clip282)" cx="1200.58" cy="896.573" r="14.4" fill="#3da44d" fill-rule="evenodd" fill-opacity="1" stroke="#000000" stroke-opacity="1" stroke-width="3.2"/>
<circle clip-path="url(#clip282)" cx="1299.9" cy="947.832" r="14.4" fill="#3da44d" fill-rule="evenodd" fill-opacity="1" stroke="#000000" stroke-opacity="1" stroke-width="3.2"/>
<circle clip-path="url(#clip282)" cx="1399.23" cy="996.295" r="14.4" fill="#3da44d" fill-rule="evenodd" fill-opacity="1" stroke="#000000" stroke-opacity="1" stroke-width="3.2"/>
<circle clip-path="url(#clip282)" cx="1498.56" cy="1041.43" r="14.4" fill="#3da44d" fill-rule="evenodd" fill-opacity="1" stroke="#000000" stroke-opacity="1" stroke-width="3.2"/>
<circle clip-path="url(#clip282)" cx="1597.88" cy="1082.29" r="14.4" fill="#3da44d" fill-rule="evenodd" fill-opacity="1" stroke="#000000" stroke-opacity="1" stroke-width="3.2"/>
<circle clip-path="url(#clip282)" cx="1697.21" cy="1118.72" r="14.4" fill="#3da44d" fill-rule="evenodd" fill-opacity="1" stroke="#000000" stroke-opacity="1" stroke-width="3.2"/>
<circle clip-path="url(#clip282)" cx="1796.53" cy="1151.27" r="14.4" fill="#3da44d" fill-rule="evenodd" fill-opacity="1" stroke="#000000" stroke-opacity="1" stroke-width="3.2"/>
<circle clip-path="url(#clip282)" cx="1895.86" cy="1180.13" r="14.4" fill="#3da44d" fill-rule="evenodd" fill-opacity="1" stroke="#000000" stroke-opacity="1" stroke-width="3.2"/>
<circle clip-path="url(#clip282)" cx="1995.18" cy="1205.26" r="14.4" fill="#3da44d" fill-rule="evenodd" fill-opacity="1" stroke="#000000" stroke-opacity="1" stroke-width="3.2"/>
<circle clip-path="url(#clip282)" cx="2094.51" cy="1226.8" r="14.4" fill="#3da44d" fill-rule="evenodd" fill-opacity="1" stroke="#000000" stroke-opacity="1" stroke-width="3.2"/>
<circle clip-path="url(#clip282)" cx="2193.83" cy="1244.86" r="14.4" fill="#3da44d" fill-rule="evenodd" fill-opacity="1" stroke="#000000" stroke-opacity="1" stroke-width="3.2"/>
<circle clip-path="url(#clip282)" cx="2293.16" cy="1259.75" r="14.4" fill="#3da44d" fill-rule="evenodd" fill-opacity="1" stroke="#000000" stroke-opacity="1" stroke-width="3.2"/>
<path clip-path="url(#clip280)" d="M1653.93 466.424 L2282.57 466.424 L2282.57 93.2526 L1653.93 93.2526  Z" fill="#ffffff" fill-rule="evenodd" fill-opacity="1"/>
<polyline clip-path="url(#clip280)" style="stroke:#000000; stroke-linecap:round; stroke-linejoin:round; stroke-width:4; stroke-opacity:1; fill:none" points="1653.93,466.424 2282.57,466.424 2282.57,93.2526 1653.93,93.2526 1653.93,466.424 "/>
<polyline clip-path="url(#clip280)" style="stroke:#0000ff; stroke-linecap:round; stroke-linejoin:round; stroke-width:8; stroke-opacity:1; fill:none" points="1677.33,186.545 1817.71,186.545 "/>
<path clip-path="url(#clip280)" d="M1747.52 174.508 L1744.69 182.645 L1736.07 182.826 L1742.95 188.038 L1740.44 196.284 L1747.52 191.361 L1754.6 196.284 L1752.1 188.038 L1758.97 182.826 L1750.35 182.645 L1747.52 174.508 Z" fill="#009af9" fill-rule="evenodd" fill-opacity="1" stroke="#000000" stroke-opacity="1" stroke-width="4.55111"/>
<path clip-path="url(#clip280)" d="M1881.49 162.713 Q1881.49 163.673 1880.67 163.673 Q1878.02 163.767 1876.94 164.657 Q1875.89 165.524 1875.49 167.21 L1868.79 193.935 Q1868.56 194.779 1868.42 194.872 Q1868.28 194.942 1868.02 194.942 Q1867.69 194.942 1867.5 194.779 Q1867.34 194.615 1867.11 194.029 L1855.16 165.782 Q1855.07 165.594 1854.95 165.336 Q1854.83 165.079 1854.74 164.915 L1848.39 190.235 Q1848.2 190.961 1848.2 191.335 Q1848.2 192.249 1848.84 192.834 Q1849.49 193.397 1851.37 193.467 Q1852.33 193.467 1852.33 193.982 Q1852.33 194.942 1851.46 194.942 Q1850.66 194.942 1849 194.872 Q1847.34 194.802 1846.52 194.802 Q1845.72 194.802 1844.11 194.872 Q1842.49 194.942 1841.72 194.942 Q1841.11 194.942 1841.11 194.404 Q1841.11 193.982 1841.27 193.771 Q1841.44 193.537 1841.58 193.514 Q1841.72 193.467 1841.93 193.467 Q1843.33 193.42 1844.29 193.139 Q1845.25 192.858 1845.79 192.319 Q1846.35 191.78 1846.61 191.242 Q1846.89 190.68 1847.1 189.86 L1853.52 164.095 Q1853.52 163.673 1850.27 163.673 Q1849.7 163.673 1849.47 163.65 Q1849.26 163.627 1849.09 163.51 Q1848.93 163.392 1848.93 163.135 Q1848.93 162.479 1849.21 162.338 Q1849.49 162.174 1850.31 162.174 L1856.75 162.174 Q1857.57 162.174 1857.78 162.315 Q1858 162.432 1858.28 163.088 L1868.89 188.127 L1874.25 166.789 Q1874.39 166.367 1874.39 165.782 Q1874.39 164.845 1873.69 164.282 Q1873.01 163.697 1871.14 163.673 Q1870.27 163.673 1870.27 163.135 Q1870.27 162.69 1870.43 162.479 Q1870.62 162.245 1870.76 162.221 Q1870.92 162.174 1871.14 162.174 Q1871.93 162.174 1873.57 162.245 Q1875.21 162.315 1876.03 162.315 Q1876.83 162.315 1878.44 162.245 Q1880.08 162.174 1880.88 162.174 Q1881.16 162.174 1881.3 162.315 Q1881.46 162.432 1881.49 162.573 L1881.49 162.713 Z" fill="#000000" fill-rule="nonzero" fill-opacity="1" /><path clip-path="url(#clip280)" d="M1905.86 162.76 Q1905.86 163.205 1905.67 163.416 Q1905.51 163.603 1905.25 163.65 Q1904.99 163.673 1904.31 163.673 Q1903.16 163.673 1902.44 163.767 Q1901.71 163.837 1901.27 163.955 Q1900.82 164.048 1900.56 164.376 Q1900.33 164.681 1900.21 164.962 Q1900.12 165.243 1899.96 165.875 L1893.54 191.429 Q1893.33 192.179 1893.33 192.553 Q1893.33 192.952 1893.56 193.116 Q1893.8 193.279 1894.55 193.35 Q1895.74 193.467 1896.61 193.467 Q1897.75 193.467 1897.92 193.631 Q1898.03 193.795 1898.03 194.029 Q1898.03 194.451 1897.85 194.685 Q1897.66 194.896 1897.5 194.919 Q1897.36 194.942 1897.07 194.942 L1890.66 194.802 L1884.36 194.942 Q1883.65 194.942 1883.65 194.404 Q1883.65 194.052 1883.7 193.865 Q1883.77 193.654 1884 193.584 Q1884.26 193.49 1884.45 193.49 Q1884.64 193.467 1885.18 193.467 Q1886.14 193.467 1886.77 193.443 Q1887.42 193.397 1887.89 193.279 Q1888.38 193.139 1888.62 193.022 Q1888.88 192.881 1889.06 192.577 Q1889.27 192.249 1889.35 191.991 Q1889.44 191.734 1889.56 191.195 L1896.02 165.336 Q1896.11 164.915 1896.11 164.587 Q1896.11 163.955 1895.36 163.814 Q1894.64 163.673 1892.81 163.673 Q1892.25 163.673 1892.02 163.65 Q1891.8 163.627 1891.62 163.51 Q1891.45 163.392 1891.45 163.135 Q1891.45 162.807 1891.55 162.596 Q1891.64 162.362 1891.8 162.292 Q1891.99 162.221 1892.11 162.198 Q1892.23 162.174 1892.41 162.174 L1898.81 162.315 L1905.13 162.174 Q1905.86 162.174 1905.86 162.76 Z" fill="#000000" fill-rule="nonzero" fill-opacity="1" /><path clip-path="url(#clip280)" d="M1945.24 174.307 Q1945.24 178.172 1943.58 181.966 Q1941.94 185.737 1939.27 188.595 Q1936.62 191.429 1933.04 193.186 Q1929.45 194.942 1925.8 194.942 L1909.92 194.942 Q1909.36 194.942 1909.12 194.919 Q1908.91 194.896 1908.75 194.779 Q1908.58 194.638 1908.58 194.357 Q1908.58 193.912 1908.77 193.724 Q1908.96 193.514 1909.17 193.49 Q1909.38 193.467 1909.92 193.467 Q1911.09 193.467 1911.79 193.397 Q1912.49 193.326 1912.94 193.233 Q1913.41 193.116 1913.64 192.788 Q1913.9 192.46 1914.02 192.179 Q1914.13 191.874 1914.3 191.195 L1920.72 165.43 Q1920.9 164.657 1920.9 164.54 Q1920.9 164.142 1920.67 164.001 Q1920.46 163.837 1919.85 163.767 Q1918.68 163.673 1917.79 163.673 Q1917.2 163.673 1916.97 163.65 Q1916.76 163.627 1916.57 163.51 Q1916.41 163.369 1916.41 163.088 Q1916.41 162.643 1916.59 162.456 Q1916.8 162.245 1917.04 162.221 Q1917.27 162.174 1917.83 162.174 L1933.95 162.174 Q1937.44 162.174 1940.04 163.814 Q1942.64 165.43 1943.93 168.171 Q1945.24 170.888 1945.24 174.307 M1941.05 172.551 Q1941.05 168.077 1938.61 165.875 Q1936.2 163.673 1932.38 163.673 L1927.25 163.673 Q1925.73 163.673 1925.35 163.955 Q1924.98 164.212 1924.65 165.5 L1918.07 191.827 Q1917.83 192.694 1917.83 192.928 Q1917.83 193.186 1917.95 193.279 Q1918.09 193.35 1918.47 193.397 Q1918.89 193.467 1919.52 193.467 L1924.93 193.467 Q1927.02 193.467 1928.91 192.905 Q1930.83 192.319 1932.22 191.406 Q1933.6 190.469 1934.49 189.672 Q1935.38 188.853 1936.01 188.033 Q1937.44 186.182 1938.49 183.77 Q1939.57 181.357 1940.06 179.156 Q1940.58 176.931 1940.81 175.291 Q1941.05 173.628 1941.05 172.551 Z" fill="#000000" fill-rule="nonzero" fill-opacity="1" /><path clip-path="url(#clip280)" d="M1977.51 161.612 L1974.91 172.106 Q1974.77 172.738 1974.65 172.902 Q1974.53 173.066 1974.2 173.066 Q1973.95 173.066 1973.78 172.949 Q1973.64 172.832 1973.64 172.715 L1973.62 172.597 Q1973.62 172.527 1973.66 172.176 Q1973.71 171.801 1973.76 171.192 Q1973.81 170.583 1973.81 169.904 Q1973.81 166.063 1971.93 164.282 Q1970.08 162.479 1966.9 162.479 Q1964.69 162.479 1962.73 163.65 Q1960.76 164.821 1959.63 166.672 Q1958.51 168.499 1958.51 170.419 Q1958.51 172.176 1959.4 173.3 Q1960.29 174.424 1961.44 174.799 L1964.65 175.666 Q1968.02 176.532 1968.98 176.907 Q1969.94 177.259 1970.74 178.055 Q1973.1 180.257 1973.1 183.676 Q1973.1 186.627 1971.44 189.485 Q1969.78 192.319 1966.92 194.17 Q1964.06 195.996 1960.9 195.996 Q1955.35 195.996 1952.8 192.553 L1950.45 195.27 Q1950.01 195.786 1949.87 195.879 Q1949.75 195.996 1949.59 195.996 Q1949.38 195.996 1949.21 195.856 Q1949.05 195.739 1949.05 195.528 Q1949.05 195.364 1950.43 189.86 Q1951.81 184.356 1951.93 184.238 Q1952.12 184.051 1952.42 184.051 Q1952.98 184.051 1952.98 184.59 Q1952.94 184.73 1952.89 184.918 Q1952.61 186.604 1952.61 187.518 Q1952.61 189.227 1953.19 190.539 Q1953.78 191.827 1954.65 192.577 Q1955.54 193.303 1956.73 193.771 Q1957.92 194.216 1958.93 194.38 Q1959.94 194.521 1960.99 194.521 Q1963.26 194.521 1965.28 193.209 Q1967.32 191.898 1968.46 189.86 Q1969.64 187.822 1969.64 185.691 Q1969.64 184.566 1969.33 183.7 Q1969.03 182.81 1968.61 182.318 Q1968.21 181.826 1967.53 181.451 Q1966.85 181.076 1966.38 180.936 Q1965.94 180.772 1965.23 180.608 L1960.1 179.249 Q1958.04 178.64 1956.57 176.884 Q1955.11 175.127 1955.11 172.433 Q1955.11 169.599 1956.78 166.976 Q1958.46 164.329 1961.2 162.737 Q1963.97 161.12 1966.94 161.12 Q1969.28 161.12 1971.09 162.034 Q1972.89 162.924 1973.81 164.587 L1976.12 161.847 Q1976.59 161.308 1976.69 161.214 Q1976.8 161.12 1976.97 161.12 Q1977.25 161.12 1977.37 161.284 Q1977.51 161.448 1977.51 161.612 Z" fill="#000000" fill-rule="nonzero" fill-opacity="1" /><path clip-path="url(#clip280)" d="M2023.13 182.271 Q2023.41 182.552 2023.41 182.95 Q2023.41 183.348 2023.13 183.629 Q2022.85 183.91 2022.45 183.91 L1992.42 183.91 Q1992.02 183.91 1991.74 183.629 Q1991.46 183.348 1991.46 182.95 Q1991.46 182.552 1991.74 182.271 Q1992.02 181.99 1992.42 181.99 L2022.45 181.99 Q2022.85 181.99 2023.13 182.271 Z" fill="#000000" fill-rule="nonzero" fill-opacity="1" /><path clip-path="url(#clip280)" d="M2058.95 144.159 L2058.95 142.66 Q2064.71 142.66 2067.69 139.591 Q2068.51 139.591 2068.65 139.779 Q2068.79 139.966 2068.79 140.833 L2068.79 167.745 Q2068.79 169.174 2069.49 169.619 Q2070.19 170.064 2073.26 170.064 L2074.79 170.064 L2074.79 171.54 Q2073.1 171.399 2067.01 171.399 Q2060.92 171.399 2059.26 171.54 L2059.26 170.064 L2060.78 170.064 Q2063.8 170.064 2064.53 169.642 Q2065.25 169.197 2065.25 167.745 L2065.25 142.894 Q2062.75 144.159 2058.95 144.159 Z" fill="#000000" fill-rule="nonzero" fill-opacity="1" /><path clip-path="url(#clip280)" d="M2051.95 184.34 L2085.76 184.34 L2085.76 181.78 L2051.95 181.78  Z" fill="#000000" fill-rule="evenodd" fill-opacity="1"/>
<path clip-path="url(#clip280)" d="M2075.31 195.419 L2063.19 195.419 L2063.19 194.369 L2075.31 194.369 L2075.31 195.419 Z" fill="#000000" fill-rule="nonzero" fill-opacity="1" /><path clip-path="url(#clip280)" d="M2080.93 221.34 Q2080.93 221.481 2080.74 222.019 L2076.94 232.372 Q2076.73 232.981 2076.52 233.098 Q2076.31 233.192 2075.44 233.192 L2053.24 233.192 Q2052.7 233.192 2052.49 233.168 Q2052.28 233.145 2052.12 233.028 Q2051.95 232.911 2051.95 232.653 Q2051.95 232.185 2052.12 231.974 Q2052.3 231.763 2052.51 231.74 Q2052.72 231.716 2053.24 231.716 Q2054.41 231.716 2055.11 231.646 Q2055.82 231.576 2056.26 231.482 Q2056.73 231.365 2056.96 231.037 Q2057.22 230.709 2057.34 230.428 Q2057.46 230.123 2057.62 229.444 L2064.04 203.68 Q2064.22 202.907 2064.22 202.79 Q2064.22 202.344 2063.94 202.227 Q2063.69 202.087 2062.94 202.017 L2061.11 201.923 Q2060.55 201.923 2060.31 201.899 Q2060.1 201.876 2059.94 201.759 Q2059.77 201.642 2059.77 201.384 Q2059.77 200.939 2059.94 200.728 Q2060.13 200.494 2060.27 200.471 Q2060.43 200.424 2060.69 200.424 L2067.06 200.564 L2074.16 200.424 Q2074.93 200.424 2074.93 201.009 Q2074.93 201.665 2074.6 201.806 Q2074.27 201.923 2073.1 201.923 Q2070.85 201.923 2069.82 202.157 Q2068.82 202.391 2068.53 202.79 Q2068.28 203.164 2068.02 204.171 L2061.53 230.077 Q2061.3 230.943 2061.3 231.178 Q2061.3 231.435 2061.41 231.529 Q2061.55 231.599 2061.93 231.646 Q2062.35 231.716 2062.98 231.716 L2067.48 231.716 Q2068.84 231.716 2070.03 231.505 Q2071.23 231.295 2072.14 230.99 Q2073.08 230.686 2073.92 230.123 Q2074.77 229.561 2075.35 229.069 Q2075.96 228.554 2076.55 227.758 Q2077.15 226.938 2077.51 226.376 Q2077.88 225.79 2078.3 224.853 Q2078.72 223.893 2078.93 223.354 Q2079.17 222.792 2079.52 221.832 Q2079.73 221.34 2079.8 221.2 Q2079.87 221.059 2079.99 220.942 Q2080.13 220.825 2080.34 220.825 Q2080.62 220.825 2080.76 220.989 Q2080.93 221.153 2080.93 221.34 Z" fill="#000000" fill-rule="nonzero" fill-opacity="1" /><polyline clip-path="url(#clip280)" style="stroke:#0000ff; stroke-linecap:round; stroke-linejoin:round; stroke-width:8; stroke-opacity:1; fill:none" stroke-dasharray="32, 16, 4, 16" points="1677.33,279.838 1817.71,279.838 "/>
<path clip-path="url(#clip280)" d="M1747.52 267.8 L1744.69 275.938 L1736.07 276.119 L1742.95 281.331 L1740.44 289.577 L1747.52 284.653 L1754.6 289.577 L1752.1 281.331 L1758.97 276.119 L1750.35 275.938 L1747.52 267.8 Z" fill="#e26f46" fill-rule="evenodd" fill-opacity="1" stroke="#000000" stroke-opacity="1" stroke-width="4.55111"/>
<path clip-path="url(#clip280)" d="M1874.02 291.011 Q1874.02 291.456 1873.83 291.69 Q1873.66 291.901 1873.5 291.948 Q1873.36 291.971 1873.15 291.971 Q1872.54 291.971 1870.43 291.901 Q1868.32 291.831 1867.72 291.831 Q1866.73 291.831 1864.72 291.901 Q1862.7 291.971 1861.72 291.971 Q1861.06 291.971 1861.06 291.432 Q1861.06 291.081 1861.13 290.894 Q1861.2 290.683 1861.39 290.613 Q1861.6 290.519 1861.72 290.519 Q1861.86 290.495 1862.21 290.495 Q1862.68 290.495 1863.17 290.449 Q1863.66 290.378 1864.27 290.238 Q1864.88 290.097 1865.26 289.746 Q1865.65 289.395 1865.65 288.903 Q1865.65 288.692 1865.49 286.959 Q1865.33 285.225 1865.12 283.211 Q1864.9 281.173 1864.88 280.892 L1852.84 280.892 Q1851.74 282.789 1850.97 284.101 Q1850.2 285.413 1849.91 285.858 Q1849.63 286.303 1849.47 286.584 Q1849.31 286.865 1849.21 287.029 Q1848.53 288.27 1848.53 288.809 Q1848.53 290.308 1850.78 290.495 Q1851.55 290.495 1851.55 291.058 Q1851.55 291.479 1851.37 291.713 Q1851.18 291.924 1851.02 291.948 Q1850.87 291.971 1850.64 291.971 Q1849.87 291.971 1848.25 291.901 Q1846.64 291.831 1845.84 291.831 Q1845.16 291.831 1843.75 291.901 Q1842.35 291.971 1841.72 291.971 Q1841.44 291.971 1841.27 291.807 Q1841.11 291.643 1841.11 291.432 Q1841.11 291.104 1841.15 290.917 Q1841.22 290.73 1841.41 290.636 Q1841.6 290.542 1841.69 290.542 Q1841.79 290.519 1842.11 290.495 Q1843.89 290.378 1845.28 289.535 Q1846.68 288.668 1848.02 286.443 L1864.69 258.43 Q1864.86 258.149 1864.98 258.009 Q1865.09 257.868 1865.33 257.751 Q1865.58 257.634 1865.96 257.634 Q1866.54 257.634 1866.66 257.821 Q1866.78 257.985 1866.85 258.781 L1869.78 288.762 Q1869.85 289.395 1869.89 289.652 Q1869.96 289.886 1870.27 290.144 Q1870.6 290.378 1871.18 290.449 Q1871.79 290.495 1872.92 290.495 Q1873.34 290.495 1873.5 290.519 Q1873.66 290.519 1873.83 290.636 Q1874.02 290.753 1874.02 291.011 M1864.74 279.393 L1863.22 263.583 L1853.76 279.393 L1864.74 279.393 Z" fill="#000000" fill-rule="nonzero" fill-opacity="1" /><path clip-path="url(#clip280)" d="M1887.18 259.203 L1880.27 286.935 Q1879.99 288.036 1879.99 289.231 Q1879.99 291.432 1881.45 291.432 Q1882.12 291.432 1882.69 290.987 Q1883.25 290.519 1883.67 289.605 Q1884.12 288.668 1884.4 287.778 Q1884.7 286.888 1885.08 285.506 Q1885.19 284.968 1885.31 284.804 Q1885.43 284.64 1885.75 284.64 Q1886.34 284.64 1886.34 285.108 Q1885.75 287.989 1884.89 289.816 Q1883.62 292.51 1881.28 292.51 Q1879.52 292.51 1878.21 291.292 Q1876.92 290.05 1876.92 288.083 Q1876.92 287.333 1877.16 286.443 L1883.2 262.459 L1883.37 261.522 Q1883.37 261.264 1883.27 261.124 Q1883.18 260.983 1882.62 260.843 Q1882.08 260.702 1881 260.702 Q1880.56 260.702 1880.34 260.679 Q1880.16 260.655 1879.97 260.538 Q1879.81 260.421 1879.81 260.163 Q1879.81 259.742 1879.97 259.508 Q1880.16 259.273 1880.3 259.226 Q1880.44 259.18 1880.72 259.156 Q1881.12 259.133 1882.45 259.016 Q1883.79 258.875 1884.94 258.781 Q1886.08 258.688 1886.57 258.688 Q1886.86 258.688 1887 258.828 Q1887.16 258.945 1887.18 259.086 L1887.18 259.203 Z" fill="#000000" fill-rule="nonzero" fill-opacity="1" /><path clip-path="url(#clip280)" d="M1911.94 273.022 Q1911.94 273.046 1911.8 273.889 L1906.46 295.18 Q1906.18 296.304 1905.38 297.428 Q1904.61 298.576 1903.37 299.56 Q1902.15 300.567 1900.27 301.176 Q1898.42 301.808 1896.29 301.808 Q1892.9 301.808 1891.4 301.082 Q1889.92 300.38 1889.92 298.881 Q1889.92 297.569 1890.74 296.82 Q1891.56 296.093 1892.5 296.093 Q1893.39 296.093 1893.86 296.609 Q1894.32 297.124 1894.32 297.78 Q1894.32 298.506 1893.83 299.232 Q1893.34 299.982 1892.36 300.263 Q1893.93 300.754 1896.2 300.754 Q1901 300.754 1903.06 295.672 Q1903.11 295.602 1903.11 295.578 L1904.7 289.231 L1904.63 289.184 Q1904.23 289.652 1903.6 290.191 Q1902.99 290.706 1901.68 291.339 Q1900.37 291.971 1899.08 291.971 Q1896.39 291.971 1894.53 289.91 Q1892.71 287.825 1892.71 284.382 Q1892.71 281.876 1893.72 279.37 Q1894.75 276.84 1896.34 274.99 Q1897.95 273.116 1900.02 271.945 Q1902.1 270.774 1904.11 270.774 Q1905.52 270.774 1906.71 271.617 Q1907.91 272.437 1908.56 273.795 Q1908.68 272.671 1909.31 272.203 Q1909.97 271.734 1910.53 271.734 Q1911.16 271.734 1911.54 272.085 Q1911.94 272.413 1911.94 273.022 M1908 275.95 Q1908 275.81 1907.91 275.435 Q1907.82 275.037 1907.53 274.404 Q1907.28 273.772 1906.88 273.21 Q1906.48 272.648 1905.75 272.249 Q1905.05 271.828 1904.16 271.828 Q1902.71 271.828 1901.26 273.046 Q1899.8 274.24 1898.8 276.091 Q1897.86 277.871 1896.97 281.314 Q1896.1 284.757 1896.1 286.514 Q1896.1 288.247 1896.85 289.582 Q1897.6 290.917 1899.22 290.917 Q1901.09 290.917 1903.11 289.184 Q1905.19 287.38 1905.54 285.834 L1907.86 276.676 Q1908 276.114 1908 275.95 Z" fill="#000000" fill-rule="nonzero" fill-opacity="1" /><path clip-path="url(#clip280)" d="M1937.13 278.878 Q1937.13 281.431 1936.01 283.961 Q1934.88 286.467 1933.08 288.341 Q1931.3 290.191 1928.96 291.362 Q1926.61 292.51 1924.27 292.51 Q1920.92 292.51 1918.74 290.238 Q1916.59 287.942 1916.59 284.382 Q1916.59 281.056 1918.44 277.894 Q1920.31 274.709 1923.31 272.741 Q1926.31 270.774 1929.45 270.774 Q1932.75 270.774 1934.93 272.999 Q1937.13 275.224 1937.13 278.878 M1933.62 277.004 Q1933.62 274.732 1932.52 273.28 Q1931.42 271.828 1929.4 271.828 Q1928.82 271.828 1928.14 272.015 Q1927.46 272.179 1926.57 272.624 Q1925.7 273.069 1924.72 274.006 Q1923.76 274.92 1922.91 276.231 Q1921.81 277.964 1920.97 281.15 Q1920.15 284.312 1920.15 286.209 Q1920.15 288.832 1921.37 290.144 Q1922.59 291.432 1924.32 291.432 Q1926.01 291.432 1927.79 290.261 Q1929.59 289.067 1930.83 287.029 Q1932.07 284.921 1932.84 281.829 Q1933.62 278.714 1933.62 277.004 Z" fill="#000000" fill-rule="nonzero" fill-opacity="1" /><path clip-path="url(#clip280)" d="M1958.19 273.889 Q1958.19 275.13 1957.37 275.927 Q1956.58 276.723 1955.55 276.723 Q1954.66 276.723 1954.19 276.208 Q1953.72 275.692 1953.72 275.037 Q1953.72 274.1 1954.45 273.327 Q1955.17 272.554 1956.23 272.39 Q1955.45 271.828 1954.21 271.828 Q1952.18 271.828 1950.37 273.397 Q1949.58 274.123 1948.71 275.458 Q1947.84 276.77 1947.68 277.332 L1946.16 283.586 Q1946.02 284.288 1945.15 287.661 Q1944.31 291.011 1944.23 291.151 Q1944 291.807 1943.49 292.158 Q1942.97 292.51 1942.45 292.51 Q1941.87 292.51 1941.47 292.158 Q1941.07 291.807 1941.07 291.198 Q1941.07 291.104 1941.14 290.753 Q1941.21 290.402 1941.33 289.91 Q1941.45 289.418 1941.49 289.137 L1944.28 278.058 Q1944.8 276.044 1944.91 275.411 Q1945.05 274.756 1945.05 274.029 Q1945.05 272.765 1944.66 272.296 Q1944.26 271.828 1943.56 271.828 Q1942.34 271.828 1941.54 273.28 Q1940.74 274.732 1940.07 277.543 Q1939.85 278.316 1939.71 278.48 Q1939.6 278.644 1939.25 278.644 Q1938.66 278.62 1938.66 278.152 Q1938.66 278.035 1938.85 277.285 Q1939.04 276.512 1939.39 275.388 Q1939.76 274.24 1940.16 273.514 Q1940.39 273.022 1940.6 272.694 Q1940.82 272.366 1941.24 271.851 Q1941.66 271.336 1942.29 271.055 Q1942.92 270.774 1943.7 270.774 Q1945.38 270.774 1946.58 271.804 Q1947.8 272.835 1948.08 274.451 Q1948.66 273.608 1949.39 272.882 Q1950.11 272.132 1951.45 271.453 Q1952.78 270.774 1954.21 270.774 Q1955.99 270.774 1957.09 271.687 Q1958.19 272.577 1958.19 273.889 Z" fill="#000000" fill-rule="nonzero" fill-opacity="1" /><path clip-path="url(#clip280)" d="M1971.77 261.99 Q1971.77 263.021 1970.93 263.794 Q1970.11 264.543 1969.22 264.543 Q1968.4 264.543 1967.88 264.052 Q1967.39 263.536 1967.39 262.81 Q1967.39 261.85 1968.21 261.053 Q1969.03 260.257 1969.99 260.257 Q1970.79 260.257 1971.28 260.749 Q1971.77 261.241 1971.77 261.99 M1972.19 285.108 Q1972.19 285.296 1971.98 286.045 Q1971.77 286.771 1971.25 287.896 Q1970.76 288.996 1970.08 290.027 Q1969.4 291.058 1968.28 291.784 Q1967.18 292.51 1965.91 292.51 Q1964.2 292.51 1963.08 291.385 Q1961.98 290.261 1961.98 288.575 Q1961.98 287.661 1963.08 284.734 Q1966.26 276.208 1966.38 275.856 Q1966.92 274.521 1966.92 273.35 Q1966.92 272.811 1966.8 272.484 Q1966.69 272.132 1966.45 272.015 Q1966.22 271.875 1966.08 271.851 Q1965.96 271.828 1965.73 271.828 Q1964.34 271.828 1963.06 273.233 Q1961.77 274.638 1960.88 277.777 Q1960.69 278.363 1960.57 278.503 Q1960.46 278.644 1960.1 278.644 Q1959.52 278.62 1959.52 278.152 Q1959.52 278.011 1959.68 277.473 Q1959.85 276.91 1960.15 276.067 Q1960.46 275.201 1960.99 274.311 Q1961.53 273.397 1962.19 272.601 Q1962.87 271.804 1963.83 271.289 Q1964.79 270.774 1965.87 270.774 Q1967.62 270.774 1968.7 271.921 Q1969.8 273.046 1969.8 274.709 Q1969.8 275.622 1969.17 277.238 Q1968.4 279.346 1968.11 280.026 L1966.24 285.061 Q1965.56 286.888 1965.35 287.451 Q1965.16 287.989 1965 288.645 Q1964.86 289.277 1964.86 289.863 Q1964.86 290.683 1965.12 291.058 Q1965.4 291.432 1966.01 291.432 Q1967.69 291.432 1968.93 289.769 Q1970.18 288.083 1970.9 285.506 Q1970.93 285.436 1970.95 285.319 Q1971.14 284.734 1971.32 284.663 Q1971.42 284.64 1971.6 284.64 Q1972.19 284.64 1972.19 285.108 Z" fill="#000000" fill-rule="nonzero" fill-opacity="1" /><path clip-path="url(#clip280)" d="M1991.01 271.828 Q1991.01 272.484 1990.71 272.648 Q1990.4 272.788 1989.56 272.788 L1985.06 272.788 L1981.5 286.935 Q1981.22 288.177 1981.22 289.231 Q1981.22 290.402 1981.57 290.917 Q1981.95 291.432 1982.72 291.432 Q1984.24 291.432 1985.88 290.05 Q1987.54 288.668 1988.95 285.296 Q1989.14 284.851 1989.23 284.757 Q1989.35 284.64 1989.65 284.64 Q1990.24 284.64 1990.24 285.108 Q1990.24 285.272 1989.91 286.022 Q1989.6 286.771 1988.93 287.872 Q1988.27 288.973 1987.4 290.004 Q1986.56 291.034 1985.27 291.784 Q1983.98 292.51 1982.6 292.51 Q1980.66 292.51 1979.42 291.268 Q1978.2 290.027 1978.2 288.083 Q1978.2 287.451 1978.69 285.436 Q1979.18 283.398 1981.85 272.788 L1977.61 272.788 Q1977.03 272.788 1976.79 272.765 Q1976.58 272.741 1976.42 272.624 Q1976.28 272.484 1976.28 272.203 Q1976.28 271.757 1976.46 271.57 Q1976.65 271.359 1976.89 271.336 Q1977.14 271.289 1977.73 271.289 L1982.23 271.289 L1984.1 263.677 Q1984.29 262.927 1984.76 262.506 Q1985.25 262.061 1985.53 262.014 Q1985.81 261.943 1986.02 261.943 Q1986.65 261.943 1987.03 262.295 Q1987.4 262.623 1987.4 263.232 Q1987.4 263.56 1985.44 271.289 L1989.65 271.289 Q1990.19 271.289 1990.4 271.312 Q1990.64 271.336 1990.82 271.453 Q1991.01 271.57 1991.01 271.828 Z" fill="#000000" fill-rule="nonzero" fill-opacity="1" /><path clip-path="url(#clip280)" d="M2017.09 285.108 Q2017.09 285.296 2016.88 286.022 Q2016.67 286.748 2016.15 287.872 Q2015.66 288.996 2014.98 290.027 Q2014.3 291.034 2013.18 291.784 Q2012.08 292.51 2010.81 292.51 Q2009.13 292.51 2008 291.385 Q2006.88 290.261 2006.88 288.575 Q2006.88 288.341 2006.9 288.106 Q2006.93 287.872 2006.95 287.732 Q2006.97 287.568 2007.04 287.31 Q2007.14 287.029 2007.16 286.912 Q2007.21 286.795 2007.32 286.443 Q2007.46 286.069 2007.51 285.928 Q2010.49 278.339 2010.49 275.177 Q2010.49 271.828 2007.89 271.828 Q2005.57 271.828 2003.27 273.514 Q2002.22 274.357 2001.21 275.856 Q2000.2 277.355 2000.02 277.918 Q1999.81 279.136 1999.5 280.072 Q1999.36 280.728 1998.68 283.281 L1997.63 287.614 L1996.71 291.245 Q1996.53 291.76 1996.01 292.135 Q1995.5 292.51 1994.93 292.51 Q1994.46 292.51 1994 292.182 Q1993.55 291.877 1993.55 291.151 Q1993.55 290.777 1993.74 290.097 L2000.7 262.459 L2000.84 261.522 Q2000.84 261.241 2000.72 261.1 Q2000.62 260.936 2000.06 260.819 Q1999.52 260.702 1998.45 260.702 Q1998 260.702 1997.79 260.679 Q1997.6 260.655 1997.44 260.538 Q1997.28 260.398 1997.28 260.117 Q1997.28 259.718 1997.44 259.508 Q1997.63 259.273 1997.77 259.226 Q1997.91 259.18 1998.19 259.156 Q1998.59 259.133 1999.92 259.016 Q2001.26 258.875 2002.4 258.781 Q2003.55 258.688 2004.04 258.688 Q2004.33 258.688 2004.47 258.828 Q2004.63 258.945 2004.65 259.086 L2004.68 259.203 L2000.93 274.451 Q2003.9 270.774 2008.03 270.774 Q2010.7 270.774 2012.13 272.156 Q2013.55 273.514 2013.55 275.903 Q2013.55 278.644 2010.63 286.443 Q2009.76 288.622 2009.76 289.863 Q2009.76 290.683 2010.02 291.058 Q2010.3 291.432 2010.91 291.432 Q2011.84 291.432 2012.66 290.894 Q2013.51 290.331 2014.09 289.418 Q2014.68 288.481 2015.08 287.544 Q2015.5 286.584 2015.8 285.506 Q2015.99 284.921 2016.08 284.78 Q2016.2 284.64 2016.53 284.64 Q2017.09 284.64 2017.09 285.108 Z" fill="#000000" fill-rule="nonzero" fill-opacity="1" /><path clip-path="url(#clip280)" d="M2058.66 285.108 Q2058.66 285.296 2058.45 286.022 Q2058.24 286.748 2057.73 287.872 Q2057.23 288.996 2056.53 290.027 Q2055.85 291.034 2054.73 291.784 Q2053.63 292.51 2052.36 292.51 Q2050.68 292.51 2049.55 291.385 Q2048.43 290.261 2048.43 288.575 Q2048.43 287.661 2049.06 285.928 Q2052.03 278.011 2052.03 275.177 Q2052.03 271.828 2049.43 271.828 Q2047.96 271.828 2046.62 272.437 Q2045.29 273.046 2044.42 273.889 Q2043.56 274.732 2042.88 275.692 Q2042.2 276.653 2041.89 277.285 Q2041.61 277.918 2041.54 278.199 L2038.66 289.769 Q2038.43 290.753 2038.26 291.222 Q2038.1 291.69 2037.65 292.088 Q2037.21 292.51 2036.51 292.51 Q2035.92 292.51 2035.5 292.158 Q2035.1 291.807 2035.1 291.198 Q2035.1 291.104 2035.22 290.613 Q2035.33 290.121 2035.5 289.441 Q2035.66 288.762 2035.73 288.364 Q2036.58 285.179 2036.69 284.734 L2038.03 279.159 Q2038.75 276.395 2038.75 275.177 Q2038.75 271.828 2036.15 271.828 Q2034.87 271.828 2033.65 272.32 Q2032.45 272.788 2031.63 273.444 Q2030.81 274.1 2030.06 275.013 Q2029.34 275.903 2028.96 276.512 Q2028.61 277.098 2028.33 277.683 L2027.72 280.072 Q2027.58 280.728 2026.9 283.281 L2025.85 287.614 Q2025.1 290.847 2024.93 291.151 Q2024.7 291.807 2024.19 292.158 Q2023.67 292.51 2023.15 292.51 Q2022.57 292.51 2022.17 292.158 Q2021.77 291.807 2021.77 291.198 Q2021.77 291.104 2021.84 290.753 Q2021.91 290.402 2022.03 289.91 Q2022.15 289.418 2022.19 289.137 L2024.98 278.058 Q2025.5 276.044 2025.61 275.411 Q2025.75 274.756 2025.75 274.029 Q2025.75 271.828 2024.26 271.828 Q2023.04 271.828 2022.24 273.28 Q2021.44 274.732 2020.77 277.543 Q2020.55 278.316 2020.41 278.48 Q2020.3 278.644 2019.95 278.644 Q2019.36 278.62 2019.36 278.152 Q2019.36 278.035 2019.55 277.285 Q2019.73 276.536 2020.09 275.411 Q2020.46 274.264 2020.86 273.514 Q2021.09 273.022 2021.3 272.694 Q2021.52 272.366 2021.94 271.851 Q2022.36 271.336 2022.99 271.055 Q2023.62 270.774 2024.4 270.774 Q2026.11 270.774 2027.37 271.875 Q2028.66 272.975 2028.82 274.943 Q2031.94 270.774 2036.29 270.774 Q2038.75 270.774 2040.23 272.015 Q2041.61 273.21 2041.78 275.411 Q2045.01 270.774 2049.6 270.774 Q2052.25 270.774 2053.67 272.156 Q2055.1 273.514 2055.1 275.903 Q2055.1 277.145 2054.47 279.51 Q2053.84 281.853 2053.42 283.024 Q2052.99 284.195 2052.18 286.443 Q2051.31 288.598 2051.31 289.863 Q2051.31 290.683 2051.59 291.058 Q2051.87 291.432 2052.48 291.432 Q2053.42 291.432 2054.24 290.894 Q2055.06 290.331 2055.64 289.418 Q2056.25 288.481 2056.65 287.544 Q2057.05 286.584 2057.35 285.506 Q2057.54 284.921 2057.63 284.78 Q2057.75 284.64 2058.08 284.64 Q2058.66 284.64 2058.66 285.108 Z" fill="#000000" fill-rule="nonzero" fill-opacity="1" /><path clip-path="url(#clip280)" d="M2063.56 264.59 L2063.56 263.091 Q2069.32 263.091 2072.29 260.023 Q2073.11 260.023 2073.25 260.21 Q2073.4 260.398 2073.4 261.264 L2073.4 288.177 Q2073.4 289.605 2074.1 290.05 Q2074.8 290.495 2077.87 290.495 L2079.39 290.495 L2079.39 291.971 Q2077.71 291.831 2071.62 291.831 Q2065.53 291.831 2063.86 291.971 L2063.86 290.495 L2065.38 290.495 Q2068.41 290.495 2069.13 290.074 Q2069.86 289.629 2069.86 288.177 L2069.86 263.325 Q2067.35 264.59 2063.56 264.59 Z" fill="#000000" fill-rule="nonzero" fill-opacity="1" /><polyline clip-path="url(#clip280)" style="stroke:#000000; stroke-linecap:round; stroke-linejoin:round; stroke-width:8; stroke-opacity:1; fill:none" points="1677.33,373.131 1817.71,373.131 "/>
<circle clip-path="url(#clip280)" cx="1747.52" cy="373.131" r="10.834" fill="#3da44d" fill-rule="evenodd" fill-opacity="1" stroke="#000000" stroke-opacity="1" stroke-width="4.55111"/>
<path clip-path="url(#clip280)" d="M1881.49 352.777 Q1881.49 353.737 1880.67 353.737 Q1878.02 353.831 1876.94 354.721 Q1875.89 355.587 1875.49 357.274 L1868.79 383.999 Q1868.56 384.842 1868.42 384.936 Q1868.28 385.006 1868.02 385.006 Q1867.69 385.006 1867.5 384.842 Q1867.34 384.678 1867.11 384.093 L1855.16 355.845 Q1855.07 355.658 1854.95 355.4 Q1854.83 355.142 1854.74 354.978 L1848.39 380.298 Q1848.2 381.024 1848.2 381.399 Q1848.2 382.312 1848.84 382.898 Q1849.49 383.46 1851.37 383.53 Q1852.33 383.53 1852.33 384.046 Q1852.33 385.006 1851.46 385.006 Q1850.66 385.006 1849 384.936 Q1847.34 384.866 1846.52 384.866 Q1845.72 384.866 1844.11 384.936 Q1842.49 385.006 1841.72 385.006 Q1841.11 385.006 1841.11 384.467 Q1841.11 384.046 1841.27 383.835 Q1841.44 383.601 1841.58 383.577 Q1841.72 383.53 1841.93 383.53 Q1843.33 383.484 1844.29 383.203 Q1845.25 382.921 1845.79 382.383 Q1846.35 381.844 1846.61 381.305 Q1846.89 380.743 1847.1 379.923 L1853.52 354.159 Q1853.52 353.737 1850.27 353.737 Q1849.7 353.737 1849.47 353.714 Q1849.26 353.69 1849.09 353.573 Q1848.93 353.456 1848.93 353.198 Q1848.93 352.543 1849.21 352.402 Q1849.49 352.238 1850.31 352.238 L1856.75 352.238 Q1857.57 352.238 1857.78 352.379 Q1858 352.496 1858.28 353.152 L1868.89 378.19 L1874.25 356.852 Q1874.39 356.431 1874.39 355.845 Q1874.39 354.908 1873.69 354.346 Q1873.01 353.761 1871.14 353.737 Q1870.27 353.737 1870.27 353.198 Q1870.27 352.753 1870.43 352.543 Q1870.62 352.308 1870.76 352.285 Q1870.92 352.238 1871.14 352.238 Q1871.93 352.238 1873.57 352.308 Q1875.21 352.379 1876.03 352.379 Q1876.83 352.379 1878.44 352.308 Q1880.08 352.238 1880.88 352.238 Q1881.16 352.238 1881.3 352.379 Q1881.46 352.496 1881.49 352.636 L1881.49 352.777 Z" fill="#000000" fill-rule="nonzero" fill-opacity="1" /><path clip-path="url(#clip280)" d="M1905.86 352.824 Q1905.86 353.269 1905.67 353.479 Q1905.51 353.667 1905.25 353.714 Q1904.99 353.737 1904.31 353.737 Q1903.16 353.737 1902.44 353.831 Q1901.71 353.901 1901.27 354.018 Q1900.82 354.112 1900.56 354.44 Q1900.33 354.744 1900.21 355.025 Q1900.12 355.306 1899.96 355.939 L1893.54 381.493 Q1893.33 382.242 1893.33 382.617 Q1893.33 383.015 1893.56 383.179 Q1893.8 383.343 1894.55 383.413 Q1895.74 383.53 1896.61 383.53 Q1897.75 383.53 1897.92 383.694 Q1898.03 383.858 1898.03 384.093 Q1898.03 384.514 1897.85 384.748 Q1897.66 384.959 1897.5 384.983 Q1897.36 385.006 1897.07 385.006 L1890.66 384.866 L1884.36 385.006 Q1883.65 385.006 1883.65 384.467 Q1883.65 384.116 1883.7 383.929 Q1883.77 383.718 1884 383.648 Q1884.26 383.554 1884.45 383.554 Q1884.64 383.53 1885.18 383.53 Q1886.14 383.53 1886.77 383.507 Q1887.42 383.46 1887.89 383.343 Q1888.38 383.203 1888.62 383.085 Q1888.88 382.945 1889.06 382.64 Q1889.27 382.312 1889.35 382.055 Q1889.44 381.797 1889.56 381.258 L1896.02 355.4 Q1896.11 354.978 1896.11 354.651 Q1896.11 354.018 1895.36 353.878 Q1894.64 353.737 1892.81 353.737 Q1892.25 353.737 1892.02 353.714 Q1891.8 353.69 1891.62 353.573 Q1891.45 353.456 1891.45 353.198 Q1891.45 352.87 1891.55 352.66 Q1891.64 352.425 1891.8 352.355 Q1891.99 352.285 1892.11 352.261 Q1892.23 352.238 1892.41 352.238 L1898.81 352.379 L1905.13 352.238 Q1905.86 352.238 1905.86 352.824 Z" fill="#000000" fill-rule="nonzero" fill-opacity="1" /><path clip-path="url(#clip280)" d="M1945.24 364.371 Q1945.24 368.236 1943.58 372.03 Q1941.94 375.801 1939.27 378.659 Q1936.62 381.493 1933.04 383.249 Q1929.45 385.006 1925.8 385.006 L1909.92 385.006 Q1909.36 385.006 1909.12 384.983 Q1908.91 384.959 1908.75 384.842 Q1908.58 384.702 1908.58 384.42 Q1908.58 383.975 1908.77 383.788 Q1908.96 383.577 1909.17 383.554 Q1909.38 383.53 1909.92 383.53 Q1911.09 383.53 1911.79 383.46 Q1912.49 383.39 1912.94 383.296 Q1913.41 383.179 1913.64 382.851 Q1913.9 382.523 1914.02 382.242 Q1914.13 381.938 1914.3 381.258 L1920.72 355.494 Q1920.9 354.721 1920.9 354.604 Q1920.9 354.206 1920.67 354.065 Q1920.46 353.901 1919.85 353.831 Q1918.68 353.737 1917.79 353.737 Q1917.2 353.737 1916.97 353.714 Q1916.76 353.69 1916.57 353.573 Q1916.41 353.433 1916.41 353.152 Q1916.41 352.707 1916.59 352.519 Q1916.8 352.308 1917.04 352.285 Q1917.27 352.238 1917.83 352.238 L1933.95 352.238 Q1937.44 352.238 1940.04 353.878 Q1942.64 355.494 1943.93 358.234 Q1945.24 360.951 1945.24 364.371 M1941.05 362.614 Q1941.05 358.141 1938.61 355.939 Q1936.2 353.737 1932.38 353.737 L1927.25 353.737 Q1925.73 353.737 1925.35 354.018 Q1924.98 354.276 1924.65 355.564 L1918.07 381.891 Q1917.83 382.758 1917.83 382.992 Q1917.83 383.249 1917.95 383.343 Q1918.09 383.413 1918.47 383.46 Q1918.89 383.53 1919.52 383.53 L1924.93 383.53 Q1927.02 383.53 1928.91 382.968 Q1930.83 382.383 1932.22 381.469 Q1933.6 380.532 1934.49 379.736 Q1935.38 378.916 1936.01 378.096 Q1937.44 376.246 1938.49 373.834 Q1939.57 371.421 1940.06 369.219 Q1940.58 366.994 1940.81 365.355 Q1941.05 363.692 1941.05 362.614 Z" fill="#000000" fill-rule="nonzero" fill-opacity="1" /><path clip-path="url(#clip280)" d="M1977.51 351.676 L1974.91 362.169 Q1974.77 362.802 1974.65 362.966 Q1974.53 363.129 1974.2 363.129 Q1973.95 363.129 1973.78 363.012 Q1973.64 362.895 1973.64 362.778 L1973.62 362.661 Q1973.62 362.591 1973.66 362.239 Q1973.71 361.865 1973.76 361.256 Q1973.81 360.647 1973.81 359.967 Q1973.81 356.126 1971.93 354.346 Q1970.08 352.543 1966.9 352.543 Q1964.69 352.543 1962.73 353.714 Q1960.76 354.885 1959.63 356.735 Q1958.51 358.562 1958.51 360.483 Q1958.51 362.239 1959.4 363.364 Q1960.29 364.488 1961.44 364.863 L1964.65 365.729 Q1968.02 366.596 1968.98 366.971 Q1969.94 367.322 1970.74 368.118 Q1973.1 370.32 1973.1 373.74 Q1973.1 376.691 1971.44 379.549 Q1969.78 382.383 1966.92 384.233 Q1964.06 386.06 1960.9 386.06 Q1955.35 386.06 1952.8 382.617 L1950.45 385.334 Q1950.01 385.849 1949.87 385.943 Q1949.75 386.06 1949.59 386.06 Q1949.38 386.06 1949.21 385.92 Q1949.05 385.802 1949.05 385.592 Q1949.05 385.428 1950.43 379.923 Q1951.81 374.419 1951.93 374.302 Q1952.12 374.115 1952.42 374.115 Q1952.98 374.115 1952.98 374.653 Q1952.94 374.794 1952.89 374.981 Q1952.61 376.668 1952.61 377.581 Q1952.61 379.291 1953.19 380.603 Q1953.78 381.891 1954.65 382.64 Q1955.54 383.366 1956.73 383.835 Q1957.92 384.28 1958.93 384.444 Q1959.94 384.584 1960.99 384.584 Q1963.26 384.584 1965.28 383.273 Q1967.32 381.961 1968.46 379.923 Q1969.64 377.886 1969.64 375.754 Q1969.64 374.63 1969.33 373.763 Q1969.03 372.873 1968.61 372.381 Q1968.21 371.889 1967.53 371.515 Q1966.85 371.14 1966.38 370.999 Q1965.94 370.835 1965.23 370.672 L1960.1 369.313 Q1958.04 368.704 1956.57 366.947 Q1955.11 365.191 1955.11 362.497 Q1955.11 359.663 1956.78 357.04 Q1958.46 354.393 1961.2 352.8 Q1963.97 351.184 1966.94 351.184 Q1969.28 351.184 1971.09 352.098 Q1972.89 352.988 1973.81 354.651 L1976.12 351.91 Q1976.59 351.371 1976.69 351.278 Q1976.8 351.184 1976.97 351.184 Q1977.25 351.184 1977.37 351.348 Q1977.51 351.512 1977.51 351.676 Z" fill="#000000" fill-rule="nonzero" fill-opacity="1" /><path clip-path="url(#clip280)" d="M2023.13 372.335 Q2023.41 372.616 2023.41 373.014 Q2023.41 373.412 2023.13 373.693 Q2022.85 373.974 2022.45 373.974 L1992.42 373.974 Q1992.02 373.974 1991.74 373.693 Q1991.46 373.412 1991.46 373.014 Q1991.46 372.616 1991.74 372.335 Q1992.02 372.053 1992.42 372.053 L2022.45 372.053 Q2022.85 372.053 2023.13 372.335 Z" fill="#000000" fill-rule="nonzero" fill-opacity="1" /><path clip-path="url(#clip280)" d="M2041.71 373.014 Q2041.71 364.91 2044.73 358.375 Q2046.02 355.634 2047.82 353.339 Q2049.63 351.044 2050.82 350.036 Q2052.02 349.029 2052.35 349.029 Q2052.81 349.029 2052.84 349.498 Q2052.84 349.732 2052.2 350.317 Q2044.48 358.187 2044.5 373.014 Q2044.5 387.887 2052.02 395.452 Q2052.84 396.272 2052.84 396.53 Q2052.84 396.998 2052.35 396.998 Q2052.02 396.998 2050.87 396.038 Q2049.72 395.078 2047.94 392.876 Q2046.16 390.674 2044.87 387.981 Q2041.71 381.446 2041.71 373.014 Z" fill="#000000" fill-rule="nonzero" fill-opacity="1" /><path clip-path="url(#clip280)" d="M2078.68 352.824 Q2078.68 353.269 2078.5 353.479 Q2078.33 353.667 2078.07 353.714 Q2077.82 353.737 2077.14 353.737 Q2075.99 353.737 2075.26 353.831 Q2074.54 353.901 2074.09 354.018 Q2073.65 354.112 2073.39 354.44 Q2073.16 354.744 2073.04 355.025 Q2072.95 355.306 2072.78 355.939 L2066.36 381.493 Q2066.15 382.242 2066.15 382.617 Q2066.15 383.015 2066.39 383.179 Q2066.62 383.343 2067.37 383.413 Q2068.57 383.53 2069.43 383.53 Q2070.58 383.53 2070.74 383.694 Q2070.86 383.858 2070.86 384.093 Q2070.86 384.514 2070.67 384.748 Q2070.49 384.959 2070.32 384.983 Q2070.18 385.006 2069.9 385.006 L2063.48 384.866 L2057.18 385.006 Q2056.48 385.006 2056.48 384.467 Q2056.48 384.116 2056.53 383.929 Q2056.6 383.718 2056.83 383.648 Q2057.09 383.554 2057.28 383.554 Q2057.46 383.53 2058 383.53 Q2058.96 383.53 2059.59 383.507 Q2060.25 383.46 2060.72 383.343 Q2061.21 383.203 2061.44 383.085 Q2061.7 382.945 2061.89 382.64 Q2062.1 382.312 2062.17 382.055 Q2062.26 381.797 2062.38 381.258 L2068.85 355.4 Q2068.94 354.978 2068.94 354.651 Q2068.94 354.018 2068.19 353.878 Q2067.46 353.737 2065.64 353.737 Q2065.08 353.737 2064.84 353.714 Q2064.63 353.69 2064.44 353.573 Q2064.28 353.456 2064.28 353.198 Q2064.28 352.87 2064.37 352.66 Q2064.47 352.425 2064.63 352.355 Q2064.82 352.285 2064.93 352.261 Q2065.05 352.238 2065.24 352.238 L2071.63 352.379 L2077.96 352.238 Q2078.68 352.238 2078.68 352.824 Z" fill="#000000" fill-rule="nonzero" fill-opacity="1" /><path clip-path="url(#clip280)" d="M2091.78 373.599 Q2090.68 373.599 2090.68 373.014 Q2090.68 372.428 2091.83 372.428 Q2091.97 372.428 2092.2 372.452 Q2092.46 372.475 2092.51 372.475 L2106.02 372.475 L2106.02 358.913 Q2106.02 358.867 2106 358.656 Q2105.98 358.422 2105.98 358.281 Q2105.98 357.133 2106.54 357.133 Q2107.12 357.133 2107.12 358.281 L2107.12 372.475 L2120.66 372.475 Q2120.71 372.475 2120.94 372.452 Q2121.18 372.428 2121.32 372.428 Q2122.42 372.428 2122.42 373.014 Q2122.44 373.599 2121.27 373.599 Q2121.13 373.599 2120.92 373.576 Q2120.71 373.552 2120.66 373.552 L2107.12 373.552 L2107.12 387.793 Q2107.12 388.894 2106.54 388.894 Q2105.98 388.894 2105.98 387.746 Q2105.98 387.606 2106 387.372 Q2106.02 387.161 2106.02 387.114 L2106.02 373.552 L2092.51 373.552 Q2092.46 373.552 2092.18 373.576 Q2091.92 373.599 2091.78 373.599 Z" fill="#000000" fill-rule="nonzero" fill-opacity="1" /><path clip-path="url(#clip280)" d="M2188.55 352.777 Q2188.55 353.198 2188.39 353.433 Q2188.22 353.643 2188.08 353.667 Q2187.97 353.69 2187.64 353.737 Q2186.56 353.831 2185.72 354.159 Q2184.87 354.487 2184.24 355.119 Q2183.61 355.728 2183.21 356.29 Q2182.81 356.852 2182.27 357.813 L2166.53 385.147 Q2166.37 385.428 2166.25 385.568 Q2166.16 385.732 2165.92 385.896 Q2165.69 386.06 2165.39 386.06 Q2164.96 386.06 2164.82 385.826 Q2164.68 385.592 2164.61 384.819 L2162.86 360.6 L2148.73 385.053 Q2148.47 385.498 2148.36 385.638 Q2148.26 385.802 2148.05 385.92 Q2147.87 386.06 2147.58 386.06 Q2147.26 386.06 2147.09 385.896 Q2146.93 385.756 2146.88 385.545 Q2146.86 385.334 2146.84 384.819 L2144.66 355.494 Q2144.59 354.393 2144.19 354.065 Q2143.81 353.737 2142.13 353.737 Q2141.66 353.737 2141.45 353.714 Q2141.26 353.69 2141.1 353.573 Q2140.93 353.433 2140.93 353.152 Q2140.93 352.238 2141.8 352.238 Q2142.62 352.238 2144.31 352.308 Q2145.99 352.379 2146.84 352.379 Q2147.82 352.379 2149.79 352.308 Q2151.75 352.238 2152.71 352.238 Q2153.39 352.238 2153.39 352.777 Q2153.39 353.222 2153.21 353.456 Q2153.04 353.667 2152.88 353.714 Q2152.71 353.737 2152.39 353.737 Q2151.1 353.761 2150.28 353.924 Q2149.48 354.088 2149.18 354.416 Q2148.87 354.721 2148.8 354.932 Q2148.73 355.119 2148.73 355.447 L2150.56 379.783 L2162.69 358.632 L2162.41 354.932 Q2162.34 354.206 2161.87 353.971 Q2161.4 353.737 2159.88 353.737 Q2159.46 353.737 2159.25 353.714 Q2159.06 353.69 2158.87 353.573 Q2158.71 353.456 2158.71 353.198 Q2158.71 352.753 2158.9 352.543 Q2159.09 352.308 2159.23 352.285 Q2159.39 352.238 2159.62 352.238 Q2160.16 352.238 2162.13 352.308 Q2164.1 352.379 2164.66 352.379 Q2165.62 352.379 2167.59 352.308 Q2169.56 352.238 2170.52 352.238 Q2171.24 352.238 2171.24 352.777 Q2171.24 353.433 2170.96 353.597 Q2170.68 353.737 2169.95 353.737 Q2168.71 353.761 2167.94 353.948 Q2167.19 354.135 2166.91 354.557 Q2166.65 354.955 2166.6 355.213 Q2166.56 355.47 2166.58 355.986 L2168.36 379.783 L2181.31 357.18 Q2181.36 357.087 2181.5 356.829 Q2181.66 356.548 2181.69 356.478 Q2181.73 356.407 2181.8 356.22 Q2181.9 356.032 2181.92 355.915 Q2181.95 355.775 2181.95 355.611 Q2181.95 354.651 2181.08 354.229 Q2180.21 353.784 2179.11 353.737 Q2178.39 353.737 2178.39 353.152 Q2178.39 352.73 2178.57 352.519 Q2178.76 352.285 2178.9 352.261 Q2179.06 352.238 2179.3 352.238 Q2180.1 352.238 2181.78 352.308 Q2183.47 352.379 2184.29 352.379 Q2184.9 352.379 2186.16 352.308 Q2187.43 352.238 2187.99 352.238 Q2188.25 352.238 2188.39 352.425 Q2188.55 352.613 2188.55 352.777 Z" fill="#000000" fill-rule="nonzero" fill-opacity="1" /><path clip-path="url(#clip280)" d="M2193.25 396.53 Q2193.25 396.296 2193.86 395.71 Q2201.59 387.84 2201.59 373.014 Q2201.59 358.141 2194.17 350.622 Q2193.25 349.755 2193.25 349.498 Q2193.25 349.029 2193.72 349.029 Q2194.05 349.029 2195.2 349.99 Q2196.37 350.95 2198.13 353.152 Q2199.91 355.353 2201.22 358.047 Q2204.38 364.582 2204.38 373.014 Q2204.38 381.118 2201.36 387.653 Q2200.07 390.393 2198.27 392.689 Q2196.46 394.984 2195.27 395.991 Q2194.07 396.998 2193.72 396.998 Q2193.25 396.998 2193.25 396.53 Z" fill="#000000" fill-rule="nonzero" fill-opacity="1" /><path clip-path="url(#clip280)" d="M2211.67 396.319 Q2211.67 396.085 2211.86 395.57 L2228.79 350.317 Q2228.79 350.271 2228.91 350.013 Q2229.03 349.755 2229.1 349.591 Q2229.17 349.404 2229.31 349.263 Q2229.47 349.123 2229.66 349.123 Q2230.13 349.123 2230.13 349.708 Q2230.13 349.755 2229.99 350.317 L2213 395.616 Q2212.72 396.436 2212.54 396.67 Q2212.37 396.905 2212.09 396.905 Q2211.67 396.905 2211.67 396.319 Z" fill="#000000" fill-rule="nonzero" fill-opacity="1" /><path clip-path="url(#clip280)" d="M2235.42 385.006 Q2235.42 384.139 2235.49 383.882 Q2235.58 383.624 2235.96 383.226 L2245.16 372.967 Q2250.2 367.299 2250.2 362.357 Q2250.2 359.148 2248.51 356.852 Q2246.85 354.557 2243.78 354.557 Q2241.67 354.557 2239.89 355.845 Q2238.11 357.133 2237.29 359.429 Q2237.43 359.382 2237.93 359.382 Q2239.12 359.382 2239.78 360.131 Q2240.45 360.881 2240.45 361.888 Q2240.45 363.176 2239.61 363.809 Q2238.79 364.418 2237.97 364.418 Q2237.64 364.418 2237.2 364.347 Q2236.78 364.277 2236.1 363.621 Q2235.42 362.942 2235.42 361.748 Q2235.42 358.398 2237.95 355.728 Q2240.5 353.058 2244.39 353.058 Q2248.79 353.058 2251.67 355.681 Q2254.58 358.281 2254.58 362.357 Q2254.58 363.785 2254.13 365.097 Q2253.71 366.385 2253.13 367.392 Q2252.56 368.4 2251.02 370.016 Q2249.47 371.632 2248.23 372.78 Q2246.99 373.927 2244.2 376.363 L2239.12 381.305 L2247.76 381.305 Q2251.98 381.305 2252.31 380.931 Q2252.78 380.251 2253.36 376.668 L2254.58 376.668 L2253.22 385.006 L2235.42 385.006 Z" fill="#000000" fill-rule="nonzero" fill-opacity="1" /></svg>
